<svg width="646" height="506" viewBox="0 0 646 506" fill="none" xmlns="http://www.w3.org/2000/svg">
<g filter="url(#filter0_d_18_9)">
<path d="M54.7715 25.8008L25.1531 71.7979C20.7637 76.8315 8.99539 101.357 6.15632 105.899C3.31725 110.442 5.66495 114.188 7.19369 115.493L43.7149 140.5C44.5637 148.35 25.7936 158.525 29 188.18C32.6814 195.135 29.001 217.081 38.1037 225.98C47.2064 234.878 42.5881 236.084 39.1411 235.574C43.6596 237.439 53.1117 245.005 54.7715 260.356C48.6521 268.783 43.6876 264.79 41.9703 261.74L43.7149 277.876L77.1899 474.608C78.2273 484.202 92.646 502.056 142.022 496.717L180.883 492.515L205.114 489.895C217.915 488.511 234.765 494.631 252.138 492.753L283.684 489.342C296.942 487.908 305.026 498.505 325.142 496.33C345.259 494.155 339.315 494.798 378.322 479.109C385.538 470.564 393.259 468.964 396.217 469.233C407.284 468.918 433.11 467.361 447.879 463.647C466.341 459.003 463.692 495.391 477.916 481.499C489.296 470.386 497.394 470.569 500.021 472.05L526.081 469.232L541.008 474.678C545.79 473.278 587.611 434.639 594.601 424C603.339 410.702 614.529 420.08 625.11 410.995C635.691 401.909 616.218 408.843 639.5 367.5C649.055 350.532 611.171 211.799 594.601 165.5C581.954 129.807 614.457 115.13 612.19 106.993C609.922 98.8553 608.602 86.6446 571.496 25.8007C555.438 9.88922 561.018 10.1682 536.839 0.429115L512.15 3.0985L497.978 4.63092C491.461 7.10032 472.997 15.7147 451.275 30.4169C440.883 41.2468 425.02 22.6865 396.217 25.8007C367.415 28.915 353.021 17.7432 278.5 25.8007C228.21 31.2384 281.907 18.1881 211.5 25.8008C171.268 30.1509 185.373 23.9224 168 25.8008C150.627 27.6793 144.15 13.5184 116 30.4168C95.323 42.8291 98.7078 0.170042 92 30.4169L77.5 25.8008L54.7715 25.8008Z" fill="#7184D7"/>
</g>
<defs>
<filter id="filter0_d_18_9" x="0.823181" y="0.429123" width="644.2" height="505.264" filterUnits="userSpaceOnUse" color-interpolation-filters="sRGB">
<feFlood flood-opacity="0" result="BackgroundImageFix"/>
<feColorMatrix in="SourceAlpha" type="matrix" values="0 0 0 0 0 0 0 0 0 0 0 0 0 0 0 0 0 0 127 0" result="hardAlpha"/>
<feOffset dy="4"/>
<feGaussianBlur stdDeviation="2"/>
<feComposite in2="hardAlpha" operator="out"/>
<feColorMatrix type="matrix" values="0 0 0 0 0 0 0 0 0 0 0 0 0 0 0 0 0 0 0.25 0"/>
<feBlend mode="normal" in2="BackgroundImageFix" result="effect1_dropShadow_18_9"/>
<feBlend mode="normal" in="SourceGraphic" in2="effect1_dropShadow_18_9" result="shape"/>
</filter>
</defs>
</svg>
