<?xml version="1.0" encoding="UTF-8" standalone="no"?>
<svg
   width="799"
   height="596"
   viewBox="0 0 799 596"
   fill="none"
   version="1.1"
   id="svg1"
   sodipodi:docname="ABOULOWER.svg"
   xmlns:inkscape="http://www.inkscape.org/namespaces/inkscape"
   xmlns:sodipodi="http://sodipodi.sourceforge.net/DTD/sodipodi-0.dtd"
   xmlns="http://www.w3.org/2000/svg"
   xmlns:svg="http://www.w3.org/2000/svg">
  <sodipodi:namedview
     id="namedview1"
     pagecolor="#ffffff"
     bordercolor="#000000"
     borderopacity="0.25"
     inkscape:showpageshadow="2"
     inkscape:pageopacity="0.0"
     inkscape:pagecheckerboard="0"
     inkscape:deskcolor="#d1d1d1" />
  <defs
     id="defs1" />
  <path
     d="m 105.56925,137.90179 -32.808801,3.5474 c -4.747,5.7103 -15.00687,18.4203 -18.07002,23.5793 -3.06315,5.159 -0.48799,9.44 1.18248,10.936 l 2.2037,20.381 c 0.96748,8.948 25.12404,27.941 28.77894,61.744 4.0442,7.945 -6.6872,33.735 3.2658,43.924 9.953001,10.189 4.9354,11.536 1.1825,10.936 4.9262,2.15 15.251801,10.823 17.143801,28.321 -6.61,9.566 -12.033401,4.989 -13.918901,1.505 l 1.9887,172.618 36.571201,31.25 c 1.1825,10.936 16.9692,31.358 70.6559,25.553 l 42.254,-4.569 26.347,-2.849 c 13.918,-1.505 32.284,5.562 51.174,3.52 l 34.3,-3.709 c 14.416,-1.559 23.27,10.56 45.143,8.195 21.873,-2.365 15.41,-1.667 57.758,-19.321 7.803,-9.695 16.193,-11.474 19.413,-11.152 12.038,-0.295 42.338,15.301 58.385,11.152 20.059,-5.186 21.441,15.746 36.837,0 12.317,-12.597 30.5,53.108 30.5,0 l 25.581,-6.82 22.919,-4.332 c 5.195,-1.567 80.455,-97.641 88,-109.722 9.431,-15.101 -39.805,-100.209 -28.345,-110.5 11.461,-10.292 -36.751,-36.03 -11.655,-83 -1.989,-18.393 18.286,4.34 0,-48.5 -13.96,-40.735 14.168,-11.626 11.655,-20.91 -2.512,-9.283 -4.017,-23.2023 -44.727,-92.729001 -17.56,-18.2178 -11.487,-17.8686 -37.847,-29.100075 l -26.844,2.902445 -15.41,1.66621 c -7.076,2.77673 -27.115,12.48712 -50.664,29.11492 -11.245,12.28 -27.067,-3.3861 -58.385,0 -31.317,3.3862 -30.25,-8.761 -111.278,0 -54.681,5.9124 -19.957,-22.2219 -96.51,-13.9446 -43.745,4.7299 -32.6,7.3187 -51.49,9.3612 -18.89,2.0424 -33.161,6.0587 -65.5,-10e-5 -25.8709,-4.847 -73.751401,-14.6597 -46.9079,14.639 l 11.5105,35.201101 z"
     fill="#2f408a"
     id="path1" />
  <path
     d="m 124.04514,145.70019 -32.808799,3.5474 c -4.747,5.7103 -15.00687,18.4203 -18.07002,23.5793 -3.06315,5.159 -0.48799,9.44 1.18248,10.93601 l 2.2037,20.38099 c 0.96748,8.94801 14.076064,10.17689 17.730964,43.97989 4.0442,7.94499 -2.348094,29.39589 7.604905,39.58488 9.953,10.18901 17.41033,11.536 13.65743,10.93601 4.9262,2.14999 -2.64701,3.22956 -0.75501,20.72757 -6.61,9.566 5.86541,12.58243 3.97991,9.09843 l 1.9887,172.618 36.5712,31.25 c 1.1825,10.93599 -13.78312,24.63092 39.90358,18.82593 l 42.254,-4.569 26.347,-2.849 c 13.918,-1.50501 32.284,5.562 51.174,3.52 l 34.3,-3.709 c 14.416,-1.559 23.27,10.56 45.143,8.195 21.873,-2.365 15.41,-1.667 57.758,-19.321 7.803,-9.695 16.193,-11.474 19.413,-11.152 12.038,-0.295 42.338,15.301 58.385,11.152 20.059,-5.186 21.441,15.746 36.837,0 12.317,-12.597 30.5,53.108 30.5,0 l 25.581,-6.82 22.919,-4.332 c 5.195,-1.567 62.08296,-83.22585 69.62796,-95.30685 9.431,-15.101 -35.84811,-95.40395 -24.38811,-105.69495 11.461,-10.292 -36.751,-36.03 -11.655,-83 -1.989,-18.393 18.286,4.34 0,-48.5 -13.96,-40.735 14.168,-11.626 11.655,-20.91 -2.512,-9.283 16.16421,1.78396 -24.54579,-67.74274 -17.56,-18.217805 -11.487,-17.868605 -37.847,-29.10008 l -26.844,2.902445 -15.41,1.66621 c -7.076,2.77673 -27.115,12.48712 -50.664,29.114925 -11.245,12.28 -27.067,-3.3861 -58.385,0 -31.317,3.3862 -30.25,-8.760999 -111.278,0 -54.681,5.9124 -21.58416,-26.561011 -98.13716,-18.283706 -43.745,4.729891 -37.4815,2.437207 -56.3715,4.479706 -18.89,2.0424 -26.65234,15.27929 -58.99134,9.2205 -25.8709,-4.847009 -48.76514,-8.893645 -21.92164,20.40506 l -4.85579,15.42758 z"
     fill="#2f408a"
     id="path1-6"
     style="fill:#7184d7;fill-opacity:1"
     sodipodi:nodetypes="ccscccscccccccsccscccscccssccccccccccscsccc" />
  <path
     style="fill:#000000;fill-opacity:1;stroke-opacity:0.391521"
     id="path2"
     d="m 67.590238,233.44137 c 3.713488,-0.72188 7.42248,-1.46944 11.163206,-2.04077 3.243064,-0.47228 6.521315,-0.53715 9.791968,-0.5855 1.642757,-0.0168 3.285605,-0.0163 4.928423,-0.0166 1.603517,-3e-4 1.60309,-2.26801 -4.28e-4,-2.26771 v 0 c -1.653873,3.1e-4 -3.307778,-2.1e-4 -4.96159,0.0168 -3.374112,0.0501 -6.755789,0.12146 -10.101039,0.61129 -3.790619,0.57991 -7.549635,1.33537 -11.312477,2.06872 -1.565333,0.34785 -1.073397,2.56157 0.491937,2.21372 z" />
  <path
     style="fill:#000000;fill-opacity:1;stroke-opacity:0.391521"
     id="path3"
     d="m 68.217734,256.39788 c 4.989132,-4.36652 10.431737,-8.1731 15.755082,-12.11494 3.07807,-2.05911 5.665006,-4.42853 9.527698,-4.2789 2.376198,0.33842 3.112149,1.44534 4.197698,3.34299 0.796274,1.39184 2.764628,0.26574 1.968359,-1.1261 v 0 c -1.505619,-2.6315 -2.93546,-4.09268 -6.122557,-4.48419 -0.563248,-0.003 -1.129311,-0.0648 -1.689745,-0.008 -3.502406,0.35187 -6.399959,2.91295 -9.23098,4.73222 -5.381174,3.98488 -10.882519,7.83359 -15.922578,12.2518 -1.191885,1.07269 0.325137,2.75827 1.517023,1.68558 z" />
  <path
     style="fill:#000000;fill-opacity:1;stroke-opacity:0.391521"
     id="path4"
     d="m 76.153407,269.95289 c 3.27844,-0.82822 6.641136,-1.19234 10.00486,-1.44522 3.286828,-0.17811 6.123669,1.01158 8.820394,2.75402 2.077743,1.51874 3.638641,3.53681 5.256769,5.50354 1.01883,1.23825 2.76998,-0.2026 1.75114,-1.44084 v 0 c -1.768,-2.14862 -3.493568,-4.33669 -5.782705,-5.97095 -3.123359,-1.99411 -6.430884,-3.32286 -10.21599,-3.10708 -3.491622,0.26369 -6.981586,0.6462 -10.38447,1.50653 -1.555641,0.38891 -1.005639,2.58891 0.550002,2.2 z" />
  <path
     style="fill:#000000;fill-opacity:1;stroke-opacity:0.391521"
     id="path5"
     d="m 82.391117,311.41588 c 4.778883,-4.35836 9.845456,-8.40286 15.114021,-12.15201 3.408052,-2.3819 6.349692,-3.34043 9.842902,-0.62278 1.8203,1.41835 2.97022,3.38096 4.05156,5.37268 0.76864,1.40729 2.75885,0.32027 1.99021,-1.08702 v 0 c -1.25316,-2.28211 -2.60468,-4.50942 -4.70946,-6.12073 -0.55572,-0.38449 -1.06488,-0.84699 -1.66714,-1.15347 -3.7205,-1.89327 -7.687018,-0.54286 -10.823306,1.76397 -5.328449,3.79546 -10.457471,7.88289 -15.292089,12.29273 -1.20677,1.05592 0.286532,2.76255 1.493302,1.70663 z" />
  <path
     style="fill:#000000;fill-opacity:1;stroke-opacity:0.391521"
     id="path6"
     d="m 85.001007,337.08431 c 4.078298,-1.3935 8.155059,-1.37922 12.237656,-0.10831 3.486317,0.88281 5.518617,2.71299 8.185997,4.88228 2.28893,1.89984 4.01899,4.42382 5.49552,6.98874 0.48757,1.32179 1.27575,2.4562 2.0897,3.58863 0.93595,1.30203 2.77729,-0.0216 1.84134,-1.32363 v 0 c -0.77245,-1.07446 -1.51055,-2.14018 -1.96827,-3.40081 -1.62622,-2.79728 -3.51586,-5.54387 -6.02843,-7.61306 -2.93528,-2.3817 -5.13754,-4.29203 -8.955314,-5.29154 -4.771588,-1.4251 -8.852521,-1.42826 -13.615314,0.12635 -1.521231,0.50708 -0.804116,2.65843 0.717115,2.15135 z" />
  <path
     style="fill:#000000;fill-opacity:1;stroke-opacity:0.391521"
     id="path7"
     d="m 81.026186,371.00212 c 3.912368,-0.13496 7.703773,-0.65438 11.486409,-1.63933 3.452158,-0.90077 3.8621,-1.16197 6.624233,1.07291 1.885042,1.62249 2.620292,3.94743 3.366982,6.23087 0.50235,1.5228 2.65591,0.81237 2.15356,-0.71043 v 0 c -0.89866,-2.70289 -1.85301,-5.40077 -4.10956,-7.29574 -3.310205,-2.59299 -4.655914,-2.59622 -8.606957,-1.49206 -3.69926,0.96438 -7.311536,1.44156 -11.140314,1.57732 -1.595559,0.15956 -1.369913,2.41602 0.225647,2.25646 z" />
  <path
     style="fill:#000000;fill-opacity:1;stroke-opacity:0.391521"
     id="path8"
     d="m 78.410852,404.95218 c 2.136607,-1.24584 4.209179,-2.59977 6.298766,-3.92246 1.653274,-0.96591 3.260401,-2.20475 5.200563,-2.52 1.02289,-0.1662 1.45337,-0.0557 2.475824,0.0453 2.848669,0.67752 5.242417,2.46094 7.549758,4.18352 1.534127,1.11604 2.687187,2.61589 3.932837,4.02009 1.06488,1.19888 2.76034,-0.3071 1.69546,-1.50597 v 0 c -1.34986,-1.51752 -2.60717,-3.13108 -4.27246,-4.33188 -2.648055,-1.97341 -5.406535,-3.96996 -8.710534,-4.62508 -1.393434,-0.10689 -1.875833,-0.23529 -3.27047,0.027 -2.156028,0.40542 -3.976214,1.67631 -5.813859,2.7909 -2.053049,1.29957 -4.089606,2.62942 -6.187186,3.85623 -1.401726,0.77874 -0.300426,2.76108 1.101301,1.98234 z" />
  <path
     style="fill:#000000;fill-opacity:1;stroke-opacity:0.391521"
     id="path9"
     d="m 83.837189,443.11684 c 1.195682,-2.15563 2.860103,-4.01511 4.66746,-5.67706 0.450865,-0.41459 0.929357,-0.79809 1.394035,-1.19714 1.084075,-0.85577 2.210436,-1.69189 3.466143,-2.28441 0.260559,-0.12295 0.97559,-0.40061 1.327851,-0.41431 0.0943,-0.004 0.17962,0.058 0.269431,0.087 2.259551,1.35653 4.059586,3.3118 5.818791,5.24284 1.0012,1.13373 1.99319,2.27567 3.09499,3.31328 1.16995,1.09657 2.72074,-0.558 1.55078,-1.65457 v 0 c -1.06391,-0.99146 -2.00113,-2.10483 -2.97036,-3.18695 -1.23983,-1.35762 -2.488544,-2.70343 -3.888229,-3.90136 -0.554743,-0.47479 -1.546657,-1.24583 -2.22713,-1.59809 -0.37098,-0.19205 -0.773865,-0.31491 -1.160798,-0.47236 -0.336455,-0.0122 -0.674218,-0.0686 -1.009365,-0.0366 -0.294554,0.0282 -0.580423,0.12192 -0.861145,0.21547 -1.826711,0.6087 -3.389753,1.80694 -4.89064,2.97164 -0.501048,0.43249 -1.016982,0.84832 -1.503145,1.29748 -2.023779,1.86976 -3.883053,3.97346 -5.171946,6.42298 -0.616737,1.48017 1.47654,2.35236 2.093277,0.87219 z" />
  <path
     style="fill:#000000;fill-opacity:1;stroke-opacity:0.391521"
     id="path10"
     d="m 82.855165,498.93942 c 1.013,-2.33228 2.63722,-4.308 4.297903,-6.20244 1.960013,-2.03861 4.596609,-3.14742 7.146223,-4.25401 0.26029,-0.0941 0.505272,-0.25684 0.780872,-0.28213 0.308883,-0.0283 1.619959,0.5397 1.677199,0.56645 0.649755,0.30371 2.017079,1.07637 2.596153,1.45942 0.41739,0.27609 0.806945,0.59211 1.210425,0.88817 1.52197,1.32873 3.12304,2.6572 4.31556,4.30562 0.95058,1.29139 2.77687,-0.0529 1.82629,-1.34432 v 0 c -1.35549,-1.81838 -3.0772,-3.34139 -4.80635,-4.79405 -0.4626,-0.33503 -0.91042,-0.69147 -1.38779,-1.00511 -1.22156,-0.80256 -3.178324,-1.93229 -4.621856,-2.18425 -0.520694,-0.0909 -1.06101,-0.088 -1.585533,-0.0228 -0.320068,0.0398 -0.605661,0.22202 -0.908491,0.33303 -2.858193,1.24259 -5.779225,2.52441 -7.949108,4.8404 -1.90745,2.18242 -3.815661,4.49147 -4.815176,7.25127 -0.314475,1.57237 1.909204,2.01711 2.223679,0.44473 z" />
  <path
     style="fill:#000000;fill-opacity:1;stroke-opacity:0.391521"
     id="path11"
     d="m 109.21483,540.36935 c -0.022,-2.31626 0.0562,-4.66488 0.48059,-6.94879 0.10473,-0.5636 0.26499,-1.11546 0.39748,-1.67319 0.35528,-1.2824 0.8589,-2.515 1.56704,-3.64358 0.2677,-0.42664 0.56774,-0.85808 0.96766,-1.17604 0.12964,-0.10308 0.28585,-0.1674 0.42877,-0.2511 0.52776,-0.18656 1.12456,-0.44979 1.68731,-0.24742 0.24328,0.0875 0.46443,0.22735 0.6986,0.33691 0.96425,0.46413 1.85957,1.0505 2.76162,1.62173 0.26907,0.15311 0.54457,0.29299 0.77846,0.49706 1.2547,0.99849 2.66678,-0.77592 1.41208,-1.77442 v 0 c -0.31038,-0.23828 -0.62553,-0.4641 -0.9777,-0.63876 -0.98669,-0.62424 -1.96788,-1.26226 -3.02479,-1.76491 -0.42951,-0.1959 -0.88931,-0.42934 -1.35412,-0.52617 -1.13049,-0.2355 -2.22421,0.11513 -3.23232,0.60446 -0.26993,0.18932 -0.56088,0.35175 -0.80979,0.56797 -0.51938,0.45116 -0.95632,1.06016 -1.31274,1.63975 -0.80945,1.31628 -1.39125,2.74779 -1.79792,4.23685 -0.14547,0.62779 -0.32006,1.24953 -0.43641,1.88336 -0.44922,2.44724 -0.53391,4.9635 -0.49371,7.44461 0.13317,1.59798 2.39305,1.40966 2.25989,-0.18832 z" />
  <path
     style="fill:#000000;fill-opacity:1;stroke-opacity:0.391521"
     id="path12"
     d="m 137.32135,568.05355 c -0.14265,-1.23643 -0.27476,-2.50747 -0.0635,-3.74635 0.18414,-1.07985 0.44275,-1.56516 0.85049,-2.59227 0.90863,-1.69383 1.76577,-3.91502 3.68487,-4.72654 0.2519,-0.10652 0.52863,-0.14058 0.79294,-0.21088 1.30706,-0.13192 2.57652,0.19215 3.8186,0.55553 1.54096,0.44351 2.16819,-1.73574 0.62722,-2.17925 v 0 c -1.67674,-0.47603 -3.37271,-0.86123 -5.12406,-0.54019 -0.4373,0.14962 -0.89546,0.24834 -1.31189,0.44884 -2.33196,1.12283 -3.51204,3.64467 -4.60115,5.83042 -0.20679,0.54081 -0.4499,1.06909 -0.62037,1.62243 -0.58098,1.88587 -0.57591,3.85145 -0.30701,5.78869 0.17708,1.59371 2.43093,1.34328 2.25385,-0.25043 z" />
  <path
     style="fill:#000000;fill-opacity:1;stroke-opacity:0.391521"
     id="path13"
     d="m 171.47288,582.80543 c 0.0579,-1.73386 -0.17179,-3.45282 -0.0332,-5.18688 0.11708,-1.46533 0.34976,-2.5794 0.60543,-4.02251 0.71801,-2.342 1.81751,-4.59797 3.44624,-6.44745 0.67904,-0.77109 1.00144,-0.99073 1.75887,-1.61353 1.23332,-1.0248 -0.21597,-2.76896 -1.44928,-1.74416 v 0 c -0.9113,0.76381 -1.28149,1.01819 -2.09552,1.96019 -1.85488,2.14646 -3.11252,4.7384 -3.89357,7.45113 -0.28325,1.61328 -0.51489,2.70695 -0.639,4.35301 -0.13244,1.75652 0.0828,3.4947 0.0324,5.2502 0,1.60352 2.26772,1.60352 2.26772,0 z" />
  <path
     style="fill:#000000;fill-opacity:1;stroke-opacity:0.391521"
     id="path14"
     d="m 204.83673,580.42404 c -0.0954,-3.02635 -0.007,-6.10197 0.68286,-9.06422 0.1316,-0.56503 0.32291,-1.11446 0.48437,-1.67169 0.5297,-1.34055 1.13564,-2.90763 2.45562,-3.68458 0.61236,-0.36044 0.96117,-0.33437 1.67386,-0.44278 2.03699,-0.0979 4.06504,0.18218 6.08162,0.43244 1.59131,0.19747 1.87057,-2.05298 0.27926,-2.25045 v 0 c -2.24875,-0.27903 -4.51418,-0.59302 -6.78451,-0.40979 -1.27289,0.273 -1.62366,0.21554 -2.69475,0.92247 -1.66492,1.09885 -2.52349,3.0147 -3.19119,4.80836 -0.17829,0.62914 -0.38855,1.25009 -0.53488,1.88743 -0.7225,3.1467 -0.82248,6.41052 -0.71496,9.62366 0.10667,1.59996 2.36936,1.44912 2.2627,-0.15085 z" />
  <path
     style="fill:#000000;fill-opacity:1;stroke-opacity:0.391521"
     id="path15"
     d="m 228.65297,584.49754 c 0.0469,-1.78956 -0.0892,-3.59109 0.0571,-5.37812 0.066,-0.80603 0.18981,-1.60708 0.32831,-2.40386 0.39773,-2.28803 0.61348,-2.85407 1.23067,-5.07556 1.16298,-3.38761 2.94363,-6.61251 5.66107,-9.0045 0.34627,-0.30479 0.73021,-0.56391 1.09531,-0.84586 1.46175,-0.82845 2.60243,-1.16184 4.17351,-0.50501 0.25304,0.14824 0.40436,0.36923 0.55857,0.60841 0.94703,1.29399 2.777,-0.0453 1.82997,-1.33931 v 0 c -0.44245,-0.57464 -0.89101,-1.08204 -1.57393,-1.38545 -0.25152,-0.0921 -0.49637,-0.20506 -0.75456,-0.27637 -1.99589,-0.55129 -3.91968,0.0365 -5.62947,1.11056 -0.43089,0.33978 -0.88362,0.65357 -1.29268,1.01934 -2.99435,2.67754 -4.97927,6.24331 -6.25332,10.01321 -0.63685,2.30869 -0.88963,2.99997 -1.29283,5.37983 -0.14874,0.87795 -0.27579,1.76112 -0.34765,2.64868 -0.14621,1.80576 -0.0117,3.62573 -0.0578,5.43401 0,1.60352 2.26771,1.60352 2.26771,0 z" />
  <path
     style="fill:#000000;fill-opacity:1;stroke-opacity:0.391521"
     id="path16"
     d="m 269.4959,580.46038 c 0,-0.17284 -0.017,-0.34653 0,-0.51853 0.26323,-2.65616 1.90479,-5.21519 3.20567,-7.46366 1.83761,-2.86975 3.96511,-5.62066 6.62078,-7.78652 0.33785,-0.27555 0.70162,-0.51769 1.05244,-0.77653 0.74189,-0.52978 1.57637,-0.83898 2.43198,-1.1194 1.52028,-0.50993 0.79913,-2.65992 -0.72115,-2.14999 v 0 c -1.07751,0.36785 -2.13039,0.77329 -3.06312,1.44899 -0.40156,0.30006 -0.81726,0.58208 -1.20468,0.90018 -2.83661,2.32909 -5.11922,5.26912 -7.07999,8.34914 -1.612,2.79586 -3.48723,5.7777 -3.50965,9.11632 0,1.60352 2.26772,1.60352 2.26772,0 z" />
  <path
     style="fill:#000000;fill-opacity:1;stroke-opacity:0.391521"
     id="path17"
     d="m 323.12938,578.64963 c 0.0901,-0.28939 0.18432,-0.57753 0.2703,-0.86817 0.15465,-0.52274 0.27989,-1.05444 0.45155,-1.57185 0.74944,-2.25894 1.76219,-4.42442 2.99275,-6.4614 0.48218,-0.79816 1.02628,-1.55723 1.53942,-2.33584 1.4052,-1.88483 2.8903,-3.75377 4.6943,-5.28044 0.6641,-0.562 1.63259,-1.26252 2.50345,-1.52005 0.35949,-0.1063 0.74524,-0.0821 1.11786,-0.12313 1.78295,0.12333 3.38312,0.93024 4.97019,1.67953 1.45065,0.68329 2.41696,-1.36825 0.96631,-2.05153 v 0 c -2.00242,-0.94115 -4.01544,-1.89378 -6.28547,-1.86871 -0.58754,0.10849 -1.19571,0.13687 -1.76264,0.32547 -1.06292,0.35358 -2.24344,1.20786 -3.07349,1.91614 -1.92911,1.64611 -3.52369,3.64939 -5.02561,5.67727 -0.5442,0.83025 -1.12145,1.63975 -1.6326,2.49075 -1.31388,2.18745 -2.38054,4.50521 -3.18411,6.92609 -0.16722,0.50375 -0.28948,1.02134 -0.43927,1.53054 -0.10084,0.34281 -0.20839,0.68361 -0.31258,1.02541 -0.36057,1.56245 1.84908,2.07237 2.20964,0.50992 z" />
  <path
     style="fill:#000000;fill-opacity:1;stroke-opacity:0.391521"
     id="path18"
     d="m 378.10522,585.80913 c -0.4066,-2.01158 -0.84405,-4.04966 -0.84457,-6.11332 -4.2e-4,-1.68396 0.17913,-2.34181 0.45341,-4.00398 0.18821,-0.68544 0.33137,-1.38488 0.56464,-2.05632 0.96657,-2.78215 2.60637,-5.3127 4.56617,-7.49299 0.4508,-0.50151 0.94141,-0.96575 1.41211,-1.44863 1.51459,-1.31824 3.17816,-2.76914 5.22782,-3.12859 0.79743,-0.13985 1.0279,-0.0564 1.78707,0.0422 0.2516,0.0597 0.5032,0.11944 0.7548,0.17915 1.5639,0.35423 2.06485,-1.85747 0.50095,-2.21169 v 0 c -0.34015,-0.0743 -0.68031,-0.14862 -1.02046,-0.22294 -1.1405,-0.0999 -1.48719,-0.20976 -2.65761,0.0363 -2.42679,0.51026 -4.42347,2.10786 -6.21919,3.72545 -0.51059,0.52731 -1.04333,1.03404 -1.53176,1.58195 -2.16847,2.43257 -3.95373,5.24798 -5.0084,8.34562 -0.25453,0.74756 -0.4098,1.52531 -0.6147,2.28796 -0.30757,1.93242 -0.48689,2.5514 -0.47774,4.51431 0.0105,2.24422 0.47847,4.46509 0.945,6.64835 0.48287,1.52909 2.64533,0.84621 2.16246,-0.68288 z" />
  <path
     style="fill:#000000;fill-opacity:1;stroke-opacity:0.391521"
     id="path19"
     d="m 428.05779,580.48695 c 0.0679,-0.29562 0.17597,-0.58482 0.20381,-0.88687 0.0487,-0.52828 -0.083,-2.18124 -0.11395,-2.61019 -0.0458,-0.63368 -0.0777,-1.26872 -0.14536,-1.90043 -0.12606,-1.1763 -0.50022,-3.60878 -0.66858,-4.74253 -0.32814,-2.87735 -1.01213,-6.05692 -0.3507,-8.9434 0.33379,-1.45669 0.6134,-1.67238 1.39037,-2.8988 1.47739,-1.74992 3.11757,-2.83684 5.37158,-3.29477 0.2999,-0.0609 0.6071,-0.0777 0.91065,-0.11655 1.58836,-0.21994 1.27731,-2.46623 -0.31105,-2.24629 v 0 c -0.3992,0.0585 -0.80321,0.0903 -1.19759,0.17538 -2.87383,0.61993 -4.87145,2.03876 -6.71097,4.30362 -0.98391,1.66861 -1.28745,1.87956 -1.70416,3.80393 -0.67159,3.10145 -0.0145,6.46017 0.35876,9.55009 0.43358,2.91772 0.86472,5.83882 0.93889,8.79266 -0.71712,1.43423 1.31119,2.44838 2.0283,1.01415 z" />
  <path
     style="fill:#000000;fill-opacity:1;stroke-opacity:0.391521"
     id="path20"
     d="m 465.8503,564.38655 c 0.6132,-2.03574 0.69409,-4.17871 0.77298,-6.28833 0.0681,-1.82138 0.0827,-3.54365 0.10957,-5.36741 0.13698,-3.24198 0.38315,-6.54772 1.37046,-9.66247 0.43967,-1.38703 0.76163,-1.88251 1.41296,-3.13364 1.15802,-1.80263 2.37036,-2.6496 4.46122,-2.96793 0.54511,-0.067 1.05275,0.0759 1.57375,0.20631 1.55928,0.37405 2.08827,-1.8311 0.52899,-2.20515 v 0 c -0.81794,-0.19026 -1.63019,-0.36291 -2.47707,-0.23776 -0.31376,0.0558 -0.63216,0.0899 -0.94128,0.16739 -2.31332,0.57983 -3.92384,1.99111 -5.16123,3.99801 -0.76057,1.48794 -1.07891,1.96593 -1.59546,3.61528 -1.02934,3.2867 -1.29882,6.76788 -1.43981,10.18668 -0.0266,1.81532 -0.0405,3.47583 -0.10698,5.28742 -0.0378,1.03141 -0.11516,2.68626 -0.25253,3.75963 -0.0965,0.75427 -0.20674,1.14988 -0.37213,1.82791 -0.57563,1.49663 1.54093,2.3107 2.11656,0.81406 z" />
  <path
     style="fill:#000000;fill-opacity:1;stroke-opacity:0.391521"
     id="path21"
     d="m 508.38089,562.25355 c -0.19124,-0.33901 -0.40976,-0.71169 -0.54765,-1.06549 -0.76478,-1.96223 -1.30258,-4.21071 -1.66409,-6.27642 -0.1403,-0.8017 -0.21595,-1.61338 -0.32392,-2.42007 -0.10411,-1.7807 -0.41913,-4.38508 0.78351,-5.93497 0.29304,-0.37767 0.80123,-0.60015 1.20236,-0.81892 0.44551,-0.14008 0.81233,-0.28612 1.28428,-0.31453 0.88741,-0.0534 1.82163,0.36279 2.63137,0.66368 0.54468,0.23091 1.06089,0.5207 1.58217,0.79862 1.41503,0.75428 2.48174,-1.24689 1.06671,-2.00116 v 0 c -0.6127,-0.32653 -1.2208,-0.66458 -1.86563,-0.92562 -2.21381,-0.8082 -3.60778,-1.15167 -5.86928,-0.16335 -0.94322,0.6009 -1.38767,0.75942 -2.05658,1.73973 -1.39798,2.04879 -1.17738,4.93911 -1.00616,7.2605 0.36143,2.64583 0.28619,2.59048 0.91906,5.2089 0.47421,1.96198 0.98357,4.00255 2.12174,5.70085 1.02655,1.23186 2.76866,-0.2199 1.74211,-1.45175 z" />
  <path
     style="fill:#000000;fill-opacity:1;stroke-opacity:0.391521"
     id="path22"
     d="m 541.1014,560.60997 c -0.0333,-0.21366 -0.0852,-0.42524 -0.0997,-0.64099 -0.15734,-2.33897 0.24803,-4.75549 0.93905,-6.98337 0.2367,-0.76311 0.54852,-1.50086 0.82278,-2.25129 0.84985,-2.18067 2.1504,-4.12766 3.79568,-5.78995 0.70845,-0.71578 1.75595,-1.65799 2.78799,-1.95186 0.45009,-0.12817 0.93408,-0.0595 1.40113,-0.0892 3.28473,0.61033 6.41989,1.81378 9.55145,2.94456 1.50825,0.54447 2.27825,-1.58851 0.77,-2.13299 v 0 c -3.45525,-1.24704 -6.91827,-2.63074 -10.59246,-3.06303 -0.73579,0.11505 -1.50127,0.1084 -2.20736,0.34515 -1.2478,0.41836 -2.54324,1.55923 -3.42674,2.46484 -1.82441,1.87007 -3.26165,4.06539 -4.21154,6.49933 -0.29684,0.82429 -0.63458,1.63497 -0.89053,2.47285 -0.77193,2.52694 -1.19533,5.25257 -0.97799,7.89759 0.0229,0.279 0.0922,0.55225 0.13827,0.82837 0.38891,1.55565 2.58892,1.00564 2.20001,-0.55 z" />
  <path
     style="fill:#000000;fill-opacity:1;stroke-opacity:0.391521"
     id="path23"
     d="m 582.56972,576.59555 c 0.0317,-2.24168 -0.60455,-4.42586 -1.12088,-6.58586 -0.9634,-4.03028 -0.41964,-1.71895 -1.40928,-5.98678 -0.57812,-2.65215 -1.20438,-5.30284 -1.56736,-7.99632 -0.14371,-1.06647 -0.28501,-2.04044 -0.08,-3.10141 0.0589,-0.30494 0.21325,-0.58342 0.31987,-0.87513 0.76066,-1.05378 1.94197,-1.40674 3.18654,-1.47922 0.0849,0.0195 0.16989,0.0389 0.25483,0.0584 1.58957,0.211 1.88798,-2.037 0.2984,-2.248 v 0 c -0.24145,-0.0239 -0.4829,-0.0477 -0.72435,-0.0716 -1.62222,0.14079 -3.29406,0.58905 -4.40379,1.88352 -0.30164,0.35185 -0.51269,0.77219 -0.76904,1.15829 -0.14179,0.47537 -0.34352,0.93684 -0.42536,1.4261 -0.20669,1.23559 -0.0622,2.38194 0.10458,3.61294 0.37162,2.74319 1.00679,5.4435 1.5966,8.14476 0.95246,4.10714 0.48495,2.1249 1.4128,6.0017 0.4611,1.92664 1.03727,3.87386 1.06658,5.87033 -0.13316,1.59798 2.12672,1.78631 2.25988,0.18833 z" />
  <path
     style="fill:#000000;fill-opacity:1;stroke-opacity:0.391521"
     id="path24"
     d="m 620.74739,559.22919 c 2.34247,-2.97437 3.45824,-6.66602 4.82034,-10.14393 0.94066,-2.22383 1.89404,-4.46662 3.16693,-6.52675 0.48656,-0.78748 0.70523,-1.0297 1.25301,-1.7274 0.77688,-0.9007 1.38323,-1.15167 2.52311,-1.19526 0.28452,-0.029 0.53055,0.0312 0.79746,0.10978 1.55268,0.40059 2.11919,-1.79523 0.56652,-2.19581 v 0 c -0.48874,-0.11792 -0.97257,-0.22094 -1.48049,-0.17869 -1.85716,0.11127 -2.95186,0.63435 -4.1942,2.06462 -0.64157,0.82604 -0.86305,1.06888 -1.43454,1.99802 -1.32644,2.15654 -2.32864,4.49799 -3.30939,6.82461 -0.26602,0.67942 -0.53645,1.35713 -0.79807,2.03826 -0.99587,2.59272 -1.9025,5.30219 -3.66579,7.49655 -1.01541,1.24105 0.73971,2.67705 1.75511,1.436 z" />
  <path
     style="fill:#000000;fill-opacity:1;stroke-opacity:0.391521"
     id="path25"
     d="m 667.9953,539.81812 c -0.0616,-0.22603 -0.11087,-0.45576 -0.18466,-0.67809 -0.33254,-1.00194 -0.50372,-1.26307 -0.92932,-2.30277 -0.7292,-1.78135 -1.37046,-3.59457 -2.01511,-5.40757 -0.46373,-1.4278 -1.05277,-2.87927 -1.01064,-4.41239 0.0381,-1.38715 0.5816,-2.66713 1.09071,-3.92943 0.6994,-1.5404 1.65222,-2.98599 3.05652,-3.96028 0.1195,-0.0604 0.239,-0.12076 0.3585,-0.18114 1.41355,-0.75708 0.34287,-2.75613 -1.07067,-1.99905 v 0 c -0.20292,0.11231 -0.40585,0.22461 -0.60877,0.33692 -1.77154,1.2963 -2.95348,2.95583 -3.84249,4.96481 -0.64668,1.64282 -1.2326,3.169 -1.24236,4.97174 -0.009,1.72449 0.59404,3.36079 1.13257,4.96864 0.48027,1.35036 0.86083,2.44442 1.37352,3.78678 0.22451,0.58781 0.45581,1.17307 0.69432,1.75534 0.3458,0.84419 0.55072,1.20834 0.82774,2.01357 0.0583,0.16957 0.0976,0.3451 0.14646,0.51765 0.31447,1.57238 2.53815,1.12764 2.22368,-0.44473 z" />
  <path
     style="fill:#000000;fill-opacity:1;stroke-opacity:0.391521"
     id="path26"
     d="m 700.8235,507.43668 c -1.63456,-2.01856 -3.33387,-3.9853 -5.01054,-5.96936 -0.38907,-0.46186 -1.74086,-2.04024 -2.08791,-2.55513 -0.74224,-1.10118 -1.27177,-2.24528 -1.70143,-3.50309 -0.66088,-1.9347 -0.65829,-2.44233 -0.98738,-4.44969 -0.0595,-1.42586 -0.19883,-2.5192 0.0824,-3.92185 0.27728,-1.38318 1.00375,-2.72806 1.86868,-3.82799 0.20496,-0.26064 0.44431,-0.4923 0.66646,-0.73846 0.72123,-0.6271 0.36578,-0.3609 1.05114,-0.8185 1.32012,-0.91024 0.0328,-2.77718 -1.28728,-1.86694 v 0 c -0.97368,0.6859 -0.48213,0.29827 -1.46041,1.18071 -0.27953,0.31948 -0.58143,0.62071 -0.8386,0.95846 -0.68265,0.89653 -1.25928,1.86134 -1.66381,2.91814 -0.86505,2.25991 -0.86361,4.10666 -0.65522,6.49026 0.3751,2.2063 0.38397,2.82233 1.13044,4.94719 0.53403,1.52017 1.12004,2.7148 2.0176,4.04001 0.35944,0.53072 1.71905,2.11886 2.1333,2.6106 1.63242,1.9317 3.28168,3.85032 4.88483,5.80609 0.91955,1.31365 2.77734,0.0132 1.85778,-1.30045 z" />
  <path
     style="fill:#000000;fill-opacity:1;stroke-opacity:0.391521"
     id="path27"
     d="m 735.12261,473.15552 c -0.29609,-0.007 -0.59351,0.009 -0.88825,-0.0198 -0.98649,-0.0967 -2.13343,-0.34421 -3.07745,-0.58282 -2.24641,-0.56781 -4.40348,-1.34566 -6.56901,-2.16052 -2.40393,-1.06404 -4.93118,-1.99156 -7.11585,-3.48782 -1.15274,-0.7895 -1.44948,-1.16655 -2.46253,-2.15291 -0.92194,-1.14872 -1.62641,-1.88069 -2.22817,-3.27476 -0.92934,-2.15296 -1.3461,-4.99364 -1.46002,-7.32632 -0.0323,-0.66117 0.002,-1.32391 0.003,-1.98586 0.203,-1.2518 0.14907,-1.5392 0.66324,-2.62901 0.13402,-0.28407 0.32691,-0.53642 0.49037,-0.80464 0.80585,-1.38631 -1.1547,-2.52596 -1.96055,-1.13964 v 0 c -0.22246,0.3957 -0.4856,0.77115 -0.6674,1.18711 -0.62066,1.42006 -0.56376,1.81584 -0.79338,3.38779 0.002,0.73188 -0.0324,1.46478 0.006,2.19564 0.14781,2.78589 0.6167,5.70476 1.76592,8.26926 0.72023,1.60719 1.52509,2.42952 2.60494,3.7518 1.21559,1.16519 1.48974,1.52923 2.8677,2.46413 2.30561,1.56428 4.95339,2.55709 7.48813,3.66801 3.27928,1.23074 6.88619,2.57829 10.40297,2.8879 0.35563,0.0313 0.71394,0.0105 1.07091,0.0158 1.6004,-0.10003 1.45894,-2.36333 -0.14145,-2.2633 z" />
  <path
     style="fill:#000000;fill-opacity:1;stroke-opacity:0.391521"
     id="path28"
     d="m 749.17469,418.29799 c -0.16446,1.36554 -0.6706,2.65995 -1.13485,3.94464 -0.62673,1.73432 -0.34206,1.01721 -1.11697,2.72092 -0.78255,1.52624 -1.70593,2.97987 -2.85294,4.26027 -0.54861,0.61242 -1.24555,1.3284 -2.02301,1.67472 -0.3631,0.16174 -0.76936,0.20022 -1.15404,0.30033 -0.51477,-0.0214 -1.03406,0.007 -1.54432,-0.0642 -1.62805,-0.22745 -3.04723,-0.69899 -4.60041,-1.23911 -2.24454,-0.78055 -4.42544,-1.70909 -6.59314,-2.67786 -1.87178,-0.98562 -1.00918,-0.47442 -2.60269,-1.50821 -1.34813,-0.86823 -2.57599,1.0383 -1.22787,1.90654 v 0 c 1.80971,1.1581 0.84496,0.59397 2.9059,1.67231 2.24489,1.00169 4.50347,1.96861 6.83049,2.76827 1.65561,0.56894 3.50839,1.17673 5.27031,1.34571 0.73868,0.0708 1.48396,-0.0235 2.22594,-0.0352 0.58878,-0.19809 1.2093,-0.3193 1.76634,-0.59428 0.94089,-0.46446 1.82895,-1.35367 2.5105,-2.12394 1.26675,-1.43167 2.29221,-3.04926 3.1551,-4.75074 0.82395,-1.83057 0.54427,-1.11206 1.18731,-2.89535 0.55061,-1.52694 1.14157,-3.07149 1.26607,-4.70483 0,-1.60352 -2.26772,-1.60352 -2.26772,0 z" />
  <path
     style="fill:#000000;fill-opacity:1;stroke-opacity:0.391521"
     id="path29"
     d="m 733.69646,371.63447 c 1.12438,2.4386 1.5269,5.09904 1.5968,7.76488 0.0183,0.69733 -0.0149,1.39506 -0.0223,2.09259 -0.10246,0.89076 -0.19725,2.47058 -0.60986,3.33469 -0.69403,1.45349 -2.65936,2.84181 -3.98692,3.64009 -0.56591,0.34029 -1.16843,0.61561 -1.75265,0.92341 -2.11042,0.82494 -4.36993,1.15953 -6.60219,0.65047 -1.08839,-0.2482 -1.67214,-0.56652 -2.69011,-1.01704 -0.41199,-0.22287 -0.82398,-0.44574 -1.23597,-0.66861 -1.41243,-0.75915 -2.48603,1.23833 -1.0736,1.99748 v 0 c 0.46759,0.24988 0.93518,0.49977 1.40277,0.74965 1.29539,0.55827 1.88768,0.88883 3.28325,1.18444 2.71042,0.57411 5.44003,0.14273 7.9804,-0.89407 0.65809,-0.35267 1.33809,-0.6672 1.97426,-1.05802 1.98279,-1.2181 3.91983,-2.76351 4.89774,-4.9458 0.46505,-1.03781 0.56273,-2.79359 0.6805,-3.8758 0.006,-0.75245 0.0401,-1.50522 0.0178,-2.25737 -0.0901,-3.04097 -0.58353,-6.09249 -1.94676,-8.83848 -0.86089,-1.35282 -2.77408,-0.13534 -1.91319,1.21749 z" />
  <path
     style="fill:#000000;fill-opacity:1;stroke-opacity:0.391521"
     id="path30"
     d="m 725.3178,339.38146 c -0.23721,0.30456 -0.46467,0.61698 -0.71164,0.91369 -0.7778,0.93445 -1.55806,1.75056 -2.4058,2.6329 -1.59858,1.66385 -3.22811,3.28749 -4.90386,4.87315 -0.51926,0.45853 -1.01526,0.94484 -1.55779,1.37558 -2.05733,1.63342 -4.50413,3.00475 -7.17957,3.19136 -0.71792,0.0501 -1.43843,-0.0507 -2.15764,-0.076 -0.69218,-0.11978 -1.39392,-0.19351 -2.07652,-0.35934 -1.67552,-0.40702 -3.57862,-1.16512 -4.59024,-2.65282 -0.12344,-0.18154 -0.19324,-0.39426 -0.28985,-0.59139 -0.18249,-0.55688 -0.0654,-1.06785 0.13635,-1.59562 0.50803,-1.52091 -1.64286,-2.23937 -2.15089,-0.71846 v 0 c -0.3957,1.27327 -0.47771,2.11428 0.0239,3.4003 0.56331,0.97428 0.6175,1.23664 1.51746,2.02599 2.0402,1.78944 4.75972,2.42588 7.37678,2.75844 0.87916,0.012 1.76159,0.1129 2.63746,0.0361 3.84604,-0.33722 7.11899,-2.61231 9.86961,-5.14735 1.70596,-1.61589 3.36711,-3.26821 4.99436,-4.96381 0.9614,-1.00178 1.67573,-1.75126 2.54689,-2.79758 0.22379,-0.26878 0.42851,-0.55288 0.64277,-0.82932 1.04356,-1.21748 -0.67822,-2.69329 -1.72178,-1.47581 z" />
  <path
     style="fill:#000000;fill-opacity:1;stroke-opacity:0.391521"
     id="path31"
     d="m 694.32311,287.27929 c 1.29087,1.2058 3.06855,1.72909 4.77717,2.01891 0.65367,0.11087 1.31364,0.21779 1.97663,0.22158 0.77359,0.004 1.54162,-0.13138 2.31244,-0.19707 2.66766,-0.36762 5.14823,-1.39222 7.59664,-2.45605 1.47037,-0.63975 0.56562,-2.71917 -0.90475,-2.07942 v 0 c -2.22834,0.97094 -4.48147,1.92271 -6.90703,2.27798 -0.61792,0.0666 -1.23227,0.1959 -1.85377,0.19996 -0.57321,0.004 -1.14455,-0.0861 -1.71057,-0.1767 -1.21986,-0.19534 -2.52965,-0.52419 -3.54465,-1.26095 -1.02655,-1.23186 -2.76865,0.2199 -1.74211,1.45176 z" />
  <path
     style="fill:#000000;fill-opacity:1;stroke-opacity:0.391521"
     id="path32"
     d="m 708.06714,313.18418 c 2.27793,1.39471 5.01155,2.06483 7.65517,2.30434 0.58267,0.0528 1.16931,0.0429 1.75397,0.0644 2.69855,-0.0137 4.63785,-1.03655 6.77515,-2.54041 1.30833,-0.92711 -0.003,-2.77737 -1.31113,-1.85026 v 0 c -1.2181,0.87045 -2.54153,1.73774 -4.04494,2.01861 -0.44167,0.0825 -0.89586,0.0704 -1.34379,0.10559 -0.50629,-0.0148 -1.01422,-8.9e-4 -1.51886,-0.0443 -2.26411,-0.1948 -4.57993,-0.73496 -6.57333,-1.848 -1.26574,-0.98447 -2.65798,0.80556 -1.39224,1.79003 z" />
  <path
     style="fill:#000000;fill-opacity:1;stroke-opacity:0.391521"
     id="path33"
     d="m 690.66332,245.39719 c 2.15614,1.96662 4.45052,3.86052 7.04363,5.23105 0.63892,0.33768 1.31517,0.59942 1.97275,0.89912 1.89487,0.68521 3.79455,0.8777 5.76978,0.4491 1.56952,-0.34057 2.85161,-1.0548 4.20165,-1.87469 1.17863,-0.81851 0.62191,-0.36984 1.67052,-1.34557 1.16036,-1.10673 -0.40478,-2.74772 -1.56514,-1.641 v 0 c -0.74137,0.73331 -0.31872,0.37268 -1.29142,1.05373 -0.31329,0.19467 -0.61645,0.40669 -0.93989,0.58401 -1.61213,0.8838 -3.42018,1.42707 -5.27273,1.13269 -0.55766,-0.0886 -1.09318,-0.28344 -1.63976,-0.42516 -0.57879,-0.25839 -1.17491,-0.48102 -1.73637,-0.77518 -2.4351,-1.27584 -4.58342,-3.05529 -6.6095,-4.89161 -1.13386,-1.13386 -2.73738,0.46966 -1.60352,1.60351 z" />
  <path
     style="fill:#000000;fill-opacity:1;stroke-opacity:0.391521"
     id="path34"
     d="m 699.87993,220.63331 c 2.19047,-0.30828 4.41399,-0.28995 6.62097,-0.3645 2.97152,-0.11524 5.94908,-0.53002 8.69399,-1.73098 0.48243,-0.21107 0.94138,-0.47219 1.41207,-0.70829 1.70147,-0.96022 2.9931,-2.38473 4.12746,-3.94288 0.9406,-1.29867 -0.896,-2.62887 -1.8366,-1.3302 v 0 c -0.91491,1.27146 -1.946,2.4474 -3.31534,3.24997 -0.39938,0.2045 -0.78817,0.43115 -1.19814,0.61349 -2.50892,1.11588 -5.23935,1.47522 -7.96002,1.58247 -2.36486,0.0799 -4.75332,0.0486 -7.09439,0.43091 -1.55565,0.38891 -1.00564,2.58892 0.55,2.20001 z" />
  <path
     style="fill:#000000;fill-opacity:1;stroke-opacity:0.391521"
     id="path35"
     d="m 693.14624,178.72672 c 2.74207,0.81995 5.47177,1.67886 8.2425,2.40071 2.50769,0.40923 5.07972,0.44603 7.53248,-0.29537 1.197,-0.36182 1.70818,-0.67241 2.78718,-1.21588 0.82521,-0.41367 1.5644,-0.94891 2.27288,-1.53296 1.23026,-1.02846 -0.22421,-2.76831 -1.45447,-1.73985 v 0 c -0.56911,0.48527 -1.17716,0.91083 -1.84671,1.25163 -0.87012,0.44799 -1.33116,0.72789 -2.28933,1.03226 -2.08636,0.66273 -4.28692,0.62083 -6.43087,0.30556 -2.76259,-0.71822 -5.48253,-1.57919 -8.21699,-2.39391 -1.54701,-0.42192 -2.14369,1.76589 -0.59667,2.18781 z" />
  <path
     style="fill:#000000;fill-opacity:1;stroke-opacity:0.391521"
     id="path36"
     d="m 707.07689,162.8705 c 2.0395,0.83587 4.4861,1.7003 6.72064,1.47348 0.70098,-0.0712 1.38031,-0.28368 2.07046,-0.42552 2.27566,-0.79982 4.4272,-1.96499 6.29179,-3.50169 0.30106,-0.24812 0.57817,-0.52394 0.86726,-0.78591 1.18437,-1.08097 -0.34436,-2.75594 -1.52874,-1.67496 v 0 c -1.8068,1.66324 -3.80517,2.89517 -6.11918,3.74816 -0.51477,0.12417 -1.01879,0.30749 -1.54432,0.37251 -1.90757,0.236 -3.85944,-0.52869 -5.61527,-1.16487 -1.38508,-0.80797 -2.52772,1.15084 -1.14264,1.9588 z" />
  <path
     style="fill:#000000;fill-opacity:1;stroke-opacity:0.391521"
     id="path37"
     d="m 693.11811,130.87021 c 1.53542,-0.003 3.05774,0.22885 4.58699,-0.0338 0.53054,-0.0912 1.04642,-0.25325 1.56963,-0.37987 1.55473,-0.5451 3.01603,-1.3306 4.24442,-2.44102 1.14462,-1.0347 2.06105,-2.29265 2.96516,-3.53146 0.94363,-1.29646 -0.88985,-2.63096 -1.83348,-1.33449 v 0 c -0.77484,1.06775 -1.5585,2.17679 -2.52973,3.08045 -0.97808,0.91004 -2.14964,1.56251 -3.39496,2.02616 -1.03102,0.26646 -1.35813,0.41289 -2.4026,0.45597 -1.06626,0.044 -2.13781,-0.16151 -3.20543,-0.10961 -1.60352,0 -1.60352,2.26772 0,2.26772 z" />
  <path
     style="fill:#000000;fill-opacity:1;stroke-opacity:0.391521"
     id="path38"
     d="m 682.0974,111.67399 c 2.12648,1.13579 4.5194,1.474 6.90602,1.38646 0.7802,-0.0286 1.55609,-0.12941 2.33413,-0.19412 4.20477,-0.71781 8.13113,-2.48171 11.71438,-4.76026 0.55615,-0.35365 1.08894,-0.74277 1.63342,-1.11415 1.32374,-0.90497 0.0439,-2.77703 -1.27983,-1.87206 v 0 c -0.50587,0.34668 -1.00071,0.71003 -1.51762,1.04004 -3.28849,2.09943 -6.88701,3.74755 -10.74295,4.44691 -1.51033,0.13218 -2.50094,0.2818 -3.99931,0.18418 -1.40438,-0.0915 -2.78853,-0.49993 -4.03409,-1.1453 -1.43423,-0.71712 -2.44838,1.31119 -1.01415,2.0283 z" />
  <path
     style="fill:#000000;fill-opacity:1;stroke-opacity:0.391521"
     id="path39"
     d="m 673.68118,97.210833 c 1.55325,-0.968439 2.99407,-1.998587 4.33815,-3.258404 0.54952,-0.515065 1.06361,-1.066662 1.59542,-1.599993 2.23144,-2.317002 4.18169,-4.876706 6.00229,-7.522294 0.90857,-1.321275 -0.95999,-2.606189 -1.86856,-1.284914 v 0 c -1.7415,2.534554 -3.6078,4.986557 -5.74151,7.207964 -1.18198,1.191437 -1.5949,1.676058 -2.86572,2.70848 -0.31415,0.255211 -1.46661,1.060813 -1.87884,1.329056 -0.22788,0.14828 -0.47151,0.271968 -0.69536,0.426256 -0.17181,0.118417 -0.32626,0.260221 -0.48939,0.390331 -1.13385,1.133858 0.46966,2.737376 1.60352,1.603518 z" />
  <path
     style="fill:#000000;fill-opacity:1;stroke-opacity:0.391521"
     id="path40"
     d="m 668.03463,83.646683 c 2.20641,-0.715648 3.97014,-2.286414 5.61912,-3.856626 0.89698,-0.985356 1.98822,-1.886325 2.59142,-3.102993 0.0822,-0.165766 0.13816,-0.343282 0.20724,-0.514923 0.55976,-1.502642 -1.56529,-2.29427 -2.12506,-0.791629 v 0 c -0.30165,1.04018 -1.57557,1.969331 -2.23976,2.769517 -1.3849,1.326733 -2.85604,2.693614 -4.70458,3.324576 -1.53589,0.460767 -0.88427,2.632846 0.65162,2.172078 z" />
  <path
     style="fill:#000000;fill-opacity:1;stroke-opacity:0.391521"
     id="path41"
     d="m 652.33113,52.748728 c -0.35744,2.036679 -0.90752,4.037287 -1.43704,6.035194 -0.42495,1.583068 -1.1033,3.04841 -2.01268,4.40555 -0.12071,0.149127 -0.23112,0.356263 -0.43996,0.383412 -1.41057,0.762606 -0.33208,2.75745 1.07849,1.994844 v 0 c 0.49734,-0.299404 0.93476,-0.617767 1.24982,-1.122605 1.05012,-1.589042 1.81925,-3.232036 2.31636,-5.080225 0.55816,-2.105964 1.13995,-4.21539 1.49886,-6.365742 0.17708,-1.593711 -2.07677,-1.844138 -2.25385,-0.250428 z" />
  <path
     style="fill:#000000;fill-opacity:1;stroke-opacity:0.391521"
     id="path42"
     d="m 625.85079,43.942805 c 0.14726,0.182665 0.31327,0.351683 0.44178,0.547994 0.35819,0.547198 0.55236,1.141441 0.73533,1.768257 0.45299,1.551834 0.65075,2.957855 0.81931,4.557443 0.009,0.51988 0.0289,1.039696 0.0259,1.559639 -0.005,0.816633 -0.0672,2.459812 -0.12081,3.292527 -0.0657,1.020137 -0.16404,1.997084 -0.42879,2.982698 -0.12714,-0.201777 -0.10876,0.558485 -0.30761,0.522446 -0.0745,-0.01351 0.0508,-0.142744 0.0736,-0.214971 -1.57905,0.27901 -1.18447,2.512134 0.39458,2.233125 v 0 c 0.24697,-0.06856 0.51179,-0.09079 0.74091,-0.205667 0.72555,-0.363771 1.03964,-1.050105 1.29487,-1.770434 0.0761,-0.30593 0.17031,-0.607906 0.2282,-0.917789 0.13289,-0.711326 0.2251,-1.829106 0.26937,-2.520913 0.11077,-1.73113 0.15839,-3.469872 0.0844,-5.203529 -0.2889,-2.630781 -0.66429,-5.812581 -2.39331,-7.931276 -0.91955,-1.313653 -2.77734,-0.0132 -1.85778,1.30045 z" />
  <path
     style="fill:#000000;fill-opacity:1;stroke-opacity:0.391521"
     id="path43"
     d="m 597.09201,48.218277 c 0.46634,-0.186712 0.93097,-0.384442 1.42417,-0.49072 0.11765,-0.02535 0.26249,-0.126759 0.3572,-0.05251 0.0754,0.05908 -0.2327,0.03966 -0.25471,0.132856 -0.0249,0.10536 0.10407,0.189867 0.1561,0.2848 0.43969,0.785768 0.8467,1.6051 1.06505,2.483651 0.0403,0.162271 0.29294,1.508456 0.30482,1.571074 0.10069,0.838688 0.32593,1.673366 0.36912,2.519607 0.0381,0.745963 -0.0942,1.52374 -0.17199,2.262983 -0.13177,0.772739 -0.23289,1.554268 -0.44518,2.310858 -0.1432,0.510375 -0.0374,0.391211 -0.31158,0.585125 -0.95385,1.288967 0.86903,2.637917 1.82288,1.34895 v 0 c 0.16077,-0.249539 0.35105,-0.482367 0.4823,-0.748617 0.10237,-0.20765 0.15125,-0.437957 0.21268,-0.661169 0.23434,-0.851483 0.35259,-1.729105 0.49427,-2.598789 0.0962,-0.921513 0.21677,-1.851901 0.16678,-2.780941 -0.0481,-0.893838 -0.28282,-1.775389 -0.3914,-2.661181 -0.0733,-0.385381 -0.26553,-1.433554 -0.36624,-1.817976 -0.30948,-1.181329 -0.8576,-2.293116 -1.52686,-3.309139 -0.26039,-0.261163 -0.46309,-0.596835 -0.78116,-0.783488 -0.36005,-0.211289 -0.7819,-0.313308 -1.19464,-0.375972 -0.19848,-0.03013 -0.39753,0.0593 -0.59312,0.104545 -0.60649,0.140311 -1.18317,0.375396 -1.75687,0.611601 -1.45979,0.66354 -0.5214,2.727993 0.93838,2.064453 z" />
  <path
     style="fill:#000000;fill-opacity:1;stroke-opacity:0.391521"
     id="path44"
     d="m 576.86247,54.475507 c 0.65886,-0.289513 1.47861,-0.87184 2.19939,-0.918267 0.0274,0.01031 0.10651,0.01472 0.0821,0.03092 -0.008,0.0051 -0.30827,0.01491 -0.32024,0.04257 -0.13555,0.313232 -0.0353,0.682005 -0.0351,1.02331 -0.10104,2.401088 -0.0101,4.803663 -0.0397,7.205094 -0.0988,0.887876 0.11475,1.92876 -0.32067,2.757289 -0.008,-0.0036 -0.016,-0.0073 -0.0241,-0.01094 -0.93127,1.305373 0.9148,2.622392 1.84608,1.317018 v 0 c 0.0873,-0.137291 0.17464,-0.274582 0.26196,-0.411873 0.46398,-1.158071 0.50391,-2.387725 0.50426,-3.624478 0.0278,-2.415541 -0.0594,-4.832027 0.0398,-7.247215 -0.007,-0.622671 0.0367,-1.323275 -0.16147,-1.931959 -0.31541,-0.969021 -1.24427,-1.455747 -2.21353,-1.38529 -0.19955,0.04066 -0.40249,0.06725 -0.59865,0.121977 -0.7841,0.218753 -1.50679,0.653031 -2.23431,1.003535 -1.43423,0.717115 -0.42008,2.745422 1.01415,2.028307 z" />
  <path
     style="fill:#000000;fill-opacity:1;stroke-opacity:0.391521"
     id="path45"
     d="m 555.63109,63.902119 c 0.71142,-0.284099 1.39395,-0.703811 2.1592,-0.825831 0.0817,-0.0056 0.16446,-0.03064 0.24524,-0.01689 0.0238,0.0041 -0.0287,0.04826 -0.0528,0.04964 -0.0983,0.0056 -0.33352,-0.136525 -0.29546,0.102944 0.0394,0.247938 0.12577,0.486115 0.18504,0.73007 0.0912,0.375639 0.17767,0.752435 0.26651,1.128653 0.48722,2.503728 0.80866,5.049252 0.89028,7.599721 0.009,0.773532 0.008,1.546217 -0.062,2.317055 -0.0288,0.315423 -0.0145,0.777747 -0.22687,1.041891 -0.67914,1.452596 1.37514,2.413047 2.05428,0.960451 v 0 c 0.0884,-0.216488 0.1971,-0.425752 0.26516,-0.649463 0.0852,-0.279971 0.14476,-0.907314 0.16894,-1.185219 0.0741,-0.851958 0.0802,-1.705639 0.0669,-2.560362 -0.0935,-2.700621 -0.42223,-5.396413 -0.94997,-8.046309 -0.41982,-1.770367 -0.58836,-4.027279 -2.99961,-3.695941 -0.91322,0.199101 -1.76345,0.570039 -2.60817,0.96523 -1.47387,0.631657 -0.58057,2.716017 0.8933,2.08436 z" />
  <path
     style="fill:#000000;fill-opacity:1;stroke-opacity:0.391521"
     id="path46"
     d="m 532.26105,76.319996 c 0.0111,1.982373 -0.0101,3.964954 -0.0178,5.947369 -0.0166,2.114709 0.0291,4.247851 -0.2819,6.347064 -0.13656,0.921867 -0.25495,1.244706 -0.49872,2.107448 -0.35654,0.782171 -0.70212,1.612802 -1.31113,2.240214 -0.22093,0.227606 -0.17538,0.270671 -0.24977,0.148023 -1.44774,0.689432 -0.47274,2.736846 0.975,2.047415 v 0 c 0.19523,-0.11152 0.40441,-0.201559 0.58569,-0.33456 1.06869,-0.784072 1.67547,-2.334476 2.1847,-3.492353 0.28939,-1.050865 0.4055,-1.35582 0.56951,-2.479008 0.31761,-2.175208 0.27935,-4.384314 0.29431,-6.575413 0.008,-2.060445 0.0405,-4.121729 0.007,-6.181846 -0.15955,-1.595559 -2.41601,-1.369913 -2.25646,0.225647 z" />
  <path
     style="fill:#000000;fill-opacity:1;stroke-opacity:0.391521"
     id="path47"
     d="m 546.77587,69.805914 c 0.67174,1.726577 1.27703,3.473318 2.04465,5.160743 0.70489,1.323018 0.5798,2.039405 0.0606,3.37612 -0.30909,0.439576 -0.14263,0.203107 -0.49951,0.70932 -0.91915,1.313936 0.93904,2.613813 1.85819,1.299877 v 0 c 0.511,-0.735012 0.25129,-0.332199 0.76608,-1.216755 0.65943,-1.818286 0.84008,-3.330179 -0.122,-5.109402 -0.72805,-1.592549 -1.28907,-3.245758 -1.93591,-4.871526 -0.46077,-1.535892 -2.63285,-0.884268 -2.17208,0.651623 z" />
  <path
     style="fill:#000000;fill-opacity:1;stroke-opacity:0.391521"
     id="path48"
     d="m 516.12977,80.617932 c -0.0851,1.810731 0.15861,3.649771 -0.0833,5.452652 -0.0408,0.304073 -0.12446,0.60084 -0.18669,0.901259 -0.32667,1.024414 -0.90421,1.932165 -1.81321,2.522155 -1.32016,0.910192 -0.033,2.777179 1.28721,1.866987 v 0 c 1.40388,-0.998423 2.27577,-2.281416 2.75075,-3.949786 0.0746,-0.392373 0.17319,-0.780935 0.22376,-1.177119 0.23732,-1.859278 0.0125,-3.749622 0.0892,-5.616148 0,-1.603517 -2.26771,-1.603517 -2.26771,0 z" />
  <path
     style="fill:#000000;fill-opacity:1;stroke-opacity:0.391521"
     id="path49"
     d="m 489.4944,72.995276 c 0.2807,1.745959 0.92103,3.413277 1.20282,5.160948 0.29435,1.82558 0.21536,2.356397 0.21207,4.226015 -0.0831,1.982087 -0.50171,3.901089 -1.17576,5.760437 -0.289,0.797213 -0.61567,1.58754 -1.05499,2.315963 -0.13747,0.227944 -0.31088,0.432182 -0.46632,0.648272 -0.21265,0.193236 -0.45306,0.578433 -0.7806,0.616283 -1.464,0.654215 -0.5388,2.724612 0.92519,2.070398 v 0 c 0.7439,-0.377449 1.18645,-0.704983 1.71252,-1.385276 0.20715,-0.301321 0.43568,-0.589006 0.62143,-0.903964 0.48478,-0.821985 0.88262,-1.770188 1.20009,-2.662741 0.74262,-2.087781 1.20204,-4.241422 1.28616,-6.462186 -0.003,-0.810234 0.0361,-1.621751 -0.01,-2.430702 -0.13992,-2.476907 -0.86115,-4.751743 -1.41315,-7.141771 -0.13317,-1.597978 -2.39305,-1.409655 -2.25988,0.188324 z" />
  <path
     style="fill:#000000;fill-opacity:1;stroke-opacity:0.391521"
     id="path50"
     d="m 498.91309,78.39297 c 0.94515,1.07668 1.78582,2.287206 2.46939,3.546282 0.19305,0.355584 0.34986,0.72968 0.52479,1.09452 0.54926,1.288353 0.93736,2.633673 1.20575,4.00557 0.3129,1.572694 2.53703,1.130193 2.22413,-0.442501 v 0 c -0.31458,-1.559343 -0.74905,-3.091703 -1.38938,-4.552468 -0.21006,-0.429146 -0.40181,-0.867753 -0.63018,-1.287439 -0.19625,-0.36065 -0.42533,-0.70246 -0.64231,-1.051034 -0.64107,-1.029881 -1.32351,-2.031325 -2.15867,-2.916448 -1.13386,-1.133858 -2.73738,0.469659 -1.60352,1.603518 z" />
  <path
     style="fill:#000000;fill-opacity:1;stroke-opacity:0.391521"
     id="path51"
     d="m 450.47848,75.366344 c 0.31655,0.925457 0.94639,1.711957 1.24367,2.644425 0.10903,0.342003 0.17827,0.69544 0.26741,1.04316 0.44313,2.228112 0.33303,4.550133 -0.14014,6.767879 -0.22597,1.05916 -0.56602,1.912981 -0.92692,2.921813 -0.40002,0.779982 -0.72171,1.931534 -1.45936,2.502478 -0.0142,0.01099 -0.0198,-0.04494 -0.004,-0.05373 0.1175,-0.06592 0.24922,-0.102466 0.37382,-0.153699 -1.60351,0.0055 -1.59572,2.273207 0.008,2.267703 v 0 c 0.25358,-0.05168 0.52061,-0.05852 0.76074,-0.155028 1.14511,-0.460239 2.01039,-2.645848 2.45786,-3.648161 0.4362,-1.234117 0.75805,-2.027324 1.03223,-3.341059 0.52722,-2.526216 0.61506,-5.16323 0.089,-7.693277 -0.12292,-0.446359 -0.22196,-0.899993 -0.36876,-1.339075 -0.3127,-0.935236 -0.91425,-1.731973 -1.2489,-2.656725 -0.63166,-1.473865 -2.71602,-0.580568 -2.08436,0.893298 z" />
  <path
     style="fill:#000000;fill-opacity:1;stroke-opacity:0.391521"
     id="path52"
     d="m 467.96518,76.774501 c 0.0654,0.19568 0.11623,0.396833 0.19615,0.587041 0.27297,0.649717 0.62807,1.262612 0.90614,1.910163 0.59624,1.388461 0.9947,2.84052 1.41936,4.287276 0.37892,1.835824 1.26597,3.922535 0.9342,5.832311 -0.0257,0.147805 -0.0905,0.286048 -0.13583,0.429073 -0.19539,0.487345 -0.32381,0.569926 -0.75309,0.789024 -1.37792,0.820131 -0.21808,2.7688 1.15984,1.948669 v 0 c 0.9847,-0.621654 1.37921,-1.039751 1.78378,-2.151054 0.069,-0.283735 0.16471,-0.562282 0.20704,-0.851205 0.32964,-2.24978 -0.52965,-4.481926 -1.02016,-6.635982 -0.29618,-1.007406 -0.65064,-2.267951 -1.00534,-3.260199 -0.35606,-0.996088 -0.58647,-1.479162 -1.02969,-2.393537 -0.10261,-0.21168 -0.22372,-0.414503 -0.31775,-0.630128 -0.0645,-0.147953 -0.10456,-0.305418 -0.15683,-0.458128 -0.42192,-1.547015 -2.60973,-0.95034 -2.18782,0.596676 z" />
  <path
     style="fill:#000000;fill-opacity:1;stroke-opacity:0.391521"
     id="path53"
     d="m 411.13943,70.864141 c 0.19491,1.083102 0.64482,2.092151 0.77752,3.191434 0.13657,1.131404 0.0819,1.881712 0.0655,3.043771 -0.16052,2.252546 -0.56726,4.483579 -1.43541,6.576641 -0.38094,0.918436 -0.53186,1.116067 -1.00804,1.920501 -0.47387,0.738583 -0.92578,1.306458 -1.80408,1.467481 -1.56374,0.354965 -1.06174,2.566421 0.50199,2.211456 v 0 c 1.58524,-0.390173 2.37871,-1.168346 3.2591,-2.533237 0.56065,-0.966482 0.73703,-1.201256 1.18221,-2.291204 0.95316,-2.333646 1.4065,-4.817518 1.57179,-7.325054 0.0162,-1.680123 0.0321,-3.090493 -0.35378,-4.734071 -0.11657,-0.496543 -0.2722,-1.059898 -0.48911,-1.527718 0,-1.603518 -2.26771,-1.603518 -2.26771,0 z" />
  <path
     style="fill:#000000;fill-opacity:1;stroke-opacity:0.391521"
     id="path54"
     d="m 429.6113,72.794898 c 0.98219,2.739636 1.76243,5.547647 2.42717,8.379589 0.0749,0.431977 0.18315,0.859483 0.22474,1.295931 0.0404,0.423685 0.0281,0.851115 0.0204,1.276649 -0.0246,1.353321 -0.18892,2.634087 -0.62837,3.912634 -0.0749,0.149387 -0.13793,0.305304 -0.22461,0.448162 -0.22679,0.373771 -0.66743,0.693769 -0.99031,0.963085 -1.56863,1.308399 0.46781,-0.443095 -1.17601,0.981713 -1.21061,1.051522 0.27647,2.76358 1.48708,1.712058 v 0 c 1.16087,-1.010704 2.50674,-1.872656 3.05485,-3.386875 0.097,-0.29698 0.21071,-0.589001 0.29093,-0.890939 0.44918,-1.690716 0.574,-3.672758 0.39988,-5.407169 -0.0482,-0.479638 -0.16734,-0.949465 -0.25101,-1.424197 -0.69886,-2.968656 -1.51254,-5.916285 -2.56245,-8.781648 -0.65125,-1.465313 -2.72351,-0.544306 -2.07226,0.921007 z" />
  <path
     style="fill:#000000;fill-opacity:1;stroke-opacity:0.391521"
     id="path55"
     d="m 342.90772,74.765658 c 0.13748,1.680854 0.51913,3.329997 0.66366,5.012189 0.11753,1.367998 0.0744,1.527465 0.026,2.83465 -0.21443,1.674712 -1.00006,2.83424 -2.35074,3.790887 -0.10239,0.05106 -0.20478,0.102114 -0.30717,0.15317 -1.41205,0.759868 -0.33743,2.756801 1.07461,1.996933 v 0 c 0.19017,-0.106377 0.38033,-0.212754 0.5705,-0.319131 1.99211,-1.485886 2.95716,-3.034128 3.27921,-5.544927 0.0156,-0.499127 0.0532,-0.998052 0.0468,-1.497381 -0.0279,-2.167005 -0.46797,-4.285545 -0.73511,-6.42639 0,-1.603518 -2.26771,-1.603518 -2.26771,0 z" />
  <path
     style="fill:#000000;fill-opacity:1;stroke-opacity:0.391521"
     id="path56"
     d="m 371.77246,73.83063 c 1.50377,2.560676 3.00203,5.124065 4.36734,7.761996 0.40917,0.842994 0.86779,1.677178 0.82665,2.642925 -0.0396,0.928695 -0.39904,1.777836 -0.74051,2.625166 -0.13799,0.290215 -0.25769,0.589856 -0.41398,0.870643 -0.2657,0.477378 -0.888,1.29913 -1.18416,1.695571 -0.82928,1.11008 -1.68802,2.19028 -2.57428,3.25509 -1.02542,1.232796 0.71802,2.682956 1.74344,1.450159 v 0 c 0.91556,-1.101408 1.80628,-2.216754 2.66112,-3.366359 0.48971,-0.658579 1.00804,-1.342174 1.40431,-2.065809 0.17806,-0.32516 0.31525,-0.67109 0.47287,-1.006635 0.46557,-1.19921 0.91206,-2.378349 0.88678,-3.691973 -0.0241,-1.253445 -0.5106,-2.355947 -1.06857,-3.451676 -1.43839,-2.775565 -2.99953,-5.485572 -4.6259,-8.155102 -1.0154,-1.241054 -2.77052,0.19495 -1.75511,1.436004 z" />
  <path
     style="fill:#000000;fill-opacity:1;stroke-opacity:0.391521"
     id="path57"
     d="m 359.51722,79.503633 c 0.0542,2.62211 -0.005,5.243486 -0.28433,7.851839 -0.19197,1.127161 -0.32848,2.296838 -0.80747,3.34785 -0.63712,1.471512 1.44392,2.372537 2.08104,0.901025 v 0 c 0.53676,-1.277684 0.79402,-2.640872 0.98153,-4.010005 0.28809,-2.74562 0.36096,-5.504916 0.29027,-8.264635 -0.12299,-1.598795 -2.38403,-1.424869 -2.26104,0.173926 z" />
  <path
     style="fill:#000000;fill-opacity:1;stroke-opacity:0.391521"
     id="path58"
     d="m 250.00294,67.471577 c 0.27431,0.15885 0.64078,0.266553 0.85688,0.513045 0.10854,0.123806 -0.0298,0.313696 -0.0478,0.417963 -0.0503,0.291457 -0.0743,0.586837 -0.1115,0.880255 -0.54234,2.634104 -1.31843,5.219863 -2.50414,7.636752 -0.35274,0.585869 -0.69729,1.198534 -1.18234,1.689992 -0.26689,0.27042 -0.64483,0.466667 -0.9515,0.685339 -0.70972,0.549071 -0.61859,0.530638 -0.92959,1.479765 0.039,1.603042 2.30609,1.547832 2.26705,-0.05521 v 0 c -0.44829,1.040868 -0.39757,0.721609 -0.019,0.420476 0.28181,-0.201899 0.58072,-0.380741 0.85102,-0.59781 0.87154,-0.699912 1.45457,-1.672479 2.00255,-2.628454 1.29535,-2.669528 2.17309,-5.515305 2.72478,-8.430515 0.0735,-1.12485 0.25556,-1.62845 -0.22833,-2.679597 -0.36019,-0.782451 -1.29327,-1.146901 -2.01102,-1.483346 -1.52123,-0.507077 -2.23834,1.644268 -0.71711,2.151345 z" />
  <path
     style="fill:#000000;fill-opacity:1;stroke-opacity:0.391521"
     id="path59"
     d="m 278.13945,63.902119 c -0.27042,-0.01472 0.66807,-0.173582 0.49467,-0.163675 -0.28238,0.01613 -0.70264,-0.15065 -0.84322,0.09479 -0.14851,0.259273 0.21034,0.559451 0.30644,0.842364 0.51762,1.523732 0.44966,1.377948 0.8867,2.993062 0.26452,1.229881 0.45986,1.998102 0.61249,3.237251 0.0561,0.455482 0.12371,0.913769 0.10894,1.372455 -0.0366,1.135606 -0.57521,2.114284 -1.09292,3.085969 -0.49902,0.675582 -0.87544,1.490615 -1.48776,2.082158 -0.21054,0.203392 -0.2026,0.1711 -0.34117,0.07587 -1.55389,0.395851 -0.99407,2.593382 0.55982,2.197531 v 0 c 0.28474,-0.09976 0.58955,-0.154422 0.85421,-0.299276 1.07658,-0.589236 1.74613,-2.056512 2.42649,-3.009377 0.52172,-1.021198 0.87338,-1.562937 1.13707,-2.712358 0.50859,-2.216973 -0.13923,-4.459974 -0.58871,-6.624544 -0.31634,-1.160958 -0.55015,-2.135738 -0.97678,-3.258607 -0.17306,-0.455486 -0.24824,-0.988638 -0.58727,-1.33861 -0.42775,-0.441565 -1.02707,-0.693857 -1.5993,-0.918572 -0.0633,-0.02484 -0.68206,0.227604 -0.763,0.25921 -1.47386,0.631657 -0.58056,2.716017 0.8933,2.08436 z" />
  <path
     style="fill:#000000;fill-opacity:1;stroke-opacity:0.391521"
     id="path60"
     d="m 313.07311,62.313768 c 0.23327,-0.02186 1.14597,-0.337309 1.22109,0.06647 0.0161,0.08654 -0.0525,0.172218 -0.0461,0.260008 0.021,0.289083 0.0851,0.573418 0.1276,0.860127 0.041,2.063498 -0.15081,4.122514 -0.41175,6.166949 -0.19119,1.497962 -0.3347,2.501877 -0.69306,3.940789 -0.12086,0.485253 -0.28123,0.959799 -0.42185,1.439699 -0.15918,0.353391 -0.28577,0.723362 -0.47756,1.060174 -0.56472,0.991735 -1.79073,1.953227 -2.75384,2.554263 -0.13322,0.06712 -0.26644,0.134243 -0.39966,0.201364 -1.4248,0.73567 -0.38441,2.750643 1.04039,2.014974 v 0 c 0.19124,-0.100404 0.38247,-0.200808 0.5737,-0.301211 1.41786,-0.909833 2.79481,-2.051697 3.61485,-3.555543 0.23311,-0.427504 0.38644,-0.893909 0.57966,-1.340863 0.15421,-0.534079 0.32975,-1.062458 0.46265,-1.602238 0.37115,-1.507487 0.53109,-2.60232 0.7286,-4.16127 0.28962,-2.285987 0.51356,-4.59179 0.37389,-6.89856 -0.13091,-0.511587 -0.16684,-1.057445 -0.39273,-1.534759 -0.79116,-1.671691 -2.07521,-1.703615 -3.6178,-1.384085 -1.56534,0.347852 -1.0734,2.561568 0.49193,2.213716 z" />
  <path
     style="fill:#000000;fill-opacity:1;stroke-opacity:0.391521"
     id="path61"
     d="m 198.3276,68.362889 c 0.20575,0.295723 0.39519,0.603499 0.61727,0.887171 1.1837,1.512005 2.53634,2.891059 3.75447,4.375065 1.40212,1.708146 1.33877,1.697481 2.58318,3.506166 0.34736,0.587558 0.73804,1.151581 1.0421,1.762675 0.82752,1.663132 1.42685,3.72373 1.0471,5.591078 -0.0484,0.238122 -0.14513,0.463817 -0.2177,0.695725 -0.0931,0.120654 -0.15502,0.273802 -0.27934,0.361962 -0.17303,0.122699 -1.10059,0.154857 -1.11158,0.155306 -1.31455,0.05375 -2.59831,-0.05799 -3.90483,-0.18658 -1.59593,-0.155823 -1.81629,2.101161 -0.22037,2.256984 v 0 c 1.75211,0.169793 4.44175,0.528208 6.07608,-0.209224 0.4111,-0.185496 0.77618,-0.480834 1.08219,-0.812158 0.24534,-0.265639 0.35863,-0.628017 0.53795,-0.942026 0.27771,-1.030881 0.42615,-1.328766 0.41369,-2.462883 -0.0299,-2.72223 -1.12759,-5.258774 -2.59841,-7.498218 -0.43666,-0.631889 -0.85373,-1.277781 -1.30999,-1.895667 -1.70219,-2.305164 -3.73539,-4.334534 -5.48351,-6.59953 -0.71711,-1.43423 -2.74542,-0.420076 -2.0283,1.014154 z" />
  <path
     style="fill:#000000;fill-opacity:1;stroke-opacity:0.391521"
     id="path62"
     d="m 220.98054,68.405561 c 0.80884,0.459458 1.38937,1.091936 1.95198,1.832426 1.02887,1.354156 1.30227,1.770555 1.85862,3.47609 0.2608,0.799523 0.41422,1.630166 0.62134,2.445249 0.48358,2.989823 0.68242,6.0733 0.12875,9.070891 -0.21887,1.185011 -0.41583,1.624357 -0.79824,2.710934 -0.22436,0.477301 -0.42688,1.025983 -0.78873,1.431646 -0.0733,0.0822 -0.18551,0.118797 -0.27826,0.178196 -1.21807,1.042866 0.25676,2.76548 1.47483,1.722613 v 0 c 0.2342,-0.220526 0.49816,-0.413212 0.7026,-0.661579 0.47324,-0.574924 0.72667,-1.259752 1.03167,-1.926635 0.44391,-1.291975 0.65265,-1.754614 0.90496,-3.163115 0.58868,-3.286263 0.37382,-6.660496 -0.18256,-9.932511 -0.24369,-0.922271 -0.41937,-1.865254 -0.73107,-2.766814 -0.6412,-1.854575 -1.08026,-2.611481 -2.23131,-4.071417 -0.74026,-0.938911 -1.52451,-1.739612 -2.56327,-2.328315 -1.40173,-0.778737 -2.50303,1.203604 -1.10131,1.982341 z" />
  <path
     style="fill:#000000;fill-opacity:1;stroke-opacity:0.391521"
     id="path63"
     d="m 166.45883,72.350668 c 1.46292,-0.665101 3.59869,-1.759823 5.23321,-1.433315 0.28993,0.05792 0.54761,0.223113 0.82142,0.33467 1.75144,1.655766 3.11787,3.702848 4.19218,5.853433 0.20812,0.41663 0.37783,0.851372 0.56674,1.277057 0.11006,0.402615 0.26212,0.796045 0.33019,1.207844 0.14846,0.89816 0.0549,1.784159 -0.0493,2.679603 -0.0951,0.817779 -0.27711,1.952524 -0.48536,2.765166 -0.0921,0.359214 -0.22159,0.707767 -0.33239,1.06165 -0.35831,0.763242 -0.60485,1.942446 -1.32817,2.484852 -0.0619,0.04641 -0.14648,0.04978 -0.21972,0.07466 -1.36786,0.836793 -0.18446,2.771242 1.1834,1.934449 v 0 c 0.24667,-0.170812 0.51642,-0.31235 0.73999,-0.512437 0.94931,-0.849588 1.32453,-2.184415 1.79168,-3.313784 0.12855,-0.422911 0.27752,-0.840145 0.38564,-1.268732 0.48844,-1.936087 0.86165,-4.560034 0.49594,-6.523967 -0.0963,-0.517167 -0.29452,-1.010051 -0.44178,-1.515076 -0.21717,-0.482379 -0.41404,-0.974428 -0.65152,-1.447137 -0.79137,-1.575196 -1.7492,-3.128118 -2.85667,-4.501139 -0.3696,-0.458236 -0.74267,-0.918937 -1.17475,-1.318813 -0.43874,-0.406041 -0.9505,-0.725257 -1.42574,-1.087886 -0.50899,-0.150695 -1.0013,-0.378242 -1.52697,-0.452084 -2.12316,-0.298251 -4.60127,0.873768 -6.46552,1.787798 -1.35282,0.86089 -0.13534,2.774075 1.21748,1.913185 z" />
  <path
     style="fill:#000000;fill-opacity:1;stroke-opacity:0.391521"
     id="path64"
     d="m 126.11885,67.518706 c 1.02698,-0.286514 2.0462,-0.641475 3.1025,-0.810681 0.26173,-0.04193 0.52653,-0.09231 0.79125,-0.07897 0.24187,0.0122 0.47325,0.103111 0.70988,0.154667 0.25506,0.143509 0.5356,0.249041 0.76519,0.430527 0.64623,0.510811 1.32962,1.45762 1.76474,2.095526 0.89806,1.316592 1.27436,1.971087 1.86883,3.470557 0.2601,0.656087 0.4549,1.336217 0.68236,2.004325 0.87927,2.884817 1.31055,5.537514 0.66955,8.503976 -0.1697,0.642789 -0.30959,1.027629 -0.91129,1.307925 -1.35123,0.863391 -0.13021,2.77432 1.22102,1.910928 v 0 c 0.23405,-0.16432 0.49107,-0.300014 0.70214,-0.492959 0.66243,-0.605549 0.99086,-1.413658 1.20805,-2.262757 0.0691,-0.340609 0.15695,-0.677943 0.20725,-1.021827 0.42914,-2.933434 -0.0846,-5.875805 -0.95207,-8.682175 -0.25639,-0.740073 -0.47469,-1.494458 -0.76917,-2.220219 -0.64098,-1.579776 -1.15623,-2.515683 -2.12364,-3.893136 -0.72165,-1.02753 -1.50228,-2.051792 -2.56911,-2.756146 -0.42852,-0.282925 -0.93612,-0.422371 -1.40418,-0.633557 -0.43764,-0.05676 -0.87172,-0.160341 -1.31292,-0.170274 -0.34521,-0.0078 -0.68845,0.06179 -1.02922,0.117542 -1.11884,0.183029 -2.19995,0.553674 -3.28806,0.859288 -1.53261,0.471572 -0.8657,2.639008 0.6669,2.167436 z" />
  <path
     style="fill:#000000;fill-opacity:1;stroke-opacity:0.391521"
     id="path65"
     d="m 92.424271,90.810399 c 0.238045,-0.142112 0.480019,-0.277842 0.714136,-0.426336 1.525882,-0.967831 0.511324,-0.402322 2.250514,-1.43557 1.429391,-0.849197 2.893525,-1.588581 4.401177,-2.286071 1.187752,-0.423106 2.376682,-1.053019 3.662872,-1.131643 0.93415,-0.0571 1.86788,0.296608 2.73404,0.58575 1.38077,0.613548 2.49141,1.626849 3.39006,2.823495 0.443,0.622336 0.89923,1.251717 1.27994,1.915517 0.35517,0.61925 0.6295,1.296464 0.95369,1.932992 0.10431,0.176795 0.20862,0.35359 0.31294,0.530385 0.82026,1.37784 2.76882,0.217818 1.94856,-1.160022 v 0 c -0.0804,-0.133533 -0.16087,-0.267066 -0.24131,-0.400599 -0.36161,-0.708079 -0.67626,-1.447147 -1.07158,-2.137184 -0.40928,-0.714419 -0.90211,-1.388936 -1.38007,-2.057571 -1.19883,-1.549976 -2.65098,-2.855284 -4.48903,-3.602946 -1.27004,-0.406546 -2.50124,-0.771299 -3.85845,-0.658073 -1.47054,0.122681 -2.83727,0.796245 -4.195621,1.302595 -2.540992,1.180762 -5.003918,2.514913 -7.305165,4.120921 -1.473866,0.631656 -0.580568,2.716017 0.893297,2.08436 z" />
  <path
     style="fill:#000000;fill-opacity:1;stroke-opacity:0.391521"
     id="path66"
     d="m 114.54965,122.78293 c 1.12165,-0.41006 2.39067,-0.65145 3.59144,-0.57556 0.23658,0.0149 0.46728,0.0802 0.70092,0.12025 1.88573,0.62036 2.16787,1.64863 2.58149,3.48034 0.23751,1.54168 0.36478,3.15766 -0.002,4.69057 -0.1807,0.51163 -0.70974,0.74065 -1.1631,0.97712 -1.39116,0.79747 -0.26337,2.76486 1.12779,1.96739 v 0 c 0.29822,-0.17992 0.61463,-0.33267 0.89468,-0.53976 0.65265,-0.48265 1.13383,-1.12705 1.35338,-1.90848 0.40451,-1.88301 0.33558,-3.83013 -0.007,-5.71965 -0.29069,-1.14674 -0.32442,-1.61307 -0.91564,-2.64643 -0.78481,-1.37173 -2.03274,-2.17195 -3.54035,-2.54472 -0.36452,-0.0478 -0.7264,-0.12464 -1.09356,-0.14348 -1.29341,-0.0663 -3.01078,0.20081 -4.21466,0.67748 -0.23562,0.0933 -0.44967,0.23384 -0.67451,0.35075 -1.28281,0.96211 0.0778,2.77629 1.36063,1.81418 z" />
  <path
     style="fill:#000000;fill-opacity:1;stroke-opacity:0.391521"
     id="path67"
     d="m 97.080401,130.14945 c 1.164067,0.2748 2.308534,0.66117 3.320009,1.31689 1.02755,0.66614 1.48712,1.16837 2.39004,2.00581 1.37785,1.60755 2.71299,3.41408 3.27493,5.49382 0.0583,0.21595 0.0843,0.43936 0.12646,0.65904 -0.23502,1.10248 -1.12969,1.82761 -1.87689,2.60325 -0.46242,0.35068 -1.21168,1.30262 -1.73377,1.51585 -0.0375,0.0153 -0.0696,-0.0422 -0.10734,-0.057 -0.0517,-0.0202 -0.10651,-0.0315 -0.15977,-0.0473 -1.60283,-0.0468 -1.66896,2.22 -0.0661,2.26676 v 0 c 0.79588,-0.0204 0.88744,0.0557 1.66388,-0.32622 0.19502,-0.0959 0.35544,-0.25073 0.52439,-0.38744 0.53139,-0.42998 1.01805,-0.9206 1.51199,-1.39146 0.99762,-1.03579 2.14022,-2.07734 2.40113,-3.56979 0.0611,-0.34976 0.0425,-0.70885 0.0638,-1.06327 -0.0669,-0.31066 -0.11345,-0.62639 -0.20058,-0.93199 -0.69497,-2.43772 -2.22666,-4.56512 -3.88672,-6.43317 -0.45936,-0.41963 -0.89632,-0.86519 -1.37808,-1.2589 -1.69774,-1.38749 -3.685259,-2.36422 -5.867339,-2.66263 -1.603517,0 -1.603517,2.26772 0,2.26772 z" />
  <path
     style="fill:#000000;fill-opacity:1;stroke-opacity:0.391521"
     id="path68"
     d="m 69.314331,130.48178 c 0.258712,0.0976 0.526282,0.17434 0.776137,0.29279 0.793833,0.37633 1.731982,0.99701 2.417453,1.48899 1.34792,0.96744 2.089137,1.58746 3.293736,2.76483 0.562754,0.55003 1.089128,1.13609 1.633692,1.70414 1.729707,1.91269 3.438999,3.85238 4.796128,6.05445 0.574204,0.93169 0.630455,1.10876 1.071673,2.03788 0.341539,0.85425 0.540281,1.81039 0.353633,2.72949 -0.06709,0.33038 -0.212713,0.64647 -0.338163,0.95601 0.132873,0.10964 -0.849853,1.30057 -0.692332,0.71716 -1.598878,-0.1219 -1.771265,2.13926 -0.172387,2.26115 v 0 c 0.31305,-0.0113 0.634341,0.0384 0.939151,-0.0339 1.047638,-0.24829 1.626389,-1.22407 2.038495,-2.12097 0.231532,-0.6104 0.376317,-0.90447 0.482941,-1.56662 0.21449,-1.332 -0.05499,-2.68999 -0.565692,-3.92105 -0.507353,-1.05367 -0.575997,-1.26167 -1.223819,-2.30705 -1.435192,-2.31594 -3.228367,-4.3659 -5.054336,-6.37767 -0.580995,-0.6035 -1.142008,-1.2269 -1.742986,-1.8105 -1.855235,-1.8016 -4.077295,-3.60222 -6.441284,-4.69982 -0.288979,-0.13417 -0.597091,-0.22255 -0.895637,-0.33382 -1.530525,-0.47829 -2.206929,1.6862 -0.676403,2.16449 z" />
  <path
     style="fill:#000000;fill-opacity:1;stroke-opacity:0.391521"
     id="path69"
     d="m 49.664952,149.74192 c 2.251256,-0.51425 4.558458,-0.19765 6.73793,0.49914 0.667014,0.21325 1.31392,0.48492 1.970879,0.72738 2.272895,0.99511 4.569958,2.11302 6.445532,3.77334 1.047536,0.92732 1.224721,1.26437 2.060809,2.355 0.209217,0.4204 0.445703,0.82829 0.627651,1.26119 0.59064,1.40528 1.041971,3.31415 0.827563,4.8473 -0.17605,1.59383 2.077958,1.8428 2.254008,0.24897 v 0 c 0.02699,-0.2889 0.0772,-0.57657 0.08098,-0.8667 0.022,-1.68887 -0.466532,-3.74099 -1.14634,-5.26757 -0.247443,-0.55566 -0.568218,-1.07567 -0.852327,-1.6135 -1.024717,-1.30694 -1.195905,-1.64889 -2.466907,-2.75999 -2.060255,-1.80106 -4.561297,-3.03013 -7.050939,-4.10739 -0.725169,-0.26384 -1.43862,-0.56245 -2.175508,-0.79153 -2.511949,-0.78093 -5.170279,-1.10987 -7.758062,-0.52932 -1.572379,0.31448 -1.127643,2.53816 0.444735,2.22368 z" />
  <path
     style="fill:#000000;fill-opacity:1;stroke-opacity:0.391521"
     id="path70"
     d="m 48.813174,189.67931 c 0.600616,-0.57105 0.912979,-0.89177 1.640991,-1.43521 2.484723,-1.8548 5.168639,-3.44139 7.898862,-4.90021 0.5277,-0.20728 1.038165,-0.46538 1.5831,-0.62183 1.526233,-0.43818 3.210639,-0.28254 4.648193,0.36869 0.269621,0.12214 0.517581,0.28734 0.776372,0.43101 0.155498,0.10525 1.146407,0.76008 1.292984,0.91924 0.07178,0.0779 0.06048,0.20311 0.09072,0.30467 0.836221,1.36821 2.771165,0.18562 1.934944,-1.18259 v 0 c -0.223316,-0.31331 -0.406421,-0.6596 -0.669949,-0.93993 -0.202634,-0.21555 -1.38779,-0.97495 -1.57715,-1.09997 -0.992432,-0.51866 -1.281299,-0.73959 -2.410835,-1.02191 -1.615817,-0.40387 -3.325267,-0.36326 -4.923309,0.1136 -0.62489,0.18647 -1.210126,0.48645 -1.815189,0.72967 -2.865405,1.53615 -5.681163,3.20209 -8.283742,5.16016 -0.788614,0.59332 -1.138553,0.95113 -1.78951,1.57109 -1.133858,1.13386 0.46966,2.73737 1.603518,1.60352 z" />
  <path
     style="fill:#000000;fill-opacity:1;stroke-opacity:0.391521"
     id="path71"
     d="m 53.910033,210.73768 c 2.035291,-1.65821 4.217073,-3.17126 6.527169,-4.4247 0.499924,-0.27125 1.016938,-0.50975 1.525406,-0.76463 1.076021,-0.41391 2.855694,-1.29801 4.051109,-0.80858 0.449048,0.18385 0.772034,0.58255 1.10175,0.90979 0.674503,0.71655 1.075827,1.61297 1.522514,2.47531 0.28231,0.545 0.640003,1.10015 0.769164,1.70723 0.425131,1.54614 2.611696,0.94491 2.186565,-0.60122 v 0 c -0.06512,-0.21568 -0.113471,-0.43715 -0.195364,-0.64703 -0.13035,-0.33407 -0.602862,-1.22516 -0.748395,-1.50517 -0.332522,-0.6398 -0.777519,-1.53466 -1.187006,-2.11458 -0.249022,-0.35266 -0.551241,-0.66458 -0.826862,-0.99688 -0.885995,-0.75814 -1.135845,-1.13727 -2.28964,-1.47062 -1.828479,-0.52828 -3.754044,0.3614 -5.402553,1.02574 -0.549117,0.27689 -1.107272,0.53655 -1.647349,0.83069 -2.209761,1.20348 -4.433558,2.68233 -6.391802,4.2654 -0.24368,0.197 -0.467558,0.4173 -0.701337,0.62595 -1.055923,1.20677 0.650707,2.70007 1.706631,1.4933 z" />
  <path
     style="fill:#000000;fill-opacity:1;stroke-opacity:0.391521"
     id="path72"
     d="m 64.554508,223.96557 c 1.983837,-1.35119 4.171261,-2.33841 6.42661,-3.13498 1.071443,-0.33988 2.18937,-0.64216 3.326462,-0.49585 1.194933,0.15374 2.229323,0.7915 3.259889,1.36023 1.983819,1.11547 3.795294,2.48726 5.397073,4.09983 0.490851,0.56659 0.259481,0.29607 0.695095,0.81071 1.036322,1.22365 2.766816,-0.24193 1.730494,-1.46558 v 0 c -0.490582,-0.57895 -0.218392,-0.26259 -0.819745,-0.94632 -1.76145,-1.76074 -3.739627,-3.27275 -5.917683,-4.48982 -1.093194,-0.58953 -1.72543,-1.00576 -2.918755,-1.35954 -1.849649,-0.54834 -3.719122,-0.25491 -5.511599,0.34933 -0.476334,0.16993 -0.958262,0.32494 -1.429004,0.5098 -1.927835,0.75707 -3.766972,1.73951 -5.49674,2.87533 -1.334207,0.88947 -0.0763,2.77633 1.257903,1.88686 z" />
  <path
     style="fill:#000000;fill-opacity:1;stroke-opacity:0.391521"
     id="path73"
     d="m 47.09537,167.75973 c 1.853421,-0.86813 3.671331,-1.87117 5.647122,-2.44463 0.340385,-0.0988 0.689532,-0.16442 1.034298,-0.24663 1.261835,-0.26393 2.538032,-0.16166 3.646078,0.522 0.773454,0.62773 1.319577,1.47921 1.925331,2.25863 0.103449,0.14681 0.206898,0.29361 0.310347,0.44042 0.926494,1.30877 2.777374,-0.001 1.85088,-1.31026 v 0 c -0.123869,-0.17431 -0.247738,-0.34862 -0.371607,-0.52292 -0.786218,-1.00871 -1.499994,-2.1057 -2.581786,-2.83017 -1.780665,-0.9897 -3.307265,-1.14956 -5.314757,-0.76128 -0.410059,0.10122 -0.825056,0.18421 -1.230176,0.30368 -2.071521,0.61088 -3.986367,1.64459 -5.929884,2.56286 -1.43423,0.71711 -0.420076,2.74542 1.014154,2.0283 z" />
  <path
     style="fill:#000000;fill-opacity:1;stroke-opacity:0.391521"
     id="path74"
     d="m 109.56832,103.4574 c 0.96816,-0.94899 2.0873,-1.68822 3.27352,-2.33136 0.4485,-0.19293 0.72856,-0.31883 1.18383,-0.49317 0.68116,-0.26082 0.79286,-0.2345 1.3773,0.18191 0.48352,0.3366 0.8762,0.75581 1.16292,1.26728 0.83527,1.36879 2.77103,0.18754 1.93576,-1.18126 v 0 c -0.52891,-0.83197 -1.15694,-1.551442 -2.00913,-2.074844 -0.76259,-0.375225 -0.95564,-0.57161 -1.82185,-0.604826 -1.05009,-0.04027 -1.97854,0.530247 -2.91401,0.913695 -1.37314,0.751652 -2.67176,1.615565 -3.79186,2.719055 -1.13386,1.13386 0.46966,2.73738 1.60352,1.60352 z" />
  <path
     style="fill:#000000;fill-opacity:1;stroke-opacity:0.391521"
     id="path75"
     d="m 103.90925,67.793121 c 1.29722,0.997073 2.2488,2.328448 3.21825,3.626254 1.08659,1.369427 1.80672,2.947542 2.52649,4.526038 0.55211,1.039822 0.98296,2.135675 1.37731,3.243232 0.25004,0.660344 0.28226,1.370011 0.41885,2.053674 0.0836,0.418189 0.20059,0.775473 0.32262,1.180061 0.46505,1.5346 2.6353,0.876921 2.17025,-0.657679 v 0 c -0.008,-0.02514 -0.23058,-0.748831 -0.24532,-0.824107 -0.16446,-0.840293 -0.21983,-1.707597 -0.53145,-2.516496 -0.4195,-1.165698 -0.86751,-2.323908 -1.44914,-3.419994 -0.7873,-1.724593 -1.59006,-3.443575 -2.77295,-4.942038 -1.03304,-1.382377 -2.05391,-2.805835 -3.4314,-3.872462 -1.13385,-1.133859 -2.73737,0.469659 -1.60351,1.603517 z" />
  <path
     style="fill:#000000;fill-opacity:1;stroke-opacity:0.391521"
     id="path76"
     d="m 723.23179,442.44203 c 1.3501,2.7817 3.01714,5.41512 4.89714,7.86776 1.43331,1.68095 3.12508,3.50401 5.13441,4.517 0.40206,0.2027 0.83355,0.3408 1.25033,0.5112 1.81839,0.31036 3.62887,0.0465 5.4374,-0.16193 1.59282,-0.18493 1.33129,-2.43751 -0.26153,-2.25259 v 0 c -1.44247,0.16875 -2.88949,0.35706 -4.34605,0.30409 -0.29563,-0.10972 -0.60334,-0.19119 -0.88689,-0.32915 -1.74327,-0.84824 -3.2958,-2.52574 -4.5297,-3.9706 -1.75127,-2.27156 -3.28274,-4.71955 -4.57178,-7.28203 -0.56303,-1.50142 -2.68636,-0.70517 -2.12333,0.79625 z" />
  <path
     style="fill:#000000;fill-opacity:1;stroke-opacity:0.391521"
     id="path77"
     d="m 701.5064,473.58017 c 0.87518,3.04209 2.66733,5.77793 4.58109,8.269 2.34528,2.47173 4.76522,3.32682 8.05807,3.69593 1.38713,0.0767 0.70523,0.0747 2.04564,0.0132 1.60133,-0.0838 1.48283,-2.34841 -0.1185,-2.26461 v 0 c -1.05845,0.0644 -0.49822,0.0584 -1.68079,-0.003 -2.64415,-0.28028 -4.57968,-0.87148 -6.50979,-2.82794 -1.72331,-2.21698 -3.33392,-4.67397 -4.16201,-7.37462 -0.34785,-1.56534 -2.56156,-1.0734 -2.21371,0.49193 z" />
  <path
     style="fill:#000000;fill-opacity:1;stroke-opacity:0.391521"
     id="path78"
     d="m 680.14604,502.83202 c -1.91519,3.64183 -2.80057,7.67901 -3.25865,11.73526 -0.10975,2.4326 0.40777,5.02863 2.06671,6.9119 0.23914,0.27148 0.52978,0.49284 0.79467,0.73926 0.93906,0.67716 2.06221,0.97203 3.05904,1.53528 1.40593,0.77112 2.49647,-1.21716 1.09054,-1.98829 v 0 c -0.86224,-0.46301 -1.7653,-0.80846 -2.64226,-1.24125 -1.67953,-1.38107 -2.20228,-3.60919 -2.11503,-5.70486 0.40743,-3.68192 1.20658,-7.32157 2.8503,-10.66921 0.93202,-1.30484 -0.91329,-2.62292 -1.84532,-1.31809 z" />
  <path
     style="fill:#000000;fill-opacity:1;stroke-opacity:0.391521"
     id="path79"
     d="m 493.39136,537.31983 c -3.89375,1.30059 -7.51364,3.24137 -11.03771,5.31968 -1.4842,0.90773 -2.8222,1.98591 -4.03491,3.22782 -0.30088,0.30812 -0.62951,0.59556 -0.88028,0.94567 -0.85781,1.19765 -0.93045,1.71425 -1.42161,3.09484 -0.27461,1.70774 -0.46058,2.10344 -0.22276,3.88304 0.36363,2.72093 1.73452,5.69078 2.78637,8.22886 0.61426,1.48121 2.70899,0.61252 2.09474,-0.86868 v 0 c -0.78924,-1.9019 -0.74483,-1.74728 -1.48865,-3.74435 -0.81805,-2.19635 -1.57494,-4.39386 -1.02611,-6.75888 0.25169,-0.75859 0.46529,-1.61988 0.93901,-2.29091 0.23081,-0.32696 0.53917,-0.59174 0.81676,-0.88005 1.07349,-1.11498 2.26875,-2.07162 3.59007,-2.88442 3.38504,-1.99946 6.86122,-3.86928 10.6022,-5.12128 1.52123,-0.50707 0.80411,-2.65842 -0.71712,-2.15134 z" />
  <path
     style="fill:#000000;fill-opacity:1;stroke-opacity:0.391521"
     id="path80"
     d="m 367.8335,559.77405 c -2.42731,0.84571 -4.36756,2.51706 -6.22358,4.23414 -1.91766,1.8319 -3.50171,3.97534 -4.62924,6.37934 -0.72393,1.54351 -0.90596,2.26664 -1.42256,3.85931 -0.40405,1.38893 -0.77403,2.83574 -0.61257,4.29769 0.0366,0.33182 0.1454,0.65166 0.2181,0.97749 0.39022,1.55532 2.58977,1.00346 2.19954,-0.55186 v 0 c -0.41163,-1.3455 -0.036,-2.7133 0.35314,-4.02714 1.17213,-3.65588 2.57678,-6.60915 5.43506,-9.27158 1.59242,-1.47866 3.2361,-2.9446 5.3051,-3.71693 1.54182,-0.44052 0.91883,-2.62098 -0.62299,-2.18046 z" />
  <path
     style="fill:#000000;fill-opacity:1;stroke-opacity:0.391521"
     id="path81"
     d="m 304.60531,558.00445 c -0.40445,0.22267 -0.82129,0.42419 -1.21334,0.66802 -1.25872,0.78281 -2.63004,1.81363 -3.81893,2.66901 -2.07691,1.49428 -4.09288,3.02742 -6.07903,4.64013 -1.62731,1.4221 -3.36362,2.89918 -4.36393,4.86659 -0.71515,1.40657 -0.77698,2.06968 -1.1573,3.62146 -0.52408,3.37983 0.0288,6.81005 1.68945,9.81377 0.26699,0.48293 0.59604,0.92885 0.89405,1.39328 1.25383,1.58423 0.58982,0.84659 1.98333,2.22069 1.14874,1.11878 2.73094,-0.50577 1.58221,-1.62456 v 0 c -1.15455,-1.10724 -0.59492,-0.50147 -1.66367,-1.83122 -1.98436,-3.01206 -2.76551,-5.81649 -2.27993,-9.44418 0.24607,-1.05848 0.37793,-1.9485 0.85843,-2.92143 0.87202,-1.76566 2.44312,-3.06456 3.88709,-4.33417 3.3602,-2.7302 6.82462,-5.37874 10.52377,-7.63186 1.48883,-0.59554 0.64662,-2.70106 -0.8422,-2.10553 z" />
  <path
     style="fill:#000000;fill-opacity:1;stroke-opacity:0.391521"
     id="path82"
     d="m 410.42556,560.22468 c -2.60581,1.61496 -5.33619,3.09292 -7.64387,5.13681 -0.44817,0.39694 -0.85839,0.83478 -1.28759,1.25217 -1.67309,2.09932 -3.30391,4.44946 -3.73497,7.16519 -0.0762,0.4801 -0.0784,0.96906 -0.11758,1.45359 0.25062,2.20706 0.96228,4.3269 2.07808,6.24091 0.81848,1.3789 2.76854,0.2214 1.95006,-1.1575 v 0 c -0.91312,-1.50144 -1.43056,-3.20275 -1.76623,-4.92123 0.0574,-0.96145 0.019,-1.27171 0.3032,-2.20346 0.5611,-1.83958 1.71459,-3.45357 2.87273,-4.95596 0.37755,-0.37133 0.73751,-0.76144 1.13265,-1.11398 2.2079,-1.96991 4.84332,-3.37015 7.33862,-4.92761 1.39224,-0.79557 0.26714,-2.7645 -1.1251,-1.96893 z" />
  <path
     style="fill:#000000;fill-opacity:1;stroke-opacity:0.391521"
     id="path83"
     d="m 265.60953,559.20465 c -1.7508,1.72177 -3.34369,3.61386 -4.80901,5.58247 -1.86192,2.59435 -2.1708,4.82581 -1.04837,7.77159 0.59145,1.49046 2.69927,0.65404 2.10783,-0.83642 v 0 c -0.87759,-2.08465 -0.59977,-3.75185 0.76196,-5.58425 1.35213,-1.83031 2.84057,-3.57143 4.43935,-5.19128 1.23186,-1.02655 -0.2199,-2.76866 -1.45176,-1.74211 z" />
  <path
     style="fill:#000000;fill-opacity:1;stroke-opacity:0.391521"
     id="path84"
     d="m 156.3956,562.41464 c -0.15674,0.23113 -0.30637,0.46723 -0.47021,0.69338 -0.44871,0.61934 -0.78345,0.95404 -1.1883,1.62791 -0.63342,1.05431 -1.09797,2.20349 -1.54634,3.34372 -1.07568,2.92349 -0.46024,4.33295 0.77036,7.0145 0.85939,1.71566 2.01823,3.22766 3.29622,4.64536 1.07717,1.18785 2.75704,-0.33549 1.67987,-1.52334 v 0 c -1.13175,-1.23942 -2.14824,-2.57064 -2.91677,-4.07163 -0.98495,-2.12449 -1.55188,-2.91448 -0.71767,-5.23908 0.37674,-0.96978 0.76086,-1.97469 1.29461,-2.87265 0.32623,-0.54885 0.83367,-1.14013 1.2054,-1.65279 0.15294,-0.21093 0.2921,-0.43153 0.43814,-0.64729 0.93203,-1.30484 -0.91329,-2.62292 -1.84531,-1.31809 z" />
  <path
     style="fill:#000000;fill-opacity:1;stroke-opacity:0.391521"
     id="path85"
     d="m 129.07023,540.11122 c -1.45891,1.45005 -2.34842,3.27716 -2.94869,5.21731 -0.37752,1.43837 -0.41424,2.92619 -0.42869,4.40349 5e-5,0.20264 9e-5,0.40528 1.3e-4,0.60792 4.9e-4,1.60352 2.26821,1.60283 2.26772,-6.9e-4 v 0 c -8e-5,-0.19519 -1.5e-4,-0.39038 -2.3e-4,-0.58557 0.0117,-1.26041 0.0297,-2.53109 0.32996,-3.76302 0.47727,-1.58993 1.19221,-3.08842 2.38332,-4.27592 1.13386,-1.13386 -0.46966,-2.73738 -1.60352,-1.60352 z" />
</svg>
