<?xml version="1.0" encoding="UTF-8" standalone="no"?>
<svg
   width="454"
   height="705"
   viewBox="0 0 454 705"
   fill="none"
   version="1.1"
   id="svg1"
   sodipodi:docname="aquariumtext.svg"
   xmlns:inkscape="http://www.inkscape.org/namespaces/inkscape"
   xmlns:sodipodi="http://sodipodi.sourceforge.net/DTD/sodipodi-0.dtd"
   xmlns="http://www.w3.org/2000/svg"
   xmlns:svg="http://www.w3.org/2000/svg">
  <defs
     id="defs1" />
  <sodipodi:namedview
     id="namedview1"
     pagecolor="#ffffff"
     bordercolor="#000000"
     borderopacity="0.25"
     inkscape:showpageshadow="2"
     inkscape:pageopacity="0.0"
     inkscape:pagecheckerboard="0"
     inkscape:deskcolor="#d1d1d1" />
  <path
     d="m 60.709903,58.089709 -18.8579,0.78076 c -2.58079,3.789592 -8.14815,12.240938 -9.771521,15.729281 -1.623375,3.488913 -0.01357,6.653553 0.994261,7.799617 l 1.85293,14.535237 c 0.81349,6.381716 15.31263,21.091906 18.38573,45.199146 2.5629,5.83404 -2.905,23.51454 3.1361,31.24748 6.0411,7.73294 3.18,8.42194 0.9942,7.79962 2.9079,1.78036 9.1212,8.46069 10.712,20.93974 -3.5476,6.4199 -6.8118,2.89565 -8.0003,0.33168 l 6.0572,122.2282 22.0216,24.036 c 0.9942,7.79962 10.6974,23.07914 41.555897,21.80143 l 24.2867,-1.0053 15.144,-0.62746 c 8,-0.33111 18.814,5.63629 29.671,5.18664 l 19.716,-0.81609 c 8.286,-0.34308 13.747,8.6972 26.319,8.17689 12.572,-0.52089 8.857,-0.36702 32.826,-10.62574 4.233,-6.44782 9.032,-7.26392 10.901,-6.86613 6.948,0.42515 24.901,13.05578 34.056,10.96597 11.443,-2.61184 12.837,12.27046 21.286,1.94164 6.76,-8.26351 19.135,39.17989 17.625,1.60711 l 14.588,-3.47694 13.121,-1.85673 c 2.957,-0.83547 43.715,-64.83952 47.732,-72.98905 5.02,-10.18692 -25.851,-72.99305 -19.521,-79.66997 6.329,-6.67749 -22.262,-27.42746 -9.096,-59.33545 -1.672,-13.11733 10.691,4.03488 -1.379,-34.31239 -9.225,-29.555455 7.857,-7.47876 6.141,-14.17905 -1.716,-6.70028 -2.981,-16.62733 -28.483,-67.96113 -10.665,-13.814202 -7.146,-13.247097 -22.698,-22.582246 l -15.429,0.638798 -8.857,0.366729 c -4.01,1.59161 -15.314,7.405534 -28.449,17.928349 -6.149,8.095281 -15.737,-3.822017 -33.738,-3.076762 -18.001,0.745312 -17.73,-7.792437 -64.303,-5.864189 -31.43,1.301304 -12.164,-16.773247 -56.166,-14.951432 -25.1441,1.040974 -18.63,3.459847 -29.4877,3.909383 -10.8576,0.449535 -18.9903,2.538893 -37.849697,-3.451756 -15.0876,-4.792536 -43.0348,-14.2580381 -26.69,7.884817 l 7.6524,25.510665 z"
     fill="#7184d7"
     id="path1"
     style="fill:#2f408a;fill-opacity:1;stroke-width:0.754916" />
  <path
     d="m 75.320792,69.840034 -17.334519,0.717689 c -2.372308,3.483459 -7.489926,11.252085 -8.982166,14.458631 -1.492231,3.20707 -0.0125,6.116066 0.913951,7.16955 l 1.703246,13.361046 c 0.747775,5.86619 14.075644,19.38806 16.900493,41.54787 2.355863,5.36275 -2.670328,21.61498 2.882759,28.72324 5.553087,7.10826 2.923113,7.74161 0.913886,7.16954 2.672994,1.63655 8.38437,7.77723 9.846662,19.24819 -3.261017,5.90128 -6.261528,2.66173 -7.354019,0.30489 l 5.567887,112.35434 20.242648,22.09433 c 0.91389,7.16955 9.83324,21.21475 38.19891,20.04026 l 22.32477,-0.92409 13.92064,-0.57677 c 7.35374,-0.30436 17.29416,5.18097 27.27411,4.76765 l 18.1233,-0.75017 c 7.61664,-0.31536 12.63649,7.99463 24.1929,7.51635 11.5564,-0.47881 8.14151,-0.33737 30.17424,-9.76737 3.89105,-5.92696 8.30238,-6.67712 10.0204,-6.31147 6.38672,0.3908 22.88944,12.00111 31.30488,10.08011 10.51861,-2.40084 11.8,11.27923 19.56647,1.7848 6.21391,-7.59597 17.58924,36.01485 16.20122,1.47728 l 13.40955,-3.19607 12.06106,-1.70674 c 2.71812,-0.76797 40.1836,-59.60164 43.8761,-67.09284 4.61448,-9.364 -23.7627,-67.09651 -17.94405,-73.23406 5.81773,-6.13807 -20.46363,-25.21181 -8.36121,-54.5422 -1.53693,-12.05769 9.82736,3.70892 -1.2676,-31.54057 -8.47978,-27.1679 7.2223,-6.87461 5.64492,-13.03363 -1.57738,-6.15902 -2.74019,-15.28414 -26.18208,-62.471085 -9.80346,-12.698262 -6.56873,-12.176968 -20.86441,-20.758005 l -14.18261,0.587195 -8.14151,0.337104 c -3.68607,1.463036 -14.07691,6.807299 -26.15083,16.480059 -5.65227,7.441327 -14.46574,-3.513267 -31.01258,-2.828215 -16.54684,0.685104 -16.29773,-7.162948 -59.10846,-5.390467 -28.89102,1.196182 -11.18137,-15.418268 -51.6288,-13.743625 -23.1129,0.956884 -17.12502,3.180355 -27.10562,3.593575 -9.9805,0.413221 -17.45622,2.333797 -34.7921,-3.172915 C 86.304434,28.208056 60.614868,19.507198 75.639301,39.861306 l 7.034223,23.449857 z"
     fill="#7184d7"
     id="path1-7"
     style="stroke-width:0.693932" />
  <path
     style="fill:#000000;fill-opacity:1;stroke-width:0.754916;stroke-opacity:0.391521"
     id="path2"
     d="m 23.805989,90.499971 c 0.777429,-0.548367 1.594454,-1.101316 2.571641,-1.54004 1.435721,-0.644583 3.096726,-1.060192 4.752427,-1.47873 1.556933,-0.33021 3.155779,-0.788191 4.870949,-0.65683 0.600532,0.04599 1.116163,0.185633 1.673207,0.310588 0.794362,0.219793 1.447295,0.539608 2.078917,0.883125 1.171774,0.623827 2.719815,-0.320573 1.548041,-0.9444 v 0 c -0.861102,-0.451205 -1.738219,-0.873681 -2.822814,-1.147107 -0.955188,-0.200695 -1.415261,-0.335829 -2.448094,-0.394466 -2.050222,-0.116396 -3.96426,0.349256 -5.823546,0.768701 -1.511314,0.385718 -2.283273,0.549398 -3.708089,1.051119 -1.814245,0.638838 -3.340596,1.479494 -4.605824,2.454201 -0.860889,0.770974 1.052296,1.464813 1.913185,0.693839 z" />
  <path
     style="fill:#000000;fill-opacity:1;stroke-width:0.754916;stroke-opacity:0.391521"
     id="path3"
     d="m 28.417413,101.22116 c 2.658036,-1.09094 5.559488,-2.111246 8.746445,-2.615092 0.573989,-0.09075 1.169089,-0.130587 1.753633,-0.19588 0.512304,-0.01544 1.024281,-0.05768 1.536911,-0.04628 1.645275,0.03653 3.028047,0.51019 4.091294,1.20636 0.238263,0.156009 0.43016,0.333173 0.64524,0.499762 0.632936,0.62552 0.356795,0.31663 0.840975,0.92301 0.673479,0.82934 2.731485,0.28654 2.058007,-0.5428 v 0 c -0.627454,-0.762482 -0.269469,-0.37415 -1.090546,-1.159975 -0.776417,-0.572804 -0.991996,-0.80433 -2.023548,-1.25969 -1.988858,-0.877938 -4.055564,-1.06397 -6.508421,-0.887022 -0.686883,0.08144 -1.385638,0.135305 -2.060649,0.24432 -3.474732,0.561156 -6.649946,1.670484 -9.527488,2.883667 -1.17827,0.61984 0.359877,1.56948 1.538147,0.94964 z" />
  <path
     style="fill:#000000;fill-opacity:1;stroke-width:0.754916;stroke-opacity:0.391521"
     id="path4"
     d="m 31.49779,111.35138 c 2.825601,-0.91296 5.694413,-1.85782 8.886527,-2.28802 1.701777,-0.22935 2.552349,-0.22511 4.249461,-0.29057 2.649964,-0.0387 3.6513,0.21093 5.340372,1.318 1.068635,0.68132 2.759368,-0.17995 1.690733,-0.86128 v 0 c -0.752623,-0.47021 -1.110052,-0.75241 -2.096476,-1.10307 -1.630873,-0.57975 -3.208317,-0.68181 -5.093996,-0.64282 -1.933994,0.0804 -2.810535,0.0745 -4.756843,0.3445 -3.38045,0.46887 -6.433413,1.45342 -9.426592,2.42909 -1.357597,0.48632 -0.150783,1.58049 1.206814,1.09417 z" />
  <path
     style="fill:#000000;fill-opacity:1;stroke-width:0.754916;stroke-opacity:0.391521"
     id="path5"
     d="m 35.139826,121.24714 c 3.384139,-1.49072 6.800976,-2.96488 10.33446,-4.33973 1.238387,-0.36264 3.312574,-0.92599 4.765749,-0.60188 0.205627,0.0459 0.375238,0.13272 0.562857,0.19908 1.945747,0.72921 3.362188,1.7981 4.82658,2.80892 0.946612,0.60026 0.491175,0.31129 1.366375,0.86689 1.071201,0.68001 2.758683,-0.18333 1.687482,-0.86335 v 0 c -0.855823,-0.54329 -0.420813,-0.26782 -1.305139,-0.82635 -1.661129,-1.14659 -3.28705,-2.34786 -5.543801,-3.13705 -0.411554,-0.10804 -0.802186,-0.24707 -1.234661,-0.32414 -0.343702,-0.0613 -0.709947,-0.0764 -1.069628,-0.0865 -1.905324,-0.0532 -3.707306,0.38058 -5.334858,0.89717 -1.810326,0.70499 -3.559412,1.44577 -5.322144,2.18852 -1.747938,0.73651 -3.537696,1.4432 -5.209082,2.23717 -1.217482,0.59471 0.258329,1.57595 1.47581,0.98123 z" />
  <path
     style="fill:#000000;fill-opacity:1;stroke-width:0.754916;stroke-opacity:0.391521"
     id="path6"
     d="m 34.044741,131.79122 c 3.478645,-1.75162 7.637716,-3.00647 11.850528,-4.08433 1.657406,-0.31293 3.518143,-0.5836 5.252006,-0.28071 0.659243,0.11516 1.236266,0.3376 1.821442,0.53475 0.889191,0.33466 1.615457,0.77695 2.35078,1.21017 1.11681,0.65575 2.74408,-0.24435 1.62727,-0.9001 v 0 c -0.883753,-0.51735 -1.764006,-1.03983 -2.843629,-1.42911 -0.955366,-0.30895 -1.483111,-0.52339 -2.570867,-0.68931 -2.192997,-0.33452 -4.484145,-0.0401 -6.567211,0.37567 -4.432007,1.13804 -8.801376,2.4624 -12.455692,4.31188 -1.180078,0.61872 0.355294,1.56981 1.535373,0.95109 z" />
  <path
     style="fill:#000000;fill-opacity:1;stroke-width:0.754916;stroke-opacity:0.391521"
     id="path7"
     d="m 37.481372,141.03806 c 1.525261,-0.83203 1.917475,-1.07981 3.624046,-1.86008 1.607486,-0.73496 2.248096,-1.07839 4.24477,-1.38512 1.986029,-0.30509 3.338908,-0.23453 5.378922,-0.24398 3.170538,0.075 6.274208,0.47642 9.031075,1.3926 1.085044,0.36059 1.548631,0.60057 2.497899,1.03246 0.787855,0.35097 1.402563,0.79689 2.036382,1.23161 1.025773,0.7024 2.768793,-0.12432 1.743019,-0.82672 v 0 c -0.734388,-0.50211 -1.459991,-1.01151 -2.369873,-1.41728 -1.100867,-0.49511 -1.615409,-0.76043 -2.878946,-1.17188 -3.089984,-1.0062 -6.549922,-1.45731 -10.088829,-1.53304 -2.430953,0.0238 -3.859607,-0.0558 -6.230839,0.34542 -2.236033,0.37842 -3.075979,0.78598 -4.837452,1.59375 -1.81691,0.83319 -2.211334,1.08703 -3.841749,1.98152 -1.067969,0.68167 0.623607,1.54241 1.691575,0.86074 z" />
  <path
     style="fill:#000000;fill-opacity:1;stroke-width:0.754916;stroke-opacity:0.391521"
     id="path8"
     d="m 43.014198,152.8656 c 0.539298,-0.63751 0.943713,-1.31411 1.55634,-1.93152 0.525067,-0.52918 0.757932,-0.66407 1.405762,-1.13765 0.269692,-0.15862 0.515215,-0.33186 0.809077,-0.47586 0.93218,-0.4568 2.450788,-0.90068 3.685323,-0.98434 0.318357,-0.0216 0.641189,-0.002 0.961783,-0.003 2.33703,0.11396 4.564483,0.65375 6.536428,1.36396 0.438147,0.15779 0.848381,0.33947 1.272571,0.5092 1.871474,0.85056 3.618305,1.78425 5.312715,2.7462 1.13646,0.6447 2.73629,-0.27123 1.59983,-0.91594 v 0 c -1.788992,-1.01411 -3.631257,-2.00003 -5.615816,-2.89049 -0.486241,-0.19192 -0.957334,-0.39694 -1.458723,-0.57575 -2.33083,-0.83125 -4.961406,-1.43312 -7.721105,-1.52885 -0.480788,0.0139 -0.966012,0.002 -1.442365,0.0417 -1.663339,0.13844 -3.52381,0.71669 -4.767893,1.34324 -0.350515,0.17653 -0.644223,0.38661 -0.966335,0.57992 -0.790368,0.58745 -0.99955,0.70038 -1.644274,1.35523 -0.659288,0.66965 -1.108488,1.4006 -1.674663,2.0954 -0.507076,0.86695 1.644268,1.27563 2.151345,0.40869 z" />
  <path
     style="fill:#000000;fill-opacity:1;stroke-width:0.754916;stroke-opacity:0.391521"
     id="path9"
     d="m 40.500353,166.36809 c 2.439666,-0.938 4.971085,-1.81361 7.871689,-2.19854 2.152424,-0.28564 2.597604,-0.20743 4.801783,-0.19518 2.885272,0.1698 5.444235,0.85198 7.711515,1.86043 0.394876,0.17563 0.755299,0.37507 1.132948,0.5626 1.212802,0.59782 2.696299,-0.37965 1.483497,-0.97746 v 0 c -0.436337,-0.2137 -0.852988,-0.44119 -1.309012,-0.64109 -2.694138,-1.181 -5.604049,-1.90872 -9.01076,-2.09684 -2.53269,0.002 -3.033913,-0.0832 -5.49522,0.25559 -3.100247,0.42674 -5.830414,1.34764 -8.444343,2.35517 -1.334208,0.50692 -0.0763,1.58223 1.257903,1.07532 z" />
  <path
     style="fill:#000000;fill-opacity:1;stroke-width:0.754916;stroke-opacity:0.391521"
     id="path10"
     d="m 44.970601,179.80784 c 2.108556,-0.72031 4.244554,-1.47941 6.672091,-1.79549 1.376173,-0.17918 2.688487,-0.21121 4.087779,-0.27575 2.597455,0.0219 5.269627,0.20748 7.489143,1.04216 0.322122,0.12114 0.604919,0.27323 0.907379,0.40984 0.716108,0.35152 1.394,0.72482 2.04435,1.11505 1.106569,0.66137 2.747772,-0.23047 1.641203,-0.89185 v 0 c -0.731928,-0.43596 -1.488895,-0.85648 -2.299185,-1.24593 -0.403277,-0.17409 -0.784084,-0.36653 -1.20983,-0.52229 -2.609962,-0.95483 -5.723137,-1.18677 -8.759775,-1.19496 -1.66157,0.0797 -2.940379,0.10693 -4.5814,0.3309 -2.630553,0.35901 -4.963402,1.16212 -7.249658,1.95301 -1.334207,0.50691 -0.07631,1.58222 1.257903,1.07531 z" />
  <path
     style="fill:#000000;fill-opacity:1;stroke-width:0.754916;stroke-opacity:0.391521"
     id="path11"
     d="m 50.341206,191.63937 c 1.291418,-0.79587 2.424978,-1.66575 3.761088,-2.43892 0.9882,-0.57183 1.030145,-0.56958 2.050958,-1.05557 1.8587,-0.64693 4.041064,-0.80907 6.172767,-0.89984 0.258101,0.008 0.520389,-0.004 0.774303,0.0233 0.360964,0.0391 0.710558,0.108 1.058513,0.17526 1.726601,0.33376 3.333262,0.81733 4.910396,1.33185 1.893774,0.77031 3.339597,1.82269 4.675381,2.89356 0.931536,0.74382 2.777347,-0.007 1.845811,-0.75078 v 0 c -1.533247,-1.2199 -3.19467,-2.41356 -5.396636,-3.26505 -2.168769,-0.70423 -4.498562,-1.44615 -6.997195,-1.67604 -0.343252,-0.0316 -0.69497,-0.0138 -1.042455,-0.0207 -2.607891,0.11469 -5.240714,0.34847 -7.458541,1.19848 -1.10871,0.53227 -1.190399,0.54722 -2.247904,1.16181 -1.407973,0.81828 -2.618095,1.73178 -3.964271,2.58156 -0.919557,0.74864 0.938228,1.48977 1.857785,0.74112 z" />
  <path
     style="fill:#000000;fill-opacity:1;stroke-width:0.754916;stroke-opacity:0.391521"
     id="path12"
     d="m 56.823655,197.50682 c 2.688964,-0.45885 5.500538,-0.60375 8.284552,-0.74474 1.599796,-0.0752 3.300072,-0.13472 4.829737,0.20794 0.260747,0.0584 0.505108,0.13825 0.757662,0.20736 0.947016,0.36649 0.484757,0.17227 1.386114,0.58319 1.257182,0.56725 2.664848,-0.44598 1.407666,-1.01324 v 0 c -1.152324,-0.51559 -0.540642,-0.26617 -1.841741,-0.7429 -0.356154,-0.0914 -0.702233,-0.1967 -1.068462,-0.27403 -1.80775,-0.3817 -3.785285,-0.35018 -5.671996,-0.2556 -3.039688,0.15439 -6.119789,0.31117 -9.033837,0.8586 -1.455929,0.38295 -0.505624,1.55637 0.950305,1.17342 z" />
  <path
     style="fill:#000000;fill-opacity:1;stroke-width:0.754916;stroke-opacity:0.391521"
     id="path13"
     d="m 50.284781,214.80922 c 1.577433,-0.28159 3.19944,-0.48222 4.821116,-0.661 1.509994,-0.16646 2.675282,-0.29952 4.219104,-0.30256 0.695676,-0.001 1.388186,0.0535 2.082279,0.0803 2.281903,0.21392 4.605133,0.53461 6.528206,1.30338 0.861077,0.34422 1.474306,0.70781 2.230748,1.11878 1.163609,0.62877 2.723919,-0.30905 1.56031,-0.93782 v 0 c -0.936532,-0.50365 -1.557262,-0.87544 -2.638879,-1.29409 -2.240181,-0.86708 -4.896427,-1.25207 -7.539123,-1.4801 -0.798845,-0.0263 -1.596391,-0.0834 -2.396536,-0.079 -1.645639,0.009 -2.911392,0.14951 -4.513352,0.32653 -1.674063,0.18498 -3.347741,0.39357 -4.976863,0.68299 -1.541821,0.25105 -0.918831,1.49369 0.62299,1.24264 z" />
  <path
     style="fill:#000000;fill-opacity:1;stroke-width:0.754916;stroke-opacity:0.391521"
     id="path14"
     d="m 51.80679,227.27706 c 2.03375,-0.54279 4.311671,-0.69155 6.522359,-0.80456 2.033335,-0.0562 1.766326,-0.0705 3.814127,-0.0393 0.593073,0.009 1.195313,-0.0195 1.778225,0.0434 1.5865,0.17132 3.326913,0.86252 4.642298,1.36195 1.674809,0.70758 0.89643,0.35643 2.345667,1.04584 1.232434,0.58463 2.68321,-0.40866 1.450777,-0.99329 v 0 c -1.583086,-0.74905 -0.737628,-0.36967 -2.546414,-1.13084 -1.812476,-0.6774 -3.616068,-1.34438 -5.796068,-1.57486 -0.60689,-0.0642 -1.233041,-0.0356 -1.850092,-0.0445 -2.161861,-0.0309 -1.913485,-0.0156 -4.045186,0.0446 -2.531507,0.13441 -5.134456,0.31631 -7.440795,0.96946 -1.392244,0.45339 -0.267141,1.57548 1.125102,1.12208 z" />
  <path
     style="fill:#000000;fill-opacity:1;stroke-width:0.754916;stroke-opacity:0.391521"
     id="path15"
     d="m 46.598078,243.55931 c 0.155584,-0.0972 0.291509,-0.20597 0.466753,-0.29163 1.012597,-0.49496 2.173262,-0.92869 3.297753,-1.32861 1.212502,-0.43122 2.724765,-0.92438 4.020438,-1.28004 0.600061,-0.16472 1.221058,-0.30342 1.831586,-0.45513 1.895464,-0.35904 4.078963,-0.84929 6.126657,-0.72145 0.926939,0.0579 1.406715,0.24224 2.237945,0.47009 2.397086,0.68044 4.320439,1.71283 5.969583,2.89581 1.000152,0.7143 2.772701,-0.0918 1.772549,-0.80608 v 0 c -1.880132,-1.33761 -4.073443,-2.50168 -6.799683,-3.2652 -1.357643,-0.3402 -1.736767,-0.5118 -3.231344,-0.58666 -2.32058,-0.11624 -4.838853,0.40322 -6.985051,0.82957 -0.658872,0.16496 -1.328738,0.31633 -1.976617,0.49487 -1.342087,0.36985 -2.962896,0.89759 -4.21695,1.34625 -1.390636,0.49753 -2.522892,0.92567 -3.737205,1.54506 -0.233541,0.11912 -0.414487,0.26798 -0.621731,0.40198 -0.932026,0.74362 0.913291,1.49479 1.845317,0.75117 z" />
  <path
     style="fill:#000000;fill-opacity:1;stroke-width:0.754916;stroke-opacity:0.391521"
     id="path16"
     d="m 55.830052,256.15743 c 0.759965,-0.22567 1.441348,-0.53756 2.330006,-0.5765 1.300768,-0.057 2.452847,0.23155 3.615874,0.5117 2.560659,0.76193 4.850224,1.77641 6.961574,2.89201 0.699944,0.38266 1.429018,0.75885 1.885154,1.25211 0.793074,0.79425 2.764015,0.15506 1.970941,-0.63918 v 0 c -0.13747,-0.13211 -0.258678,-0.27019 -0.41241,-0.39635 -0.531905,-0.4365 -1.251383,-0.79068 -1.902937,-1.16484 -2.313211,-1.21925 -4.82474,-2.32694 -7.646752,-3.14061 -0.583189,-0.13147 -1.148182,-0.29301 -1.749568,-0.39443 -1.547096,-0.26089 -3.110651,-0.28459 -4.622194,0.0499 -0.117091,0.0259 -1.234947,0.38376 -1.443842,0.45022 -1.43423,0.40868 -0.420076,1.56461 1.014154,1.15593 z" />
  <path
     style="fill:#000000;fill-opacity:1;stroke-width:0.754916;stroke-opacity:0.391521"
     id="path17"
     d="m 48.799862,275.37664 c 2.124328,-1.24229 4.373355,-2.51244 7.183273,-3.24687 1.737896,-0.45424 2.232694,-0.42611 4.058447,-0.58453 2.597499,0.0409 5.167977,0.3657 7.396124,1.15243 1.173619,0.41439 1.940168,0.81504 2.995419,1.31702 1.587535,0.91082 0.852187,0.45469 2.218458,1.36186 1.046833,0.69223 2.764628,-0.15147 1.717795,-0.84371 v 0 c -1.526913,-1.00598 -0.703069,-0.49938 -2.486446,-1.5119 -1.217399,-0.57478 -2.027869,-0.99993 -3.39707,-1.46931 -2.669055,-0.91496 -5.714529,-1.28793 -8.806855,-1.28212 -2.217281,0.21486 -2.730269,0.17966 -4.827631,0.74035 -3.003969,0.80306 -5.434558,2.14921 -7.713282,3.48738 -1.091115,0.66966 0.570653,1.54905 1.661768,0.8794 z" />
  <path
     style="fill:#000000;fill-opacity:1;stroke-width:0.754916;stroke-opacity:0.391521"
     id="path18"
     d="m 55.942126,287.87868 c 1.033058,-0.64856 2.295629,-1.1082 3.818522,-1.28103 0.388927,-0.0441 0.787842,-0.0521 1.181764,-0.0781 0.323842,0.0156 0.651704,0.014 0.971528,0.0469 2.059908,0.2121 3.892064,0.95608 5.624897,1.57592 1.005036,0.38536 2.078418,0.71225 3.036388,1.13728 0.67851,0.30103 1.278039,0.65392 1.878937,1.0026 0.172174,0.11046 0.344348,0.22092 0.516522,0.33139 1.067016,0.68215 2.759792,-0.17782 1.692776,-0.85997 v 0 c -0.197579,-0.12592 -0.395157,-0.25185 -0.592736,-0.37777 -0.695355,-0.40219 -1.391661,-0.80209 -2.177946,-1.14811 -0.725289,-0.31917 -1.200842,-0.47392 -1.982247,-0.75675 -0.389177,-0.14086 -0.777715,-0.2823 -1.166573,-0.42344 -2.486582,-0.88857 -5.042415,-1.83692 -8.091537,-1.80981 -0.514749,0.0408 -1.037533,0.0564 -1.544247,0.12218 -1.871628,0.24289 -3.478055,0.80494 -4.769566,1.6049 -1.133858,0.64619 0.46966,1.56003 1.603518,0.91384 z" />
  <path
     style="fill:#000000;fill-opacity:1;stroke-width:0.754916;stroke-opacity:0.391521"
     id="path19"
     d="m 53.241559,304.46169 c 2.084347,-1.02936 4.200386,-2.03344 6.651275,-2.77 1.510884,-0.45406 2.052041,-0.55036 3.605256,-0.90193 1.673698,-0.31181 3.551445,-0.72719 5.319691,-0.36315 0.948977,0.19536 1.876501,0.59098 2.698035,0.90009 2.393362,1.01576 4.412378,2.27808 6.384028,3.54564 1.063896,0.68374 2.760595,-0.17372 1.696698,-0.85745 v 0 c -2.106911,-1.35358 -4.269835,-2.69844 -6.843567,-3.77129 -1.282408,-0.47007 -2.064829,-0.82745 -3.540438,-1.08963 -2.199931,-0.39086 -4.478271,0.0289 -6.55449,0.43537 -1.669805,0.38095 -2.280939,0.49178 -3.903727,0.98467 -2.560114,0.77758 -4.791383,1.8176 -6.971339,2.89811 -1.227821,0.58777 0.230756,1.57734 1.458578,0.98957 z" />
  <path
     style="fill:#000000;fill-opacity:1;stroke-width:0.754916;stroke-opacity:0.391521"
     id="path20"
     d="m 55.300077,320.30427 c 0.553901,-0.91032 0.957194,-1.85787 1.709207,-2.72643 0.905991,-1.04639 2.172733,-1.98821 3.387475,-2.92036 0.506402,-0.35049 1.190496,-0.92618 1.988878,-1.12745 0.373146,-0.0941 0.801408,-0.0922 1.207636,-0.11396 1.779803,-0.0956 3.467007,0.0325 5.221113,0.18671 2.458054,0.21261 4.447244,0.85748 6.469318,1.63701 1.329963,0.51052 2.596823,-0.56137 1.26686,-1.07189 v 0 c -2.36348,-0.90375 -4.53531,-1.58464 -7.395262,-1.8428 -2.593451,-0.22179 -5.736293,-0.51505 -8.193958,0.19926 -0.963065,0.27992 -1.729404,0.90717 -2.386014,1.36324 -1.331698,1.02458 -2.681719,2.0553 -3.668946,3.20655 -0.766724,0.89411 -1.19258,1.86497 -1.757652,2.80144 -0.507077,0.86694 1.644268,1.27563 2.151345,0.40868 z" />
  <path
     style="fill:#000000;fill-opacity:1;stroke-width:0.754916;stroke-opacity:0.391521"
     id="path21"
     d="m 60.366109,337.45098 c 0.01945,-0.80781 -0.06675,-1.6326 0.295778,-2.42477 0.601967,-1.31535 1.934667,-2.43611 3.233185,-3.55034 1.084332,-0.93727 2.392611,-1.68772 4.223937,-2.13221 1.629712,-0.39554 3.362136,-0.49405 5.101403,-0.59055 2.03585,-0.0617 3.542325,0.0315 5.098573,0.7977 0.581842,0.33181 0.315756,0.1641 0.804202,0.50005 1.033593,0.69866 2.767348,-0.13437 1.733754,-0.83303 v 0 c -0.673564,-0.44961 -0.311963,-0.22822 -1.08977,-0.66153 -0.245845,-0.11325 -0.478021,-0.23688 -0.737534,-0.33974 -1.778419,-0.70495 -3.927386,-0.82295 -6.034975,-0.7494 -2.053473,0.11989 -4.080434,0.25358 -5.986797,0.74991 -2.130973,0.5548 -3.721993,1.44421 -5.004762,2.54631 -1.537097,1.33183 -2.897928,2.51073 -3.588357,4.08914 -0.371995,0.85043 -0.29977,1.73239 -0.316353,2.59846 0,0.91384 2.267716,0.91384 2.267716,0 z" />
  <path
     style="fill:#000000;fill-opacity:1;stroke-width:0.754916;stroke-opacity:0.391521"
     id="path22"
     d="m 75.021512,346.51987 c 0.01945,-0.44231 -0.05625,-0.88716 0.06813,-1.3265 0.101036,-0.35689 0.201364,-0.48307 0.401698,-0.83192 0.729057,-0.92506 1.895978,-1.5414 3.385096,-2.06492 1.73826,-0.58278 3.707137,-0.88849 5.658617,-1.14412 1.592241,-0.23455 2.081403,-0.0673 3.551373,0.28646 1.484822,0.34504 2.34106,-0.85166 0.856238,-1.1967 v 0 c -0.475638,-0.10756 -0.936237,-0.23992 -1.426915,-0.32268 -1.277132,-0.21541 -2.229498,-0.20467 -3.49145,-0.0262 -2.196589,0.29087 -4.404205,0.64328 -6.35341,1.30866 -2.041507,0.74005 -3.367769,1.48416 -4.340027,2.76681 -0.263724,0.48086 -0.371689,0.60969 -0.499104,1.10443 -0.123682,0.48024 -0.06661,0.96381 -0.07796,1.44672 0,0.91384 2.267717,0.91384 2.267717,0 z" />
  <path
     style="fill:#000000;fill-opacity:1;stroke-width:0.754916;stroke-opacity:0.391521"
     id="path23"
     d="m 84.384298,361.74905 c 1.59416,-1.46629 3.386672,-2.86561 5.648057,-4.02321 0.319324,-0.16346 0.66581,-0.30882 0.998715,-0.46323 0.311462,-0.10808 0.603466,-0.23693 0.934387,-0.32422 1.733386,-0.45723 4.084677,-0.27064 5.905686,-0.11866 1.174873,0.11715 2.352327,0.22625 3.472247,0.46499 1.50699,0.31228 2.28191,-0.9023 0.77492,-1.21457 v 0 c -1.27371,-0.25848 -2.590904,-0.4096 -3.926054,-0.52977 -2.45779,-0.19625 -5.11306,-0.34384 -7.423189,0.30013 -0.416074,0.116 -0.783535,0.28165 -1.175303,0.42247 -0.381839,0.17936 -0.778114,0.34919 -1.145519,0.53809 -2.378229,1.22278 -4.277715,2.69536 -5.960803,4.23973 -0.87877,0.76439 1.018087,1.47264 1.896856,0.70825 z" />
  <path
     style="fill:#000000;fill-opacity:1;stroke-width:0.754916;stroke-opacity:0.391521"
     id="path24"
     d="m 106.58039,371.54012 c 1.06089,-0.97655 1.95511,-1.73549 3.57207,-2.45325 0.5658,-0.25115 1.14291,-0.50185 1.78282,-0.68638 1.72969,-0.49879 3.17789,-0.61346 5.05819,-0.85797 3.40972,-0.26546 1.74638,-0.21354 4.98731,-0.18186 1.60341,0.0108 1.63016,-1.28149 0.0268,-1.29227 v 0 c -3.64742,-0.0148 -1.80425,-0.0819 -5.52789,0.21537 -2.36422,0.31882 -3.65267,0.40224 -5.824,1.04978 -0.73141,0.21812 -1.39477,0.50699 -2.03793,0.80191 -1.74262,0.79908 -2.81975,1.65713 -3.96864,2.72735 -0.8404,0.77828 1.09092,1.4556 1.93132,0.67732 z" />
  <path
     style="fill:#000000;fill-opacity:1;stroke-width:0.754916;stroke-opacity:0.391521"
     id="path25"
     d="m 136.96406,376.80388 c -0.16345,-1.42257 -0.0703,-2.85496 0.0984,-4.27603 0.0953,-0.80332 0.25939,-2.07023 0.67911,-2.8711 0.2018,-0.38505 0.55619,-0.73857 0.83428,-1.10785 0.40088,-0.32903 0.7652,-0.67356 1.20263,-0.9871 1.27795,-0.91601 2.93395,-1.78982 4.85209,-2.24568 0.33957,-0.0807 0.69803,-0.13267 1.04704,-0.199 0.33225,-0.0426 0.66451,-0.0852 0.99676,-0.12787 1.56222,-0.20608 1.05083,-1.46516 -0.51138,-1.25908 v 0 c -0.40808,0.055 -0.81616,0.11007 -1.22424,0.1651 -0.446,0.0898 -0.90451,0.16154 -1.33799,0.26942 -2.2449,0.5587 -4.21974,1.57346 -5.69907,2.67171 -0.52046,0.38638 -0.94671,0.81115 -1.42006,1.21673 -0.3231,0.45552 -0.72804,0.89487 -0.9693,1.36657 -0.43522,0.85092 -0.6134,2.18511 -0.71502,3.0467 -0.17223,1.46024 -0.26393,2.93186 -0.0988,4.39362 0.0697,0.91298 2.33523,0.85684 2.26558,-0.0561 z" />
  <path
     style="fill:#000000;fill-opacity:1;stroke-width:0.754916;stroke-opacity:0.391521"
     id="path26"
     d="m 162.95393,377.36728 c -0.10417,-2.12853 0.0655,-4.2794 0.95957,-6.35738 0.1725,-0.40094 0.42935,-0.78854 0.64403,-1.18281 0.7918,-1.13798 2.05397,-2.08041 3.54558,-2.94059 1.12262,-0.65253 -0.49663,-1.55731 -1.61925,-0.90479 v 0 c -0.32055,0.18757 -0.65811,0.36616 -0.96164,0.56272 -1.33301,0.86321 -2.36863,1.83819 -3.13263,2.90353 -0.23464,0.44019 -0.51333,0.87352 -0.7039,1.32057 -0.91957,2.15712 -1.10366,4.38966 -0.99948,6.59875 0,0.91384 2.26772,0.91384 2.26772,0 z" />
  <path
     style="fill:#000000;fill-opacity:1;stroke-width:0.754916;stroke-opacity:0.391521"
     id="path27"
     d="m 188.21558,376.69066 c -0.0908,-1.69401 0.18365,-3.45013 1.42726,-5.01472 0.72635,-0.91383 1.22499,-1.13985 2.34199,-1.87751 1.04281,-0.62137 2.28843,-1.07631 3.58275,-1.50089 1.3863,-0.45927 0.24662,-1.57657 -1.13968,-1.1173 v 0 c -1.51233,0.50522 -2.96682,1.04391 -4.17401,1.78326 -1.36323,0.93277 -1.8725,1.15325 -2.75775,2.29589 -1.35125,1.74415 -1.65823,3.69217 -1.53441,5.57399 0.17708,0.90825 2.43093,0.76553 2.25385,-0.14272 z" />
  <path
     style="fill:#000000;fill-opacity:1;stroke-width:0.754916;stroke-opacity:0.391521"
     id="path28"
     d="m 207.37421,377.74712 c 0.14976,-0.26032 0.2743,-0.5258 0.44929,-0.78096 0.61048,-0.89012 1.13155,-1.43759 1.96858,-2.2885 1.12044,-1.13903 2.35164,-2.23081 3.63715,-3.31048 1.20746,-0.97517 0.61315,-0.5276 1.7654,-1.35023 0.99854,-0.71502 -0.77583,-1.5198 -1.77437,-0.80477 v 0 c -1.2384,0.88922 -0.61148,0.41446 -1.86799,1.42974 -2.52363,2.12274 -5.03725,4.32491 -6.37807,6.79175 -0.38891,0.88656 1.8111,1.20001 2.20001,0.31345 z" />
  <path
     style="fill:#000000;fill-opacity:1;stroke-width:0.754916;stroke-opacity:0.391521"
     id="path29"
     d="m 220.45671,382.76484 c 0.16041,-0.27889 0.2885,-0.56453 0.48124,-0.8367 0.6919,-0.97704 1.87267,-2.31086 2.69691,-3.2086 1.54445,-1.68218 3.239,-3.30608 4.98892,-4.92026 0.72704,-0.62556 1.57336,-1.40095 2.43729,-1.98794 0.65841,-0.44735 1.14384,-0.65861 1.89609,-1.02742 1.21131,-0.5988 -0.27463,-1.57506 -1.48594,-0.97626 v 0 c -0.93881,0.46737 -1.39276,0.66053 -2.22752,1.2307 -0.90484,0.61802 -1.78298,1.42179 -2.5493,2.08181 -1.78385,1.64647 -3.5122,3.30273 -5.08556,5.01881 -0.94553,1.03129 -2.05531,2.29109 -2.82617,3.38727 -0.20225,0.28759 -0.33762,0.58904 -0.50642,0.88355 -0.44052,0.87868 1.73994,1.23372 2.18046,0.35504 z" />
  <path
     style="fill:#000000;fill-opacity:1;stroke-width:0.754916;stroke-opacity:0.391521"
     id="path30"
     d="m 245.39056,385.69105 c -0.17987,-2.43221 1.34972,-4.79296 2.90413,-7.0182 0.329,-0.35809 0.59275,-0.73826 0.987,-1.07427 2.02485,-1.72574 6.15173,-2.61088 9.40619,-3.33871 1.49219,-0.33457 0.66194,-1.53721 -0.83024,-1.20264 v 0 c -3.17456,0.71351 -6.5349,1.46775 -9.03127,2.84943 -1.48924,0.82425 -1.71358,1.26871 -2.63939,2.28935 -1.65231,2.37829 -3.25333,4.89789 -3.06413,7.49504 0,0.91384 2.26771,0.91384 2.26771,0 z" />
  <path
     style="fill:#000000;fill-opacity:1;stroke-width:0.754916;stroke-opacity:0.391521"
     id="path31"
     d="m 273.60547,379.77895 c -0.21967,-0.30279 -0.4166,-0.61128 -0.65901,-0.90839 -0.61819,-0.75763 -1.64395,-1.80846 -2.3045,-2.53365 -1.1811,-1.29671 -2.27493,-2.60536 -3.29353,-3.94557 -0.61411,-0.98453 -1.09283,-1.99991 -1.13795,-3.05059 -0.0111,-0.25717 -0.0248,-0.51865 0.0641,-0.77087 0.16274,-0.4621 0.67772,-0.86458 1.09294,-1.25487 0.99949,-0.68708 0.48099,-0.37239 1.54314,-0.95063 1.15105,-0.63624 -0.42778,-1.56393 -1.57883,-0.9277 v 0 c -1.32353,0.74048 -0.67568,0.33477 -1.92346,1.22748 -0.72274,0.72783 -1.13285,1.00182 -1.39968,1.85383 -0.0966,0.30858 -0.0755,0.62655 -0.0566,0.93982 0.0717,1.18774 0.60813,2.33614 1.31578,3.44763 1.04409,1.37098 2.16226,2.71028 3.37087,4.03717 0.75806,0.83224 1.5114,1.58876 2.21895,2.43113 0.19787,0.23558 0.36518,0.4791 0.54778,0.71865 0.38891,0.88656 2.58892,0.57312 2.20001,-0.31344 z" />
  <path
     style="fill:#000000;fill-opacity:1;stroke-width:0.754916;stroke-opacity:0.391521"
     id="path32"
     d="m 288.70267,374.78996 c -0.13897,-0.2188 -0.25604,-0.44253 -0.41692,-0.6564 -0.51208,-0.68074 -1.34735,-1.54589 -1.90619,-2.18329 -0.82883,-0.94537 -1.76799,-2.05276 -2.49056,-3.02456 -0.36007,-0.48425 -0.6771,-0.97854 -1.01566,-1.46782 -0.6681,-1.1329 -1.02321,-2.29646 -0.83585,-3.49102 0.0554,-0.35319 0.25472,-0.97744 0.53478,-1.32673 0.0911,-0.11365 0.25385,-0.20379 0.38078,-0.30568 0.66722,-0.25402 0.29678,-0.13321 1.12376,-0.34973 1.43012,-0.41334 0.40443,-1.56596 -1.02569,-1.15262 v 0 c -1.45218,0.44377 -0.77611,0.17323 -2.02109,0.81739 -0.20876,0.2042 -0.46339,0.39526 -0.62629,0.61259 -0.17528,0.23386 -0.2871,0.48275 -0.38102,0.73136 -0.62814,1.66271 -0.1936,3.34206 0.74141,4.93912 0.35277,0.50844 0.68365,1.02198 1.05833,1.5253 1.39002,1.86727 3.10201,3.64426 4.62637,5.47481 0.17707,0.90825 2.43092,0.76553 2.25384,-0.14272 z" />
  <path
     style="fill:#000000;fill-opacity:1;stroke-width:0.754916;stroke-opacity:0.391521"
     id="path33"
     d="m 301.4038,373.30399 c 0.19774,-0.79334 0.30645,-1.45908 0.74077,-2.23053 0.87862,-1.56065 2.47397,-3.03296 4.01013,-4.40704 0.45017,-0.35492 0.99625,-0.83231 1.58076,-1.14113 0.15466,-0.0817 0.35348,-0.13116 0.53022,-0.19674 1.30201,-0.5334 -0.0216,-1.58277 -1.32366,-1.04936 v 0 c -0.30372,0.13124 -0.63453,0.24431 -0.91116,0.39375 -0.66025,0.35669 -1.27166,0.88935 -1.78965,1.29992 -1.68559,1.51288 -3.35527,3.08722 -4.30584,4.80891 -0.45775,0.82908 -0.57559,1.5347 -0.78615,2.38331 -0.17235,0.90855 2.08223,1.04745 2.25458,0.13891 z" />
  <path
     style="fill:#000000;fill-opacity:1;stroke-width:0.754916;stroke-opacity:0.391521"
     id="path34"
     d="m 314.12695,377.82288 c 0.7401,-1.28749 2.28793,-2.35966 3.78124,-3.38924 1.48762,-0.83674 3.24872,-1.4747 5.04922,-2.06531 1.38866,-0.45695 0.25473,-1.57614 -1.13393,-1.11919 v 0 c -2.03182,0.67051 -4.01545,1.39649 -5.66474,2.36219 -1.70376,1.17963 -3.44059,2.41361 -4.2318,3.89811 -0.38891,0.88655 1.8111,1.2 2.20001,0.31344 z" />
  <path
     style="fill:#000000;fill-opacity:1;stroke-width:0.754916;stroke-opacity:0.391521"
     id="path35"
     d="m 335.22452,380.73177 c 0.92723,-1.89749 1.69738,-3.81911 2.68868,-5.70624 0.57001,-0.83712 0.2435,-0.46661 0.92823,-1.12573 0.79706,-0.79295 -1.17066,-1.43535 -1.96772,-0.6424 v 0 c -0.85264,0.86911 -0.46716,0.40515 -1.13325,1.39804 -0.99369,1.89762 -1.77503,3.8282 -2.70376,5.73629 -0.42191,0.88163 1.7659,1.22168 2.18782,0.34004 z" />
  <path
     style="fill:#000000;fill-opacity:1;stroke-width:0.754916;stroke-opacity:0.391521"
     id="path36"
     d="m 359.88589,395.10795 c -0.0132,-0.10832 -0.006,-0.21807 -0.0397,-0.32496 -0.0682,-0.21788 -0.43434,-0.96701 -0.52183,-1.15531 -0.34498,-0.74254 -0.64811,-1.48542 -0.91885,-2.23781 -0.19181,-0.6747 -0.44134,-1.35676 -0.48353,-2.04245 -0.0389,-0.6317 0.15284,-1.23944 0.391,-1.85181 0.11863,-0.47972 0.49713,-0.8417 0.98063,-1.22165 0.91143,-0.75187 -0.95435,-1.48644 -1.86578,-0.73457 v 0 c -0.61588,0.5244 -1.15878,1.04539 -1.33154,1.68362 -0.24598,0.66435 -0.3325,0.77988 -0.40696,1.46651 -0.10802,0.99622 0.18172,1.98387 0.49487,2.96045 0.28092,0.7778 0.59382,1.54612 0.95049,2.31384 0.14244,0.30659 0.33672,0.60571 0.45019,0.9162 0.0273,0.0746 0.0222,0.15196 0.0333,0.22794 0,0.91384 2.26771,0.91384 2.26771,0 z" />
  <path
     style="fill:#000000;fill-opacity:1;stroke-width:0.754916;stroke-opacity:0.391521"
     id="path37"
     d="m 367.77632,381.94563 c -0.78607,-2.00656 -0.29362,-4.08068 5e-5,-6.10368 0.22635,-1.18097 0.47195,-2.36604 1.00673,-3.51719 0.17435,-0.37531 0.45344,-0.87177 0.7817,-1.22599 0.1189,-0.1283 0.28253,-0.24142 0.42379,-0.36213 0.13885,-0.0855 0.27771,-0.17093 0.41656,-0.25639 1.06257,-0.6844 -0.63579,-1.54078 -1.69836,-0.85638 v 0 c -0.21001,0.13923 -0.42001,0.27847 -0.63002,0.41771 -0.19959,0.18379 -0.42615,0.35891 -0.59877,0.55136 -1.36224,1.51874 -1.55751,3.48966 -1.96164,5.14255 -0.30696,2.11853 -0.80175,4.29149 0.015,6.39291 0.22677,0.90465 2.47169,0.72189 2.24492,-0.18277 z" />
  <path
     style="fill:#000000;fill-opacity:1;stroke-width:0.754916;stroke-opacity:0.391521"
     id="path38"
     d="m 381.81392,368.62917 c 2.21585,2.02144 4.53865,4.00431 6.92043,5.96339 1.14442,0.88455 2.46048,1.67926 3.94426,2.37763 1.24006,0.57937 2.67778,-0.42007 1.43772,-0.99944 v 0 c -1.33026,-0.61594 -2.48852,-1.33221 -3.51803,-2.11427 -2.35388,-1.93574 -4.64906,-3.89518 -6.83983,-5.89222 -0.825,-0.78362 -2.76955,-0.1187 -1.94455,0.66491 z" />
  <path
     style="fill:#000000;fill-opacity:1;stroke-width:0.754916;stroke-opacity:0.391521"
     id="path39"
     d="m 391.96363,359.78747 c 0.56983,1.38976 1.55246,2.68744 2.78335,3.92482 0.93322,0.86575 2.13565,1.67068 3.80887,2.08268 0.24091,0.0593 0.49722,0.0958 0.74584,0.14372 1.27971,0.19962 2.41955,-0.0828 3.52317,-0.426 0.46773,-0.14663 0.96183,-0.26006 1.45841,-0.36976 1.49355,-0.33257 0.66826,-1.53631 -0.8253,-1.20374 v 0 c -0.58804,0.13179 -1.17386,0.26705 -1.72805,0.44177 -0.27252,0.0868 -1.06935,0.35189 -1.38963,0.35369 -0.11972,5.7e-4 -0.23715,-0.0189 -0.35573,-0.0283 -1.48377,-0.23136 -2.48839,-0.91041 -3.26736,-1.63392 -1.14716,-1.14029 -2.04056,-2.34114 -2.56575,-3.62496 -0.42192,-0.88164 -2.60973,-0.5416 -2.18782,0.34005 z" />
  <path
     style="fill:#000000;fill-opacity:1;stroke-width:0.754916;stroke-opacity:0.391521"
     id="path40"
     d="m 398.30194,352.9703 c 1.56289,1.09621 3.22631,2.16539 5.18052,3.04301 0.38715,0.17387 0.80292,0.32598 1.20439,0.48896 2.14335,0.77738 4.59775,0.98566 7.08814,0.9415 1.04143,-0.01 1.90726,-0.24966 2.76139,-0.55794 1.35464,-0.48899 0.1412,-1.58077 -1.21344,-1.09179 v 0 c -0.52179,0.18838 -0.96643,0.36111 -1.62496,0.35811 -1.99184,0.0425 -3.97054,-0.0964 -5.70211,-0.70518 -0.34349,-0.13713 -0.70045,-0.2639 -1.03046,-0.41139 -1.84898,-0.82635 -3.41724,-1.83745 -4.89268,-2.87261 -1.00171,-0.71359 -2.7725,0.0937 -1.77079,0.80733 z" />
  <path
     style="fill:#000000;fill-opacity:1;stroke-width:0.754916;stroke-opacity:0.391521"
     id="path41"
     d="m 403.69874,343.46096 c 1.90073,1.08994 3.87866,2.16766 6.1271,3.02662 0.54088,0.20663 1.11807,0.38058 1.6771,0.57087 2.06494,0.56032 4.08566,0.78228 6.33913,0.85299 1.60143,0.0466 1.71717,-1.24404 0.11574,-1.29068 v 0 c -1.8355,-0.0484 -3.61111,-0.23411 -5.29856,-0.67405 -0.49147,-0.16457 -1.00028,-0.31337 -1.4744,-0.49372 -2.16182,-0.82234 -4.05872,-1.85902 -5.88259,-2.90587 -1.13386,-0.64619 -2.73738,0.26766 -1.60352,0.91384 z" />
  <path
     style="fill:#000000;fill-opacity:1;stroke-width:0.754916;stroke-opacity:0.391521"
     id="path42"
     d="m 407.59109,334.21536 c 2.00441,1.08165 3.80289,2.30926 6.19082,3.13345 1.76623,0.60961 2.33951,0.65535 4.25283,1.02347 0.98185,0.12031 2.4775,0.34353 3.52734,0.33173 2.00468,-0.0226 3.75436,-0.48685 5.41411,-1.07408 0.25157,-0.11034 0.50314,-0.22069 0.75471,-0.33104 1.26498,-0.5616 -0.12866,-1.58112 -1.39364,-1.01951 v 0 c -0.19025,0.0858 -0.3805,0.17161 -0.57075,0.25742 -1.11216,0.40798 -2.62461,0.85526 -3.97326,0.88158 -0.88037,0.0172 -2.22921,-0.17664 -3.04428,-0.27269 -1.62057,-0.30029 -2.15676,-0.34494 -3.65487,-0.85091 -2.269,-0.76634 -3.93931,-1.94889 -5.84519,-2.96122 -1.09411,-0.66807 -2.75193,0.21374 -1.65782,0.8818 z" />
  <path
     style="fill:#000000;fill-opacity:1;stroke-width:0.754916;stroke-opacity:0.391521"
     id="path43"
     d="m 414.44124,324.58279 c 1.24209,0.95192 2.51883,1.89627 3.92566,2.77216 0.33956,0.21141 0.66957,0.42999 1.05024,0.61727 0.40717,0.20031 0.86974,0.36082 1.3046,0.54123 1.42931,0.38231 1.63804,0.49319 3.21234,0.68686 0.57239,0.0704 1.15923,0.095 1.73884,0.14244 1.58859,0.12442 1.89736,-1.15591 0.30878,-1.28034 v 0 c -1.37112,-0.10141 -2.71625,-0.21027 -3.94668,-0.60255 -0.33056,-0.12946 -0.68674,-0.23989 -0.99168,-0.38838 -0.35036,-0.17059 -0.65336,-0.3707 -0.96479,-0.56428 -1.38287,-0.85954 -2.63431,-1.78807 -3.85416,-2.72287 -0.99069,-0.71857 -2.77383,0.0799 -1.78315,0.79846 z" />
  <path
     style="fill:#000000;fill-opacity:1;stroke-width:0.754916;stroke-opacity:0.391521"
     id="path44"
     d="m 419.17445,316.45432 c 0.27796,0.1478 0.54494,0.30262 0.83388,0.44342 0.51486,0.25089 2.82112,1.29989 3.29404,1.50556 1.05226,0.45761 2.40398,1.04294 3.61977,1.36448 0.62533,0.16539 1.30301,0.2569 1.95452,0.38535 1.55546,0.17869 3.15739,0.23617 4.71613,0.0299 0.41562,-0.055 0.81229,-0.14905 1.21844,-0.22357 1.52009,-0.29093 0.79816,-1.51605 -0.72193,-1.22513 v 0 c -0.28278,0.0573 -0.55742,0.12988 -0.84833,0.17198 -1.19786,0.17334 -2.44223,0.1379 -3.64855,0.0205 -0.50784,-0.0913 -1.03854,-0.14862 -1.52351,-0.27397 -1.13171,-0.29254 -2.3911,-0.84203 -3.35856,-1.26265 -0.44064,-0.19157 -2.64731,-1.19537 -3.16651,-1.44348 -0.22293,-0.10653 -0.43174,-0.2223 -0.64761,-0.33346 -1.04355,-0.69384 -2.76533,0.14722 -1.72178,0.84106 z" />
  <path
     style="fill:#000000;fill-opacity:1;stroke-width:0.754916;stroke-opacity:0.391521"
     id="path45"
     d="m 424.58188,305.81683 c 1.58098,0.60104 3.22049,1.15048 4.89382,1.66353 1.08034,0.33123 2.75921,0.83994 3.95221,1.05244 0.668,0.11898 1.3688,0.16676 2.0532,0.25015 1.71307,0.15728 3.29529,0.0241 4.96475,-0.1695 1.56937,-0.18759 1.10385,-1.45244 -0.46551,-1.26484 v 0 c -1.34177,0.16636 -2.66669,0.28664 -4.0472,0.1679 -0.54577,-0.0592 -1.10601,-0.0851 -1.63732,-0.17768 -1.12483,-0.19597 -2.70968,-0.67921 -3.71443,-0.9868 -1.64578,-0.50386 -3.25689,-1.04467 -4.81102,-1.63585 -1.36565,-0.47895 -2.55415,0.62171 -1.1885,1.10065 z" />
  <path
     style="fill:#000000;fill-opacity:1;stroke-width:0.754916;stroke-opacity:0.391521"
     id="path46"
     d="m 429.74394,296.63228 c 1.54386,1.33193 3.65806,2.48906 6.41682,2.94556 2.01665,0.33369 3.12555,0.22432 5.17785,0.18982 2.14103,-0.0951 4.16528,-0.44506 6.1773,-0.84285 1.5136,-0.30172 0.76489,-1.52161 -0.74871,-1.2199 v 0 c -1.79376,0.36086 -3.60132,0.67623 -5.51132,0.77125 -1.60381,0.041 -2.64302,0.13736 -4.21701,-0.0899 -2.25805,-0.32599 -3.9697,-1.2773 -5.26662,-2.33197 -0.71712,-0.81736 -2.74542,-0.2394 -2.02831,0.57796 z" />
  <path
     style="fill:#000000;fill-opacity:1;stroke-width:0.754916;stroke-opacity:0.391521"
     id="path47"
     d="m 428.44961,284.36891 c 1.05978,0.86899 2.18914,1.78738 3.90873,2.27186 1.6348,0.46059 2.28494,0.40513 4.08066,0.51286 2.70477,-0.0533 5.52217,-0.30896 7.8105,-1.19508 0.28841,-0.11168 0.54356,-0.24896 0.81534,-0.37345 0.76798,-0.48085 0.43414,-0.23299 1.01667,-0.73689 0.85707,-0.77236 -1.05954,-1.46312 -1.91661,-0.69076 v 0 c -0.29361,0.28639 -0.11782,0.14032 -0.54447,0.43135 -1.98135,0.97263 -4.43382,1.1921 -6.97344,1.27791 -1.23346,-0.0527 -1.90182,-0.0149 -3.03232,-0.30185 -1.39656,-0.35445 -2.2491,-1.10769 -3.13675,-1.77391 -0.71711,-0.81736 -2.74542,-0.2394 -2.02831,0.57796 z" />
  <path
     style="fill:#000000;fill-opacity:1;stroke-width:0.754916;stroke-opacity:0.391521"
     id="path48"
     d="m 425.71261,272.70019 c 2.10037,0.83755 4.33874,1.57016 6.79922,2.00759 0.75394,0.13404 1.53468,0.21304 2.30202,0.31956 0.77918,0.0301 1.5568,0.10083 2.33755,0.0902 2.25851,-0.0307 4.47823,-0.39337 6.4919,-0.96101 1.13603,-0.32024 1.95452,-0.6552 2.99192,-1.04924 1.33301,-0.50793 0.0726,-1.58228 -1.26043,-1.07436 v 0 c -0.89336,0.34158 -1.66734,0.65761 -2.63481,0.93819 -2.30111,0.66735 -4.82382,0.9715 -7.39799,0.79939 -0.67545,-0.0904 -1.36272,-0.1558 -2.02634,-0.27118 -1.35551,-0.23567 -2.61002,-0.56312 -3.84317,-0.95707 -0.87412,-0.27924 -1.65851,-0.64552 -2.54418,-0.91269 -0.2849,-0.0859 -0.59666,-0.13917 -0.89499,-0.20876 -1.5874,-0.12923 -1.9081,1.15014 -0.3207,1.27938 z" />
  <path
     style="fill:#000000;fill-opacity:1;stroke-width:0.754916;stroke-opacity:0.391521"
     id="path49"
     d="m 417.51546,259.53629 c 0.39683,0.24647 0.77393,0.50375 1.19049,0.73941 1.65041,0.93366 4.08806,2.23956 6.35558,2.61427 2.33101,0.38521 3.67124,0.14112 5.96614,-0.043 2.1349,-0.36096 2.50327,-0.36632 4.4213,-0.89052 0.52028,-0.14219 1.0104,-0.31775 1.51561,-0.47662 1.40122,-0.44432 0.29865,-1.57364 -1.10258,-1.12934 v 0 c -1.64154,0.5255 -3.31273,0.99046 -5.17346,1.21865 -1.44361,0.13496 -3.1227,0.38612 -4.6089,0.16601 -2.44469,-0.36208 -5.02075,-1.95517 -6.75001,-2.9743 -0.96211,-0.73107 -2.77628,0.0443 -1.81417,0.77542 z" />
  <path
     style="fill:#000000;fill-opacity:1;stroke-width:0.754916;stroke-opacity:0.391521"
     id="path50"
     d="m 414.21921,245.39265 c 1.02003,1.20359 2.5624,2.31569 4.47472,3.10371 0.46981,0.1936 0.98938,0.34461 1.48406,0.51691 0.63087,0.0972 1.24425,0.24486 1.89259,0.29171 2.15103,0.15544 4.68374,-0.27989 6.58766,-0.83656 0.36204,-0.10585 0.69995,-0.2366 1.04993,-0.35489 1.37392,-0.4712 0.20464,-1.57852 -1.16929,-1.10732 v 0 c -1.69297,0.59138 -3.90616,1.11673 -5.93377,1.04282 -0.42789,-0.0156 -0.84077,-0.0961 -1.26115,-0.14422 -0.39502,-0.13164 -0.81137,-0.24442 -1.18504,-0.39494 -1.57256,-0.63348 -2.80933,-1.52899 -3.75925,-2.47226 -0.44052,-0.87868 -2.62098,-0.52364 -2.18046,0.35504 z" />
  <path
     style="fill:#000000;fill-opacity:1;stroke-width:0.754916;stroke-opacity:0.391521"
     id="path51"
     d="m 411.58553,233.13334 c 1.93456,0.94896 4.30864,1.91034 6.88226,2.16542 2.41458,0.23932 3.14494,-0.003 5.50359,-0.31284 3.03637,-0.65014 5.74295,-1.65487 8.32717,-2.75158 1.28499,-0.54665 -0.0715,-1.58229 -1.35652,-1.03564 v 0 c -2.3364,0.99653 -4.78569,1.90946 -7.50903,2.53181 -1.69359,0.25267 -2.51799,0.48803 -4.27008,0.3381 -2.22662,-0.19053 -4.16605,-1.00878 -5.87076,-1.7863 -1.05593,-0.68773 -2.76256,0.1633 -1.70663,0.85103 z" />
  <path
     style="fill:#000000;fill-opacity:1;stroke-width:0.754916;stroke-opacity:0.391521"
     id="path52"
     d="m 410.63993,220.41345 c 1.55809,1.58402 4.56152,2.11272 7.61709,2.00729 0.77254,-0.0267 1.52919,-0.13684 2.29378,-0.20526 2.45352,-0.34468 4.64885,-1.02668 6.7393,-1.81139 1.33702,-0.5045 0.0851,-1.58208 -1.25191,-1.07759 v 0 c -1.81753,0.68984 -3.73045,1.2916 -5.85849,1.61404 -0.62274,0.0627 -1.23815,0.15735 -1.86823,0.1882 -2.06964,0.10135 -4.42716,-0.14732 -5.58718,-1.22438 -0.63165,-0.83996 -2.71601,-0.33087 -2.08436,0.50909 z" />
  <path
     style="fill:#000000;fill-opacity:1;stroke-width:0.754916;stroke-opacity:0.391521"
     id="path53"
     d="m 404.90058,204.92315 c 1.04736,0.57731 1.97188,1.22167 2.99754,1.81078 0.76045,0.43677 1.45461,0.87062 2.5853,1.00858 0.65877,0.0804 1.34739,10e-4 2.02109,0.002 0.64284,-0.13312 1.30993,-0.23308 1.92853,-0.39937 1.45838,-0.39205 3.16777,-1.11801 4.36287,-1.74372 0.34649,-0.18142 0.65583,-0.3846 0.98375,-0.5769 1.11185,-0.65848 -0.52219,-1.55459 -1.63405,-0.89611 v 0 c -0.26659,0.1598 -0.51602,0.3295 -0.79979,0.47939 -1.45444,0.76825 -3.15172,1.42144 -4.98824,1.84707 -0.31287,0.037 -0.62003,0.12495 -0.93861,0.11095 -0.82989,-0.0365 -1.33628,-0.41078 -1.86678,-0.71542 -1.06248,-0.61013 -2.01833,-1.27868 -3.10854,-1.87372 -1.17505,-0.62182 -2.71812,0.32521 -1.54307,0.94704 z" />
  <path
     style="fill:#000000;fill-opacity:1;stroke-width:0.754916;stroke-opacity:0.391521"
     id="path54"
     d="m 403.04948,194.53672 c 0.71471,0.85332 2.14267,1.7864 3.78472,2.06168 1.85827,0.31154 2.64853,0.1013 4.52361,-0.0815 1.99988,-0.2999 3.88049,-0.77692 5.74302,-1.27708 1.44974,-0.39052 0.48068,-1.55894 -0.96906,-1.16843 v 0 c -1.68592,0.45564 -3.38958,0.889 -5.19357,1.17546 -0.90756,0.10934 -2.08289,0.32793 -3.06091,0.204 -1.20506,-0.15271 -2.24693,-0.83214 -2.75554,-1.43902 -0.65125,-0.83508 -2.72352,-0.3102 -2.07227,0.52487 z" />
  <path
     style="fill:#000000;fill-opacity:1;stroke-width:0.754916;stroke-opacity:0.391521"
     id="path55"
     d="m 398.90653,184.22724 c 1.63446,1.48371 3.28835,3.06449 5.7791,4.14191 0.42165,0.1824 0.89682,0.32066 1.34523,0.48099 0.5469,0.0656 1.08265,0.17944 1.64071,0.19689 2.20848,0.0691 4.26422,-0.71508 5.94084,-1.43407 0.23143,-0.12736 0.46285,-0.25472 0.69428,-0.38208 1.14261,-0.64115 -0.44843,-1.56205 -1.59104,-0.9209 v 0 c -0.15793,0.0911 -0.31585,0.18223 -0.47378,0.27335 -1.2082,0.52752 -2.64656,1.11365 -4.21893,1.18694 -0.2683,0.0125 -0.53778,-0.0146 -0.80668,-0.0219 -0.34517,-0.11698 -0.7124,-0.21504 -1.03553,-0.35095 -2.27977,-0.95891 -3.73689,-2.41886 -5.24589,-3.74817 -0.71712,-0.81736 -2.74542,-0.2394 -2.02831,0.57796 z" />
  <path
     style="fill:#000000;fill-opacity:1;stroke-width:0.754916;stroke-opacity:0.391521"
     id="path56"
     d="m 399.00425,172.03242 c 0.90341,1.21822 2.25332,2.30018 3.66623,3.34089 0.36767,0.27081 0.7314,0.54426 1.13344,0.79871 0.35605,0.22534 0.75815,0.42558 1.13722,0.63838 0.47625,0.14855 0.91497,0.34564 1.42874,0.44564 2.06749,0.40244 3.76832,-0.0609 5.50349,-0.64403 1.37544,-0.46974 0.20975,-1.5783 -1.16569,-1.10855 v 0 c -0.97149,0.3388 -2.10238,0.76436 -3.31315,0.59967 -0.30809,-0.0419 -0.57995,-0.14524 -0.86993,-0.21786 -0.31939,-0.17549 -0.66075,-0.33885 -0.95817,-0.52645 -0.38213,-0.24103 -0.72745,-0.50037 -1.07673,-0.75708 -1.26817,-0.93209 -2.48713,-1.89599 -3.33411,-2.978 -0.50707,-0.86695 -2.65842,-0.45827 -2.15134,0.40868 z" />
  <path
     style="fill:#000000;fill-opacity:1;stroke-width:0.754916;stroke-opacity:0.391521"
     id="path57"
     d="m 405.49886,165.3389 c 3.01752,0.4186 5.43674,-0.63004 7.69407,-1.61744 1.57525,-0.69897 2.86237,-1.53954 3.98476,-2.47211 0.90232,-0.75543 -0.97229,-1.48266 -1.87461,-0.72723 v 0 c -0.97637,0.82487 -2.1138,1.55938 -3.49632,2.17653 -1.3573,0.60167 -2.8246,1.33239 -4.61321,1.4521 -0.49095,0.0328 -0.85077,-0.0313 -1.32188,-0.0866 -1.5817,-0.15024 -1.95451,1.12454 -0.37281,1.27478 z" />
  <path
     style="fill:#000000;fill-opacity:1;stroke-width:0.754916;stroke-opacity:0.391521"
     id="path58"
     d="m 403.9509,151.00042 c 1.32136,1.2289 3.13251,1.83946 5.3698,2.4356 0.61512,0.0492 1.22497,0.13008 1.84535,0.14757 2.42606,0.0684 4.94916,-0.35686 7.26324,-0.72882 1.1447,-0.22328 0.58444,-0.0797 1.6749,-0.43821 1.36567,-0.47893 0.17719,-1.5796 -1.18847,-1.10066 v 0 c -0.59181,0.23568 -0.2365,0.12374 -1.10241,0.29509 -2.45189,0.39466 -4.96602,0.79534 -7.54026,0.65215 -1.66024,-0.43244 -3.2774,-0.94179 -4.29384,-1.84068 -0.71712,-0.81736 -2.74542,-0.2394 -2.02831,0.57796 z" />
  <path
     style="fill:#000000;fill-opacity:1;stroke-width:0.754916;stroke-opacity:0.391521"
     id="path59"
     d="m 401.59802,139.72588 c 1.61928,0.87857 3.36815,1.69493 5.33633,2.30827 0.39289,0.12243 0.80283,0.22619 1.20424,0.3393 0.44512,0.0656 0.87853,0.16719 1.33534,0.19673 1.89149,0.12231 3.41244,-0.41738 4.92693,-0.96684 0.20298,-0.0994 0.40596,-0.19871 0.60893,-0.29807 1.1972,-0.60795 -0.31144,-1.57283 -1.50863,-0.96489 v 0 c -0.1062,0.0576 -0.21239,0.11529 -0.31858,0.17293 -0.93252,0.3387 -2.00925,0.83352 -3.18634,0.79925 -0.2914,-0.008 -0.57193,-0.0661 -0.8579,-0.0991 -2.23918,-0.62206 -4.16155,-1.40243 -5.93681,-2.40141 -1.13385,-0.64618 -2.73737,0.26766 -1.60351,0.91384 z" />
  <path
     style="fill:#000000;fill-opacity:1;stroke-width:0.754916;stroke-opacity:0.391521"
     id="path60"
     d="m 398.76205,128.90638 c 1.63083,0.9509 3.742,1.60587 6.00955,1.91718 0.50148,0.0689 1.01722,0.098 1.52583,0.14698 1.73755,0.10239 3.49188,-0.0433 5.10859,-0.42308 0.3176,-0.0746 0.61719,-0.17204 0.92579,-0.25805 1.43418,-0.40875 0.41987,-1.56463 -1.0143,-1.15589 v 0 c -1.44699,0.42512 -3.01846,0.65686 -4.65751,0.56128 -0.40781,-0.0356 -0.82128,-0.0543 -1.22344,-0.10679 -1.86291,-0.24314 -3.61322,-0.76272 -4.96788,-1.53266 -1.05592,-0.68774 -2.76255,0.16329 -1.70663,0.85103 z" />
  <path
     style="fill:#000000;fill-opacity:1;stroke-width:0.754916;stroke-opacity:0.391521"
     id="path61"
     d="m 405.12483,105.41331 c 2.71312,-0.45841 5.14446,-1.26617 7.43398,-2.19655 1.37075,-0.68757 2.7736,-1.38246 3.96605,-2.17485 1.03658,-0.69723 -0.69361,-1.532663 -1.73019,-0.83544 v 0 c -0.36944,0.25293 -0.78483,0.46946 -1.19695,0.70003 -0.76891,0.4302 -1.50383,0.882 -2.35876,1.25934 -2.02753,0.83049 -4.21034,1.55745 -6.60607,1.98587 -1.56533,0.19824 -1.07339,1.45983 0.49194,1.2616 z" />
  <path
     style="fill:#000000;fill-opacity:1;stroke-width:0.754916;stroke-opacity:0.391521"
     id="path62"
     d="m 401.35119,97.739259 c 0.34493,-0.06312 0.70295,-0.106531 1.03479,-0.18936 1.52051,-0.379546 2.79682,-0.992459 4.06259,-1.589478 1.23559,-0.582783 1.20241,-0.577061 2.34792,-1.163075 0.92861,-0.507426 2.00673,-0.927189 2.79253,-1.515837 0.17164,-0.12858 0.31405,-0.26902 0.47108,-0.403527 0.87353,-0.766341 -1.02817,-1.470364 -1.90169,-0.704023 v 0 c -0.7404,0.673807 -1.85003,1.135498 -2.87737,1.661975 -1.14151,0.584835 -1.01956,0.533253 -2.26395,1.122145 -1.03741,0.490939 -2.10449,1.03596 -3.34084,1.364375 -0.24571,0.06527 -0.5132,0.09969 -0.7698,0.149535 -1.57237,0.179216 -1.12764,1.446486 0.44474,1.26727 z" />
  <path
     style="fill:#000000;fill-opacity:1;stroke-width:0.754916;stroke-opacity:0.391521"
     id="path63"
     d="m 395.19954,87.036339 c 0.54424,0.08735 1.09178,0.198415 1.6717,0.181045 2.36623,-0.07087 4.28702,-0.977198 6.08064,-1.759633 1.87201,-0.931395 3.63522,-1.956481 4.94938,-3.164607 0.61208,-0.48737 1.16112,-0.995206 1.58228,-1.544644 0.63002,-0.840354 -1.45533,-1.348121 -2.08535,-0.507773 v 0 c -0.359,0.496608 -0.90336,0.935076 -1.43066,1.377328 -1.14448,1.081626 -2.76403,1.97498 -4.39828,2.815322 -1.08576,0.478577 -3.03727,1.404866 -4.46134,1.498694 -0.3216,0.0212 -0.70202,-0.04183 -1.01507,-0.0836 -1.47386,-0.359976 -2.36716,0.827896 -0.8933,1.187872 z" />
  <path
     style="fill:#000000;fill-opacity:1;stroke-width:0.754916;stroke-opacity:0.391521"
     id="path64"
     d="m 390.80946,78.27564 c 2.1634,-0.699515 4.06367,-1.621153 5.96995,-2.522953 2.40084,-1.082788 4.03839,-2.553284 5.56611,-4.038625 0.80928,-0.78892 -1.14844,-1.441162 -1.95772,-0.652247 v 0 c -1.38827,1.357222 -2.86426,2.708626 -5.05685,3.696486 -1.86483,0.882293 -3.72313,1.78134 -5.83957,2.465696 -1.30484,0.531156 0.0132,1.582799 1.31808,1.051643 z" />
  <path
     style="fill:#000000;fill-opacity:1;stroke-width:0.754916;stroke-opacity:0.391521"
     id="path65"
     d="m 387.88501,68.034166 c 4.33524,-0.622801 8.21765,-1.941755 11.98105,-3.274272 1.87219,-0.581302 3.42161,-1.399048 4.90251,-2.257735 1.12302,-0.652305 -0.49567,-1.55741 -1.6187,-0.905106 v 0 c -1.35285,0.787274 -2.75824,1.539675 -4.48118,2.065309 -3.48933,1.237276 -7.07449,2.457313 -11.06496,3.08942 -1.59113,0.113347 -1.30986,1.395736 0.28128,1.282384 z" />
  <path
     style="fill:#000000;fill-opacity:1;stroke-width:0.754916;stroke-opacity:0.391521"
     id="path66"
     d="m 383.00077,58.111197 c 0.84845,0.390728 1.88342,0.610185 2.9281,0.766965 0.4072,0.06111 0.81575,0.142925 1.23679,0.146619 1.64294,0.01441 2.31857,-0.186975 3.8637,-0.465489 2.20313,-0.48408 4.03331,-1.301924 5.75664,-2.197431 1.18215,-0.617436 -0.35004,-1.570198 -1.53219,-0.952762 v 0 c -1.476,0.775433 -3.04177,1.489723 -4.92674,1.921362 -0.6033,0.116025 -1.97258,0.421694 -2.70999,0.427819 -0.34391,0.0028 -0.67858,-0.06645 -1.01237,-0.113754 -0.74859,-0.106082 -1.51118,-0.242082 -2.12813,-0.514567 -1.21748,-0.59472 -2.69329,0.386518 -1.47581,0.981238 z" />
  <path
     style="fill:#000000;fill-opacity:1;stroke-width:0.754916;stroke-opacity:0.391521"
     id="path67"
     d="m 320.60706,27.741489 c 1.61303,0.196847 3.18123,0.489254 4.76636,0.745102 1.45884,0.235465 0.69773,0.06436 1.87568,0.375015 1.09308,0.378776 1.71297,0.995668 2.02064,1.686375 0.14447,0.398563 0.1917,0.804169 0.23895,1.209121 0.10896,0.911729 2.37143,0.823918 2.26248,-0.08781 v 0 c -0.06,-0.491837 -0.12122,-0.984387 -0.31615,-1.466597 -0.0864,-0.168524 -0.15321,-0.34072 -0.25922,-0.50557 -0.55401,-0.861547 -1.63431,-1.566167 -3.0261,-2.0166 -0.3653,-0.08976 -0.72077,-0.193827 -1.0959,-0.269275 -0.34624,-0.06964 -0.70954,-0.107875 -1.0628,-0.164894 -1.64881,-0.266124 -3.28047,-0.569554 -4.9592,-0.772135 -1.57238,-0.179219 -2.01712,1.08805 -0.44474,1.267268 z" />
  <path
     style="fill:#000000;fill-opacity:1;stroke-width:0.754916;stroke-opacity:0.391521"
     id="path68"
     d="m 335.71711,20.905534 c 2.36434,0.0776 4.36705,0.847886 6.22143,1.619502 1.607,0.824771 2.29018,1.600851 2.36491,2.82092 -0.10194,0.450996 -0.46647,0.555651 -1.03106,0.82301 -1.22982,0.586416 0.22538,1.577598 1.4552,0.991182 v 0 c 1.2196,-0.584797 1.70821,-0.939171 1.84082,-1.877913 -0.17366,-1.66776 -1.07774,-2.685949 -3.29753,-3.802991 -2.25381,-0.927939 -4.68916,-1.805202 -7.55377,-1.866076 -1.60352,0 -1.60352,1.292366 0,1.292366 z" />
  <path
     style="fill:#000000;fill-opacity:1;stroke-width:0.754916;stroke-opacity:0.391521"
     id="path69"
     d="m 355.19887,19.312211 c 0.32998,-0.0013 0.55709,-0.0178 0.8818,0.05251 1.17201,0.253754 2.12817,1.028687 2.86503,1.565696 1.27693,0.998923 1.90344,2.006591 2.11882,3.22374 -0.0138,0.113379 -0.002,0.22876 -0.0413,0.340136 -0.11793,0.331053 -0.65885,0.73589 -1.12994,0.932469 -0.43571,0.173811 -0.92823,0.277688 -1.43403,0.361643 -1.53462,0.265004 -0.877,1.501836 0.65761,1.236832 v 0 c 0.78838,-0.139625 1.55159,-0.311854 2.21587,-0.599848 0.18636,-0.09178 0.38695,-0.174943 0.55908,-0.275347 0.97011,-0.56587 1.45698,-1.350529 1.42781,-2.131788 -0.0925,-0.480379 -0.10551,-0.691781 -0.31958,-1.172981 -0.43671,-0.981658 -1.22718,-1.900067 -2.27456,-2.715721 -1.52308,-1.090442 -3.15758,-2.226366 -5.84736,-2.096713 -1.5874,0.129236 -1.26669,1.408613 0.32071,1.279377 z" />
  <path
     style="fill:#000000;fill-opacity:1;stroke-width:0.754916;stroke-opacity:0.391521"
     id="path70"
     d="m 373.80018,24.253895 c 0.0303,1.278103 -0.74984,2.515861 -1.54064,3.694923 -0.54114,0.555785 -1.02928,1.212288 -1.92667,1.624144 -0.18927,0.08687 -0.54254,0.154303 -0.76144,0.203176 -0.0775,7.98e-4 -0.15845,0.01536 -0.23253,0.0023 -0.0238,-0.0042 -0.0212,-0.04056 0.004,-0.04258 0.13079,-0.01072 0.27965,0.0455 0.39604,0.0098 0.0703,-0.02155 0.0109,-0.09081 0.0164,-0.136211 -0.3892,-0.886514 -2.58911,-0.572832 -2.1999,0.313682 v 0 c 0.10752,0.18704 0.12312,0.400443 0.32258,0.561121 0.74989,0.604073 1.48406,0.644623 2.59854,0.476869 0.67823,-0.177265 0.90304,-0.205863 1.4978,-0.496296 1.10464,-0.539414 1.75185,-1.33974 2.40529,-2.056756 0.88175,-1.327702 1.72928,-2.716828 1.68871,-4.154265 0,-0.91384 -2.26772,-0.91384 -2.26772,0 z" />
  <path
     style="fill:#000000;fill-opacity:1;stroke-width:0.754916;stroke-opacity:0.391521"
     id="path71"
     d="m 379.94646,32.585599 c -0.008,0.963779 -0.11941,1.949049 -0.44258,2.897848 -0.16842,0.494456 -0.31973,0.681913 -0.60999,1.138848 -0.41205,0.515756 -0.55293,0.698057 -1.49871,0.691153 -0.81141,-0.03182 -1.6226,-0.06341 -2.43504,-0.0866 -1.60152,-0.04563 -1.71475,1.245125 -0.11323,1.290754 v 0 c 0.87546,0.0249 1.74895,0.06525 2.62442,0.08748 1.97594,-0.06078 2.77355,-0.5318 3.55892,-1.54933 0.13004,-0.211053 0.27922,-0.418587 0.39012,-0.633158 0.53213,-1.029495 0.73533,-2.242659 0.80426,-3.313717 0.0133,-0.207353 -0.0114,-0.414934 -0.0171,-0.6224 -0.12298,-0.91115 -2.38402,-0.81203 -2.26104,0.09912 z" />
  <path
     style="fill:#000000;fill-opacity:1;stroke-width:0.754916;stroke-opacity:0.391521"
     id="path72"
     d="m 386.06497,39.630642 c 0.18779,0.831813 0.21902,1.492667 -0.25202,2.296769 -0.48261,0.685887 -1.42974,1.145688 -2.49319,1.535 -0.83495,0.244243 -1.75917,0.309447 -2.68225,0.340368 -1.60048,0.05626 -1.46087,1.346174 0.1396,1.289916 v 0 c 1.31634,-0.04802 2.61847,-0.169018 3.78204,-0.548012 1.49761,-0.563618 2.77897,-1.24608 3.41671,-2.228912 0.0977,-0.184169 0.21867,-0.364846 0.29319,-0.552507 0.3067,-0.772324 0.18874,-1.567031 0.0328,-2.345086 -0.26362,-0.901407 -2.50048,-0.688943 -2.23686,0.212464 z" />
  <path
     style="fill:#000000;fill-opacity:1;stroke-width:0.754916;stroke-opacity:0.391521"
     id="path73"
     d="m 390.56342,46.50177 c -0.0826,0.116511 -0.14957,0.23705 -0.24789,0.349535 -0.85416,0.97725 -1.85525,1.920365 -2.81051,2.865587 -1.57984,1.563243 -0.66403,0.671066 -2.19923,2.150818 -0.80652,0.671409 -1.65483,1.336277 -2.83848,1.808043 -0.34056,0.135739 -0.77924,0.294937 -1.22362,0.30486 -0.10459,0.0023 -0.20061,-0.0341 -0.30091,-0.05115 -0.50906,-0.18722 -1.08643,-0.311424 -1.63783,-0.451516 -1.46468,-0.371959 -2.3877,0.808508 -0.92302,1.180467 v 0 c 0.7978,0.202509 1.57322,0.4367 2.42496,0.561092 0.36698,-0.0011 0.7389,0.03106 1.10093,-0.0032 2.24873,-0.212766 4.16246,-1.719285 5.35006,-2.690901 1.13944,-1.098479 2.27294,-2.199939 3.37356,-3.311252 0.23982,-0.242145 1.53243,-1.578776 1.79345,-1.888386 0.1274,-0.151118 0.21266,-0.312643 0.31899,-0.468966 0.44052,-0.878679 -1.73994,-1.233719 -2.18046,-0.355039 z" />
  <path
     style="fill:#000000;fill-opacity:1;stroke-width:0.754916;stroke-opacity:0.391521"
     id="path74"
     d="m 270.91765,35.395818 c 1.13479,0.884701 2.41965,1.767208 3.08605,2.812344 0.36413,0.571081 0.28153,0.753248 0.28372,1.33314 -0.32523,1.103556 -1.31047,1.58575 -2.98744,2.064118 -1.42592,0.418016 -0.38861,1.567249 1.03732,1.149233 v 0 c 1.82641,-0.546019 3.36379,-1.227337 3.95547,-2.417293 0.13451,-0.270524 0.17438,-0.553498 0.26158,-0.830248 -0.0233,-0.306516 0.0131,-0.616418 -0.07,-0.919547 -0.41486,-1.513788 -2.19388,-2.761125 -3.73805,-3.956006 -0.94826,-0.736926 -2.77696,0.02733 -1.8287,0.764259 z" />
  <path
     style="fill:#000000;fill-opacity:1;stroke-width:0.754916;stroke-opacity:0.391521"
     id="path75"
     d="m 286.70768,35.28935 c 1.11433,1.035263 1.86137,2.182134 2.56116,3.324414 0.46832,0.933889 1.26801,1.888191 1.05965,2.884694 -0.0839,0.401157 -0.25173,0.584469 -0.50022,0.957397 -0.30271,0.317482 -0.58374,0.766034 -1.17457,0.964197 -0.0847,0.02841 -0.19582,0.0098 -0.29373,0.0147 -1.48002,0.351692 -0.60728,1.544518 0.87273,1.192826 v 0 c 0.34632,-0.100663 0.7235,-0.172511 1.03896,-0.30199 0.82349,-0.337987 1.25868,-0.934168 1.68863,-1.429378 0.3435,-0.559094 0.54807,-0.781654 0.63583,-1.386325 0.16728,-1.152574 -0.59206,-2.245804 -1.18714,-3.323481 -0.73538,-1.192094 -1.51139,-2.392827 -2.67299,-3.475015 -0.71712,-0.817365 -2.74542,-0.239401 -2.02831,0.577963 z" />
  <path
     style="fill:#000000;fill-opacity:1;stroke-width:0.754916;stroke-opacity:0.391521"
     id="path76"
     d="m 304.29482,39.232085 c 0.53564,0.779498 1.03869,1.567685 1.38575,2.382406 0.22805,0.535336 0.36767,0.874314 0.30174,1.41565 -0.0254,0.208189 -0.11947,0.411787 -0.17921,0.61768 -0.28723,0.507421 -0.47952,1.09451 -1.15545,1.496494 -0.109,0.06483 -0.26517,0.097 -0.39776,0.145496 -1.2466,0.574794 0.17977,1.5795 1.42637,1.004706 v 0 c 0.28635,-0.144667 0.61093,-0.26797 0.85904,-0.434001 0.85097,-0.569462 1.17039,-1.324612 1.51119,-2.023884 0.0673,-0.284507 0.18005,-0.566711 0.20204,-0.853522 0.11191,-1.460047 -1.01509,-2.894953 -1.85484,-4.240357 -0.60714,-0.845803 -2.70602,-0.356471 -2.09887,0.489332 z" />
  <path
     style="fill:#000000;fill-opacity:1;stroke-width:0.754916;stroke-opacity:0.391521"
     id="path77"
     d="m 212.24899,29.696411 c 1.99834,0.601292 4.0382,1.184422 5.79328,2.008897 0.52553,0.246874 1.04796,0.50359 1.47347,0.806641 0.86054,0.61288 0.90135,0.961887 1.25017,1.679035 0.0769,0.698019 0.0825,1.427929 -0.36085,2.093938 -0.33772,0.507361 -0.97832,0.950231 -1.57022,1.365011 -0.17199,0.09771 -0.34398,0.195428 -0.51596,0.293142 -1.12632,0.650456 0.48781,1.558214 1.61412,0.907759 v 0 c 0.22351,-0.13069 0.44701,-0.261379 0.67052,-0.392068 0.80092,-0.574917 1.56922,-1.1594 2.00253,-1.862652 0.55066,-0.893697 0.52108,-1.853168 0.33071,-2.778813 -0.58121,-1.033653 -0.58583,-1.361434 -1.85891,-2.242198 -0.49996,-0.345888 -1.10834,-0.638234 -1.71765,-0.921502 -1.85398,-0.861907 -3.99199,-1.482371 -6.09706,-2.113117 -1.43423,-0.408682 -2.44838,0.747245 -1.01415,1.155927 z" />
  <path
     style="fill:#000000;fill-opacity:1;stroke-width:0.754916;stroke-opacity:0.391521"
     id="path78"
     d="m 236.13824,30.146791 c 1.81972,0.457868 3.06482,1.388324 3.86778,2.400561 0.19415,0.244751 0.33186,0.502806 0.49779,0.75421 0.57195,1.430699 0.0438,2.5256 -1.15706,3.774597 -0.61884,0.550914 -1.69742,0.799704 -2.67589,1.093756 -1.41706,0.427687 -0.35575,1.56978 1.06132,1.142092 v 0 c 1.37973,-0.418007 2.79369,-0.819683 3.60902,-1.620813 1.5434,-1.642237 2.08377,-2.994773 1.27981,-4.852606 -0.20645,-0.301676 -0.37813,-0.611849 -0.61935,-0.905026 -0.95335,-1.158696 -2.42866,-2.26152 -4.48628,-2.838981 -0.38416,-0.107816 -0.81038,-0.157915 -1.21557,-0.236872 -1.59944,-0.06511 -1.76101,1.223973 -0.16157,1.289082 z" />
  <path
     style="fill:#000000;fill-opacity:1;stroke-width:0.754916;stroke-opacity:0.391521"
     id="path79"
     d="m 256.52147,31.719747 c 0.95257,1.448521 1.9118,2.903104 2.53408,4.412245 0.41358,1.003027 0.44159,1.358655 0.64662,2.346758 0.0105,0.308808 0.38843,2.048734 -0.81606,1.986945 -1.46136,0.376174 -0.52788,1.553967 0.93348,1.177793 v 0 c 0.3078,-0.09831 0.65676,-0.16322 0.9234,-0.294918 1.51367,-0.747644 1.31603,-2.009483 1.21081,-3.023488 -0.23099,-1.086708 -0.25481,-1.433089 -0.71268,-2.537769 -0.647,-1.560996 -1.63777,-3.066467 -2.62637,-4.564629 -0.61674,-0.843546 -2.71001,-0.346482 -2.09328,0.497063 z" />
  <path
     style="fill:#000000;fill-opacity:1;stroke-width:0.754916;stroke-opacity:0.391521"
     id="path80"
     d="m 25.855437,73.338071 c 1.586888,-0.438719 3.228874,-0.823924 4.90645,-1.135783 1.086178,-0.201926 2.219458,-0.396085 3.375124,-0.415809 0.434828,-0.0074 0.866041,0.04753 1.299061,0.07127 2.076452,0.288305 3.159822,1.006934 4.292062,1.969269 0.895225,0.758169 2.77663,0.03664 1.881405,-0.721513 v 0 c -1.153879,-0.974166 -2.440801,-1.838632 -4.425489,-2.288184 -0.506638,-0.11476 -1.050999,-0.165493 -1.576499,-0.248236 -0.596298,-0.02074 -1.192116,-0.07777 -1.788895,-0.06218 -1.305288,0.03414 -2.602554,0.251422 -3.831769,0.480823 -1.836056,0.342651 -3.635935,0.764249 -5.357735,1.263229 -1.348845,0.494164 -0.12256,1.581277 1.226285,1.087108 z" />
  <path
     style="fill:#000000;fill-opacity:1;stroke-width:0.754916;stroke-opacity:0.391521"
     id="path81"
     d="m 34.732581,59.977735 c 2.445605,0.880589 4.783862,1.878206 6.822654,3.05224 1.236776,0.712196 1.474379,0.917587 2.539282,1.671886 1.193855,0.990442 0.63774,0.510326 1.675919,1.437492 0.863281,0.770103 2.774309,0.07434 1.911028,-0.695765 v 0 c -1.113535,-0.992283 -0.509797,-0.47314 -1.82212,-1.55329 -1.150027,-0.810063 -1.417321,-1.03829 -2.748962,-1.800921 -2.172419,-1.244149 -4.655126,-2.305128 -7.259788,-3.236029 -1.395096,-0.450535 -2.513109,0.673852 -1.118013,1.124387 z" />
  <path
     style="fill:#000000;fill-opacity:1;stroke-width:0.754916;stroke-opacity:0.391521"
     id="path82"
     d="m 51.349532,52.466877 c 2.857848,2.340816 5.757034,4.665924 8.467078,7.063672 0.887064,0.76207 1.644011,1.566322 2.361104,2.382741 0.719071,0.816805 2.745993,0.237265 2.026923,-0.579541 v 0 c -0.756025,-0.856976 -1.550094,-1.702377 -2.481685,-2.503129 -2.73993,-2.423226 -5.668028,-4.774249 -8.559247,-7.139162 -0.962111,-0.731073 -2.776284,0.04435 -1.814173,0.775419 z" />
  <path
     style="fill:#000000;fill-opacity:1;stroke-width:0.754916;stroke-opacity:0.391521"
     id="path83"
     d="m 60.405298,40.433752 c 0.727567,-1.020289 2.307299,-1.748133 3.765046,-2.426416 0.735863,-0.25198 1.579932,-0.727589 2.522836,-0.684778 0.232999,0.01058 0.459413,0.08918 0.660157,0.145224 0.114743,0.04405 0.229487,0.08811 0.344231,0.132162 1.367323,0.477388 2.551972,-0.624615 1.184649,-1.102003 v 0 c -0.23513,-0.0781 -0.470259,-0.156202 -0.705388,-0.234302 -0.76061,-0.151682 -0.979452,-0.241158 -1.809898,-0.220002 -1.377801,0.0351 -2.553223,0.533497 -3.633817,0.964035 -1.831277,0.857815 -3.741533,1.794005 -4.527824,3.112635 -0.38891,0.886556 1.811098,1.200001 2.200008,0.313445 z" />
  <path
     style="fill:#000000;fill-opacity:1;stroke-width:0.754916;stroke-opacity:0.391521"
     id="path84"
     d="m 52.452902,25.437088 c 2.991591,-1.007815 5.986384,-2.073874 9.303088,-2.706841 0.416335,-0.07945 0.847131,-0.131768 1.270696,-0.197653 0.302261,0.0098 0.610885,-0.007 0.906782,0.02954 0.728409,0.08988 2.004711,0.6214 2.511343,0.934334 0.09975,0.06161 0.167602,0.137795 0.251403,0.206693 0.02893,0.05129 0.05786,0.102574 0.08679,0.153862 0.653605,0.83448 2.724387,0.307702 2.070781,-0.526778 v 0 c -0.118995,-0.13757 -0.23799,-0.275144 -0.356985,-0.412717 -0.182587,-0.129393 -0.345803,-0.268498 -0.547761,-0.388176 -0.970624,-0.575185 -2.604754,-1.155995 -3.995776,-1.259531 -0.506667,-0.03771 -1.021737,0.01161 -1.532605,0.01741 -0.493455,0.07905 -0.994718,0.143703 -1.480364,0.237149 -3.450465,0.663924 -6.576248,1.764249 -9.689279,2.816782 -1.35978,0.484334 -0.157893,1.580259 1.201887,1.095924 z" />
  <path
     style="fill:#000000;fill-opacity:1;stroke-width:0.754916;stroke-opacity:0.391521"
     id="path85"
     d="m 68.033629,9.9610386 c 0.14508,0.033915 0.299426,0.057067 0.435239,0.1017394 0.61535,0.202399 1.218459,0.507007 1.732102,0.770717 1.330264,0.68297 2.541444,1.411823 3.714187,2.181199 0.300058,0.233189 0.637423,0.452188 0.900173,0.699567 0.939639,0.884671 1.207048,1.962194 0.919304,2.973674 -0.06379,0.224252 -0.185927,0.441832 -0.27889,0.662748 -0.119755,0.183131 -0.239509,0.36626 -0.359264,0.54939 -0.547388,0.858946 1.584106,1.300118 2.131495,0.441172 v 0 c 0.146085,-0.234018 0.292171,-0.468036 0.438256,-0.702053 0.109738,-0.28349 0.258446,-0.562978 0.329213,-0.850469 0.43416,-1.76378 -0.415026,-3.255638 -2.370212,-4.62281 C 74.372369,11.34805 73.086724,10.563035 71.656975,9.8426942 70.867796,9.4450876 70.154621,9.0947727 69.197529,8.8389447 68.901379,8.7597845 68.572027,8.7297057 68.259275,8.6750863 66.663715,8.5841557 66.438069,9.870108 68.033629,9.9610386 Z" />
  <path
     style="fill:#000000;fill-opacity:1;stroke-width:0.754916;stroke-opacity:0.391521"
     id="path86"
     d="m 96.972762,13.774756 c 0.807238,0.639901 1.659151,1.310588 1.86973,2.111451 0.187953,0.71481 0.0054,0.981853 -0.200612,1.696273 -0.731506,1.326452 -2.059444,2.558452 -3.875464,3.497215 -0.223367,0.115466 -0.47908,0.208813 -0.71862,0.31322 -1.262261,0.563584 0.136284,1.580912 1.398546,1.017329 v 0 c 0.316167,-0.14371 0.650999,-0.275012 0.948501,-0.431128 1.637058,-0.859058 3.030343,-1.980304 3.880647,-3.152296 0.24811,-0.341967 0.40632,-0.702934 0.60948,-1.054401 0.23379,-0.976212 0.44995,-1.281807 0.12903,-2.258647 -0.33648,-1.024231 -1.398998,-1.916256 -2.534649,-2.704942 -1.198485,-0.607123 -2.705073,0.358804 -1.506589,0.965926 z" />
  <path
     style="fill:#000000;fill-opacity:1;stroke-width:0.754916;stroke-opacity:0.391521"
     id="path87"
     d="m 118.52628,18.461465 c 1.12777,1.023026 2.20752,2.274755 2.49801,3.484139 0.0393,0.163448 0.0257,0.329619 0.0386,0.494428 -0.28599,0.521465 -0.0856,0.261238 -0.63168,0.772805 -0.76623,0.802757 1.22582,1.420311 1.99206,0.617554 v 0 c 0.84385,-0.946337 0.54965,-0.455968 0.90334,-1.467015 -0.0282,-0.229333 -0.0249,-0.460643 -0.0847,-0.687997 -0.37152,-1.411968 -1.59659,-2.850758 -2.96048,-4.032289 -1.01541,-0.707274 -2.77053,0.111101 -1.75512,0.818375 z" />
  <path
     style="fill:#000000;fill-opacity:1;stroke-width:0.754916;stroke-opacity:0.391521"
     id="path88"
     d="m 144.46168,16.752973 c 1.55717,1.361835 3.13709,2.735999 4.30608,4.224372 0.5881,0.748769 0.66215,0.983043 1.03709,1.727023 0.44756,0.877524 2.62515,0.516813 2.1776,-0.360712 v 0 c -0.43999,-0.853803 -0.51068,-1.087863 -1.18754,-1.945594 -1.24017,-1.571569 -2.90637,-3.026024 -4.57066,-4.458244 -1.00893,-0.710277 -2.7715,0.102877 -1.76257,0.813155 z" />
  <path
     style="fill:#000000;fill-opacity:1;stroke-width:0.754916;stroke-opacity:0.391521"
     id="path89"
     d="m 160.07557,18.122211 c 0.042,0.396364 0.29197,0.768522 0.50753,1.141598 0.50256,0.867799 2.65602,0.462756 2.15346,-0.405042 v 0 c -0.1411,-0.243014 -0.3045,-0.485008 -0.39328,-0.736556 0,-0.913841 -2.26771,-0.913841 -2.26771,0 z" />
  <path
     style="fill:#000000;fill-opacity:1;stroke-width:0.754916;stroke-opacity:0.391521"
     id="path90"
     d="m 170.29174,12.983496 c 1.71938,1.170291 3.09954,2.501542 4.11901,3.912688 0.23391,0.323773 0.42086,0.657926 0.63129,0.98689 0.49107,0.92954 0.77047,1.926905 -0.0831,2.819528 -0.32665,0.341591 -0.64438,0.488901 -1.1104,0.757213 -0.18697,0.08061 -0.37394,0.161222 -0.56091,0.241833 -1.26202,0.563757 0.13695,1.580893 1.39898,1.017136 v 0 c 0.26855,-0.122875 0.5371,-0.24575 0.80565,-0.368625 0.71968,-0.443617 1.1058,-0.621201 1.58832,-1.191217 1.01219,-1.195733 0.76111,-2.493211 0.0906,-3.720803 -0.23301,-0.360207 -0.44077,-0.726051 -0.69904,-1.08062 -1.08806,-1.493788 -2.54936,-2.906364 -4.36618,-4.149442 -0.96211,-0.731073 -2.77628,0.04435 -1.81417,0.775419 z" />
</svg>
