<?xml version="1.0" encoding="UTF-8" standalone="no"?>
<svg
   width="1911"
   height="570"
   viewBox="0 0 1911 570"
   fill="none"
   version="1.1"
   id="svg4"
   sodipodi:docname="contactsection.svg"
   xml:space="preserve"
   inkscape:export-filename="contactsection.svg"
   inkscape:export-xdpi="96"
   inkscape:export-ydpi="96"
   xmlns:inkscape="http://www.inkscape.org/namespaces/inkscape"
   xmlns:sodipodi="http://sodipodi.sourceforge.net/DTD/sodipodi-0.dtd"
   xmlns="http://www.w3.org/2000/svg"
   xmlns:svg="http://www.w3.org/2000/svg"><defs
     id="defs4" /><sodipodi:namedview
     id="namedview4"
     pagecolor="#ffffff"
     bordercolor="#000000"
     borderopacity="0.25"
     inkscape:showpageshadow="2"
     inkscape:pageopacity="0.0"
     inkscape:pagecheckerboard="0"
     inkscape:deskcolor="#d1d1d1" /><path
     d="M -34.11487,128.30955 C -33.083943,87.36343 -11.846883,17.755164 64.854125,66.890444 160.73001,128.30955 92.688795,123.12947 205.26607,95.010033 317.84333,66.890444 234.33823,-17.46841 372.27633,24.711064 c 137.93809,42.17938 89.07212,65.119039 189.89683,42.17938 100.8247,-22.939661 48.86596,-42.17938 131.13398,-42.17938 82.268,0 54.43296,-42.179474 199.79373,0 145.36073,42.17938 115.05153,42.17938 168.86593,42.17938 53.8143,0 16.701,73.258916 136.0824,-5.179924 119.3801,-78.438853 72.9884,-71.0390082 138.5554,-71.0390082 h 112.5774 c 53.8142,0 79.175,11.8397869 140.4122,34.0395522 61.237,22.199674 61.237,42.17938 126.8039,42.17938 65.5671,0 60.6187,-22.939661 112.5774,-22.939661 41.567,0 44.1279,324.115267 40.2061,486.172877 H -34.11487 Z"
     fill="#2f408a"
     id="path1"
     style="fill:#911a1a;fill-opacity:0;stroke-width:1.3531" /><path
     d="M 6.6981922,126.35652 C 7.7291288,85.410409 28.966188,15.802142 105.66718,64.937425 201.54305,126.35652 133.50185,121.17645 246.07913,93.057012 358.65643,64.937425 275.1513,-19.42143 413.0894,22.758041 551.02749,64.937425 502.16152,87.877093 602.98623,64.937425 703.81094,41.99776 651.85219,22.758041 734.1202,22.758041 c 82.26802,0 54.43297,-42.179471 199.79375,0 145.36075,42.179384 115.05155,42.179384 168.86595,42.179384 53.8144,0 16.701,73.258925 136.0823,-5.179924 119.38,-78.438853 72.9886,-71.039006 138.5554,-71.039006 h 112.5773 c 53.8145,0 79.1754,11.83978344 140.4124,34.039546 61.237,22.199675 61.237,42.179384 126.8041,42.179384 65.5669,0 60.6185,-22.939665 112.5774,-22.939665 41.5669,0 44.1277,324.11525 40.2061,486.17289 H 6.6981922 Z"
     fill="#2f408a"
     id="path3"
     style="stroke-width:1.3531" /><path
     d="m 1.8006284,169.32281 c 1.0309284,-40.9461 22.2679856,-110.554362 98.9690016,-61.4191 95.87586,61.4191 27.83467,56.23905 140.41193,28.1196 112.57728,-28.1196 29.07214,-112.478436 167.01024,-70.298966 137.9381,42.179366 89.07214,65.119046 189.89684,42.179366 100.82472,-22.939651 48.86598,-42.179366 131.13397,-42.179366 82.26802,0 54.43299,-42.17947 199.79375,0 145.36064,42.179366 115.05154,42.179366 168.86584,42.179366 53.8146,0 16.7009,73.25893 136.0825,-5.17991 119.3802,-78.438848 72.9884,-71.039002 138.5552,-71.039002 h 112.5774 c 53.8145,0 79.1753,11.839783 140.4125,34.039546 61.237,22.199678 61.237,42.179366 126.804,42.179366 65.5669,0 60.6185,-22.939651 112.5771,-22.939651 41.567,0 44.1279,324.115241 40.2063,486.172871 H 1.8006284 Z"
     fill="#2f408a"
     id="path4"
     style="fill:#7184d7;fill-opacity:1;stroke:none;stroke-width:1.3531" /></svg>
