<?xml version="1.0" encoding="UTF-8" standalone="no"?>
<svg
   width="1694"
   height="535"
   viewBox="0 0 1694 535"
   fill="none"
   version="1.1"
   id="svg4"
   sodipodi:docname="coontact.svg"
   xmlns:inkscape="http://www.inkscape.org/namespaces/inkscape"
   xmlns:sodipodi="http://sodipodi.sourceforge.net/DTD/sodipodi-0.dtd"
   xmlns="http://www.w3.org/2000/svg"
   xmlns:svg="http://www.w3.org/2000/svg">
  <defs
     id="defs4" />
  <sodipodi:namedview
     id="namedview4"
     pagecolor="#ffffff"
     bordercolor="#000000"
     borderopacity="0.25"
     inkscape:showpageshadow="2"
     inkscape:pageopacity="0.0"
     inkscape:pagecheckerboard="0"
     inkscape:deskcolor="#d1d1d1" />
  <path
     d="m 67.305568,149.17874 c 0.83334,-36.44614 17.99996,-98.404435 79.999962,-54.669134 77.4997,54.669134 22.4997,50.058354 113.4997,25.029244 91,-25.029244 23.5,-100.117039 135,-62.573102 111.5,37.543858 72,57.962452 153.5,37.543858 81.5,-20.418589 39.5,-37.543858 106,-37.543858 66.5,0 44,-37.543937 161.5,0 117.5,37.543858 93,37.543858 136.5,37.543858 43.50004,0 13.50004,65.207754 109.99997,-4.610649 96.499,-69.818403 58.999,-63.231814 111.999,-63.231814 h 91 c 43.5,0 64,10.538601 113.5,30.298605 49.5,19.759925 49.5,37.543858 102.5,37.543858 53,0 49,-20.418589 91,-20.418589 33.6,0 35.67,288.494913 32.5,432.742373 H 67.305568 Z"
     fill="#2f408a"
     id="path4"
     style="stroke-width:1.14775" />
  <path
     d="m 91.566541,198.60354 c 0.809096,-31.40959 17.476299,-84.8058 77.672579,-47.11433 75.24506,47.11433 21.84514,43.14071 110.19773,21.57041 88.35259,-21.57041 22.81633,-86.281717 131.07253,-53.92603 108.2562,32.35562 69.90535,49.95253 149.03433,32.35562 79.12896,-17.59691 38.35084,-32.35562 102.9162,-32.35562 64.56536,0 42.71994,-32.355687 156.80158,0 114.08166,32.35562 90.29442,32.35562 132.5289,32.35562 42.23453,0 13.10729,56.19661 106.79971,-3.9735 93.6917,-60.170104 57.2826,-54.493723 108.7407,-54.493723 h 88.3527 c 42.2344,0 62.1381,9.082253 110.1979,26.111603 48.06,17.02927 48.06,32.35562 99.5181,32.35562 51.4581,0 47.5744,-17.59691 88.3526,-17.59691 32.6225,0 34.6323,248.62739 31.5545,372.9411 H 91.566541 Z"
     fill="#2f408a"
     id="path1"
     style="fill:#7184d7;fill-opacity:1;stroke-width:1.04989" />
</svg>
