<?xml version="1.0" encoding="UTF-8" standalone="no"?>
<svg
   width="827"
   height="606"
   viewBox="0 0 827 606"
   fill="none"
   version="1.1"
   id="svg1"
   sodipodi:docname="EXPERIENCELOWER.svg"
   inkscape:export-filename="EXPERIENCELOWER.svg"
   inkscape:export-xdpi="96"
   inkscape:export-ydpi="96"
   xmlns:inkscape="http://www.inkscape.org/namespaces/inkscape"
   xmlns:sodipodi="http://sodipodi.sourceforge.net/DTD/sodipodi-0.dtd"
   xmlns="http://www.w3.org/2000/svg"
   xmlns:svg="http://www.w3.org/2000/svg">
  <sodipodi:namedview
     id="namedview1"
     pagecolor="#ffffff"
     bordercolor="#000000"
     borderopacity="0.25"
     inkscape:showpageshadow="2"
     inkscape:pageopacity="0.0"
     inkscape:pagecheckerboard="0"
     inkscape:deskcolor="#d1d1d1" />
  <defs
     id="defs1" />
  <path
     d="m 690.37176,418.10501 5.0349,11.80039 2.75692,19.12612 -11.771,27 c 45.093,79 -83.75381,96.41272 -107.33081,84.71172 -29.472,-14.626 -53.267,3.172 -72,0 -18.733,-3.172 -28.618,7.346 -72,0 -75.919,-12.856 -36.772,4.683 -91,-4.5 -80.356,-13.607 -83.942,9.759 -115,4.5 -31.058,-5.259 -82.05715,20.77961 -96.21815,29.53861 -27.184,9.596 -66.000194,-61 -62.000194,-65 -30.500097,0 -25.640797,-49.331 -35.500397,-51 -12.3245,-2.087 -2.7834,-82.531 -12.15,-84.118 -22.31164972,-17.977 30.661347,-74.13161 18.718047,-96.43861 -20.26517,-77.978 -17.927721,-91.782 -17.82054,-101.399 0.10718,-9.617 6.6118,17.854 4.25749,-25.142 -3.22519,-55.8222 -3.89304,-51.8783 -0.80427,-70.118596 36.92512,-38.3736 41.44552,-38.1153 55.27272,-44.9019 13.827097,-6.7867 22.669194,6.8814 35.852294,-5.0855 10.546,-9.57357 24.034,-12.157895 29.459,-12.253406 l 13.947,10.475606 28.1,4.7584 c 2.295,2.4171 10.706,5.0584 25.985,-3.7137 19.099,-10.965191 15.974,-10.480121 36.687,-10.015321 16.57,0.371811 44.042,40.156821 55.707,43.146321 3.011,1.186 11.569,1.7561 21.715,-5.4511 45.553,-5.4712 39.144,-6.5565 60.835,-2.8834 21.691,3.6732 27.74223,8.643337 42.03923,11.064237 19.38003,-7.018057 28.28414,-0.112202 42.83982,-4.718085 18.11443,-5.731984 34.485,14.967804 48.288,17.305196 l 26.128,4.4245 41.904,7.095798 c 53.242,9.0161 64.53683,15.70606 62.69983,26.55126 l 40.73261,39.43406 9.5699,24.8832 c -0.867,-3.865 7.63777,-6.23535 -1.32523,1.17265 -2.938,17.353 -27.92278,23.4385 -23.76678,26.8465 -3.448,-1.598 -8.643,-1.666 -1.836,10.846 6.806,12.512 -5.95438,31.75128 -4.22338,40.49628 l 13.54951,69.88887 -3.61798,21.57786 c 1.201,1.893 -2.16554,6.32404 -6.51654,10.45504 -3.706,3.52 11.89,29.443 12.803,39.64 z"
     fill="#2f408a"
     id="path1"
     sodipodi:nodetypes="cccccsccscccccsccccccccsccccssccccccccccccc" />
  <path
     d="m 682.2882,422.56462 4.06,-14.522 -5.092,46 -4.75169,30.89961 c 45.093,79 -77.57588,74.96289 -101.15288,63.26189 -29.472,-14.626 -48.97742,-6.967 -67.71042,-10.139 -18.733,-3.172 -28.618,7.346 -72,0 -75.919,-12.856 -36.772,4.683 -91,-4.5 -80.356,-13.607 -83.942,9.759 -115,4.5 -31.058,-5.259 -70.42009,24.11165 -84.58109,32.87065 -27.184,9.596 -66.000195,-61 -62.000195,-65 -30.500092,0 -5.374382,-47.93331 -15.233982,-49.60231 -12.3245,-2.087 -20.254443,-67.85533 -29.621043,-69.44233 -22.31165,-17.977 33.001115,-72.57176 21.057815,-94.87876 -20.26517,-77.978 -17.92772,-91.782 -17.82054,-101.399 0.10718,-9.617 6.6118,17.854 4.25749,-25.142 -3.22519,-55.8222 -5.989565,-23.22579 -2.900795,-41.46609 36.92512,-38.373596 12.793011,-26.234987 26.620211,-33.021587 13.82709,-6.7867 22.669194,6.8814 35.852289,-5.0855 10.546,-9.573571 24.034,-12.157895 29.459,-12.253406 l 13.947,10.475606 27.32008,-4.600673 c 2.295,2.4171 11.48592,14.417473 26.76492,5.645373 19.099,-10.965191 24.35817,-19.449233 45.07117,-18.984433 16.57,0.37181 35.46285,35.2823 47.12785,38.2718 3.011,1.186 23.85278,2.34104 33.99878,-4.866157 45.553,-5.4712 29.85057,-11.467694 51.54157,-7.794594 21.691,3.6732 51.45624,2.025474 65.75324,4.446374 l 32.63728,-5.269574 c 18.75679,-3.028447 34.48501,14.967811 48.288,17.305201 l 26.128,4.4245 41.904,7.0958 c 53.242,9.01609 59.16436,17.60707 57.32736,28.45226 l 43.79015,44.43092 -3.089,18.24 c -0.867,-3.865 -4.841,-9.745 -13.804,-2.337 -2.938,17.353 -21.09845,20.12383 -16.94245,23.53183 -3.448,-1.598 -8.643,-1.666 -1.836,10.846 6.806,12.512 3.06204,30.6679 4.79304,39.4129 l 13.19345,69.4957 -7.32261,20.213 c 1.201,1.893 2.514,6.714 -1.837,10.845 -3.706,3.52 11.89,29.443 12.803,39.64 z"
     fill="#2f408a"
     id="path1-9"
     style="fill:#7184d7;fill-opacity:1"
     sodipodi:nodetypes="cccccsccscccccsccccccccsccccssccccccccccccc" />
  <path
     style="fill:#010206;fill-opacity:1;stroke-opacity:0.391521"
     id="path2"
     d="m 2.5631706,382.54227 c 2.966835,-2.64195 6.175489,-4.98342 9.3831414,-7.31968 2.662656,-1.98139 5.539109,-3.54024 8.645528,-4.6925 1.930801,-0.54076 1.960791,-0.34698 2.547509,1.29659 0.445572,1.51093 1.098306,2.93807 1.813555,4.33596 0.730464,1.42748 2.749222,0.39445 2.018759,-1.03303 v 0 c -0.68015,-1.32901 -1.29815,-2.68502 -1.718203,-4.12334 -1.106539,-2.71335 -2.552082,-3.53635 -5.453032,-2.60131 -3.296405,1.23207 -6.361265,2.8792 -9.189348,4.98468 -3.3022294,2.40595 -6.6069794,4.81693 -9.65142638,7.54912 -1.133859,1.13385 0.46965898,2.73737 1.60351698,1.60351 z" />
  <path
     style="fill:#010206;fill-opacity:1;stroke-opacity:0.391521"
     id="path3"
     d="m 8.5085226,413.70932 c 2.0795024,-1.6422 4.5176154,-2.70423 6.8688004,-3.88428 3.491106,-1.47328 6.733556,-3.42465 10.060624,-5.2182 1.287855,-0.46227 3.229097,-1.93137 4.686769,-1.65162 0.655105,0.12573 1.735273,0.94147 2.186408,1.23981 2.450277,2.06802 4.774607,4.33902 6.647277,6.95061 0.228213,0.3153 0.456426,0.63061 0.684639,0.94591 0.940181,1.29897 2.777205,-0.0306 1.837024,-1.32962 v 0 c -0.227977,-0.31497 -0.455953,-0.62995 -0.68393,-0.94493 -2.06138,-2.83132 -4.557874,-5.33661 -7.276085,-7.54057 -1.382213,-0.84002 -1.957552,-1.40734 -3.611043,-1.57864 -1.95361,-0.2024 -3.839763,1.24544 -5.547721,1.91322 -3.306605,1.78497 -6.530292,3.72333 -10.001295,5.18731 -2.492711,1.25141 -5.0704444,2.38922 -7.2680984,4.14021 -1.252137,1.00171 0.164494,2.7725 1.416631,1.77079 z" />
  <path
     style="fill:#010206;fill-opacity:1;stroke-opacity:0.391521"
     id="path4"
     d="m 21.614783,435.03513 c 2.211511,-1.27707 4.668806,-2.05737 7.08042,-2.86178 1.79195,-0.52704 3.592014,-1.29599 5.490778,-1.32104 0.233549,-0.003 0.466188,0.0298 0.699282,0.0447 0.19599,0.0673 0.40047,0.1137 0.587968,0.20195 0.651962,0.30685 1.030353,0.64533 1.59455,1.12506 1.066876,0.90716 2.024768,1.88733 2.968418,2.91902 0.622461,0.68398 1.233961,1.37662 1.82401,2.08861 1.024115,1.23388 2.769083,-0.21444 1.744968,-1.44832 v 0 c -0.614789,-0.73968 -1.248717,-1.46199 -1.897206,-2.17251 -1.027448,-1.11892 -2.066735,-2.20503 -3.242602,-3.17265 -0.809162,-0.66587 -1.390112,-1.14019 -2.361372,-1.51744 -0.35523,-0.13797 -0.737478,-0.19243 -1.106218,-0.28864 -0.333144,-0.0132 -0.666134,-0.0482 -0.999432,-0.0397 -2.080309,0.0532 -4.058242,0.82847 -6.020968,1.42987 -2.512782,0.83887 -5.069885,1.65892 -7.37675,2.98459 -1.434229,0.71711 -0.420076,2.74542 1.014154,2.0283 z" />
  <path
     style="fill:#010206;fill-opacity:1;stroke-opacity:0.391521"
     id="path5"
     d="m 23.613439,470.02364 c 0.111,-1.62777 1.160144,-3.04219 2.261855,-4.17663 0.395763,-0.40752 0.844176,-0.76038 1.266264,-1.14057 1.834284,-1.07865 3.853904,-2.00512 5.989348,-2.28851 2.307154,-0.30619 4.898178,0.13791 7.173902,0.49916 1.683488,0.24526 3.302539,0.73882 4.908228,1.27947 1.520422,0.50949 2.240957,-1.64071 0.720535,-2.1502 v 0 c -1.727099,-0.57624 -3.468049,-1.10499 -5.276708,-1.36949 -2.665506,-0.41495 -5.372838,-0.84629 -8.078459,-0.45833 -1.429553,0.20499 -3.566964,0.94802 -4.865454,1.58192 -0.729093,0.35593 -1.399925,0.82053 -2.099887,1.2308 -0.494567,0.4562 -1.021364,0.87976 -1.4837,1.36859 -1.415879,1.49703 -2.793083,3.49398 -2.747855,5.6481 0.0062,0.29374 0.09838,0.57932 0.14757,0.86898 0.631657,1.47387 2.716017,0.58057 2.084361,-0.89329 z" />
  <path
     style="fill:#010206;fill-opacity:1;stroke-opacity:0.391521"
     id="path6"
     d="m 39.853841,503.51961 c 0.371738,-1.10111 1.023036,-2.06437 1.856947,-2.87141 0.221146,-0.21402 0.469717,-0.39775 0.704575,-0.59662 1.389487,-1.01251 3.01391,-1.54981 4.655479,-1.98887 0.139512,-0.0313 0.848391,-0.20057 1.022331,-0.20402 0.322814,-0.006 1.722337,1.40708 1.843184,1.51986 1.300506,1.24701 0.667963,0.62518 1.899031,1.86408 1.130544,1.13716 2.738735,-0.46167 1.608191,-1.59883 v 0 c -1.278894,-1.28576 -0.624224,-0.64275 -1.965111,-1.92791 -0.871102,-0.8036 -1.730034,-1.74228 -2.929071,-2.044 -0.700931,-0.17639 -1.392408,0.0541 -2.067676,0.20096 -1.970033,0.53268 -3.906709,1.20809 -5.548688,2.46256 -0.303024,0.26572 -0.622698,0.51357 -0.909071,0.79716 -1.213159,1.20134 -2.151715,2.68942 -2.437837,4.38704 0,1.60351 2.267716,1.60351 2.267716,0 z" />
  <path
     style="fill:#010206;fill-opacity:1;stroke-opacity:0.391521"
     id="path7"
     d="m 57.664246,526.91512 c 0.336182,-1.73426 1.423618,-2.35829 2.789469,-3.30815 2.1525,-1.39152 4.290184,-2.82149 6.552942,-4.03053 0.448424,-0.22766 0.920938,-0.39806 1.412676,-0.50234 0.190919,-0.0405 0.489144,-0.0889 0.506885,-0.0513 0.02193,0.0465 -0.09238,0.0452 -0.138574,0.0677 0.791065,0.78925 1.544525,1.61236 2.292244,2.44276 0.503141,0.5918 0.268268,0.29985 0.707821,0.87326 0.978828,1.27011 2.775027,-0.11417 1.796199,-1.38427 v 0 c -0.52269,-0.67525 -0.25017,-0.33944 -0.818801,-1.00641 -0.949535,-1.05453 -1.872428,-2.16483 -3.037569,-2.98911 -0.293597,-0.0901 -0.578302,-0.21721 -0.88079,-0.27029 -0.162731,-0.0286 -0.330817,0.009 -0.494807,0.0289 -0.846118,0.10366 -1.653874,0.42593 -2.415711,0.79191 -2.341022,1.25583 -4.560008,2.7267 -6.78538,4.17362 -0.862872,0.61049 -1.544012,1.02137 -2.265114,1.79616 -0.791237,0.85015 -1.27612,1.95452 -1.471695,3.0868 -0.198892,1.59114 2.051313,1.87241 2.250205,0.28128 z" />
  <path
     style="fill:#010206;fill-opacity:1;stroke-opacity:0.391521"
     id="path8"
     d="m 72.987529,545.33324 c 0.50422,-1.26086 1.544066,-2.1425 2.584252,-2.96137 0.922726,-0.64626 1.922525,-1.33035 3.079126,-1.44622 0.180805,-0.0181 0.363362,0.006 0.545043,0.01 1.183643,0.13762 2.109502,0.91511 3.043657,1.59145 1.245446,0.90171 1.568655,1.16725 2.795065,2.11539 1.18512,0.91501 2.39342,1.79882 3.58648,2.70331 1.27786,0.96868 2.64778,-0.83848 1.36992,-1.80717 v 0 c -1.18752,-0.90011 -2.38985,-1.7801 -3.56965,-2.69043 -1.16672,-0.90147 -1.68976,-1.32182 -2.881223,-2.17879 -1.342626,-0.9657 -2.680451,-1.92389 -4.392084,-2.00097 -0.326713,0.014 -0.655805,9e-5 -0.980139,0.0419 -1.497266,0.19276 -2.811116,1.02893 -4.00873,1.88785 -1.420094,1.14107 -2.791819,2.40156 -3.371725,4.18543 -0.38891,1.55564 1.811098,2.10564 2.200008,0.55 z" />
  <path
     style="fill:#010206;fill-opacity:1;stroke-opacity:0.391521"
     id="path9"
     d="m 85.317092,568.9483 c 1.11963,-1.83647 2.7576,-3.39148 4.36918,-4.79388 1.61973,-1.23609 3.31484,-2.59478 5.37637,-2.97609 0.36738,-0.0679 0.74382,-0.0712 1.11574,-0.10677 1.62236,0.0318 3.23873,0.34834 4.738738,0.97583 0.62569,0.26173 1.12708,0.56826 1.71321,0.90073 0.86186,0.56482 1.55363,1.33007 2.23875,2.08863 1.0762,1.18873 2.75731,-0.33324 1.68112,-1.52197 v 0 c -0.8505,-0.93746 -1.7215,-1.86756 -2.80616,-2.54205 -0.76872,-0.43113 -1.23573,-0.72141 -2.06846,-1.06247 -1.821668,-0.74608 -3.780578,-1.10465 -5.745918,-1.09274 -1.38244,0.16769 -1.57424,0.10746 -2.87456,0.58879 -1.80658,0.66874 -3.35566,1.87502 -4.86135,3.04079 -0.41916,0.36794 -0.85255,0.72028 -1.2575,1.10381 -0.70325,0.66605 -1.53639,1.58084 -2.16458,2.32555 -0.47991,0.56891 -1.00295,1.21999 -1.386548,1.8688 -0.09045,0.15298 -0.146253,0.32395 -0.219379,0.48593 -0.507077,1.52123 1.644267,2.23834 2.151347,0.71711 z" />
  <path
     style="fill:#010206;fill-opacity:1;stroke-opacity:0.391521"
     id="path10"
     d="m 105.34996,590.70444 c 1.13678,-2.27525 2.43919,-4.46476 3.76732,-6.63245 0.59984,-0.97067 1.1808,-1.95724 1.89243,-2.85248 0.23476,-0.29532 0.58,-0.70456 0.90014,-0.93738 0.155,-0.11273 0.331,-0.19333 0.4965,-0.29 1.39116,-0.61541 2.84714,-1.0687 4.30789,-1.48547 1.54178,-0.44064 0.91862,-2.62105 -0.62316,-2.18041 v 0 c -1.66494,0.47661 -3.3324,0.98705 -4.89338,1.74711 -0.27603,0.18145 -0.56721,0.34172 -0.82808,0.54437 -1.35761,1.05459 -2.2533,2.8703 -3.18607,4.26969 -1.37953,2.25241 -2.73367,4.52748 -3.90585,6.89601 -0.65125,1.46531 1.42101,2.38632 2.07226,0.92101 z" />
  <path
     style="fill:#010206;fill-opacity:1;stroke-opacity:0.391521"
     id="path11"
     d="m 132.0598,594.9926 c 0.30534,-1.74895 0.62152,-3.50733 1.34433,-5.14201 0.13981,-0.31621 0.3124,-0.61688 0.4686,-0.92533 0.66216,-1.34732 1.41103,-2.27075 2.69992,-3.02683 1.37371,-0.82715 0.20394,-2.76988 -1.16977,-1.94272 v 0 c -0.56604,0.34694 -0.77415,0.44493 -1.2936,0.89397 -0.97657,0.84419 -1.68278,1.9198 -2.26496,3.06163 -0.18597,0.37607 -0.39028,0.7436 -0.5579,1.1282 -0.77834,1.78588 -1.1391,3.7 -1.46796,5.60827 -0.24383,1.58487 1.99752,1.9297 2.24134,0.34482 z" />
  <path
     style="fill:#010206;fill-opacity:1;stroke-opacity:0.391521"
     id="path12"
     d="m 173.84128,575.01991 c 0.46465,-1.81452 0.83794,-3.65165 1.26513,-5.47559 0.63906,-2.4135 1.65534,-4.709 2.95169,-6.83816 0.41498,-0.77028 1.06167,-1.30206 1.73012,-1.83503 1.25141,-1.00263 -0.16652,-2.77238 -1.41792,-1.76976 v 0 c -0.87099,0.70066 -1.69733,1.43887 -2.25184,2.42991 -1.41024,2.33868 -2.53243,4.84665 -3.22005,7.49606 -0.29704,1.269 -0.57941,2.5407 -0.86281,3.8128 -0.12178,0.5466 -0.2757,1.08595 -0.38819,1.63454 -0.0368,0.17966 -0.0492,0.36349 -0.0739,0.54523 0,1.60352 2.26772,1.60352 2.26772,0 z" />
  <path
     style="fill:#010206;fill-opacity:1;stroke-opacity:0.391521"
     id="path13"
     d="m 203.37292,571.59314 c -0.37895,-3.26233 -0.72335,-6.5305 -1.00741,-9.80284 -0.18556,-1.95188 -0.3399,-3.90589 -0.59491,-5.85017 -0.20872,-1.58988 -2.45714,-1.29469 -2.24842,0.29518 v 0 c 0.25117,1.9113 0.40054,3.83249 0.58412,5.75121 0.29348,3.37734 0.63748,6.75306 1.05698,10.11653 0.36056,1.56246 2.5702,1.05254 2.20964,-0.50991 z" />
  <path
     style="fill:#010206;fill-opacity:1;stroke-opacity:0.391521"
     id="path14"
     d="m 222.22759,574.08877 c -0.037,-0.18585 -0.0605,-0.37493 -0.11115,-0.55754 -0.10558,-0.38076 -1.03075,-3.31665 -1.06473,-3.4236 -0.70935,-2.23302 -1.42371,-4.46196 -2.09807,-6.70591 -0.49881,-1.97691 -1.32999,-4.08883 -0.89464,-6.16608 0.17426,-0.83149 0.48604,-1.27607 0.88486,-2.00664 0.59981,-0.91542 1.4012,-1.56064 2.34531,-2.07847 1.39462,-0.7914 0.27541,-2.76369 -1.11921,-1.97229 v 0 c -0.26688,0.15498 -0.54477,0.29238 -0.80064,0.46494 -0.98831,0.66654 -1.77869,1.53992 -2.43337,2.53187 -0.5856,1.14877 -0.90318,1.57178 -1.13778,2.88396 -0.42372,2.37005 0.37377,4.74141 0.98374,6.9955 0.67724,2.25266 1.39401,4.49045 2.10615,6.73221 0.33809,1.06425 0.6966,2.12242 1.00593,3.19538 0.0403,0.1398 0.0591,0.28492 0.0887,0.42738 0.22677,1.5874 2.4717,1.26669 2.24493,-0.32071 z" />
  <path
     style="fill:#010206;fill-opacity:1;stroke-opacity:0.391521"
     id="path15"
     d="m 238.14825,567.13137 c -0.23265,-1.28185 -0.48306,-2.63149 -0.33804,-3.93952 0.0358,-0.32311 0.13285,-0.63647 0.19927,-0.9547 0.56291,-1.42772 1.153,-3.14938 2.37804,-4.16282 0.1653,-0.13674 0.35548,-0.24025 0.53322,-0.36037 0.57513,-0.3565 1.21801,-0.52012 1.87541,-0.63624 1.57646,-0.29333 1.16163,-2.52278 -0.41483,-2.22945 v 0 c -0.98263,0.18925 -1.93536,0.46348 -2.78178,1.0226 -0.27916,0.2074 -0.57811,0.39053 -0.83749,0.6222 -1.54014,1.37563 -2.32234,3.42205 -2.98008,5.31896 -0.0797,0.44756 -0.19498,0.89022 -0.23917,1.34266 -0.0766,0.78399 0.003,1.64608 0.0788,2.42701 0.0805,0.82492 0.17595,1.65356 0.44229,2.44297 0.63166,1.47387 2.71602,0.58057 2.08436,-0.8933 z" />
  <path
     style="fill:#010206;fill-opacity:1;stroke-opacity:0.391521"
     id="path16"
     d="m 260.68406,565.92608 c -0.0444,-0.23133 -0.0972,-0.46121 -0.13323,-0.69399 -0.0598,-0.38658 -0.0947,-0.77674 -0.15427,-1.16336 -0.26765,-1.73623 -0.62943,-3.45467 -0.87191,-5.195 0.0184,-0.25876 -0.012,-0.52574 0.0552,-0.77628 0.0504,-0.18764 0.18446,-0.34241 0.28912,-0.50609 0.56896,-0.88982 1.10876,-1.31792 2.04688,-1.76944 0.75946,-0.27562 0.38191,-0.14257 1.1325,-0.39953 1.51665,-0.52062 0.78039,-2.66549 -0.73626,-2.14487 v 0 c -0.89249,0.30709 -0.41599,0.13468 -1.42687,0.52442 -0.29517,0.15613 -0.60445,0.28809 -0.8855,0.4684 -1.29289,0.82945 -2.3758,2.19108 -2.68518,3.72259 -0.0789,0.3907 -0.0238,0.79683 -0.0357,1.19524 0.24417,1.736 0.60219,3.45063 0.87021,5.18262 0.0668,0.43158 0.10699,0.86707 0.17655,1.29821 0.0462,0.28651 0.11377,0.56917 0.17065,0.85375 0.42192,1.54702 2.60973,0.95034 2.18781,-0.59667 z" />
  <path
     style="fill:#010206;fill-opacity:1;stroke-opacity:0.391521"
     id="path17"
     d="m 282.93239,561.31915 c -0.20682,-1.51967 -0.29834,-3.06478 -0.008,-4.58034 0.0835,-0.43565 0.21283,-0.86124 0.31924,-1.29185 0.43183,-1.34105 0.87735,-2.77601 1.83364,-3.85487 0.3795,-0.42813 0.63911,-0.55946 1.11118,-0.87923 0.82722,-0.45648 0.41647,-0.25187 1.22943,-0.61944 1.45722,-0.66917 0.51088,-2.72999 -0.94634,-2.06082 v 0 c -1.04713,0.48662 -0.51539,0.21393 -1.59043,0.82732 -0.76258,0.55283 -1.02438,0.67188 -1.63717,1.39747 -1.1227,1.32936 -1.70238,3.02226 -2.20456,4.65682 -0.12144,0.5121 -0.27157,1.01822 -0.3643,1.53629 -0.32975,1.84223 -0.2451,3.75421 0.106,5.58577 0.50707,1.52123 2.65842,0.80411 2.15134,-0.71712 z" />
  <path
     style="fill:#010206;fill-opacity:1;stroke-opacity:0.391521"
     id="path18"
     d="m 310.22825,559.82994 c 0.0686,-2.44493 0.86765,-4.80579 1.81266,-7.03803 0.33773,-0.63529 0.47295,-1.04346 0.99553,-1.52228 0.81961,-0.751 2.00475,-1.05545 3.02112,-1.42446 0.96871,-0.34978 0.49984,-0.18896 1.40548,-0.48572 1.52344,-0.5004 0.81578,-2.65487 -0.70766,-2.15448 v 0 c -0.96945,0.31912 -0.47855,0.15 -1.47221,0.5088 -1.44422,0.52507 -2.90819,1.01788 -4.01989,2.14219 -0.67819,0.68588 -0.87378,1.21597 -1.31297,2.05736 -1.05041,2.51566 -1.93455,5.16469 -1.98978,7.91662 0,1.60352 2.26772,1.60352 2.26772,0 z" />
  <path
     style="fill:#010206;fill-opacity:1;stroke-opacity:0.391521"
     id="path19"
     d="m 333.47004,562.75796 c 0.57543,-1.37133 0.97887,-2.82059 1.75266,-4.1034 0.1572,-0.2606 0.34634,-0.50055 0.51951,-0.75083 0.18321,-0.21684 0.34748,-0.45123 0.54963,-0.65053 1.16019,-1.14387 3.05577,-1.792 4.55897,-2.31508 1.24337,-0.42652 0.65018,-0.22863 1.77863,-0.59646 1.52449,-0.49718 0.82137,-2.65314 -0.70312,-2.15596 v 0 c -1.16531,0.38024 -0.55712,0.17715 -1.82377,0.61171 -2.33776,0.82043 -4.7183,1.76369 -6.2356,3.8312 -0.2176,0.3244 -0.45344,0.63729 -0.6528,0.97321 -0.81252,1.36913 -1.26474,2.89779 -1.86744,4.35989 -0.56303,1.50142 1.5603,2.29767 2.12333,0.79625 z" />
  <path
     style="fill:#010206;fill-opacity:1;stroke-opacity:0.391521"
     id="path20"
     d="m 359.422,563.37607 c 0.4469,-1.84388 1.06177,-3.64967 1.94438,-5.33368 0.25341,-0.48349 0.54306,-0.94709 0.81458,-1.42064 0.88687,-1.2737 1.72589,-2.66285 2.95336,-3.64918 0.17052,-0.13702 0.36102,-0.2471 0.54153,-0.37065 1.30967,-0.92522 10e-4,-2.77737 -1.30845,-1.85216 v 0 c -0.25748,0.18587 -0.52819,0.35466 -0.77244,0.5576 -1.39002,1.15494 -2.3852,2.70888 -3.38356,4.19039 -0.29831,0.52496 -0.61697,1.03887 -0.89492,1.57489 -0.94367,1.81983 -1.61157,3.76506 -2.09449,5.75342 -0.38891,1.55564 1.8111,2.10565 2.20001,0.55001 z" />
  <path
     style="fill:#010206;fill-opacity:1;stroke-opacity:0.391521"
     id="path21"
     d="m 384.84576,567.05431 c 0,-0.1876 -0.0146,-0.37578 0,-0.56281 0.034,-0.43607 0.28271,-1.96237 0.32652,-2.20787 0.34065,-1.90863 0.83082,-3.76084 1.35148,-5.6268 0.77321,-2.46825 1.84496,-4.82293 3.19491,-7.02785 0.45444,-0.74225 0.96792,-1.46381 1.46419,-2.17914 0.37184,-0.53168 0.81454,-0.98185 1.32169,-1.37887 1.24459,-1.01106 -0.18528,-2.77118 -1.42987,-1.76012 v 0 c -0.65915,0.54779 -1.26757,1.13335 -1.75554,1.84705 -0.54867,0.79209 -1.05927,1.50849 -1.56477,2.33791 -1.4444,2.36995 -2.59007,4.90121 -3.41511,7.55232 -0.7675,2.75809 -1.54573,5.57423 -1.76121,8.44337 -0.014,0.18708 0,0.37521 0,0.56281 0,1.60352 2.26771,1.60352 2.26771,0 z" />
  <path
     style="fill:#010206;fill-opacity:1;stroke-opacity:0.391521"
     id="path22"
     d="m 407.57693,561.58904 c 0.40156,-1.10442 0.81868,-2.59268 1.6318,-3.46879 0.12957,-0.1396 0.30139,-0.23297 0.45208,-0.34945 1.16675,-0.61391 2.38687,-1.13563 3.61918,-1.6054 1.21611,-0.35968 1.93376,0.0303 2.98421,0.5791 1.4227,0.73973 2.46884,-1.27226 1.04614,-2.012 v 0 c -1.73851,-0.90031 -2.88875,-1.26778 -4.84025,-0.68526 -1.47717,0.56633 -2.96298,1.17025 -4.30247,2.01683 -0.27507,0.256 -0.57814,0.4849 -0.82522,0.76802 -0.79614,0.91231 -1.49372,2.60844 -1.82312,3.76462 -0.0926,0.32517 -0.14005,0.66155 -0.21007,0.99233 0,1.60352 2.26772,1.60352 2.26772,0 z" />
  <path
     style="fill:#010206;fill-opacity:1;stroke-opacity:0.391521"
     id="path23"
     d="m 440.89412,569.13737 c -0.1966,-1.81461 -0.2834,-3.64577 -0.0446,-5.4627 0.22434,-1.70731 0.58903,-2.98525 1.00046,-4.65532 0.76864,-2.20501 1.46598,-4.55427 3.09771,-6.30096 0.55179,-0.59067 0.77543,-0.70483 1.39615,-1.1388 0.63419,-0.42441 1.30909,-0.44492 2.0336,-0.33772 1.59006,0.20733 1.88328,-2.04135 0.29322,-2.24868 v 0 c -1.33976,-0.16073 -2.48976,-0.0184 -3.64882,0.74389 -0.81402,0.59511 -1.13338,0.77036 -1.8431,1.56238 -1.81781,2.02859 -2.69325,4.63884 -3.53114,7.17946 -0.45621,1.86611 -0.81909,3.12169 -1.06027,5.03744 -0.2472,1.9636 -0.15782,3.94219 0.0566,5.90229 0.19889,1.59113 2.4491,1.30986 2.2502,-0.28128 z" />
  <path
     style="fill:#010206;fill-opacity:1;stroke-opacity:0.391521"
     id="path24"
     d="m 478.8254,568.10354 c -0.11093,-0.16366 -0.23704,-0.318 -0.33278,-0.49098 -1.20027,-2.16874 -1.76323,-4.65118 -2.24588,-7.0574 -0.0278,-0.43234 -0.0977,-0.86401 -0.0835,-1.297 0.057,-1.73591 0.94623,-2.87667 2.13172,-4.02179 0.50733,-0.50096 1.10479,-0.86786 1.72104,-1.21313 1.39289,-0.79444 0.26938,-2.76428 -1.12351,-1.96984 v 0 c -0.78213,0.45201 -1.54479,0.92789 -2.19132,1.56978 -0.27407,0.27536 -0.56763,0.53261 -0.82221,0.82609 -1.21399,1.39945 -1.9466,3.10233 -1.97766,4.97065 -0.009,0.52945 0.0817,1.05589 0.12253,1.58383 0.59294,2.92182 1.30032,5.9529 2.9874,8.46042 0.96211,1.28281 2.77628,-0.0778 1.81417,-1.36063 z" />
  <path
     style="fill:#010206;fill-opacity:1;stroke-opacity:0.391521"
     id="path25"
     d="m 514.31456,566.77768 c 0.0183,-0.19861 0.0165,-0.40012 0.055,-0.59581 0.085,-0.43159 0.65238,-2.39081 0.70645,-2.56689 0.56436,-1.83778 1.2529,-3.61481 1.97717,-5.39387 0.8009,-1.75843 2.00534,-3.2179 3.62875,-4.27056 0.65442,-0.42434 1.0655,-0.56861 1.76344,-0.86825 0.25113,-0.0771 0.50227,-0.15427 0.75341,-0.2314 1.52901,-0.4831 0.84581,-2.64546 -0.68321,-2.16236 v 0 c -0.32593,0.1052 -0.65187,0.21039 -0.97781,0.31559 -0.92142,0.40792 -1.34878,0.55436 -2.21944,1.13449 -1.94936,1.29887 -3.40002,3.10137 -4.36576,5.22812 -0.75405,1.85568 -1.47064,3.70951 -2.05736,5.62648 -0.21359,0.69783 -0.64714,2.21912 -0.78514,2.99572 -0.0461,0.25969 -0.0421,0.52583 -0.0632,0.78874 0,1.60352 2.26772,1.60352 2.26772,0 z" />
  <path
     style="fill:#010206;fill-opacity:1;stroke-opacity:0.391521"
     id="path26"
     d="m 546.90015,562.81237 c -0.88939,-1.52155 -1.68524,-3.19413 -1.9897,-4.9465 -0.0589,-0.3388 -0.052,-0.68578 -0.078,-1.02867 0.18591,-1.22533 0.75761,-2.43221 1.8501,-3.09878 0.24603,-0.15011 0.51485,-0.2592 0.77227,-0.38879 1.0432,-0.44789 2.13393,-0.75893 3.22405,-1.06598 1.54303,-0.43627 0.92606,-2.61844 -0.61697,-2.18218 v 0 c -1.245,0.35321 -2.49134,0.71022 -3.67357,1.24687 -0.9302,0.51446 -1.24814,0.5973 -1.98088,1.3359 -0.79162,0.79796 -1.397,1.90957 -1.65944,3.00177 -0.10649,0.44319 -0.11599,0.90421 -0.17398,1.35632 0.0474,0.46546 0.058,0.93615 0.14225,1.39636 0.36875,2.01379 1.3558,4.17944 2.48897,5.88027 1.06532,1.19848 2.76023,-0.3081 1.69491,-1.50659 z" />
  <path
     style="fill:#010206;fill-opacity:1;stroke-opacity:0.391521"
     id="path27"
     d="m 568.42312,564.59645 c 0.96955,-2.6534 2.58139,-5.02827 4.19785,-7.32567 0.94576,-1.20362 1.8948,-2.46985 3.18562,-3.33052 0.2948,-0.19657 0.91554,-0.5077 1.22988,-0.67074 0.17868,-0.0806 0.35736,-0.16114 0.53605,-0.24171 1.45991,-0.66325 0.52193,-2.72789 -0.93799,-2.06463 v 0 c -0.21549,0.0985 -0.43098,0.19701 -0.64647,0.29552 -0.52634,0.27565 -1.06919,0.54226 -1.55961,0.88064 -1.46766,1.0127 -2.58757,2.42874 -3.66315,3.82798 -1.67563,2.38927 -3.35974,4.86023 -4.37049,7.61498 -0.71711,1.43423 1.3112,2.44838 2.02831,1.01415 z" />
  <path
     style="fill:#010206;fill-opacity:1;stroke-opacity:0.391521"
     id="path28"
     d="m 592.19179,571.48474 c 0.43739,-2.40896 1.19534,-4.76783 2.16064,-7.01694 0.22899,-0.53352 0.49107,-1.05222 0.73661,-1.57833 0.75179,-1.46472 1.64552,-2.83195 2.919,-3.89314 0.52464,-0.43718 0.75499,-0.55006 1.31613,-0.88899 0.17439,-0.0847 0.34878,-0.16934 0.52317,-0.25401 1.43688,-0.7118 0.43025,-2.74385 -1.00663,-2.03205 v 0 c -0.2341,0.11768 -0.46821,0.23537 -0.70231,0.35306 -0.72732,0.45151 -0.99988,0.58606 -1.67824,1.16471 -1.48178,1.26395 -2.54973,2.86825 -3.42717,4.59375 -0.2633,0.56748 -0.54404,1.12718 -0.7899,1.70242 -1.03138,2.41311 -1.83648,4.94412 -2.29622,7.52881 -0.22677,1.5874 2.01815,1.90811 2.24492,0.32071 z" />
  <path
     style="fill:#010206;fill-opacity:1;stroke-opacity:0.391521"
     id="path29"
     d="m 618.37643,556.68421 c 0.19457,2.18564 0.50217,4.35614 0.62947,6.54914 0.10595,1.74618 -0.18484,2.81669 -1.15077,4.2221 -0.2371,0.26951 -0.11559,0.19631 -0.31264,0.28874 -1.26562,0.98462 0.12684,2.77448 1.39246,1.78986 v 0 c 0.58115,-0.49296 0.31655,-0.22438 0.7957,-0.80386 0.28841,-0.42795 0.51651,-0.7394 0.74864,-1.21648 0.67148,-1.38004 0.89636,-2.8888 0.79044,-4.41314 -0.137,-2.31327 -0.44862,-4.60403 -0.67959,-6.9083 -0.34785,-1.56533 -2.56156,-1.0734 -2.21371,0.49194 z" />
  <path
     style="fill:#010206;fill-opacity:1;stroke-opacity:0.391521"
     id="path30"
     d="m 635.78893,556.6263 c 0.10238,0.0238 0.21067,0.0298 0.30714,0.0715 0.78604,0.34014 1.51515,1.12285 2.06725,1.72455 0.93745,1.02165 1.39654,1.68604 2.24627,2.80723 1.09994,1.63017 2.07661,3.34538 2.86623,5.14796 0.60751,1.38684 1.06158,2.82598 1.50634,4.27024 0.0819,0.28186 0.16369,0.56372 0.24554,0.84559 0.44743,1.53983 2.62508,0.90707 2.17765,-0.63276 v 0 c -0.0854,-0.2937 -0.17079,-0.58741 -0.25618,-0.88111 -0.3137,-1.01586 -0.53284,-1.76871 -0.91273,-2.78878 -0.9659,-2.59363 -2.24796,-5.05403 -3.82089,-7.33265 -1.4556,-1.91299 -3.3064,-4.63641 -5.72635,-5.39365 -0.2253,-0.0705 -0.46685,-0.0706 -0.70027,-0.10583 -1.60352,0 -1.60352,2.26772 0,2.26772 z" />
  <path
     style="fill:#010206;fill-opacity:1;stroke-opacity:0.391521"
     id="path31"
     d="m 656.68519,547.44347 c 0.10587,-0.0124 0.21233,-0.054 0.31761,-0.0373 0.0599,0.01 0.0922,0.0798 0.14449,0.11056 0.16701,0.0982 0.34514,0.17663 0.51187,0.2753 0.29575,0.17503 0.58708,0.35763 0.8749,0.5454 1.26482,0.82515 1.09803,0.73599 2.32784,1.68264 2.04689,1.62847 3.76887,3.5979 5.23167,5.75639 0.54812,0.95417 0.29599,0.49701 0.76105,1.36894 0.75595,1.41414 2.75585,0.34505 1.9999,-1.06909 v 0 c -0.52881,-0.98723 -0.23616,-0.46058 -0.88601,-1.57545 -1.60625,-2.35283 -3.4832,-4.50677 -5.72599,-6.2798 -1.23819,-0.94762 -1.24879,-0.99756 -2.51957,-1.81471 -0.99628,-0.64064 -2.11047,-1.39684 -3.35847,-1.20785 -1.5874,0.22677 -1.26669,2.4717 0.32071,2.24493 z" />
  <path
     style="fill:#010206;fill-opacity:1;stroke-opacity:0.391521"
     id="path32"
     d="m 675.90216,531.37516 c 0.85822,-0.49377 1.82753,-0.85119 2.83645,-0.77195 0.35277,0.0277 0.69792,0.11723 1.04689,0.17585 3.14867,0.77712 6.18968,2.0574 8.94973,3.76501 0.45585,0.28203 0.88738,0.60161 1.33107,0.90241 0.9764,0.68253 1.80555,1.52426 2.60762,2.39567 1.08965,1.17641 2.75334,-0.36458 1.66369,-1.54099 v 0 c -0.92557,-0.9939 -1.8794,-1.95668 -3.00263,-2.7343 -0.49265,-0.3312 -0.97238,-0.68246 -1.47795,-0.99359 -3.00341,-1.84835 -6.31259,-3.23072 -9.74367,-4.0381 -0.49987,-0.0654 -0.996,-0.17335 -1.49961,-0.19624 -1.35822,-0.0617 -2.67484,0.40622 -3.83669,1.0673 -1.39224,0.79557 -0.26714,2.7645 1.1251,1.96893 z" />
  <path
     style="fill:#010206;fill-opacity:1;stroke-opacity:0.391521"
     id="path33"
     d="m 688.79877,514.21789 c 0.98318,-1.69072 2.5299,-3.0142 3.95105,-4.32561 1.78753,-1.6495 1.51529,-1.37933 3.34791,-2.82183 2.14732,-1.47776 4.62093,-2.33425 7.24375,-2.02433 0.33746,0.0399 0.6673,0.1288 1.00095,0.1932 0.64411,0.13908 1.19597,0.43138 1.73845,0.78619 1.35793,0.85282 2.564,-1.06758 1.20608,-1.9204 v 0 c -0.798,-0.48834 -1.60545,-0.90978 -2.53685,-1.09656 -0.43396,-0.0759 -0.86366,-0.18242 -1.30188,-0.22764 -3.17127,-0.32723 -6.1695,0.70945 -8.75501,2.50912 -0.57927,0.45792 -1.17352,0.89751 -1.73782,1.37375 -0.88611,0.74783 -2.74254,2.47478 -3.5508,3.28267 -0.94126,0.94084 -1.59808,1.60174 -2.30184,2.6748 -0.16586,0.25291 -0.28488,0.53359 -0.42732,0.80039 -0.56303,1.50142 1.5603,2.29767 2.12333,0.79625 z" />
  <path
     style="fill:#010206;fill-opacity:1;stroke-opacity:0.391521"
     id="path34"
     d="m 686.90199,491.97147 c 1.69283,-1.56409 3.55736,-2.98755 5.62155,-4.03048 0.47856,-0.24179 0.97965,-0.43616 1.46948,-0.65424 1.71336,-0.54583 3.4707,-1.16207 5.27558,-1.3243 1.59523,-0.16277 1.36504,-2.41877 -0.23019,-2.256 v 0 c -2.04426,0.22455 -4.04042,0.83771 -5.97434,1.51159 -0.554,0.25065 -1.12034,0.47565 -1.662,0.75195 -2.19531,1.11982 -4.1865,2.63018 -5.99338,4.29485 -1.20677,1.05592 0.28653,2.76255 1.4933,1.70663 z" />
  <path
     style="fill:#010206;fill-opacity:1;stroke-opacity:0.391521"
     id="path35"
     d="m 682.15826,480.21501 c 0.98701,-0.57961 1.95253,-1.21527 3.01797,-1.6477 0.7152,-0.29028 0.9845,-0.32087 1.74669,-0.4997 1.06792,-0.17375 2.16028,-0.44915 3.24498,-0.25026 0.6313,0.11576 0.73806,0.18835 1.32563,0.4163 0.58671,0.22226 1.05885,0.57881 1.50905,1.00106 1.19697,1.06701 2.70596,-0.62577 1.50898,-1.69278 v 0 c -0.67935,-0.5874 -1.37042,-1.11926 -2.22707,-1.43359 -0.81138,-0.29307 -1.03372,-0.4176 -1.90091,-0.54842 -1.34089,-0.20229 -2.67653,0.0573 -3.99219,0.30315 -0.38102,0.0939 -0.76712,0.16908 -1.14306,0.28158 -1.55192,0.46441 -2.93225,1.32646 -4.30755,2.15718 -1.35283,0.86089 -0.13534,2.77407 1.21748,1.91318 z" />
  <path
     style="fill:#010206;fill-opacity:1;stroke-opacity:0.391521"
     id="path36"
     d="m 684.28837,459.77556 c 1.35339,-0.0689 2.74247,-0.40753 4.10224,-0.23614 0.2076,0.0262 0.40738,0.0958 0.61107,0.14365 1.11301,0.31296 2.13822,0.83615 2.92772,1.6873 0.68855,0.87252 1.48832,1.64161 2.33887,2.35329 1.23267,1.02556 2.68304,-0.7177 1.45036,-1.74327 v 0 c -0.79409,-0.65573 -1.51835,-1.38379 -2.16185,-2.18932 -0.1749,-0.17543 -0.33948,-0.36178 -0.52468,-0.5263 -1.01181,-0.8988 -2.28489,-1.43727 -3.57162,-1.80252 -0.33391,-0.0632 -0.66409,-0.15102 -1.00173,-0.18953 -1.48446,-0.16928 -2.99365,0.16508 -4.47009,0.25502 -1.58945,0.21193 -1.28974,2.45975 0.29971,2.24782 z" />
  <path
     style="fill:#010206;fill-opacity:1;stroke-opacity:0.391521"
     id="path37"
     d="m 689.059,449.35836 c 1.33744,-1.44661 3.0362,-2.47155 4.97093,-2.88486 0.49209,-0.10512 0.99651,-0.14065 1.49476,-0.21098 1.65901,-0.15626 3.20663,0.29506 4.74964,0.82745 1.51707,0.51939 2.25159,-1.62608 0.73451,-2.14546 v 0 c -1.93603,-0.65831 -3.7388,-1.12975 -5.8186,-0.92491 -1.58617,0.24694 -2.1056,0.23725 -3.6197,0.84343 -1.72543,0.69079 -3.22996,1.87209 -4.42473,3.27785 -0.86089,1.35283 1.0523,2.57031 1.91319,1.21748 z" />
  <path
     style="fill:#010206;fill-opacity:1;stroke-opacity:0.391521"
     id="path38"
     d="m 691.76644,433.64823 c 1.57517,-1.51153 3.42288,-2.70237 5.43373,-3.54794 0.40399,-0.16987 0.82031,-0.30877 1.23046,-0.46316 0.91524,-0.29228 1.86064,-0.48132 2.82512,-0.42697 0.18427,0.0104 0.36773,0.039 0.54825,0.0774 0.0715,0.0152 0.26857,0.11537 0.20324,0.0825 -0.1161,-0.0584 -0.23722,-0.10617 -0.35583,-0.15925 -0.10065,-0.30648 -0.20131,-0.61297 -0.30196,-0.91945 -0.48583,1.52815 1.6753,2.21521 2.16113,0.68706 v 0 c -0.0609,-0.43155 -0.12178,-0.8631 -0.18267,-1.29466 -0.21572,-0.1597 -0.40882,-0.35569 -0.64717,-0.4791 -0.32696,-0.16928 -1.15972,-0.25112 -1.46226,-0.26191 -1.2266,-0.0437 -2.43009,0.19387 -3.59165,0.5739 -0.46125,0.17593 -0.92961,0.33426 -1.38375,0.5278 -2.24995,0.95882 -4.31742,2.30251 -6.08016,4.00026 -1.13386,1.13386 0.46966,2.73738 1.60352,1.60352 z" />
  <path
     style="fill:#010206;fill-opacity:1;stroke-opacity:0.391521"
     id="path39"
     d="m 682.64608,412.93489 c 1.74691,-1.03456 3.5301,-2.22483 5.50356,-2.78931 0.36922,-0.10561 0.75291,-0.15181 1.12936,-0.22771 1.65075,-0.16807 3.32119,-0.068 4.91316,0.40664 1.54064,0.44463 2.16944,-1.73416 0.6288,-2.1788 v 0 c -1.95854,-0.55164 -3.99061,-0.70767 -6.01421,-0.44584 -0.4841,0.10733 -0.97653,0.18227 -1.45229,0.32198 -2.1132,0.62054 -4.09353,1.90167 -5.96628,3.02619 -1.33421,0.88947 -0.0763,2.77632 1.2579,1.88685 z" />
  <path
     style="fill:#010206;fill-opacity:1;stroke-opacity:0.391521"
     id="path40"
     d="m 677.38097,398.33519 c 1.67588,-1.11254 3.52463,-1.87355 5.39029,-2.59693 0.7817,-0.23297 1.56909,-0.22525 2.37048,-0.17152 1.60119,0.0864 1.72333,-2.17806 0.12214,-2.26443 v 0 c -1.12551,-0.0503 -2.22568,-0.041 -3.31264,0.32169 -1.99833,0.7753 -3.97508,1.60112 -5.77216,2.78817 -1.35978,0.84986 -0.15789,2.77288 1.20189,1.92302 z" />
  <path
     style="fill:#010206;fill-opacity:1;stroke-opacity:0.391521"
     id="path41"
     d="m 674.16896,380.54558 c 1.13462,-0.78139 2.36537,-1.43207 3.73397,-1.68906 0.72856,-0.13681 1.13838,-0.0751 1.8567,-0.0369 0.84867,0.16223 0.46305,0.0606 1.16253,0.2825 1.53581,0.46105 2.18782,-1.71091 0.65201,-2.17196 v 0 c -1.05726,-0.3057 -0.48467,-0.17132 -1.72382,-0.37644 -0.39794,-0.0121 -0.79615,-0.0553 -1.19383,-0.0364 -2.07812,0.0988 -3.99678,0.93492 -5.68945,2.1052 -1.35978,0.84987 -0.15789,2.77288 1.20189,1.92302 z" />
  <path
     style="fill:#010206;fill-opacity:1;stroke-opacity:0.391521"
     id="path42"
     d="m 672.72802,367.43167 c 0.18556,-0.0808 0.36724,-0.17122 0.55667,-0.24253 0.2473,-0.0931 2.30322,-0.79194 2.43899,-0.83621 0.45758,-0.14922 2.0556,-0.65225 2.55726,-0.75363 0.3538,-0.0715 0.71701,-0.084 1.07552,-0.12592 2.13624,0.16954 4.11259,1.08483 6.00566,2.02906 1.43605,0.71347 2.44505,-1.31741 1.009,-2.03087 v 0 c -2.29734,-1.13736 -4.69227,-2.20894 -7.30227,-2.2476 -0.46407,0.0632 -0.93335,0.0958 -1.39221,0.18961 -0.52911,0.10818 -2.19229,0.63226 -2.68254,0.7922 -0.35079,0.11444 -2.27435,0.77102 -2.64155,0.91608 -0.27018,0.10673 -0.52751,0.2435 -0.79126,0.36526 -1.375,0.825 -0.20827,2.76955 1.16673,1.94455 z" />
  <path
     style="fill:#010206;fill-opacity:1;stroke-opacity:0.391521"
     id="path43"
     d="m 678.04695,351.31508 c 1.15735,-0.32393 2.33327,-0.57566 3.51238,-0.8055 0.86571,-0.16876 1.36597,-0.3042 2.22853,-0.27613 0.29786,0.01 0.59154,0.0731 0.88731,0.10967 0.76342,0.22877 1.44823,0.62995 2.07314,1.11867 0.24922,0.19491 0.75579,0.55533 0.81008,0.9087 -0.0186,0.002 -0.0371,0.004 -0.0557,0.005 0.23941,1.58555 2.48171,1.24696 2.24229,-0.33858 v 0 c -0.0532,-0.22792 -0.10647,-0.45584 -0.15971,-0.68376 -0.1283,-0.22248 -0.23245,-0.46076 -0.38491,-0.66743 -0.64537,-0.87488 -2.06322,-1.80448 -3.04385,-2.20623 -0.40148,-0.16448 -0.8275,-0.26119 -1.24125,-0.39178 -0.41902,-0.0396 -0.83623,-0.11274 -1.25708,-0.11871 -0.99533,-0.0141 -1.58213,0.12862 -2.55215,0.31818 -1.2011,0.23471 -2.39933,0.49058 -3.57852,0.82003 -1.5609,0.36726 -1.0415,2.5747 0.51939,2.20743 z" />
  <path
     style="fill:#010206;fill-opacity:1;stroke-opacity:0.391521"
     id="path44"
     d="m 677.90217,341.07482 c 2.77398,-1.1116 5.66008,-1.90991 8.54296,-2.683 1.32603,-0.28867 3.47457,-0.97043 4.80378,-0.37511 0.22826,0.1281 0.19905,0.0389 0.22054,0.17525 1.19635,1.06772 2.70634,-0.62416 1.51,-1.69188 v 0 c -0.61822,-0.48942 -0.29779,-0.29042 -0.95121,-0.61296 -0.21743,-0.0728 -0.4291,-0.16575 -0.65228,-0.21829 -1.82542,-0.42975 -3.74855,0.12972 -5.5185,0.53274 -2.96909,0.79705 -5.94074,1.62178 -8.7975,2.76773 -1.48883,0.59553 -0.64662,2.70105 0.84221,2.10552 z" />
  <path
     style="fill:#010206;fill-opacity:1;stroke-opacity:0.391521"
     id="path45"
     d="m 670.56521,322.05846 c 2.12866,-2.56697 5.06991,-4.31444 7.96771,-5.88018 1.21624,-0.47997 2.5146,-0.98593 3.82134,-0.50259 1.21109,0.44795 2.15273,1.43315 3.04514,2.31442 0.22659,0.27434 0.45319,0.54867 0.67979,0.82301 1.02811,1.23055 2.76837,-0.22342 1.74026,-1.45397 v 0 c -0.27949,-0.3314 -0.55898,-0.6628 -0.83847,-0.9942 -1.28092,-1.23178 -2.52014,-2.42934 -4.29643,-2.9328 -1.81884,-0.51552 -3.56485,0.0491 -5.23184,0.75222 -1.95447,1.06145 -3.72405,2.09373 -5.4938,3.45978 -0.89084,0.68763 -2.06265,1.67596 -2.80333,2.56202 -0.2772,0.33161 -0.48104,0.71821 -0.72156,1.07732 -0.54799,1.50697 1.5832,2.28195 2.13119,0.77497 z" />
  <path
     style="fill:#010206;fill-opacity:1;stroke-opacity:0.391521"
     id="path46"
     d="m 665.53163,300.99208 c 4.50389,-0.53113 8.96778,-1.34513 13.47702,-1.8335 2.24543,-0.0835 4.65922,0.0772 6.61843,1.30804 0.26496,0.16647 0.50041,0.37583 0.75061,0.56375 0.57211,0.55679 1.26666,1.11603 1.53296,1.89697 0.64185,1.46946 2.71997,0.56175 2.07813,-0.9077 v 0 c -0.10147,-0.21392 -0.1835,-0.43819 -0.3044,-0.64175 -0.50364,-0.84807 -1.24102,-1.53465 -1.97157,-2.18055 -0.35049,-0.24962 -0.68241,-0.52764 -1.05149,-0.74886 -2.36683,-1.4186 -5.20328,-1.67139 -7.89741,-1.54437 -4.50268,0.48992 -8.96124,1.29433 -13.45793,1.83151 -1.59556,0.15955 -1.36991,2.41602 0.22565,2.25646 z" />
  <path
     style="fill:#010206;fill-opacity:1;stroke-opacity:0.391521"
     id="path47"
     d="m 669.70951,284.296 c 1.84255,-0.0229 3.66742,0.3574 5.39947,0.97137 0.53685,0.1903 1.05789,0.42256 1.58683,0.63384 1.46301,0.59969 2.86232,1.32916 4.14238,2.26016 0.77624,0.56458 1.16528,0.93741 1.86692,1.55982 1.20126,1.06219 2.70342,-0.63664 1.50217,-1.69883 v 0 c -0.79887,-0.70435 -1.22172,-1.10914 -2.11125,-1.74788 -1.41462,-1.01578 -2.9533,-1.82199 -4.56362,-2.48103 -0.58668,-0.23153 -1.16455,-0.4868 -1.76005,-0.6946 -1.94691,-0.67936 -3.99608,-1.09221 -6.06285,-1.07057 -1.60352,0 -1.60352,2.26772 0,2.26772 z" />
  <path
     style="fill:#010206;fill-opacity:1;stroke-opacity:0.391521"
     id="path48"
     d="m 669.75065,273.07182 c 1.32455,-0.76136 2.68724,-1.45556 4.05487,-2.13565 0.70531,-0.35073 1.75976,-0.87991 2.52429,-1.15817 0.30801,-0.11211 0.62984,-0.18177 0.94477,-0.27265 0.61695,-0.10152 1.24678,-0.13201 1.85254,0.0503 0.0805,0.0242 0.6322,0.22095 0.37436,0.26597 0.98462,1.26562 2.77447,-0.12684 1.78985,-1.39246 v 0 c -0.16836,-0.1797 -0.31385,-0.38397 -0.5051,-0.53909 -1.11733,-0.90623 -2.85075,-0.77268 -4.15695,-0.55866 -0.39654,0.1203 -0.80067,0.21796 -1.18963,0.3609 -0.80412,0.29553 -1.90827,0.84754 -2.65897,1.22095 -1.4388,0.71569 -2.87285,1.44574 -4.26197,2.25467 -1.34626,0.87111 -0.11432,2.77502 1.23194,1.90391 z" />
  <path
     style="fill:#010206;fill-opacity:1;stroke-opacity:0.391521"
     id="path49"
     d="m 675.55786,252.83997 c 1.65304,-0.92307 3.24069,-1.95664 4.87588,-2.91098 0.65148,-0.36963 1.34278,-0.65067 2.04239,-0.91182 1.50062,-0.56516 0.70137,-2.68736 -0.79925,-2.1222 v 0 c -0.8171,0.30998 -1.62592,0.63981 -2.38654,1.07566 -1.65456,0.96638 -3.26229,2.01047 -4.93437,2.94632 -1.35978,0.84987 -0.15789,2.77289 1.20189,1.92302 z" />
  <path
     style="fill:#010206;fill-opacity:1;stroke-opacity:0.391521"
     id="path50"
     d="m 672.55748,259.81314 c 1.23491,-0.37962 2.50458,-0.58178 3.79262,-0.6313 0.48018,0.0298 0.95192,0.12478 1.42319,0.21529 1.57518,0.30015 1.99966,-1.92749 0.42448,-2.22764 v 0 c -0.64146,-0.1214 -1.284,-0.24496 -1.93989,-0.25349 -1.50009,0.0639 -2.98109,0.29623 -4.41752,0.74579 -1.52123,0.50708 -0.80411,2.65843 0.71712,2.15135 z" />
  <path
     style="fill:#010206;fill-opacity:1;stroke-opacity:0.391521"
     id="path51"
     d="m 675.2221,240.09139 c 2.41961,-0.82492 4.84471,-1.65235 7.36259,-2.11812 0.50649,0.0113 0.73821,-0.0557 1.16968,0.1677 0.12808,0.0663 0.63419,0.49911 0.35265,0.65723 -0.0197,-0.005 -0.0394,-0.009 -0.059,-0.0138 -0.43245,1.5441 1.75125,2.15567 2.18369,0.61156 v 0 c 0.0465,-0.24099 0.0931,-0.48198 0.1396,-0.72297 -0.0386,-0.27227 -0.031,-0.55521 -0.11579,-0.81682 -0.41207,-1.27196 -1.68126,-2.01605 -2.95623,-2.1345 -0.37563,-0.0349 -0.75434,0.015 -1.1315,0.0225 -2.63372,0.49741 -5.17789,1.33817 -7.70838,2.21158 -1.5101,0.53932 -0.74738,2.67492 0.76272,2.1356 z" />
  <path
     style="fill:#010206;fill-opacity:1;stroke-opacity:0.391521"
     id="path52"
     d="m 673.71796,233.67861 c 0.97841,-0.53202 1.95573,-1.10085 3.03249,-1.41508 0.64083,-0.18701 1.16141,-0.21758 1.81932,-0.2919 0.24188,0.006 0.48376,0.0115 0.72564,0.0172 1.60343,0.0171 1.62767,-2.25045 0.0242,-2.26759 v 0 c -0.33933,-4.8e-4 -0.67865,-9.6e-4 -1.01798,-0.001 -0.95156,0.11796 -1.40803,0.13542 -2.34688,0.42016 -1.23843,0.3756 -2.37383,1.02111 -3.49473,1.65177 -1.33421,0.88948 -0.0763,2.77633 1.2579,1.88686 z" />
  <path
     style="fill:#010206;fill-opacity:1;stroke-opacity:0.391521"
     id="path53"
     d="m 681.25564,220.07025 c 0.8803,0.40091 1.82472,0.70797 2.62142,1.27203 0.16112,0.11411 0.3045,0.25142 0.45668,0.37721 0.57025,0.52777 0.31531,0.2643 0.77382,0.78157 1.0757,1.18918 2.75744,-0.33209 1.68174,-1.52127 v 0 c -0.64484,-0.70286 -0.2994,-0.35709 -1.04093,-1.0327 -0.23404,-0.18296 -0.45787,-0.37989 -0.70273,-0.54809 -0.9328,-0.64125 -2.01477,-1.02117 -3.04447,-1.47026 -1.51436,-0.52724 -2.25998,1.61439 -0.74562,2.14162 z" />
  <path
     style="fill:#010206;fill-opacity:1;stroke-opacity:0.391521"
     id="path54"
     d="m 692.31456,213.42828 c 0.62711,0.1487 1.28577,0.22846 1.89271,0.45533 0.61173,0.22867 1.15134,0.63603 1.68193,1.00485 0.12902,0.10899 0.25805,0.21797 0.38704,0.32698 1.23394,1.02404 2.68216,-0.72102 1.44822,-1.74505 v 0 c -0.18231,-0.14943 -0.36464,-0.29877 -0.54697,-0.44817 -0.50011,-0.3433 -0.90187,-0.64025 -1.44917,-0.92024 -0.9526,-0.48714 -1.98499,-0.71381 -3.02906,-0.90855 -1.58027,-0.27202 -1.96498,1.96281 -0.3847,2.23485 z" />
  <path
     style="fill:#010206;fill-opacity:1;stroke-opacity:0.391521"
     id="path55"
     d="m 695.16988,176.9854 c 0.14492,-0.0187 0.45984,-0.0714 0.60733,-0.0418 0.69274,0.13886 2.13293,1.80224 2.54754,2.22427 1.41131,1.55522 0.71492,0.78391 2.0894,2.31371 1.0717,1.19278 2.75855,-0.32283 1.68685,-1.51561 v 0 c -1.4036,-1.56215 -0.68326,-0.76512 -2.16167,-2.39048 -1.41943,-1.43417 -2.85151,-3.21689 -5.09016,-2.83497 -1.5874,0.22677 -1.26669,2.4717 0.32071,2.24493 z" />
  <path
     style="fill:#010206;fill-opacity:1;stroke-opacity:0.391521"
     id="path56"
     d="m 688.87281,174.28225 c 1.55006,-1.15668 3.0784,-2.37511 4.77833,-3.31116 0.3054,-0.16816 0.62667,-0.30574 0.94,-0.4586 1.14029,-0.38218 0.57704,-0.23408 1.68631,-0.45719 1.5686,-0.3328 1.09796,-2.55114 -0.47065,-2.21834 v 0 c -1.47083,0.3242 -0.73,0.11462 -2.21876,0.64173 -0.37236,0.18533 -0.75315,0.35463 -1.11709,0.55599 -1.78223,0.98605 -3.38936,2.26025 -5.01477,3.47678 -1.25214,1.00171 0.16449,2.7725 1.41663,1.77079 z" />
  <path
     style="fill:#010206;fill-opacity:1;stroke-opacity:0.391521"
     id="path57"
     d="m 668.44852,154.95513 c 2.40366,-2.28543 5.22354,-4.09542 8.05962,-5.7939 1.44136,-0.74639 0.76129,-0.4331 2.02768,-0.96661 1.47549,-0.62784 0.58758,-2.71451 -0.88791,-2.08666 v 0 c -1.46537,0.62879 -0.69321,0.26703 -2.30561,1.10818 -3.02389,1.81387 -6.03062,3.75009 -8.57175,6.21356 -1.07864,1.18651 0.59933,2.71194 1.67797,1.52543 z" />
  <path
     style="fill:#010206;fill-opacity:1;stroke-opacity:0.391521"
     id="path58"
     d="m 661.44191,146.76658 c 1.13081,-0.94965 2.2527,-1.92239 3.47288,-2.75836 0.68643,-0.47029 1.03571,-0.63987 1.74814,-1.02963 0.24219,-0.11014 0.48439,-0.22028 0.72658,-0.33042 1.4572,-0.6692 0.5108,-2.73 -0.9464,-2.06079 v 0 c -0.29096,0.13471 -0.58193,0.26941 -0.87289,0.40412 -0.85739,0.4736 -1.17147,0.62189 -2.0048,1.19415 -1.27491,0.8755 -2.44852,1.89192 -3.6301,2.88601 -1.19848,1.06532 0.30811,2.76023 1.50659,1.69492 z" />
  <path
     style="fill:#010206;fill-opacity:1;stroke-opacity:0.391521"
     id="path59"
     d="m 652.81675,135.17203 c 2.21783,-1.71265 4.64884,-3.13027 7.14131,-4.40091 0.69286,-0.259 1.43068,-0.84537 2.22444,-0.72366 0.4142,0.0635 0.81107,0.44023 1.12295,0.68333 0.3949,0.3974 0.22915,0.19938 0.5114,0.58193 0.99318,1.25891 2.77355,-0.14566 1.78037,-1.40457 v 0 c -0.558,-0.68367 -0.24613,-0.34565 -0.94705,-1.00336 -0.83134,-0.59188 -1.61307,-1.08678 -2.67993,-1.1151 -1.1016,-0.0292 -2.07968,0.51702 -3.04346,0.96178 -2.64053,1.35037 -5.21779,2.85295 -7.56179,4.67845 -1.23186,1.02655 0.2199,2.76866 1.45176,1.74211 z" />
  <path
     style="fill:#010206;fill-opacity:1;stroke-opacity:0.391521"
     id="path60"
     d="m 648.69502,128.31262 c 0.27519,-1.68366 0.67328,-3.35436 1.3537,-4.92446 0.15494,-0.35752 0.34219,-0.70015 0.51328,-1.05022 0.4349,-0.77265 1.00847,-1.42231 1.74375,-1.91251 1.31443,-0.91844 0.0155,-2.77733 -1.29888,-1.85889 v 0 c -1.03309,0.74074 -1.88227,1.65094 -2.48578,2.78285 -0.19672,0.4093 -0.41167,0.81032 -0.59016,1.2279 -0.77913,1.82282 -1.25596,3.7725 -1.50363,5.73533 0,1.60352 2.26772,1.60352 2.26772,0 z" />
  <path
     style="fill:#010206;fill-opacity:1;stroke-opacity:0.391521"
     id="path61"
     d="m 627.60999,119.8494 c 0.36675,-2.32159 1.66188,-4.29179 3.02545,-6.14602 0.81727,-1.08091 1.83532,-1.93303 2.96757,-2.65744 1.34536,-0.87251 0.11144,-2.77513 -1.23392,-1.90262 v 0 c -1.35423,0.88763 -2.58498,1.91298 -3.56334,3.22037 -1.68434,2.30939 -3.12544,4.58221 -3.46348,7.48571 0,1.60352 2.26772,1.60352 2.26772,0 z" />
  <path
     style="fill:#010206;fill-opacity:1;stroke-opacity:0.391521"
     id="path62"
     d="m 638.39374,119.33704 c 0.28428,-1.01157 0.72216,-1.97258 1.1617,-2.92383 0.17813,-0.38551 0.33589,-0.78222 0.54793,-1.15016 0.45876,-0.79604 0.86509,-1.1922 1.46521,-1.87757 0.79842,-0.83831 1.75985,-1.484 2.67737,-2.17897 1.27802,-0.96848 -0.0916,-2.77586 -1.36963,-1.80739 v 0 c -1.04337,0.79106 -2.131,1.5334 -3.02358,2.50365 -0.83402,0.97563 -1.14657,1.2516 -1.79689,2.3855 -0.22034,0.38419 -0.38563,0.79749 -0.57083,1.1998 -0.52879,1.14866 -1.05582,2.31065 -1.33911,3.54926 -0.21192,1.58945 2.0359,1.88916 2.24783,0.29971 z" />
  <path
     style="fill:#010206;fill-opacity:1;stroke-opacity:0.391521"
     id="path63"
     d="m 606.40051,119.29433 c 2.93057,-3.52907 5.92272,-7.00578 9.06539,-10.34781 1.15337,-1.22557 2.34604,-2.42297 3.69258,-3.43852 0.48763,-0.36777 1.0371,-0.77071 1.62241,-0.97542 1.48667,-0.60092 0.63684,-2.70338 -0.84982,-2.10246 v 0 c -2.44194,1.04657 -4.28325,3.11911 -6.11745,4.96317 -3.19899,3.40404 -6.24906,6.94195 -9.22728,10.54041 -0.96211,1.28281 0.85206,2.64344 1.81417,1.36063 z" />
  <path
     style="fill:#010206;fill-opacity:1;stroke-opacity:0.391521"
     id="path64"
     d="m 594.38699,115.13229 c 0.22168,-0.19815 0.44681,-0.39251 0.66505,-0.59445 1.22559,-1.13405 0.92038,-0.91703 2.29227,-2.11272 1.47687,-1.28719 3.01808,-2.4866 4.5761,-3.6726 0.76391,-0.54921 1.46286,-1.10287 2.30016,-1.53352 0.5853,-0.30104 0.92285,-0.35989 1.53136,-0.52137 1.54467,-0.4304 0.93599,-2.6149 -0.60868,-2.1845 v 0 c -0.32183,0.0928 -0.65092,0.16327 -0.96549,0.27826 -1.34079,0.49014 -2.50527,1.29394 -3.63123,2.15697 -1.60793,1.2249 -3.1978,2.46404 -4.72181,3.7935 -1.45657,1.27061 -1.03202,0.94649 -2.28394,2.10523 -0.21668,0.20055 -0.44026,0.39352 -0.66038,0.59029 -1.19849,1.06532 0.3081,2.76023 1.50659,1.69491 z" />
  <path
     style="fill:#010206;fill-opacity:1;stroke-opacity:0.391521"
     id="path65"
     d="m 578.39205,112.49437 c 2.18664,-2.32057 4.71584,-4.26312 7.28807,-6.1305 1.49874,-1.01727 0.78247,-0.55347 2.1422,-1.40155 1.35994,-0.84961 0.15841,-2.77286 -1.20153,-1.92325 v 0 c -1.45231,0.90871 -0.69245,0.41519 -2.27341,1.49004 -2.75211,2.00016 -5.46737,4.08306 -7.7695,6.60463 -0.96211,1.28281 0.85206,2.64344 1.81417,1.36063 z" />
  <path
     style="fill:#010206;fill-opacity:1;stroke-opacity:0.391521"
     id="path66"
     d="m 508.75965,97.056218 c 0.84204,-2.34061 2.2136,-4.41647 3.66324,-6.41715 0.8315,-1.11877 1.74537,-2.17711 2.73275,-3.16117 0.46584,-0.46428 0.93214,-0.94087 1.5348,-1.21472 0.0212,0.0258 0.0578,0.0446 0.0636,0.0775 0.007,0.0403 -0.0463,0.0822 -0.029,0.11922 0.0417,0.0891 0.12652,0.15058 0.19035,0.22539 0.11395,0.13355 0.22867,0.26645 0.34301,0.39967 1.07559,1.18927 2.75747,-0.33185 1.68188,-1.521117 v 0 c -0.68248,-0.731342 -1.33088,-1.432712 -2.41719,-1.479092 -0.30425,-0.01299 -0.59768,0.117178 -0.89652,0.175767 -0.23564,0.133654 -0.48409,0.246894 -0.70692,0.400963 -0.37585,0.259876 -1.10993,0.956109 -1.40302,1.249195 -1.05912,1.059104 -2.03855,2.198204 -2.93186,3.400274 -1.57875,2.19049 -3.06932,4.46528 -3.9765,7.02819 -0.50708,1.52123 1.64427,2.23835 2.15135,0.71711 z" />
  <path
     style="fill:#010206;fill-opacity:1;stroke-opacity:0.391521"
     id="path67"
     d="m 522.05041,100.14317 c -0.0222,-1.498168 0.40446,-3.000478 1.14516,-4.301798 0.19909,-0.34978 0.44749,-0.66909 0.67123,-1.00364 0.69206,-0.8437 1.45929,-1.6252 2.31043,-2.30912 0.41366,-0.33238 0.82849,-0.65269 1.3416,-0.79764 0.13607,0.0197 0.12709,-0.0227 0.11347,0.0634 1.57964,0.27569 1.96953,-1.95826 0.38989,-2.23395 v 0 c -0.85619,-0.0865 -0.42956,-0.0996 -1.27987,0.0399 -0.22325,0.0889 -0.45508,0.15867 -0.66977,0.26661 -0.42381,0.2131 -1.02824,0.66162 -1.37814,0.94591 -1.01067,0.82117 -1.92049,1.75784 -2.72446,2.78209 -0.27604,0.42828 -0.58179,0.83883 -0.82814,1.28485 -0.88375,1.60004 -1.3765,3.43591 -1.35912,5.263368 0,1.60352 2.26772,1.60352 2.26772,0 z" />
  <path
     style="fill:#010206;fill-opacity:1;stroke-opacity:0.391521"
     id="path68"
     d="m 538.61698,103.78027 c -0.0924,-0.81304 -0.4017,-1.62669 -0.37055,-2.45313 0.0222,-0.58983 0.23611,-0.95992 0.45645,-1.507423 0.87632,-1.7382 1.9107,-2.7502 3.6496,-3.57051 0.53696,-0.24159 1.07793,-0.25755 1.64839,-0.19851 1.59802,0.13262 1.78558,-2.12733 0.18755,-2.25995 v 0 c -0.97521,-0.0695 -1.91752,-2.1e-4 -2.82246,0.41657 -0.69891,0.34356 -0.98978,0.45311 -1.64598,0.92719 -1.39055,1.0046 -2.42157,2.35395 -3.14525,3.90193 -0.15089,0.43579 -0.34793,0.85825 -0.45267,1.307373 -0.29969,1.28503 0.0324,2.54719 0.25806,3.80927 0.26361,1.5817 2.50048,1.20889 2.23686,-0.37281 z" />
  <path
     style="fill:#010206;fill-opacity:1;stroke-opacity:0.391521"
     id="path69"
     d="m 554.0295,105.84678 c 0.0655,-0.20218 0.11474,-0.41037 0.19647,-0.60655 0.25928,-0.62245 0.56535,-1.09196 0.93836,-1.66226 0.37456,-0.57269 0.96522,-1.43445 1.41106,-1.95872 0.22774,-0.2678 0.48703,-0.50708 0.73054,-0.76063 0.24479,-0.17209 0.47214,-0.37215 0.73438,-0.51627 1.37629,-0.756393 3.05579,-0.564463 4.55197,-0.444433 0.49994,0.0843 1.26727,0.076 1.54068,0.607553 1.09449,1.1719 2.75181,-0.37595 1.65732,-1.547853 v 0 c -0.18312,-0.17556 -0.3445,-0.37706 -0.54937,-0.52666 -0.72445,-0.52901 -1.59933,-0.70389 -2.47107,-0.7938 -2.08064,-0.16032 -4.20746,-0.24145 -6.07091,0.87673 -0.37197,0.22321 -0.69233,0.52289 -1.0385,0.78433 -0.29676,0.31619 -0.6106,0.61717 -0.89027,0.948563 -0.46403,0.54984 -1.14833,1.53815 -1.53654,2.14169 -0.57646,0.89619 -1.12592,1.81919 -1.39193,2.86164 -0.42191,1.54701 1.7659,2.14369 2.18781,0.59667 z" />
  <path
     style="fill:#010206;fill-opacity:1;stroke-opacity:0.391521"
     id="path70"
     d="m 470.99195,82.663523 c 0.20534,-0.1456 0.42025,-0.27856 0.616,-0.43681 1.87918,-1.51926 3.61012,-3.458722 5.26267,-5.222908 0.73938,-0.747369 1.23585,-1.28023 2.02851,-1.962922 0.49596,-0.427146 1.12628,-0.980421 1.79355,-1.160936 0.51238,-0.138614 1.04723,0.06279 1.52921,0.179492 0.9321,0.316318 1.74718,0.865056 2.56921,1.38991 1.35331,0.860116 2.5697,-1.053765 1.21638,-1.913881 v 0 c -1.07381,-0.679721 -2.14152,-1.368991 -3.38459,-1.708009 -1.29617,-0.188726 -1.67028,-0.395537 -2.96735,0.03584 -1.68617,0.560775 -3.18511,2.40922 -4.44,3.590261 -1.03203,1.101883 -2.06228,2.202913 -3.13802,3.262652 -0.48845,0.481187 -1.23188,1.209291 -1.78508,1.663351 -0.16413,0.13471 -0.34531,0.24718 -0.51797,0.37078 -1.35283,0.86089 -0.13534,2.77407 1.21748,1.91318 z" />
  <path
     style="fill:#010206;fill-opacity:1;stroke-opacity:0.391521"
     id="path71"
     d="m 492.40433,83.33893 c -0.2876,-0.9268 -0.47605,-1.96602 -0.15389,-2.9132 0.0642,-0.18879 0.16983,-0.36086 0.25475,-0.54129 0.49931,-0.81827 1.2595,-1.372363 2.04313,-1.890986 1.33028,-0.895344 0.0641,-2.776635 -1.2662,-1.88129 v 0 c -1.14425,0.779962 -2.20959,1.633583 -2.86577,2.889517 -0.13037,0.328989 -0.29304,0.646949 -0.39111,0.986969 -0.39146,1.35738 -0.17671,2.80789 0.2479,4.12525 0.54799,1.50698 2.67918,0.732 2.13119,-0.77497 z" />
  <path
     style="fill:#010206;fill-opacity:1;stroke-opacity:0.391521"
     id="path72"
     d="m 452.42708,83.235942 c 1.47432,-1.367505 2.97044,-2.73277 4.63251,-3.873049 0.37381,-0.256454 0.76656,-0.484142 1.14984,-0.726213 1.37038,-0.743025 0.70254,-0.407029 1.99869,-1.017547 1.44943,-0.685881 0.47945,-2.735679 -0.96998,-2.049798 v 0 c -1.45603,0.691836 -0.70626,0.311201 -2.24382,1.152649 -0.42824,0.272934 -0.86654,0.53068 -1.28471,0.8188 -1.71892,1.184337 -3.27306,2.592423 -4.79956,4.009578 -1.19188,1.072697 0.32514,2.758277 1.51703,1.68558 z" />
  <path
     style="fill:#010206;fill-opacity:1;stroke-opacity:0.391521"
     id="path73"
     d="m 434.33375,84.641019 c 2.50137,-1.98029 5.00842,-3.960289 7.64674,-5.756345 0.86129,-0.536756 1.73662,-1.077336 2.71831,-1.357953 1.53243,-0.472133 0.86474,-2.639324 -0.6677,-2.167192 v 0 c -1.18877,0.382329 -2.28655,0.959174 -3.32768,1.651215 -2.70548,1.845655 -5.28252,3.871418 -7.84548,5.908496 -1.21748,1.043556 0.25833,2.765334 1.47581,1.721779 z" />
  <path
     style="fill:#010206;fill-opacity:1;stroke-opacity:0.391521"
     id="path74"
     d="m 415.73049,88.276543 c 0.044,-0.04497 0.0975,-0.08224 0.13192,-0.134896 0.71682,-1.097473 0.12107,-0.435526 1.15826,-1.695594 1.14216,-1.387601 2.47694,-2.580905 3.7932,-3.797217 1.0796,-0.962484 2.21205,-1.859955 3.36381,-2.73323 1.27725,-0.969484 -0.0938,-2.775789 -1.37106,-1.806305 v 0 c -1.20921,0.918786 -2.3997,1.86108 -3.53225,2.874462 -1.41963,1.31329 -2.85903,2.604757 -4.07751,4.114601 -0.48324,0.598794 -1.13427,1.495399 -1.45224,2.232416 -0.1303,0.302045 -0.18789,0.630508 -0.28184,0.945763 0,1.603517 2.26771,1.603517 2.26771,0 z" />
  <path
     style="fill:#010206;fill-opacity:1;stroke-opacity:0.391521"
     id="path75"
     d="m 312.93905,74.731884 c 1.72955,1.200328 3.13407,3.148657 4.13615,4.970467 0.33428,0.607709 0.60457,1.248476 0.90685,1.872715 0.76978,1.71347 1.23937,3.526078 1.51991,5.377759 0.16416,1.083545 0.23852,1.953563 0.11744,3.029951 -0.22223,0.632797 -0.0935,0.0099 -0.0751,-0.0073 0.14045,-0.130878 0.33566,-0.186421 0.50349,-0.279632 -1.59998,-0.106545 -1.75065,2.15616 -0.15068,2.262705 v 0 c 0.36595,-0.08002 0.77015,-0.05857 1.09785,-0.240053 0.62026,-0.343516 0.69297,-0.932046 0.88161,-1.517349 0.0284,-0.330494 0.0801,-0.659809 0.0852,-0.991482 0.0122,-0.788121 -0.11249,-1.915817 -0.22921,-2.665288 -0.31994,-2.054365 -0.85373,-4.064232 -1.71256,-5.963916 -0.34117,-0.694242 -0.64702,-1.40698 -1.0235,-2.082727 -1.21861,-2.187335 -2.83048,-4.332963 -4.93238,-5.734807 -1.39224,-0.795567 -2.51734,1.173362 -1.1251,1.96893 z" />
  <path
     style="fill:#010206;fill-opacity:1;stroke-opacity:0.391521"
     id="path76"
     d="m 331.43293,71.829906 c -0.005,1.71176 0.0197,3.423558 -0.0291,5.134747 -0.0739,0.712918 0.0222,2.458452 -0.5293,3.013627 -3.4e-4,-0.01467 -6.9e-4,-0.02934 -10e-4,-0.04401 -1.20288,1.060349 0.29668,2.761483 1.49956,1.701135 v 0 c 0.1227,-0.123132 0.2454,-0.246263 0.3681,-0.369394 0.10142,-0.159983 0.218,-0.311313 0.30428,-0.479949 0.58692,-1.147154 0.54311,-2.509976 0.62522,-3.757707 0.048,-1.732473 0.0263,-3.46542 0.03,-5.198446 0,-1.603518 -2.26772,-1.603518 -2.26772,0 z" />
  <path
     style="fill:#010206;fill-opacity:1;stroke-opacity:0.391521"
     id="path77"
     d="m 349.50792,62.393617 c 0.44233,2.627581 0.96673,5.2385 1.36604,7.873916 0.13852,1.157357 0.34594,2.310867 0.39404,3.4778 0.008,0.205517 0.0226,0.413188 -0.005,0.617056 -0.004,0.02775 -0.091,-0.02217 -0.0722,-0.04292 0.23099,-0.254925 0.50118,-0.471369 0.75176,-0.707053 0.38418,-0.11587 0.27559,-4.47e-4 0.0133,-0.350583 -0.0888,-0.118607 -0.16537,-0.245954 -0.24805,-0.368931 -0.92995,-1.306318 -2.77736,0.0088 -1.84741,1.315145 v 0 c 0.63143,0.858707 0.98279,1.321846 2.07133,1.672059 0.45293,-0.23472 0.98824,-0.353547 1.3588,-0.704161 0.30199,-0.285738 0.25347,-1.258142 0.2384,-1.602419 -0.0536,-1.223186 -0.26512,-2.432914 -0.41316,-3.64602 -0.39706,-2.61573 -0.91079,-5.20847 -1.35791,-7.815161 -0.19889,-1.591135 -2.4491,-1.309859 -2.25021,0.281276 z" />
  <path
     style="fill:#010206;fill-opacity:1;stroke-opacity:0.391521"
     id="path78"
     d="m 366.5563,62.640695 c 0.19568,2.561428 0.28687,5.128589 0.36048,7.695929 -0.0109,1.198546 -0.0164,2.41037 -0.23703,3.593682 -0.0625,0.335346 -0.23841,0.984798 -0.29035,0.657272 0.25901,-0.246861 0.0943,-0.149469 0.52537,-0.231052 -1.54313,-0.435932 -2.15963,1.746375 -0.61651,2.182307 v 0 c 1.11488,0.09718 0.59078,0.187423 1.57748,-0.238556 0.17097,-0.179166 0.37215,-0.33374 0.51292,-0.5375 0.31763,-0.459788 0.44054,-0.984782 0.5377,-1.523759 0.23568,-1.307493 0.24963,-2.643835 0.25721,-3.967444 -0.0758,-2.639522 -0.16827,-5.279191 -0.37707,-7.912155 -0.19889,-1.591135 -2.4491,-1.309859 -2.2502,0.281276 z" />
  <path
     style="fill:#010206;fill-opacity:1;stroke-opacity:0.391521"
     id="path79"
     d="m 378.6248,59.752646 c 0.0344,0.243842 0.0586,0.489314 0.10304,0.731527 0.23337,1.272951 0.55237,2.527288 0.76884,3.804491 0.21767,1.284272 0.26791,1.795435 0.42988,3.084719 0.12697,1.254679 0.26766,2.510733 0.33033,3.770958 0.018,0.362552 0.11993,1.056324 -0.13606,1.394845 0.0328,-0.09064 0.0657,-0.18127 0.0985,-0.271905 -1.25699,0.995622 0.15104,2.773265 1.40802,1.777643 v 0 c 0.20059,-0.223511 0.40119,-0.447022 0.60178,-0.670532 0.0791,-0.236406 0.18616,-0.465241 0.2374,-0.709216 0.10759,-0.512274 0.0781,-1.16913 0.0525,-1.679531 -0.0652,-1.301875 -0.21068,-2.599428 -0.34253,-3.895527 -0.31121,-2.466818 -0.7164,-4.915395 -1.284,-7.337472 0,-1.603518 -2.26772,-1.603518 -2.26772,0 z" />
  <path
     style="fill:#010206;fill-opacity:1;stroke-opacity:0.391521"
     id="path80"
     d="m 390.73162,63.695252 c 0.0768,2.727802 0.29763,5.452718 0.22797,8.183731 -0.0141,0.554906 -0.0577,1.108674 -0.0865,1.663011 -0.15795,0.970306 -0.13411,2.707337 -1.10626,3.334276 -0.096,0.06192 -0.21251,0.08399 -0.31877,0.125981 -1.38445,0.809053 -0.24027,2.766961 1.14418,1.957908 v 0 c 0.28424,-0.186207 0.60088,-0.330487 0.85272,-0.558621 1.32509,-1.200395 1.51574,-3.079991 1.69288,-4.743643 0.0298,-0.5917 0.0747,-1.182832 0.0894,-1.775099 0.0681,-2.732228 -0.14468,-5.458691 -0.22797,-8.187544 0,-1.603518 -2.26771,-1.603518 -2.26771,0 z" />
  <path
     style="fill:#010206;fill-opacity:1;stroke-opacity:0.391521"
     id="path81"
     d="m 404.19152,69.079736 c 0.45255,2.036117 0.99557,4.061618 1.16516,6.148132 0.0332,0.40796 0.0307,0.818034 0.0461,1.22705 -0.0948,1.507837 -0.0994,2.497219 -1.27891,3.512819 -1.18038,1.085334 0.35451,2.754657 1.5349,1.669322 v 0 c 0.18087,-0.172272 0.37676,-0.330032 0.5426,-0.516815 1.17388,-1.322122 1.42965,-3.047256 1.46727,-4.757131 -0.0202,-0.469252 -0.0214,-0.939715 -0.0607,-1.407757 -0.18181,-2.166083 -0.73281,-4.271685 -1.2068,-6.385538 -0.36056,-1.562453 -2.57021,-1.052536 -2.20964,0.509918 z" />
  <path
     style="fill:#010206;fill-opacity:1;stroke-opacity:0.391521"
     id="path82"
     d="m 242.33079,31.890326 c 0.39007,2.297765 0.93495,4.563266 1.23197,6.878162 0.0336,0.753697 0.18332,1.595164 -0.10564,2.327308 -0.0906,0.229479 -0.31922,0.465282 -0.47473,0.646833 -0.97958,1.269524 0.8158,2.654859 1.79538,1.385335 v 0 c 0.16441,-0.224339 0.35437,-0.432026 0.49324,-0.673015 0.70647,-1.226008 0.68174,-2.611278 0.54076,-3.97715 -0.31253,-2.401781 -0.86788,-4.753751 -1.28097,-7.137475 -0.38891,-1.55564 -2.58892,-1.005638 -2.20001,0.550002 z" />
  <circle
     id="path83"
     style="fill:#010206;stroke:#000000"
     cx="242.38338"
     cy="43.485703"
     r="0.018658074" />
  <path
     style="fill:#010206;fill-opacity:1;stroke-opacity:0.391521"
     id="path84"
     d="m 255.66614,34.114549 c 0.63517,2.361848 1.17921,4.747569 1.5303,7.168579 0.0688,1.283132 0.51322,3.834208 -0.44858,4.906218 -0.0334,0.0063 -0.0668,0.01262 -0.1002,0.01893 -1.25628,0.996505 0.15299,2.773157 1.40927,1.776652 v 0 c 0.18325,-0.165538 0.3665,-0.331076 0.54975,-0.496613 0.14257,-0.22246 0.31052,-0.430568 0.42773,-0.667381 0.89042,-1.799107 0.53734,-3.956559 0.40593,-5.865627 -0.36408,-2.475256 -0.90635,-4.918 -1.56048,-7.332698 -0.34786,-1.565333 -2.56157,-1.073396 -2.21372,0.491937 z" />
  <path
     style="fill:#010206;fill-opacity:1;stroke-opacity:0.391521"
     id="path85"
     d="m 271.11383,42.764493 c -0.2683,2.245687 -0.39969,4.507025 -0.81857,6.73335 -0.091,0.483598 -0.20915,0.961687 -0.31372,1.442531 -0.27758,0.846723 -0.64634,3.05941 -1.55005,3.528068 -0.13187,0.01547 -0.0777,0.02805 -0.16665,-0.01017 -1.58316,0.254699 -1.22296,2.493626 0.3602,2.238927 v 0 c 0.77767,-0.168906 0.39447,-0.04002 1.14549,-0.398587 0.16762,-0.133127 0.35057,-0.248955 0.50286,-0.399381 1.17924,-1.164828 1.4708,-2.966604 1.92459,-4.479348 0.11203,-0.520361 0.23829,-1.037859 0.33608,-1.561082 0.40787,-2.18226 0.56691,-4.397116 0.79348,-6.602369 0.34785,-1.565334 -1.86586,-2.05727 -2.21371,-0.491937 z" />
  <path
     style="fill:#010206;fill-opacity:1;stroke-opacity:0.391521"
     id="path86"
     d="m 280.66351,49.544855 c 0.37585,1.44588 0.69904,2.907506 1.00511,4.369698 0.10619,0.507324 0.23083,1.012452 0.29403,1.526904 0.0625,0.508581 0.0548,1.023345 0.0821,1.535018 -0.10272,2.034621 -0.42836,4.277361 -1.59411,6.012745 -0.12758,0.189936 -0.29397,0.350705 -0.44096,0.526058 -1.00022,1.253332 0.77226,2.667847 1.77248,1.414515 v 0 c 0.2186,-0.282756 0.4619,-0.548032 0.6558,-0.848266 1.02596,-1.58862 1.55841,-3.585852 1.76992,-5.445288 0.0677,-0.595498 0.067,-1.1968 0.10054,-1.795201 -0.0397,-0.609742 -0.0434,-1.222905 -0.11916,-1.829228 -0.0673,-0.538404 -0.19785,-1.067083 -0.30897,-1.598172 -0.31268,-1.494441 -0.64348,-2.988065 -1.029,-4.465459 -0.42191,-1.547016 -2.60972,-0.95034 -2.18781,0.596676 z" />
  <path
     style="fill:#010206;fill-opacity:1;stroke-opacity:0.391521"
     id="path87"
     d="m 289.92385,59.653342 c -0.0603,1.9474 -0.35559,3.884766 -0.72618,5.795047 -0.13566,0.69926 -0.26326,1.401056 -0.43948,2.091209 -0.16682,0.653326 -0.39244,1.290213 -0.58866,1.93532 -0.59568,1.552466 -1.42317,2.984037 -2.49686,4.252893 -0.23083,0.272792 -0.49218,0.518226 -0.73827,0.777339 -1.09795,1.168664 0.55479,2.7214 1.65274,1.552737 v 0 c 0.29558,-0.317448 0.60959,-0.618689 0.88675,-0.952342 1.23649,-1.488522 2.18934,-3.161481 2.86659,-4.975246 0.21236,-0.70831 0.45484,-1.40828 0.63708,-2.12493 0.18156,-0.713964 0.31381,-1.439713 0.45335,-2.163064 0.39356,-2.040131 0.70415,-4.109269 0.76066,-6.188963 0,-1.603518 -2.26772,-1.603518 -2.26772,0 z" />
  <path
     style="fill:#010206;fill-opacity:1;stroke-opacity:0.391521"
     id="path88"
     d="m 304.83463,67.470059 c 0.16136,0.923377 0.34217,1.84646 0.30657,2.790777 -0.0303,0.804023 -0.27667,2.298684 -0.45818,3.05064 -0.13134,0.544115 -0.31704,1.073653 -0.47556,1.61048 -0.2205,0.491092 -0.4106,0.997003 -0.66151,1.473276 -0.76449,1.45115 -2.00171,3.119389 -3.56332,3.785652 -0.26316,0.112274 -0.55235,0.149451 -0.82853,0.224176 -1.26057,0.09215 -0.62341,0.07334 -1.91157,0.05319 -1.60346,-0.01441 -1.62384,2.253215 -0.0204,2.267625 v 0 c 1.68372,0.0062 0.81441,0.05097 2.60672,-0.155816 0.44129,-0.148887 0.90325,-0.246702 1.32387,-0.446659 1.99054,-0.946281 3.48664,-2.898586 4.46762,-4.811986 0.29105,-0.567697 0.50944,-1.169798 0.76416,-1.754697 0.17614,-0.610952 0.38234,-1.214027 0.52841,-1.832857 0.54538,-2.310631 0.6492,-4.431822 0.13542,-6.74574 -0.34785,-1.565333 -2.56157,-1.073396 -2.21372,0.491937 z" />
  <path
     style="fill:#010206;fill-opacity:1;stroke-opacity:0.391521"
     id="path89"
     d="m 185.45087,45.582482 c 0.22725,1.876786 -0.35819,3.579495 -1.07179,5.284835 -0.77393,1.431318 -1.7701,2.799861 -3.21308,3.604499 -0.11018,0.04498 -0.22035,0.08995 -0.33052,0.134925 -1.47113,0.637995 -0.56887,2.718491 0.90226,2.080496 v 0 c 0.18891,-0.08473 0.37781,-0.169457 0.56672,-0.254186 0.20744,-0.123455 0.42309,-0.234044 0.62231,-0.370364 1.56346,-1.069843 2.67762,-2.679257 3.54851,-4.330223 0.18151,-0.444947 0.38606,-0.881174 0.54452,-1.334841 0.57476,-1.645551 0.88724,-3.395304 0.676,-5.135844 -0.22678,-1.587402 -2.4717,-1.266698 -2.24493,0.320703 z" />
  <path
     style="fill:#010206;fill-opacity:1;stroke-opacity:0.391521"
     id="path90"
     d="m 192.94294,49.322203 c 0.94256,1.428918 1.41109,3.071578 1.87296,4.701069 0.43878,1.542315 2.61995,0.921776 2.18116,-0.620539 v 0 c -0.52931,-1.854159 -1.08903,-3.716105 -2.16727,-5.338432 -0.88947,-1.334208 -2.77632,-0.0763 -1.88685,1.257902 z" />
  <path
     style="fill:#010206;fill-opacity:1;stroke-opacity:0.391521"
     id="path91"
     d="m 204.06328,45.844905 c 0.97764,2.468658 2.16738,4.846827 3.31123,7.240959 0.69128,1.44686 2.73745,0.469245 2.04617,-0.977615 v 0 c -1.07905,-2.258458 -2.18106,-4.507732 -3.15739,-6.813346 -0.38891,-1.555641 -2.58892,-1.005639 -2.20001,0.550002 z" />
  <path
     style="fill:#010206;fill-opacity:1;stroke-opacity:0.391521"
     id="path92"
     d="m 211.58589,43.199845 c 1.57815,2.249129 2.93877,4.648159 4.30597,7.029942 0.27867,0.521228 0.55733,1.042457 0.836,1.563685 0.75642,1.41389 2.75597,0.34414 1.99954,-1.06975 v 0 c -0.28961,-0.540981 -0.57923,-1.081961 -0.86884,-1.622941 -0.95282,-1.659667 -1.9213,-3.301096 -2.93057,-4.926807 -0.56224,-0.905647 -0.74221,-1.267388 -1.32591,-2.064707 -0.12963,-0.177068 -0.27511,-0.34196 -0.41267,-0.512939 -1.13386,-1.133859 -2.73738,0.469659 -1.60352,1.603517 z" />
  <path
     style="fill:#010206;fill-opacity:1;stroke-opacity:0.391521"
     id="path93"
     d="m 226.78382,32.986046 c 2.19514,3.273494 4.163,6.688022 6.21804,10.049159 1.15424,1.851668 2.27651,3.727017 3.29602,5.656808 0.75013,1.417242 2.75441,0.3564 2.00428,-1.060842 v 0 c -1.04432,-1.96972 -2.18422,-3.888694 -3.36559,-5.778937 -2.08334,-3.407044 -4.07761,-6.868956 -6.30744,-10.184272 -0.93202,-1.304836 -2.77734,0.01325 -1.84531,1.318084 z" />
  <path
     style="fill:#010206;fill-opacity:1;stroke-opacity:0.391521"
     id="path94"
     d="m 158.95831,40.481989 c 0.007,0.0576 0.0133,0.115192 0.0199,0.172789 0.0624,0.201095 0.1512,0.395836 0.18726,0.603286 0.26238,1.509601 -0.27983,3.195535 -0.68833,4.624828 -0.57157,1.5124 -0.9703,3.368372 -2.35699,4.372851 -1.25413,0.999222 0.15899,2.77282 1.41311,1.773598 v 0 c 0.19696,-0.164268 0.4086,-0.312382 0.59087,-0.492806 1.36289,-1.349053 1.91439,-3.28639 2.53554,-5.037944 0.60402,-2.165836 1.33703,-4.676034 0.34935,-6.852953 -0.1223,-0.26955 -0.29812,-0.511445 -0.44718,-0.767167 -1.13386,-1.133858 -2.73738,0.46966 -1.60352,1.603518 z" />
  <path
     style="fill:#010206;fill-opacity:1;stroke-opacity:0.391521"
     id="path95"
     d="m 166.12171,43.647719 c 1.18496,0.63022 2.1534,1.650437 2.89907,2.754871 0.23893,0.353876 0.44147,0.731 0.6622,1.0965 0.98182,2.006098 1.30322,3.907939 0.8361,6.093693 -0.0648,0.112804 -0.12961,0.225609 -0.19442,0.338413 -0.68032,1.452044 1.37318,2.414164 2.0535,0.96212 v 0 c 0.12141,-0.284641 0.24282,-0.569283 0.36423,-0.853924 0.0617,-0.321745 0.14493,-0.640097 0.18506,-0.965236 0.28841,-2.336727 -0.23567,-4.680099 -1.30925,-6.757202 -0.26651,-0.43215 -0.51077,-0.878839 -0.79954,-1.296451 -0.99875,-1.444399 -2.30229,-2.738937 -3.9007,-3.496113 -1.50142,-0.563032 -2.29767,1.560297 -0.79625,2.123329 z" />
  <path
     style="fill:#010206;fill-opacity:1;stroke-opacity:0.391521"
     id="path96"
     d="m 107.76767,48.455511 c 0.11603,-0.02654 0.54795,-0.12859 0.62035,-0.127003 0.14289,0.0031 0.0888,0.140805 0.1194,0.207883 0.13971,0.306407 0.32665,0.589092 0.48173,0.888011 0.54917,1.305157 0.9203,2.688626 1.02672,4.101355 0.13396,1.597913 2.39375,1.408468 2.25979,-0.189444 v 0 c -0.15593,-1.73035 -0.57928,-3.42869 -1.30404,-5.012982 -0.38412,-0.663994 -0.61521,-1.215698 -1.2449,-1.698969 -0.82292,-0.631563 -1.74561,-0.609506 -2.67616,-0.320196 -1.52123,0.507077 -0.80412,2.658421 0.71711,2.151345 z" />
  <path
     style="fill:#010206;fill-opacity:1;stroke-opacity:0.391521"
     id="path97"
     d="m 118.80425,43.878327 c -0.0169,0.01256 -0.0473,0.0169 -0.0506,0.03767 -0.004,0.02693 0.0234,0.04937 0.0327,0.075 0.0255,0.0701 0.0391,0.144838 0.0716,0.211995 0.0961,0.19901 0.21591,0.385955 0.31315,0.584422 0.33186,0.677281 0.42424,0.953718 0.70833,1.670362 0.27835,0.829038 0.58069,1.65259 0.81197,2.496757 0.0495,0.180586 0.20438,0.603936 0.10417,0.845636 -0.0238,0.05736 -0.0926,0.08272 -0.13896,0.124087 -0.0725,0.08995 -0.14507,0.179909 -0.2176,0.269864 -0.90559,1.323321 0.96587,2.604017 1.87146,1.280696 v 0 c 0.15048,-0.235939 0.30096,-0.471878 0.45145,-0.707817 0.10045,-0.32529 0.25055,-0.639235 0.30135,-0.97587 0.0735,-0.487048 -0.0745,-1.031896 -0.20156,-1.494074 -0.24907,-0.905769 -0.57334,-1.789801 -0.87551,-2.678376 -0.47036,-1.176026 -0.97129,-2.658946 -1.95212,-3.521308 -0.41925,-0.368615 -0.71998,-0.372271 -1.22974,-0.486765 -1.60352,0 -1.60352,2.267717 0,2.267717 z" />
  <path
     style="fill:#010206;fill-opacity:1;stroke-opacity:0.391521"
     id="path98"
     d="m 130.22798,33.517483 c 1.23921,1.604575 2.08705,3.442398 2.73556,5.350669 0.27458,0.899125 0.48447,1.817444 0.63132,2.7459 0.0785,0.496517 0.15935,0.97481 0.0567,1.469337 -0.0272,0.09785 -0.0544,0.195705 -0.0816,0.293557 -0.39291,1.554633 1.80567,2.110303 2.19859,0.55567 v 0 c 0.0434,-0.181536 0.0868,-0.363072 0.13021,-0.544609 0.0247,-0.230888 0.0686,-0.460523 0.0743,-0.692666 0.0361,-1.476493 -0.50686,-3.151019 -0.8644,-4.562818 -0.14369,-0.41573 -0.27178,-0.837187 -0.43108,-1.247191 -0.66897,-1.721783 -1.59702,-3.346091 -2.70746,-4.819605 -1.02655,-1.231857 -2.76866,0.2199 -1.74211,1.451756 z" />
  <path
     style="fill:#010206;fill-opacity:1;stroke-opacity:0.391521"
     id="path99"
     d="m 145.64173,28.04299 c 1.2699,3.229427 2.55595,6.453155 3.7857,9.698323 0.77495,1.975454 1.40327,3.999405 1.87977,6.065698 0.36225,1.562065 2.57134,1.049767 2.20909,-0.512298 v 0 c -0.50441,-2.164047 -1.15423,-4.287413 -1.96833,-6.35707 -1.2349,-3.257964 -2.52572,-6.494612 -3.8007,-9.736862 -0.59554,-1.488829 -2.70106,-0.64662 -2.10553,0.842209 z" />
  <path
     style="fill:#010206;fill-opacity:1;stroke-opacity:0.391521"
     id="path100"
     d="m 55.709173,62.611261 c 1.804721,-0.164898 3.258849,1.434891 4.460051,2.539106 2.60809,2.563185 4.531278,5.663498 6.225696,8.874726 0.124359,0.268382 0.248718,0.536763 0.373076,0.805145 0.676508,1.453825 2.732527,0.4971 2.05602,-0.956725 v 0 C 68.68276,73.571084 68.541504,73.268656 68.400248,72.966227 66.564367,69.491691 64.526665,66.246311 61.696429,63.474007 59.877496,61.829764 57.990226,60.03191 55.336362,60.3744 c -1.5817,0.263616 -1.208889,2.500478 0.372811,2.236861 z" />
  <path
     style="fill:#010206;fill-opacity:1;stroke-opacity:0.391521"
     id="path101"
     d="m 67.382504,54.502674 c 0.104456,0 0.554031,-0.008 0.643689,0.02675 0.07244,0.02804 0.105467,0.114255 0.162046,0.167482 0.164845,0.155083 0.345142,0.29403 0.501973,0.457212 0.800326,0.832731 0.899587,1.037441 1.618931,2.008914 1.098146,1.644742 2.175007,3.326476 2.847257,5.198208 0.319756,0.890292 0.438759,1.4693 0.661011,2.373754 0.06275,0.329051 0.125496,0.658102 0.188244,0.987153 0.302835,1.574662 2.529743,1.146388 2.226908,-0.428274 v 0 c -0.0713,-0.367954 -0.142597,-0.735909 -0.213895,-1.103864 -0.262763,-1.054274 -0.383868,-1.65022 -0.766405,-2.694735 -0.74874,-2.044429 -1.913373,-3.89296 -3.125667,-5.688488 -1.085024,-1.444283 -2.102266,-3.020885 -3.941027,-3.539471 -0.137968,-0.03891 -0.61328,-0.03236 -0.803065,-0.03236 -1.603517,0 -1.603517,2.267716 0,2.267716 z" />
  <path
     style="fill:#010206;fill-opacity:1;stroke-opacity:0.391521"
     id="path102"
     d="m 91.337455,51.23734 c 2.011657,2.513183 3.998881,5.058125 5.744204,7.765461 0.782066,1.356312 0.426651,0.700359 1.075538,1.962796 0.734888,1.425204 2.750433,0.385914 2.015543,-1.03929 v 0 c -0.719204,-1.390782 -0.326915,-0.671094 -1.186205,-2.153948 -1.799864,-2.781285 -3.833165,-5.405433 -5.906972,-7.986776 -1.026547,-1.231857 -2.768655,0.2199 -1.742108,1.451757 z" />
  <path
     style="fill:#010206;fill-opacity:1;stroke-opacity:0.391521"
     id="path103"
     d="m 16.931292,111.78643 c 1.948472,-0.26713 3.639847,0.13964 5.48728,0.71373 1.223184,0.43825 2.428724,0.96862 3.535273,1.65599 0.298607,0.18549 0.707799,0.50974 0.988372,0.72491 0.371018,0.4224 0.913784,0.69562 1.254145,1.14572 0.220164,0.29114 0.364463,0.63261 0.539791,0.95276 0.438364,0.82548 0.906278,1.63388 1.387531,2.43481 0.826546,1.37408 2.769786,0.20517 1.94324,-1.16891 v 0 c -0.468642,-0.77816 -0.922057,-1.56486 -1.348437,-2.36722 -0.332866,-0.59248 -0.48289,-0.92794 -0.904598,-1.44083 -0.427304,-0.5197 -1.033551,-0.87428 -1.495506,-1.35875 -1.598689,-1.21606 -3.324693,-2.10086 -5.231676,-2.74554 -1.009979,-0.30922 -1.504372,-0.492 -2.548235,-0.68465 -1.289986,-0.23807 -2.587258,-0.25 -3.888456,-0.11223 -1.591135,0.19889 -1.309859,2.4491 0.281276,2.25021 z" />
  <path
     style="fill:#010206;fill-opacity:1;stroke-opacity:0.391521"
     id="path104"
     d="m 20.047084,100.13468 c 1.48918,-0.244013 2.959951,-0.769634 4.479996,-0.811704 0.289643,-0.008 0.578378,0.03617 0.867567,0.05425 0.30651,0.06421 0.623497,0.09046 0.919531,0.192614 0.710899,0.245303 1.645227,0.8569 2.224524,1.25391 1.42333,0.97545 2.74587,2.08994 4.070981,3.19154 0.967244,0.79809 1.875394,1.66289 2.795962,2.51318 1.177928,1.08801 2.7166,-0.57783 1.538672,-1.66584 v 0 c -0.949661,-0.87716 -1.88752,-1.76818 -2.885314,-2.59148 -1.061259,-0.8815 -1.703872,-1.43448 -2.813814,-2.275471 -1.376364,-1.042853 -2.822228,-2.129174 -4.495121,-2.651269 -0.404822,-0.126341 -0.833877,-0.154991 -1.250816,-0.232487 -0.408657,-0.01414 -0.817326,-0.05689 -1.225972,-0.04242 -1.571132,0.05562 -3.093581,0.567251 -4.631858,0.834033 -1.577653,0.286846 -1.171991,2.517984 0.405662,2.231144 z" />
  <path
     style="fill:#010206;fill-opacity:1;stroke-opacity:0.391521"
     id="path105"
     d="m 30.379936,89.093574 c 0.07428,0.02226 0.156629,0.02641 0.222839,0.06677 0.174866,0.106598 0.325376,0.248877 0.491478,0.368675 0.340104,0.245294 0.692314,0.473882 1.027008,0.726508 1.232295,0.930134 2.367973,1.95824 3.488154,3.017644 0.920341,0.888844 1.798357,1.818035 2.658408,2.764598 1.078886,1.186286 2.756548,-0.33949 1.677662,-1.525775 v 0 C 39.045829,93.523659 38.129052,92.551879 37.166139,91.624184 35.96509,90.492225 34.749573,89.391059 33.42611,88.400826 32.73813,87.88607 31.8542,87.261748 31.046286,86.936418 c -0.208856,-0.0841 -0.444233,-0.07371 -0.66635,-0.110561 -1.603518,0 -1.603518,2.267717 0,2.267717 z" />
  <path
     style="fill:#010206;fill-opacity:1;stroke-opacity:0.391521"
     id="path106"
     d="m 40.7747,74.713094 c 2.592033,3.113256 4.860798,6.490597 7.044982,9.89777 0.419958,0.684505 0.839916,1.369011 1.259874,2.053516 0.838678,1.366707 2.771494,0.180636 1.932815,-1.186071 v 0 C 50.584395,84.781025 50.156419,84.083742 49.728443,83.386458 47.861648,80.47807 48.681729,81.694464 46.695749,78.847157 45.302598,76.849793 43.926654,74.82087 42.281289,73.018182 41.082805,71.952863 39.576216,73.647775 40.7747,74.713094 Z" />
  <path
     style="fill:#010206;fill-opacity:1;stroke-opacity:0.391521"
     id="path107"
     d="m 21.519996,144.0892 c 1.422862,-0.35277 2.860815,-0.64235 4.30705,-0.88121 0.141544,0.0304 0.291671,0.034 0.424632,0.0913 0.567458,0.2445 1.442349,1.24306 1.774802,1.74262 0.118897,0.17866 0.20706,0.37596 0.31059,0.56395 0.31569,0.76601 0.177041,0.38411 0.41948,1.14441 0.498449,1.52408 2.653823,0.81917 2.155374,-0.70491 v 0 c -0.343433,-1.03076 -0.143292,-0.50534 -0.610404,-1.57241 -0.167181,-0.28143 -0.314854,-0.5754 -0.501541,-0.84428 -0.773296,-1.11377 -1.942762,-2.24536 -3.293765,-2.58277 -0.340225,-0.085 -0.699557,-0.0501 -1.049335,-0.0752 -1.531256,0.25377 -3.054411,0.55945 -4.559873,0.93805 -1.541821,0.44052 -0.918831,2.62098 0.62299,2.18046 z" />
  <path
     style="fill:#010206;fill-opacity:1;stroke-opacity:0.391521"
     id="path108"
     d="m 25.812753,127.09858 c 1.168588,-0.21317 2.227798,-0.0531 3.36465,0.24415 1.408531,0.48422 2.867799,0.9778 3.993797,1.98943 1.21192,1.05001 2.696857,-0.66391 1.484937,-1.71392 v 0 c -1.427048,-1.20919 -3.14561,-1.92522 -4.922022,-2.47383 -0.35084,-0.0866 -0.697783,-0.19089 -1.05252,-0.25983 -1.074153,-0.20873 -2.164167,-0.18025 -3.241653,-0.0229 -1.5817,0.26362 -1.20889,2.50048 0.372811,2.23686 z" />
  <path
     style="fill:#010206;fill-opacity:1;stroke-opacity:0.391521"
     id="path109"
     d="m 34.52505,128.08693 c -1.229193,-0.3558 -2.499298,-0.14932 -3.740516,0.0115 -0.654694,0.0406 -0.325836,0.0264 -0.986587,0.0422 -1.602985,0.0413 -1.544522,2.3083 0.05846,2.26696 v 0 c 0.799976,-0.0219 0.393384,-0.002 1.219687,-0.0603 0.901085,-0.11685 1.828847,-0.30463 2.731839,-0.10909 1.521231,0.50708 2.238346,-1.64427 0.717115,-2.15135 z" />
  <path
     style="fill:#010206;fill-opacity:1;stroke-opacity:0.391521"
     id="path110"
     d="m 27.834406,127.57723 c -1.047255,-0.36759 -2.151341,-0.52111 -3.250406,-0.63541 -1.028249,-0.09 -2.061288,-0.0904 -3.092595,-0.0943 -1.603507,-0.006 -1.611864,2.2618 -0.0084,2.26771 v 0 c 0.956605,0.004 1.914814,0.002 2.868827,0.0824 0.906627,0.0921 1.819118,0.21085 2.686282,0.50294 1.501421,0.56303 2.297669,-1.5603 0.796249,-2.12333 z" />
  <path
     style="fill:#010206;fill-opacity:1;stroke-opacity:0.391521"
     id="path111"
     d="m 21.673102,158.02829 c 2.542973,-0.36875 5.114528,-0.50918 7.681131,-0.57775 1.911612,0.0219 3.659385,0.43891 5.178314,1.62666 0.387679,0.40606 0.215675,0.1974 0.52207,0.62093 0.974531,1.2734 2.775397,-0.10479 1.800866,-1.3782 v 0 c -0.576266,-0.73013 -0.2586,-0.37642 -0.959775,-1.055 -0.234707,-0.17213 -0.458274,-0.36058 -0.704121,-0.51639 -1.769591,-1.12148 -3.825853,-1.54738 -5.898708,-1.56489 -2.543812,0.0697 -5.103648,0.18247 -7.619777,0.57693 -1.603518,0 -1.603518,2.26771 0,2.26771 z" />
  <path
     style="fill:#010206;fill-opacity:1;stroke-opacity:0.391521"
     id="path112"
     d="m 25.699791,173.14089 c 1.753978,-1.28527 3.521671,-2.61541 5.496714,-3.55075 0.328281,-0.15547 0.673568,-0.27214 1.010353,-0.40821 1.515402,-0.48226 2.258975,-0.25158 3.421773,0.72716 0.305492,0.41355 0.816259,0.79473 0.882809,1.33665 0.437998,1.54253 2.619478,0.92311 2.181479,-0.61943 v 0 c -0.05941,-0.18302 -0.103269,-0.37185 -0.178214,-0.54908 -0.316522,-0.74851 -0.909417,-1.3433 -1.453497,-1.92605 -0.206868,-0.16503 -0.402649,-0.345 -0.620604,-0.49508 -1.620816,-1.11607 -3.256861,-1.20012 -5.09461,-0.57213 -0.406493,0.16892 -0.82229,0.31699 -1.219478,0.50676 -2.0655,0.98684 -3.923727,2.36765 -5.760532,3.71618 -1.296822,0.94314 0.03698,2.77713 1.333807,1.83398 z" />
  <path
     style="fill:#010206;fill-opacity:1;stroke-opacity:0.391521"
     id="path113"
     d="m 18.549754,189.1601 c 2.062318,-0.11019 4.126884,-0.16316 6.191572,-0.2025 1.064437,-0.003 2.129384,-0.0464 3.193915,-0.0365 0.54891,0.005 0.892438,-0.014 1.403473,0.15945 0.188271,0.0639 0.359909,0.16909 0.539863,0.25363 1.047999,0.657 1.882803,1.60379 2.652885,2.56075 0.336733,0.43756 0.170486,0.22127 0.498758,0.64887 0.976471,1.27191 2.775234,-0.10903 1.798763,-1.38094 v 0 c -0.342023,-0.44551 -0.163663,-0.21376 -0.535227,-0.69512 -1.010585,-1.24154 -2.106343,-2.45439 -3.533152,-3.22271 -0.327672,-0.12978 -0.644424,-0.29151 -0.983015,-0.38932 -1.551642,-0.44822 -3.479586,-0.0783 -5.079508,-0.16547 -2.050217,0.0391 -4.100646,0.0885 -6.148327,0.2021 -1.603518,0 -1.603518,2.26771 0,2.26771 z" />
  <path
     style="fill:#010206;fill-opacity:1;stroke-opacity:0.391521"
     id="path114"
     d="m 16.669072,205.10056 c 1.134804,-0.90219 2.40937,-1.65948 3.780766,-2.14358 0.365365,-0.12897 0.743671,-0.21785 1.115506,-0.32677 1.309284,-0.34009 2.659934,-0.3246 3.985043,-0.0809 0.405375,0.0745 1.308024,0.34705 1.698495,0.4602 0.769683,0.33834 2.241379,0.604 2.8303,1.23033 -0.0051,0.0287 -0.01017,0.0575 -0.01525,0.0862 0.830245,1.37185 2.770329,0.1977 1.940083,-1.17414 v 0 c -0.151082,-0.2125 -0.302165,-0.42499 -0.453248,-0.63749 -0.159694,-0.12728 -0.309921,-0.26744 -0.479082,-0.38184 -0.956032,-0.64653 -2.136278,-0.8881 -3.194144,-1.30192 -0.656694,-0.18873 -1.378121,-0.41265 -2.049545,-0.53203 -1.634537,-0.29062 -3.303923,-0.26348 -4.912407,0.15896 -0.448324,0.13636 -0.90439,0.24947 -1.344973,0.40908 -1.563816,0.56652 -3.019238,1.43162 -4.31817,2.46312 -1.252137,1.00171 0.164494,2.7725 1.416631,1.77079 z" />
  <path
     style="fill:#010206;fill-opacity:1;stroke-opacity:0.391521"
     id="path115"
     d="m 18.379909,223.92504 c 0.940244,-0.53178 1.89538,-1.03469 2.897846,-1.44077 0.300352,-0.12167 0.59813,-0.25481 0.910815,-0.33992 0.2545,-0.0693 0.521331,-0.0805 0.781997,-0.12079 0.221427,0.0151 0.447636,-0.003 0.664282,0.0453 1.229638,0.27355 2.469495,1.899 3.250433,2.78496 0.908674,1.15676 1.611976,2.46567 2.716227,3.45409 0.539247,0.35873 0.261072,0.20491 0.832231,0.46559 1.47998,0.61719 2.352825,-1.47581 0.872845,-2.09301 v 0 c -0.137545,-0.0321 -0.06283,-0.007 -0.219944,-0.0863 -1.066879,-0.86315 -1.560266,-2.26086 -2.501125,-3.24093 -1.336674,-1.51273 -2.748595,-3.23388 -4.879656,-3.55099 -0.374042,-0.0557 -0.756285,-0.007 -1.134428,-0.011 -0.393138,0.0766 -0.793666,0.12207 -1.179416,0.2299 -0.351644,0.0983 -0.686891,0.24846 -1.024988,0.38633 -1.103041,0.44979 -2.155776,1.00451 -3.189006,1.59455 -1.35978,0.84986 -0.157893,2.77288 1.201887,1.92302 z" />
  <path
     style="fill:#010206;fill-opacity:1;stroke-opacity:0.391521"
     id="path116"
     d="m 19.296295,241.93203 c 1.729853,-0.63817 3.532398,-0.94395 5.352114,-1.19057 1.663458,-0.0995 3.669613,-0.54679 5.324382,-0.17776 0.194247,0.0433 0.377555,0.12604 0.566332,0.18906 1.359809,0.64393 2.399397,1.749 3.421339,2.82278 0.1598,0.17493 0.319601,0.34985 0.479401,0.52478 1.081942,1.1835 2.755663,-0.3466 1.673722,-1.5301 v 0 c -0.170695,-0.18659 -0.34139,-0.37318 -0.512085,-0.55978 -1.294243,-1.35447 -2.630989,-2.71369 -4.402361,-3.42722 -0.313119,-0.0897 -0.620114,-0.20445 -0.939359,-0.269 -1.946932,-0.39366 -3.971894,0.0447 -5.917493,0.18028 -1.92541,0.26359 -3.836822,0.58641 -5.668982,1.25706 -1.54182,0.44052 -0.918831,2.62099 0.62299,2.18047 z" />
  <path
     style="fill:#010206;fill-opacity:1;stroke-opacity:0.391521"
     id="path117"
     d="m 28.195076,256.59182 c 1.162138,-0.59182 2.462029,-0.71325 3.74262,-0.78423 1.249794,-0.0485 2.526876,-0.0169 3.738883,0.32652 0.521558,0.1478 0.872797,0.31061 1.370609,0.51743 1.131921,0.45511 1.798178,1.43178 2.536799,2.33917 0.06462,0.088 0.12924,0.17593 0.193861,0.26389 0.954124,1.28877 2.776713,-0.0606 1.822589,-1.34934 v 0 c -0.08608,-0.11558 -0.172154,-0.23117 -0.25823,-0.34676 -0.412927,-0.50654 -0.79679,-1.05142 -1.258634,-1.51538 -0.626241,-0.6291 -1.360842,-1.13408 -2.174126,-1.48897 -0.670957,-0.27344 -1.025807,-0.44076 -1.738499,-0.63321 -1.419864,-0.38341 -2.90569,-0.43853 -4.36706,-0.37711 -1.629903,0.1014 -3.270812,0.29401 -4.733914,1.07906 -1.392244,0.79557 -0.267141,2.7645 1.125102,1.96893 z" />
  <path
     style="fill:#010206;fill-opacity:1;stroke-opacity:0.391521"
     id="path118"
     d="m 28.049795,272.38703 c 0.194554,-0.0376 0.390155,-0.0701 0.583663,-0.11282 1.101552,-0.24288 0.531887,-0.15941 1.709553,-0.38754 1.042458,-0.20193 2.0924,-0.32926 3.14645,-0.45082 1.358095,-0.17542 2.74173,-0.0595 4.076017,0.2381 0.445759,0.0994 1.184547,0.35678 1.620626,0.50171 1.038046,0.40195 1.553497,0.89806 2.122793,1.82236 0.346597,0.55731 0.166749,0.28324 0.539486,0.82225 0.916086,1.31608 2.777298,0.0205 1.861212,-1.29554 v 0 c -0.313686,-0.4468 -0.149116,-0.20035 -0.487184,-0.74367 -0.901228,-1.38829 -1.749278,-2.1607 -3.324268,-2.75843 -0.666468,-0.21945 -1.265826,-0.43353 -1.956664,-0.58501 -1.543015,-0.33832 -3.14398,-0.44819 -4.712583,-0.25447 -1.838936,0.21329 -3.665536,0.49193 -5.460376,0.95367 -1.591135,0.1989 -1.30986,2.4491 0.281275,2.25021 z" />
  <path
     style="fill:#010206;fill-opacity:1;stroke-opacity:0.391521"
     id="path119"
     d="m 32.856132,289.48044 c 1.056137,-0.8967 2.108414,-1.97439 3.454973,-2.42833 0.307236,-0.10357 0.633572,-0.13808 0.950358,-0.20713 1.323247,-0.12465 2.70667,-0.10505 3.959093,0.40349 0.858123,0.34845 1.673335,0.91944 2.445462,1.40317 2.076596,1.39528 1.054787,0.68962 3.0662,2.11586 1.308237,0.92725 2.619562,-0.92288 1.311325,-1.85013 v 0 c -2.08061,-1.47408 -1.020752,-0.74291 -3.180683,-2.19189 -1.123217,-0.69291 -1.799567,-1.19183 -3.013726,-1.65586 -1.63345,-0.62428 -3.417907,-0.64008 -5.127345,-0.4272 -0.466105,0.12278 -0.945703,0.20259 -1.398313,0.36834 -1.525742,0.55873 -2.757184,1.71893 -3.960646,2.76305 -1.20677,1.05592 0.286532,2.76256 1.493302,1.70663 z" />
  <path
     style="fill:#010206;fill-opacity:1;stroke-opacity:0.391521"
     id="path120"
     d="m 37.923069,306.48113 c 0.753973,-0.14217 1.466281,0.1128 2.187593,0.30758 1.541491,0.41625 1.130966,0.30538 2.71544,0.7769 2.131206,0.76983 4.315072,1.55312 6.197898,2.83925 0.211424,0.18271 0.439281,0.34797 0.634271,0.54813 0.387077,0.39733 1.223621,1.49304 1.532668,1.86843 0.812582,0.98702 0.919127,1.08112 1.752582,1.99292 1.082584,1.18291 2.755474,-0.34809 1.672889,-1.53101 v 0 c -0.780324,-0.85153 -0.889542,-0.9495 -1.652956,-1.87638 -0.833912,-1.01247 -1.586525,-2.11875 -2.675416,-2.88484 -0.288331,-0.19101 -0.567469,-0.39668 -0.864993,-0.57303 -1.857614,-1.10105 -3.93444,-1.81864 -5.950529,-2.5571 -1.36657,-0.40614 -1.45412,-0.44371 -2.792777,-0.79842 -1.007314,-0.26691 -2.028745,-0.55121 -3.077374,-0.35735 -1.587401,0.22677 -1.266698,2.47169 0.320704,2.24492 z" />
  <circle
     id="path121"
     style="fill:#010206;stroke:#000000"
     cx="56.086674"
     cy="316.25964"
     r="0.018658074" />
  <path
     style="fill:#010206;fill-opacity:1;stroke-opacity:0.391521"
     id="path122"
     d="m 33.225088,320.56054 c 1.103907,-0.1065 2.229586,-0.13106 3.315074,0.13834 0.283867,0.0705 0.556928,0.1789 0.835393,0.26835 2.217808,0.90996 4.086561,2.41139 5.90414,3.93772 1.340756,1.09919 2.511605,2.36416 3.665084,3.65095 0.06486,0.0931 0.129729,0.1861 0.194594,0.27915 0.940638,1.29864 2.777194,-0.0316 1.836556,-1.33026 v 0 c -0.114341,-0.15436 -0.228682,-0.30872 -0.343023,-0.46308 -1.225511,-1.3655 -2.473216,-2.70563 -3.895314,-3.87373 -2.049098,-1.71902 -4.172428,-3.38958 -6.692542,-4.36738 -0.374925,-0.11245 -0.74379,-0.24756 -1.124776,-0.33735 -1.332962,-0.31417 -2.716418,-0.28641 -4.067996,-0.13957 -1.5817,0.26361 -1.20889,2.50048 0.37281,2.23686 z" />
  <path
     style="fill:#010206;fill-opacity:1;stroke-opacity:0.391521"
     id="path123"
     d="m 26.454614,333.36061 c 0.143251,-0.0203 0.285166,-0.0557 0.429753,-0.0608 1.564379,-0.0552 3.27166,0.16651 4.735279,0.72482 0.561345,0.21413 1.087325,0.51144 1.630987,0.76716 1.698626,0.8753 3.295243,1.94116 4.756001,3.17333 1.037409,0.87508 1.454883,1.34578 2.384283,2.29737 1.121813,1.14577 2.742186,-0.44071 1.620372,-1.58649 v 0 c -1.029953,-1.04957 -1.456326,-1.5318 -2.61027,-2.49924 -1.598142,-1.33984 -3.344839,-2.49599 -5.201781,-3.44475 -0.65737,-0.29741 -1.295153,-0.64259 -1.972111,-0.89221 -1.763737,-0.65037 -3.80991,-0.89882 -5.685751,-0.78162 -0.214564,0.0134 -0.42451,0.0683 -0.636764,0.10241 -1.555641,0.38891 -1.005639,2.58892 0.550002,2.20001 z" />
  <path
     style="fill:#010206;fill-opacity:1;stroke-opacity:0.391521"
     id="path124"
     d="m 15.659784,392.44821 c 1.409219,-1.40847 3.100162,-2.45433 4.845289,-3.38839 1.894865,-1.01397 3.27368,-1.01196 5.338407,-0.66544 1.111026,0.16739 2.145343,0.59199 3.154201,1.06589 1.451896,0.68064 2.414464,-1.37265 0.962569,-2.05329 v 0 c -1.199374,-0.56124 -2.434772,-1.0487 -3.752615,-1.25089 -0.948894,-0.15039 -1.364691,-0.25137 -2.34823,-0.25579 -1.570247,-0.007 -3.048105,0.42545 -4.426987,1.16154 -2.037231,1.09674 -4.028573,2.3342 -5.606618,4.05256 -0.943144,1.29683 0.89084,2.63063 1.833984,1.33381 z" />
  <path
     style="fill:#010206;fill-opacity:1;stroke-opacity:0.391521"
     id="path125"
     d="m 24.638827,421.91045 c 1.429716,-0.85461 3.025793,-1.45208 4.65283,-1.80538 0.517489,-0.11236 1.04251,-0.1867 1.563765,-0.28005 2.708922,-0.37084 5.440364,-0.55473 8.171251,-0.40307 1.601192,0.0863 1.723278,-2.1781 0.122086,-2.26443 v 0 c -2.907454,-0.15253 -5.81531,0.0278 -8.698213,0.43622 -0.580347,0.10654 -1.165076,0.19148 -1.741041,0.31961 -1.772978,0.39443 -3.520779,1.04313 -5.084832,1.9688 -1.43423,0.71711 -0.420076,2.74542 1.014154,2.0283 z" />
  <path
     style="fill:#010206;fill-opacity:1;stroke-opacity:0.391521"
     id="path126"
     d="m 25.504707,448.30817 c 1.560785,-0.68829 3.341816,-1.75894 5.074863,-1.85607 0.310231,-0.0174 0.620498,0.0341 0.930747,0.0512 1.558286,0.30237 3.046394,0.91224 4.484493,1.57266 1.458405,0.66657 2.401087,-1.39592 0.942683,-2.0625 v 0 c -1.713595,-0.77998 -3.484442,-1.50634 -5.358884,-1.77685 -0.46244,-0.006 -0.926402,-0.0567 -1.387319,-0.0187 -2.080596,0.1716 -4.124999,1.33136 -5.971309,2.22161 -1.321366,0.90844 -0.03664,2.77713 1.284726,1.86869 z" />
  <path
     style="fill:#010206;fill-opacity:1;stroke-opacity:0.391521"
     id="path127"
     d="m 36.619475,484.15357 c 1.642017,-0.62767 3.191853,-1.52692 4.878231,-2.04149 0.228504,-0.0697 0.466704,-0.10242 0.700056,-0.15364 1.269514,0.0702 2.453589,0.58144 3.605104,1.0789 1.474086,0.63114 2.366654,-1.45353 0.892568,-2.08467 v 0 c -1.600507,-0.68003 -3.234441,-1.34457 -5.013131,-1.20258 -0.327055,0.0796 -0.659418,0.13989 -0.981165,0.23878 -1.700987,0.5228 -3.269183,1.41869 -4.923872,2.05918 -1.488829,0.59553 -0.64662,2.70105 0.842209,2.10552 z" />
  <path
     style="fill:#010206;fill-opacity:1;stroke-opacity:0.391521"
     id="path128"
     d="m 47.521419,518.88221 c 1.510958,-1.09055 2.876482,-2.3877 4.461137,-3.3759 0.275332,-0.1717 0.565249,-0.31883 0.847873,-0.47824 0.270157,-0.0974 0.530103,-0.23001 0.810472,-0.29215 0.674679,-0.14956 1.485688,-0.0842 2.151719,-0.0238 1.493761,0.13539 2.94482,0.44596 4.40872,0.75793 1.568403,0.33374 2.040381,-1.88432 0.471978,-2.21806 v 0 c -2.363826,-0.50226 -5.456133,-1.25228 -7.83521,-0.63693 -0.391341,0.10122 -0.752809,0.29471 -1.129213,0.44206 -0.334274,0.19162 -0.676633,0.36978 -1.002822,0.57486 -1.574864,0.99016 -2.949629,2.2609 -4.442557,3.36339 -1.334208,0.88947 -0.0763,2.77633 1.257903,1.88685 z" />
  <path
     style="fill:#010206;fill-opacity:1;stroke-opacity:0.391521"
     id="path129"
     d="m 73.037608,534.61723 c 0.965903,-0.57895 1.930074,-1.15234 2.92925,-1.67338 0.764338,-0.39858 1.475378,-0.80334 2.323622,-0.99335 0.306659,-0.0687 0.625861,-0.0577 0.938792,-0.0866 0.843101,-0.0186 1.608901,0.25869 2.387267,0.53614 1.514435,0.52702 2.259763,-1.61471 0.745325,-2.14174 v 0 c -1.110798,-0.37939 -2.207098,-0.72074 -3.403805,-0.64584 -0.471534,0.0656 -0.952212,0.0835 -1.414602,0.19689 -0.966106,0.23683 -1.782897,0.68341 -2.655468,1.13986 -1.108413,0.57983 -2.184385,1.21155 -3.242625,1.87799 -1.26574,0.98447 0.126503,2.77449 1.392244,1.79003 z" />
  <path
     style="fill:#010206;fill-opacity:1;stroke-opacity:0.391521"
     id="path130"
     d="m 82.44806,556.87309 c 1.812532,-0.91829 3.709402,-1.7768 5.707802,-2.20542 0.38823,-0.0833 0.78439,-0.12392 1.17659,-0.18589 2.12322,-0.12539 4.23928,0.35233 6.12247,1.32969 1.42917,0.72715 2.45752,-1.294 1.02835,-2.02115 v 0 c -2.33073,-1.16811 -4.90098,-1.7645 -7.51645,-1.54658 -0.46971,0.0788 -0.94385,0.13473 -1.40912,0.23653 -2.23216,0.48838 -4.357497,1.44619 -6.367545,2.50597 -1.334207,0.88947 -0.0763,2.77632 1.257903,1.88685 z" />
  <path
     style="fill:#010206;fill-opacity:1;stroke-opacity:0.391521"
     id="path131"
     d="m 86.791632,574.67944 c 2.09245,-1.57308 4.59158,-2.49471 7.09239,-3.18967 1.74651,-0.47053 3.49171,-0.24871 5.23939,0.0396 0.63119,0.14158 0.33761,0.0602 0.883298,0.23452 1.53209,0.47325 2.20137,-1.69345 0.66928,-2.1667 v 0 c -0.765808,-0.23111 -0.37145,-0.12811 -1.184018,-0.30538 -2.07403,-0.34109 -4.15321,-0.54913 -6.21904,0.0141 -2.86952,0.80795 -5.73841,1.88107 -8.08481,3.76999 -1.13386,1.13385 0.46966,2.73737 1.60351,1.60351 z" />
  <path
     style="fill:#010206;fill-opacity:1;stroke-opacity:0.391521"
     id="path132"
     d="m 114.2384,591.50731 c 0.12063,-1.22999 0.43092,-2.4307 0.8846,-3.57904 0.12575,-0.31831 0.23625,-0.64672 0.41156,-0.94066 0.13165,-0.22073 0.33312,-0.39146 0.49968,-0.5872 1.60775,-1.04209 3.49823,-1.5078 5.36819,-1.81238 0.18101,-0.0131 0.36202,-0.0263 0.54302,-0.0394 1.59842,-0.12778 1.4177,-2.38829 -0.18072,-2.2605 v 0 c -0.24379,0.0208 -0.48758,0.0416 -0.73137,0.0625 -1.86991,0.31179 -3.94131,0.76361 -5.5778,1.75541 -0.43159,0.26156 -0.80907,0.60343 -1.21361,0.90514 -0.26248,0.35775 -0.56442,0.68966 -0.78745,1.07325 -0.19884,0.342 -0.32715,0.72087 -0.47013,1.08973 -0.49328,1.27261 -0.84372,2.60096 -0.98283,3.96043 -0.26362,1.5817 1.97324,1.95451 2.23686,0.37281 z" />
  <path
     style="fill:#010206;fill-opacity:1;stroke-opacity:0.391521"
     id="path133"
     d="m 188.46658,568.02565 c 0.38891,-2.15843 0.9486,-4.29738 1.82615,-6.31271 0.19929,-0.45767 0.43266,-0.89973 0.64898,-1.34959 0.69283,-1.28192 1.35904,-2.64119 2.51586,-3.56918 1.22865,-1.03039 -0.22854,-2.76796 -1.45719,-1.73757 v 0 c -0.18734,0.16134 -0.38627,0.31015 -0.56204,0.48402 -1.10102,1.08914 -1.81173,2.50047 -2.54231,3.84411 -0.23834,0.50054 -0.49508,0.99272 -0.715,1.50163 -0.94115,2.17789 -1.54584,4.48741 -1.95937,6.81858 -0.22677,1.5874 2.01815,1.90811 2.24492,0.32071 z" />
  <path
     style="fill:#010206;fill-opacity:1;stroke-opacity:0.391521"
     id="path134"
     d="m 212.53522,566.05845 c -1.37657,-2.69924 -2.38514,-5.55133 -3.26885,-8.44299 -0.359,-1.2697 -0.67301,-2.62699 -0.32567,-3.93222 0.35968,-1.56265 -1.85025,-2.07132 -2.20993,-0.50866 v 0 c -0.0505,0.23866 -0.11965,0.47412 -0.15134,0.71599 -0.19392,1.4801 0.11376,2.9715 0.51841,4.38824 0.91682,2.9944 1.96285,5.94828 3.38551,8.74522 0.68277,1.4509 2.73464,0.48531 2.05187,-0.96558 z" />
  <path
     style="fill:#010206;fill-opacity:1;stroke-opacity:0.391521"
     id="path135"
     d="m 702.68995,191.40076 c 0.28738,-0.42708 0.68626,-0.76775 1.08083,-1.09259 0.0639,-0.0483 0.12307,-0.10366 0.19182,-0.14478 0.008,-0.005 0.0101,0.0233 0.002,0.0287 -0.0506,0.0347 -0.10624,0.0632 -0.16442,0.0826 -0.0531,0.0177 -0.11695,1.2e-4 -0.16582,0.0275 -0.0167,0.009 0.0199,0.033 0.033,0.0469 0.0334,0.0357 0.0707,0.0676 0.10601,0.10132 0.16113,0.15343 0.29995,0.32733 0.43256,0.50531 0.0926,0.12427 0.18515,0.24782 0.25633,0.38566 0.0178,0.0632 0.0524,0.11962 0.0688,0.18341 0.003,0.0107 0.0169,0.0354 0.006,0.0324 -0.0123,-0.004 -0.0104,-0.0234 -0.0156,-0.0351 0.21747,1.58871 2.46424,1.28116 2.24677,-0.30754 v 0 c -0.0159,-0.0898 -0.0277,-0.18049 -0.0477,-0.2695 -0.0571,-0.25407 -0.17622,-0.49038 -0.28681,-0.72381 -0.0438,-0.0748 -0.0852,-0.15117 -0.13145,-0.22453 -0.0751,-0.11919 -0.22516,-0.32642 -0.30716,-0.43394 -0.25084,-0.32888 -0.52034,-0.64315 -0.8389,-0.90946 -0.31034,-0.22438 -0.52758,-0.42084 -0.90491,-0.53329 -0.2061,-0.0614 -0.42144,-0.10781 -0.6365,-0.10562 -0.5018,0.005 -0.92039,0.24139 -1.29267,0.54849 -0.60079,0.50145 -1.19257,1.03699 -1.60166,1.71263 -0.79557,1.39225 1.17336,2.51735 1.96893,1.12511 z" />
  <path
     style="fill:#010206;fill-opacity:1;stroke-opacity:0.391521"
     id="path136"
     d="m 679.21018,163.33037 c 0.91075,-0.90616 1.78123,-1.85467 2.73226,-2.7199 0.20997,-0.19101 0.42994,-0.37072 0.64491,-0.55609 0.46183,-0.37973 0.93542,-0.74719 1.43593,-1.07504 0.10805,-0.0708 0.23425,-0.17885 0.37556,-0.19465 0.0104,-0.001 0.0192,0.008 0.0288,0.0123 0.003,0.016 -0.0677,0.0242 -0.0756,0.0408 1.5509,0.40738 2.12702,-1.78593 0.57612,-2.19331 v 0 c -0.0806,-0.0188 -0.15998,-0.0433 -0.24165,-0.0564 -0.35212,-0.0563 -0.35962,-0.032 -0.7429,-0.007 -0.13878,0.0365 -0.2813,0.061 -0.41635,0.10959 -0.31758,0.11415 -0.51057,0.236 -0.78764,0.41876 -0.56979,0.37584 -1.11009,0.79487 -1.63591,1.22944 -0.24248,0.21037 -0.49013,0.41491 -0.72743,0.6311 -0.96328,0.87761 -1.84734,1.83712 -2.76961,2.75639 -1.13386,1.13386 0.46966,2.73737 1.60352,1.60352 z" />
</svg>
