<?xml version="1.0" encoding="UTF-8" standalone="no"?>
<svg
   width="712"
   height="345"
   viewBox="0 0 712 345"
   fill="none"
   version="1.1"
   id="svg2"
   sodipodi:docname="headphonebelow.svg"
   inkscape:export-filename="headphonebelow.svg"
   inkscape:export-xdpi="96"
   inkscape:export-ydpi="96"
   inkscape:version="1.3.2 (091e20e, 2023-11-25, custom)"
   xmlns:inkscape="http://www.inkscape.org/namespaces/inkscape"
   xmlns:sodipodi="http://sodipodi.sourceforge.net/DTD/sodipodi-0.dtd"
   xmlns="http://www.w3.org/2000/svg"
   xmlns:svg="http://www.w3.org/2000/svg">
  <defs
     id="defs2" />
  <sodipodi:namedview
     id="namedview2"
     pagecolor="#5e5e5e"
     bordercolor="#000000"
     borderopacity="0.25"
     inkscape:showpageshadow="2"
     inkscape:pageopacity="0.0"
     inkscape:pagecheckerboard="0"
     inkscape:deskcolor="#4b1515"
     inkscape:zoom="1.2560025"
     inkscape:cx="322.05351"
     inkscape:cy="198.64611"
     inkscape:window-width="1920"
     inkscape:window-height="991"
     inkscape:window-x="-9"
     inkscape:window-y="-9"
     inkscape:window-maximized="1"
     inkscape:current-layer="svg2" />
  <path
     d="m 163.10419,62.261535 c -11.282,0 -33.951,11.984 -43.8752,17.976 0,5.8256 -4.1786,17.9761 -20.893102,19.973395 -16.7145,1.9974 -17.7592,9.4874 -16.1922,12.9827 v 17.9762 l -32.3844,12.983 -9.4019,13.482 v 30.958 l 9.4019,32.956 -9.4019,6.991 -11.4912,19.973 11.4912,8.489 41.7863,22.47 37.085302,21.971 h 43.8752 c 12.954,0 36.389,-14.647 46.488,-21.971 11.491,7.324 37.294,21.971 48.576,21.971 h 60.068 20.893 c 17.063,8.155 53.487,23.968 62.68,21.97 11.491,-2.496 20.893,4.494 34.473,2.497 13.581,-1.997 43.876,-15.479 53.278,-24.467 7.521,-7.191 32.384,-17.643 43.875,-21.971 h 48.577 25.594 l 37.085,-22.47 20.894,-15.479 18.281,-52.93 v -30.958 -44.4412 l -18.281,-50.932095 c -6.965,-5.8256 -24.132,-20.1732 -37.086,-30.95879 -16.192,-13.482011 -27.683,10.98539 -46.487,13.48199 -15.043,1.9974 -49.447,12.4834 -64.769,17.4768 -12.362,5.992 -48.576,14.3808 -94.541,0 -45.965,-14.3808 -40.742,-5.992 -32.385,0 h -51.188 -34.474 -74.17 z"
     fill="#2f408a"
     stroke="#2f408a"
     stroke-opacity="0.48"
     id="path1" />
  <path
     d="m 174.75119,78.346835 c -10.748,0 -32.344,10.3007 -41.799,15.451 0,5.0072 -3.981,15.450995 -19.9042,17.167795 -15.923402,1.7168 -16.918602,8.1547 -15.425802,11.159 v 15.4512 l -30.8517,11.159 -8.9569,11.588 v 26.61 l 8.9569,28.327 -8.9569,6.008 -10.9474,17.168 10.9474,7.296 39.8086,19.314 35.330002,18.885 h 41.799 c 12.341,0 34.667,-12.59 44.287,-18.885 10.948,6.295 35.529,18.885 46.278,18.885 h 57.225 19.904 c 16.255,7.01 50.955,20.601 59.713,18.884 10.947,-2.146 19.904,3.863 32.842,2.146 12.938,-1.717 41.799,-13.305 50.756,-21.03 7.165,-6.181 30.852,-15.165 41.799,-18.885 h 46.277 24.383 l 35.33,-19.314 19.905,-13.305 17.416,-45.494 v -26.61 -38.1982 l -17.416,-43.777795 c -6.635,-5.0073 -22.99,-17.3394 -35.33,-26.61 -15.426,-11.5882 -26.374,9.4422 -44.288,11.5882 -14.331,1.7168 -47.106,10.7299 -61.703,15.0218 -11.777,5.1503 -46.277,12.3608 -90.067,0 -43.789,-12.3608 -38.813,-5.1503 -30.852,0 h -48.765 -32.842 -70.66 z"
     fill="#7184d7"
     stroke="#2f408a"
     stroke-opacity="0.48"
     id="path2" />
  <path
     style="fill:#000000;stroke-opacity:0.391521"
     id="path3"
     d="m 35.521332,189.93251 c -0.13749,-0.66678 0.03095,-1.27884 0.291399,-1.89241 0.19744,-0.39475 0.444948,-0.67893 0.880328,-0.75893 0.848902,-0.14632 1.699498,0.0116 2.534323,0.16871 1.020125,0.13678 1.952676,0.53073 2.878803,0.95839 0.725219,0.3504 1.463598,0.67967 2.129171,1.13712 0.353899,0.30972 0.670531,0.65999 0.958192,1.0314 0.213626,0.24446 0.128196,0.13896 0.262907,0.31102 1.171733,1.45837 3.234171,-0.19871 2.062438,-1.65708 v 0 c -0.188001,-0.23104 -0.102648,-0.13384 -0.250943,-0.29602 -0.462128,-0.57684 -0.955008,-1.13426 -1.549195,-1.58 -0.791377,-0.53062 -1.644958,-0.94874 -2.507788,-1.3504 -1.124555,-0.51473 -2.26912,-0.97946 -3.502612,-1.15601 -1.247612,-0.22727 -2.522614,-0.41155 -3.774349,-0.10157 -0.170823,0.0565 -0.346789,0.0993 -0.512467,0.1694 -0.967134,0.40943 -1.626822,1.21703 -2.067647,2.14741 -0.399387,1.04463 -0.665387,2.12113 -0.451639,3.24313 0.264567,1.85196 2.883646,1.47781 2.619079,-0.37416 z" />
  <path
     style="fill:#000000;stroke-opacity:0.391521"
     id="path4"
     d="m 36.963674,204.42122 c 2.51419,-1.44322 5.305789,-2.35601 8.100987,-3.08129 1.116139,-0.18675 2.250991,-0.26661 3.377771,-0.1273 0.505204,0.0625 0.988826,0.15602 1.44234,0.39522 0.161074,0.085 0.29645,0.21159 0.444675,0.31738 0.443079,0.31311 0.801057,0.70822 1.139833,1.12589 1.19918,1.43588 3.229821,-0.26001 2.030641,-1.69589 v 0 c -0.527379,-0.62001 -1.075006,-1.2122 -1.759256,-1.66786 -0.32056,-0.18983 -0.623318,-0.41359 -0.961681,-0.56949 -1.92827,-0.88843 -4.359239,-0.65158 -6.382143,-0.33795 -2.997242,0.78568 -5.988156,1.76522 -8.687479,3.31186 -1.647159,0.88693 -0.392848,3.21637 1.254312,2.32943 z" />
  <path
     style="fill:#000000;stroke-opacity:0.391521"
     id="path5"
     d="m 36.110019,225.51343 c 1.21682,-0.9032 2.428868,-1.82633 3.819028,-2.45456 0.379922,-0.17169 0.776135,-0.30478 1.164203,-0.45717 1.58131,-0.58832 3.245967,-0.70995 4.917405,-0.61716 0.387303,0.0215 0.775732,0.047 1.158489,0.10998 0.324412,0.0534 0.638114,0.15865 0.95717,0.23798 1.319086,0.48223 2.299511,1.45578 3.117528,2.56323 1.122499,1.49659 3.238996,-0.0909 2.116497,-1.58745 v 0 c -1.210998,-1.59709 -2.677163,-2.93377 -4.629074,-3.55136 -0.440195,-0.099 -0.874782,-0.22749 -1.320584,-0.29702 -0.448867,-0.07 -0.903807,-0.0979 -1.357528,-0.12069 -2.020738,-0.10161 -4.033953,0.0921 -5.940165,0.80512 -0.468904,0.18947 -0.947512,0.35649 -1.406711,0.56839 -1.625853,0.75027 -3.070398,1.82388 -4.467029,2.92994 -1.322835,1.32283 0.547936,3.1936 1.870771,1.87077 z" />
  <path
     style="fill:#000000;stroke-opacity:0.391521"
     id="path6"
     d="m 23.424862,251.72223 c 0.313117,-0.6954 0.861227,-1.28269 1.39893,-1.81162 0.29304,-0.28825 0.582198,-0.58333 0.905921,-0.83664 0.406083,-0.31776 0.851785,-0.58135 1.277678,-0.87202 2.296959,-1.29966 4.812437,-2.57637 7.516818,-2.61352 0.351097,-0.005 0.700532,0.0492 1.050798,0.0738 0.82978,0.12092 1.622284,0.37241 2.404116,0.66413 1.757031,0.64236 2.665462,-1.84246 0.90843,-2.48482 v 0 c -1.029964,-0.37069 -2.068627,-0.69836 -3.164034,-0.8208 -1.379966,-0.0635 -1.649457,-0.14657 -3.065353,0.0975 -2.562487,0.44161 -4.943893,1.59873 -7.16078,2.91129 -0.522893,0.36881 -1.068297,0.70761 -1.568678,1.10642 -0.373863,0.29798 -0.710271,0.64078 -1.048019,0.97915 -0.849499,0.85104 -1.645907,1.80641 -2.022503,2.96547 -0.453729,1.81491 2.112948,2.45658 2.566676,0.64167 z" />
  <path
     style="fill:#000000;stroke-opacity:0.391521"
     id="path7"
     d="m 44.774203,265.68854 c -0.178373,-1.15236 -0.454824,-2.35884 -0.159738,-3.51876 0.07474,-0.2938 0.214853,-0.56697 0.32228,-0.85045 0.798179,-1.32467 1.893532,-2.85785 3.339494,-3.5365 0.209063,-0.0981 0.435453,-0.15402 0.653179,-0.23103 0.973899,-0.17504 0.455698,-0.10599 1.556824,-0.18976 1.863789,-0.16147 1.635438,-2.79726 -0.228351,-2.63579 v 0 c -1.554146,0.14676 -0.792121,0.0251 -2.286942,0.3596 -0.359484,0.14734 -0.733393,0.26349 -1.078453,0.44202 -1.478706,0.76505 -2.800076,2.18849 -3.693028,3.57025 -0.283197,0.43822 -0.510687,0.91003 -0.76603,1.36504 -0.148836,0.4658 -0.342804,0.91951 -0.446507,1.39738 -0.334202,1.54001 -0.03489,3.15074 0.27737,4.66463 0.591589,1.77477 3.101492,0.93814 2.509902,-0.83663 z" />
  <path
     style="fill:#000000;stroke-opacity:0.391521"
     id="path8"
     d="m 62.664461,275.892 c 0.03428,-0.18199 0.05341,-0.3675 0.102835,-0.54597 0.15046,-0.54329 0.377937,-1.01273 0.655215,-1.50674 0.765421,-1.36371 1.592392,-2.30978 2.623857,-3.47366 0.396022,-0.39482 0.771227,-0.81169 1.188065,-1.18447 1.266352,-1.13251 2.972501,-2.32126 4.572646,-2.93774 0.241034,-0.0929 0.496838,-0.14155 0.745258,-0.21232 0.843139,-0.1603 1.689229,-0.0808 2.531227,0.0264 1.856739,0.22869 2.180162,-2.39714 0.323423,-2.62583 v 0 c -1.210585,-0.14518 -2.423656,-0.21999 -3.624377,0.0682 -0.366844,0.11632 -0.742772,0.20715 -1.10053,0.34897 -1.881813,0.74601 -3.827411,2.11724 -5.318509,3.46163 -0.456526,0.4116 -0.868016,0.87057 -1.302024,1.30585 -0.405769,0.46266 -0.830634,0.90925 -1.217308,1.38798 -1.303468,1.61379 -2.471253,3.45834 -2.802239,5.53802 -0.247248,1.85436 2.375213,2.20403 2.622461,0.34967 z" />
  <path
     style="fill:#000000;stroke-opacity:0.391521"
     id="path9"
     d="m 88.528807,288.23912 c -0.448641,-0.93828 -1.040741,-1.90586 -0.94532,-2.99054 0.01696,-0.19285 0.07849,-0.37915 0.117728,-0.56873 0.345319,-0.86701 1.055638,-1.41984 1.796691,-1.93771 0.75836,-0.52997 0.67192,-0.46188 1.4393,-0.93517 1.11425,-0.63541 2.335665,-1.05312 3.555976,-1.43281 1.785666,-0.55784 0.99677,-3.08315 -0.788896,-2.52532 v 0 c -1.431127,0.44867 -2.859417,0.94861 -4.159556,1.70856 -1.539457,0.95594 -3.191296,1.95641 -4.047301,3.62815 -0.177496,0.34664 -0.274233,0.72901 -0.41135,1.09351 -0.04772,0.37788 -0.134949,0.75284 -0.143167,1.13362 -0.03317,1.53701 0.65074,2.92734 1.353846,4.24684 1.004371,1.57829 3.23642,0.1579 2.232049,-1.4204 z" />
  <path
     style="fill:#000000;stroke-opacity:0.391521"
     id="path10"
     d="m 117.23473,304.01424 c -1.12646,-0.63872 -2.0211,-1.64612 -2.87789,-2.59785 -0.47275,-0.65112 -1.64687,-2.02061 -1.41844,-2.90005 0.0619,-0.23848 0.21186,-0.44503 0.3251,-0.66386 0.18176,-0.35123 0.37317,-0.69737 0.55975,-1.04605 1.10604,-1.6889 2.72521,-2.91878 4.38332,-4.02517 1.5537,-1.04202 0.0801,-3.23928 -1.47364,-2.19726 v 0 c -2.02644,1.36506 -3.96961,2.89924 -5.2633,5.0141 -0.57752,1.15973 -1.07472,1.88193 -1.15767,3.23671 -0.0991,1.61814 1.18111,3.15559 2.08258,4.3561 1.17127,1.29016 2.45605,2.71384 4.11337,3.36721 1.79879,0.51394 2.52562,-2.02994 0.72682,-2.54388 z" />
  <path
     style="fill:#000000;stroke-opacity:0.391521"
     id="path11"
     d="m 138.42429,308.58898 c -0.91858,-0.11685 -1.81757,-0.43421 -2.617,-0.90402 -0.71528,-0.42035 -1.14885,-0.83299 -1.78519,-1.36785 -0.25213,-0.28109 -0.52465,-0.54515 -0.7564,-0.84327 -0.65263,-0.83957 -1.31023,-1.95228 -1.56286,-2.99328 -0.20441,-0.84235 -0.11091,-1.07397 -0.0246,-1.90579 0.17223,-1.08504 0.50532,-1.72411 1.20805,-2.52963 1.19336,-1.44073 -0.84413,-3.12839 -2.03749,-1.68766 v 0 c -0.19773,0.24619 -0.41571,0.47741 -0.59319,0.73858 -0.67642,0.99543 -1.05116,2.10773 -1.21671,3.29575 -0.0666,1.38317 -0.18739,1.65018 0.18538,3.01425 0.36905,1.35043 1.21578,2.77312 2.09101,3.85541 0.31249,0.38643 0.67754,0.72721 1.01631,1.09081 0.37157,0.30567 0.72725,0.63175 1.11471,0.917 1.46273,1.07685 3.15466,1.829 4.97793,1.96537 1.87077,0 1.87077,-2.64567 0,-2.64567 z" />
  <path
     style="fill:#000000;stroke-opacity:0.391521"
     id="path12"
     d="m 165.96503,306.58774 c -0.71498,-1.23187 -1.66066,-2.30603 -2.5074,-3.44363 -0.96039,-1.29029 -1.17569,-1.67965 -2.04653,-3.03958 -1.04181,-1.65316 -1.90508,-3.4707 -1.82951,-5.4741 0.0311,-0.82441 0.16802,-1.03283 0.43819,-1.75498 0.36812,-0.66195 0.15604,-0.4172 0.56059,-0.79352 1.22714,-1.41206 -0.76982,-3.14749 -1.99696,-1.73543 v 0 c -0.81484,1.0124 -0.4517,0.45597 -1.07,1.6818 -0.37886,1.19741 -0.55724,1.47309 -0.5707,2.79147 -0.025,2.44238 0.96279,4.68763 2.24149,6.71322 0.96156,1.49663 1.13559,1.82434 2.19429,3.2472 0.82233,1.10517 1.73925,2.14854 2.43367,3.34531 1.08736,1.52231 3.24023,-0.0154 2.15287,-1.53776 z" />
  <path
     style="fill:#000000;stroke-opacity:0.391521"
     id="path13"
     d="m 184.9032,306.89698 c -1.72356,-1.69362 -3.05366,-3.73398 -4.33304,-5.76926 -0.65736,-1.17916 -1.24174,-2.41417 -1.60792,-3.7184 -0.17491,-0.62299 -0.29191,-1.19332 -0.23564,-1.83852 0.0184,-0.21147 0.0944,-0.41391 0.14161,-0.62087 0.21366,-0.55193 0.59532,-0.97134 0.9969,-1.38936 1.26235,-1.38067 -0.6902,-3.16591 -1.95256,-1.78524 v 0 c -0.78739,0.88679 -1.30273,1.53565 -1.6498,2.7151 -0.0597,0.39938 -0.16251,0.79466 -0.1792,1.19814 -0.098,2.36844 1.17424,4.82181 2.24758,6.84851 1.43742,2.28074 2.93838,4.57295 4.91934,6.42582 1.46082,1.16867 3.11356,-0.89726 1.65273,-2.06592 z" />
  <path
     style="fill:#000000;stroke-opacity:0.391521"
     id="path14"
     d="m 199.33628,290.75991 c 0.0591,-0.23887 0.12864,-0.47539 0.17716,-0.71662 0.0635,-0.31582 0.095,-0.63753 0.15872,-0.95331 0.33534,-1.66207 0.8553,-3.26896 1.43574,-4.85866 0.3755,-0.99504 0.77021,-1.98834 1.28416,-2.92084 0.892,-1.64442 -1.43357,-2.90589 -2.32557,-1.26147 v 0 c -0.56492,1.05364 -1.03423,2.15458 -1.44477,3.27762 -0.75135,2.07122 -1.45029,4.19493 -1.71719,6.3911 -0.73694,1.71951 1.69482,2.76169 2.43175,1.04218 z" />
  <path
     style="fill:#000000;stroke-opacity:0.391521"
     id="path15"
     d="m 220.28757,290.08008 c 0.4479,-1.367 0.87614,-2.78488 1.63202,-4.02221 0.11746,-0.19227 0.26057,-0.36765 0.39086,-0.55148 0.76912,-0.96984 1.79382,-1.64589 2.92115,-2.12673 0.30121,-0.0668 0.16863,-0.0597 0.39491,-0.052 1.86126,-0.18834 1.59492,-2.82056 -0.26635,-2.63223 v 0 c -0.78637,0.1052 -0.39032,0.0217 -1.18632,0.25923 -1.57299,0.69666 -2.99301,1.66225 -4.04183,3.05043 -0.18333,0.27124 -0.38188,0.53278 -0.54998,0.8137 -0.8658,1.44689 -1.38108,3.0882 -1.87713,4.68738 -0.40583,1.82622 2.17684,2.40015 2.58267,0.57393 z" />
  <path
     style="fill:#000000;stroke-opacity:0.391521"
     id="path16"
     d="m 235.13173,302.78832 c 2.45604,-1.33262 4.81159,-2.83298 7.1327,-4.38579 1.55316,-1.1347 3.29609,-2.16615 4.45542,-3.74578 0.15694,-0.21383 0.28339,-0.44846 0.42509,-0.67269 0.0984,-0.2815 0.24616,-0.55036 0.29515,-0.84451 0.24282,-1.45782 -0.5349,-2.78133 -1.25744,-3.97317 -0.10949,-0.14586 -0.21898,-0.29172 -0.32846,-0.43758 -1.1449,-1.47953 -3.23727,0.13959 -2.09237,1.61912 v 0 c 0.0544,0.0659 0.10872,0.13176 0.16309,0.19765 0.27664,0.44839 0.54883,0.90507 0.76376,1.38735 0.0494,0.11079 0.076,0.23098 0.1273,0.34087 0.0205,0.044 0.077,0.0694 0.0866,0.11703 0.0145,0.0721 -0.0126,0.14653 -0.0189,0.2198 -0.90357,1.60983 -2.66912,2.51493 -4.09073,3.59319 -2.26001,1.51302 -4.55384,2.97448 -6.94609,4.27178 -1.63535,0.90853 -0.3505,3.22126 1.28485,2.31273 z" />
  <path
     style="fill:#000000;stroke-opacity:0.391521"
     id="path17"
     d="m 261.8775,305.40842 c 0.65793,-1.27726 0.96376,-2.73119 1.19124,-4.13846 0.264,-2.17427 -0.41406,-3.89933 -1.4485,-5.75353 -0.12801,-0.19537 -0.25602,-0.39074 -0.38403,-0.58611 -1.03324,-1.55955 -3.23878,-0.0983 -2.20554,1.46122 v 0 c 0.0942,0.1401 0.1885,0.28021 0.28274,0.42031 0.71197,1.25764 1.32502,2.56009 1.14178,4.04711 -0.11996,0.79065 -0.27081,1.55283 -0.52659,2.31287 -0.21232,0.63091 -0.251,0.61809 -0.46574,1.21272 -0.0702,0.1945 -0.13002,0.39261 -0.19503,0.58892 -0.30756,1.84532 2.30212,2.28026 2.60967,0.43495 z" />
  <path
     style="fill:#000000;stroke-opacity:0.391521"
     id="path18"
     d="m 288.44737,316.34657 c 2.25201,-2.24212 3.65176,-5.14995 5.01759,-7.97498 1.27467,-3.01975 1.77756,-6.24914 1.58921,-9.51409 -0.0804,-1.39443 -0.25101,-2.18249 -0.4817,-3.51729 -0.10025,-0.41247 -0.2005,-0.82494 -0.30076,-1.23741 -0.44621,-1.81677 -3.01552,-1.18573 -2.56931,0.63105 v 0 c 0.0879,0.3537 0.17586,0.70741 0.26378,1.06112 0.20523,1.16385 0.36453,1.90021 0.44272,3.10881 0.18441,2.85017 -0.22782,5.673 -1.32646,8.31751 -1.2066,2.50278 -2.42344,5.07764 -4.35685,7.11654 -1.42039,1.21748 0.30139,3.22622 1.72178,2.00874 z" />
  <path
     style="fill:#000000;stroke-opacity:0.391521"
     id="path19"
     d="m 317.41083,312.17592 c 0.32227,-0.77151 0.48927,-1.82314 0.6209,-2.62746 0.2124,-1.29785 0.30838,-2.18389 0.34256,-3.51068 0.016,-0.621 -0.0106,-1.24238 -0.0159,-1.86357 -0.13606,-2.48547 -0.78872,-4.87604 -1.96425,-7.07001 -0.4498,-0.8395 -0.9064,-1.47797 -1.43146,-2.25362 -0.13436,-0.21244 -0.26873,-0.42489 -0.4031,-0.63734 -1.00137,-1.5802 -3.23611,-0.16404 -2.23474,1.41616 v 0 c 0.14966,0.23576 0.29933,0.47152 0.44899,0.70728 0.43152,0.63346 0.87067,1.24981 1.24073,1.92388 1.00951,1.83885 1.57089,3.84645 1.6983,5.94058 0.007,0.56074 0.0323,1.12157 0.0202,1.68223 -0.0424,1.97842 -0.33403,3.96963 -0.93197,5.8576 -0.30756,1.84532 2.30212,2.28027 2.60967,0.43495 z" />
  <path
     style="fill:#000000;stroke-opacity:0.391521"
     id="path20"
     d="m 342.10488,314.14865 c 0.024,-0.1603 0.0438,-0.32129 0.0721,-0.4809 0.21964,-1.24073 0.43033,-2.46793 0.5548,-3.72437 0.13585,-1.37145 0.15859,-2.10934 0.23157,-3.49153 0.0895,-2.91774 -0.039,-5.89653 -0.7993,-8.73211 -0.12509,-0.46654 -0.29952,-0.91843 -0.44928,-1.37764 -0.58904,-1.77562 -3.10014,-0.9426 -2.51111,0.83302 v 0 c 0.1252,0.36966 0.273,0.73242 0.37561,1.10898 0.70978,2.60484 0.82204,5.34679 0.74206,8.02897 -0.0844,1.61465 -0.17762,3.21964 -0.39423,4.82321 -0.20077,1.48633 -0.14182,0.82704 -0.36811,2.14975 -0.0354,0.2068 -0.0593,0.4154 -0.0889,0.62309 -0.16937,1.86309 2.46543,2.10262 2.63481,0.23953 z" />
  <path
     style="fill:#000000;stroke-opacity:0.391521"
     id="path21"
     d="m 370.39098,326.78233 c 1.09206,-0.90506 2.29037,-1.67122 3.4023,-2.5506 1.03061,-0.81508 1.14389,-0.95865 2.08289,-1.84239 1.13973,-1.15951 2.09195,-2.4872 2.57596,-4.05477 0.28383,-0.91926 0.33651,-1.52056 0.47624,-2.46476 0.21525,-1.41633 0.11655,-2.76754 -0.12353,-4.16696 -0.33009,-1.84142 -2.93425,-1.37459 -2.60415,0.46683 v 0 c 0.20859,1.09647 0.27659,2.21233 0.10915,3.32212 -0.0999,0.71351 -0.14702,1.23248 -0.33836,1.92302 -0.32948,1.18909 -1.06492,2.17539 -1.91196,3.05115 -0.81413,0.77209 -0.94988,0.93403 -1.85057,1.64692 -1.15314,0.91269 -2.39851,1.70502 -3.52692,2.64977 -1.42812,1.20841 0.28083,3.22808 1.70895,2.01967 z" />
  <path
     style="fill:#000000;stroke-opacity:0.391521"
     id="path22"
     d="m 404.38733,334.57806 c 0.0416,-0.0566 0.0949,-0.1062 0.12476,-0.16973 0.14342,-0.30481 0.25847,-0.62221 0.39317,-0.93097 0.55538,-1.27305 0.8274,-1.82047 1.39499,-3.14872 0.2716,-0.63559 0.58423,-1.25688 0.79455,-1.9153 0.25483,-0.79777 0.39789,-1.62702 0.59683,-2.44054 0.10669,-0.81741 0.25575,-1.6304 0.32006,-2.45223 0.19582,-2.50221 0.007,-5.19447 -0.63339,-7.62842 -0.0989,-0.37556 -0.23321,-0.74088 -0.34981,-1.11132 -0.45565,-1.0971 -0.20848,-0.58927 -0.72495,-1.53141 -0.9174,-1.63039 -3.22312,-0.33299 -2.30572,1.29739 v 0 c 0.35246,0.60055 0.17385,0.2585 0.51045,1.03902 0.0966,0.29703 0.20807,0.58963 0.2898,0.8911 0.57199,2.10987 0.74508,4.53805 0.58918,6.70917 -0.0523,0.72885 -0.17981,1.45034 -0.26972,2.17552 -0.15554,0.67944 -0.25571,1.37399 -0.46662,2.03834 -0.2032,0.64003 -0.50749,1.24351 -0.77133,1.86101 -1.1775,2.75584 -0.33805,0.69833 -1.41572,3.19703 -0.16097,0.37321 -0.33494,0.74204 -0.466,1.12678 -0.11026,0.32367 -0.1708,0.66219 -0.2562,0.99328 0,1.87077 2.64567,1.87077 2.64567,0 z" />
  <path
     style="fill:#000000;stroke-opacity:0.391521"
     id="path23"
     d="m 428.27264,335.279 c 0.0147,-0.18121 0.0196,-0.36347 0.044,-0.54362 0.28476,-2.10067 0.72377,-4.17774 0.92379,-6.2915 0.0609,-0.64366 0.0835,-1.29039 0.12519,-1.93558 -9.2e-4,-2.13434 -0.0879,-4.42395 -1.08724,-6.37144 -0.57859,-1.12758 -0.92477,-1.36253 -1.77791,-2.25088 -1.25118,-1.01871 -0.62667,-0.55634 -1.86462,-1.39905 -1.55091,-1.04617 -3.03041,1.14715 -1.47951,2.19332 v 0 c 0.98012,0.6536 0.49043,0.29968 1.46469,1.06779 0.48781,0.46962 0.86622,0.76199 1.19878,1.36608 0.86618,1.5734 0.8832,3.48934 0.90544,5.22684 -0.0366,0.59106 -0.0544,1.18358 -0.10985,1.77316 -0.0727,0.77231 -0.36502,2.81083 -0.48374,3.58591 -0.038,0.24832 -0.40582,2.45511 -0.45344,2.83951 -0.0304,0.2452 -0.0342,0.49297 -0.0512,0.73946 0,1.87077 2.64567,1.87077 2.64567,0 z" />
  <path
     style="fill:#000000;stroke-opacity:0.391521"
     id="path24"
     d="m 462.66871,322.43848 c -0.14043,-0.26013 -0.2624,-0.5311 -0.42128,-0.78038 -1.18812,-1.86422 -2.83864,-3.67278 -4.53609,-5.0829 -0.42179,-0.35039 -0.87259,-0.6643 -1.30888,-0.99645 -1.65225,-1.18222 -3.44774,-2.1565 -5.41779,-2.67325 -0.74887,-0.10643 -0.38988,-0.0765 -1.07598,-0.1008 -1.87034,-0.0399 -1.92673,2.6052 -0.0564,2.64507 v 0 c 0.30579,-0.003 0.14652,-0.008 0.47768,0.0191 1.63491,0.40078 3.10195,1.26857 4.47544,2.21913 0.38122,0.28684 0.77483,0.55791 1.14366,0.8605 0.96676,0.79314 1.44724,1.28561 2.2818,2.22475 0.60308,0.67866 1.19456,1.38882 1.69337,2.15068 0.12704,0.19404 0.22395,0.40621 0.33593,0.60932 0.77413,1.70309 3.18266,0.6083 2.40853,-1.09479 z" />
  <path
     style="fill:#000000;stroke-opacity:0.391521"
     id="path25"
     d="m 490.70203,315.06017 c -1.24089,-1.92419 -2.45581,-3.87143 -3.84963,-5.6911 -0.52898,-0.69059 -1.09466,-1.35229 -1.64199,-2.02844 -1.48596,-1.74251 -3.0149,-3.45264 -4.62325,-5.08383 -0.61355,-0.62226 -1.49303,-1.47592 -2.1899,-2.03857 -0.3177,-0.25651 -0.65882,-0.48258 -0.98823,-0.72386 -1.05194,-0.64113 -2.1471,-1.32796 -3.38365,-1.547 -0.84389,-0.14948 -1.19135,-0.0915 -2.02404,-0.0559 -1.05414,0.12202 -0.54649,0.0415 -1.52413,0.23385 -1.83336,0.37226 -1.30691,2.96502 0.52645,2.59277 v 0 c 0.707,-0.14995 0.32849,-0.0845 1.13751,-0.18465 0.35784,-0.0244 0.84176,-0.0779 1.20659,-0.0286 0.92083,0.12442 1.72269,0.6837 2.50779,1.13113 0.26558,0.19032 0.54179,0.36662 0.79674,0.57095 0.64435,0.51639 1.45941,1.3074 2.02133,1.87693 1.55874,1.57986 3.04076,3.23607 4.48178,4.92311 0.51687,0.63632 1.05145,1.25866 1.55061,1.90897 1.33936,1.74489 2.50139,3.61486 3.69894,5.45691 0.92816,1.62428 3.22524,0.31166 2.29708,-1.31262 z" />
  <path
     style="fill:#000000;stroke-opacity:0.391521"
     id="path26"
     d="m 522.2215,301.93481 c -0.0295,-0.21708 -0.0277,-0.4408 -0.0886,-0.65125 -0.37855,-1.30843 -1.18626,-2.50807 -1.8913,-3.6529 -0.97641,-1.58546 -1.0642,-1.68207 -2.12828,-3.26926 -1.08729,-1.64877 -2.30124,-3.19853 -3.60658,-4.67838 -0.98298,-1.11439 -1.45039,-1.66383 -2.64234,-2.58988 -0.497,-0.38613 -1.0393,-0.71012 -1.55896,-1.06518 -1.67163,-0.93719 -3.41568,-1.86334 -5.3399,-2.13763 -0.86736,-0.12363 -1.34807,-0.0768 -2.19494,-0.0515 -0.278,0.0355 -0.55601,0.071 -0.83401,0.10643 -1.85384,0.25114 -1.49867,2.87286 0.35517,2.62172 v 0 c 0.19093,-0.0281 0.38187,-0.0561 0.57281,-0.0842 0.55255,-0.0237 1.02054,-0.0647 1.57569,4.6e-4 1.58235,0.18569 3.00422,1.00225 4.38399,1.7368 1.15485,0.76982 1.51531,0.93346 2.51947,1.91487 0.41059,0.40128 0.77778,0.84477 1.15839,1.27459 1.23798,1.39801 2.38579,2.86483 3.41408,4.42563 1.05484,1.57161 1.08791,1.5876 2.05762,3.15805 0.66977,1.08469 0.7696,1.25875 1.32306,2.2837 0.0771,0.14278 0.16141,0.28241 0.22476,0.4318 0.0302,0.0713 0.0362,0.15069 0.0542,0.22604 0,1.87077 2.64567,1.87077 2.64567,0 z" />
  <path
     style="fill:#000000;stroke-opacity:0.391521"
     id="path27"
     d="m 555.78394,289.78152 c -1.51937,-1.62545 -2.95224,-3.33433 -4.56589,-4.86998 -0.39159,-0.37266 -0.80062,-0.72655 -1.20093,-1.08982 -1.69261,-1.50355 -3.57283,-2.79697 -5.64561,-3.72194 -1.12128,-0.50036 -2.32231,-0.87432 -3.48324,-1.26548 -2.46718,-0.82705 -5.01216,-1.38004 -7.53888,-1.98824 -0.83596,-0.22174 -0.43794,-0.11472 -1.19425,-0.32034 -1.80526,-0.4907 -2.49923,2.06233 -0.69396,2.55304 v 0 c 0.79244,0.21535 0.36951,0.10181 1.26909,0.33951 2.45121,0.58998 4.92077,1.12412 7.31499,1.9238 0.91437,0.30662 2.23848,0.72558 3.13468,1.11986 1.86102,0.81874 3.54614,1.97264 5.06111,3.32069 0.36933,0.33381 0.74695,0.65867 1.10798,1.00144 1.61492,1.53323 3.03838,3.2499 4.56414,4.86823 1.32284,1.32284 3.19361,-0.54793 1.87077,-1.87077 z" />
  <path
     style="fill:#000000;stroke-opacity:0.391521"
     id="path28"
     d="m 579.87185,290.92599 c 1.05398,-2.00887 1.6278,-4.26432 1.72056,-6.53062 0.0209,-0.51121 -0.009,-1.02324 -0.0134,-1.53487 -0.19201,-1.98053 -0.83718,-3.88027 -1.73639,-5.64793 -0.33515,-0.65884 -0.61413,-1.07298 -0.99859,-1.68052 -0.18802,-0.22139 -0.35174,-0.46596 -0.56406,-0.66417 -1.04407,-0.9747 -2.47886,-1.24633 -3.81561,-1.57935 -0.57087,-0.159 -1.16544,-0.2154 -1.73297,-0.38763 -0.40013,-0.12142 -0.53776,-0.20024 -0.92057,-0.37521 -1.70894,-0.76112 -2.78532,1.65569 -1.07638,2.41681 v 0 c 0.22535,0.0985 0.44666,0.20691 0.67604,0.29567 0.78089,0.30218 1.6015,0.43585 2.41459,0.61763 0.60994,0.15181 1.2226,0.29278 1.82043,0.48861 0.12332,0.0404 0.52423,0.17214 0.65014,0.27333 0.11912,0.0957 0.21014,0.22195 0.31521,0.33292 0.28642,0.44886 0.58796,0.90139 0.8318,1.37533 0.73635,1.43115 1.29336,2.96622 1.49091,4.56863 0.008,0.42523 0.036,0.8506 0.0228,1.27569 -0.0562,1.81011 -0.50404,3.59311 -1.25189,5.23849 -1.07282,1.53259 1.0946,3.04978 2.16741,1.51719 z" />
  <path
     style="fill:#000000;stroke-opacity:0.391521"
     id="path29"
     d="m 613.58278,286.01127 c -0.0483,-0.52912 -0.0634,-0.89504 -0.20803,-1.43113 -0.37493,-1.38969 -0.97812,-2.80077 -1.73366,-4.02416 -0.31928,-0.51699 -0.70092,-0.99277 -1.05139,-1.48916 -1.74743,-2.16926 -3.91996,-3.90105 -6.35122,-5.2469 -1.20915,-0.66935 -2.59898,-1.27901 -3.8561,-1.85524 -0.57722,-0.24415 -1.15444,-0.4883 -1.73166,-0.73246 -1.7232,-0.72826 -2.75311,1.70872 -1.02991,2.43698 v 0 c 0.55336,0.23365 1.10672,0.4673 1.66007,0.70095 1.12305,0.51371 2.50622,1.12251 3.59061,1.71492 2.12261,1.15958 4.02789,2.64677 5.56657,4.52123 0.28928,0.39776 0.60571,0.77713 0.86786,1.19327 0.62339,0.98962 1.14301,2.14799 1.46968,3.27454 0.0926,0.31946 0.12151,0.61549 0.16152,0.93716 0,1.87077 2.64566,1.87077 2.64566,0 z" />
  <path
     style="fill:#000000;stroke-opacity:0.391521"
     id="path30"
     d="m 643.10805,268.7862 c -1.62627,-2.5204 -3.7006,-4.70537 -5.81241,-6.8186 -1.90435,-1.94082 -4.0529,-3.59832 -6.33903,-5.05909 -0.83365,-0.51522 -1.7413,-0.8708 -2.72702,-0.55696 -0.21299,0.0678 -0.40074,0.19813 -0.60111,0.2972 -1.60808,0.95598 -0.25612,3.23013 1.35195,2.27416 v 0 c -0.0421,-0.006 -0.44688,-0.17971 -0.19191,-0.13768 0.17721,0.0292 0.62996,0.29217 0.74544,0.35389 2.12708,1.35379 4.1219,2.89551 5.89128,4.69962 1.96144,1.95849 3.89056,3.98036 5.41416,6.30865 0.96251,1.60417 3.23115,0.24299 2.26865,-1.36119 z" />
  <path
     style="fill:#000000;stroke-opacity:0.391521"
     id="path31"
     d="m 662.62018,254.08153 c -1.12559,-1.53377 -2.33275,-3.14631 -3.82627,-4.34198 -0.57906,-0.46358 -1.21158,-0.8561 -1.81737,-1.28415 -1.8884,-1.17715 -3.87311,-2.19625 -5.92131,-3.06503 -0.56826,-0.24104 -1.14902,-0.45145 -1.72354,-0.67718 -1.74183,-0.68251 -2.70703,1.78081 -0.9652,2.46332 v 0 c 2.46806,0.96423 4.84974,2.02549 7.09655,3.44888 0.5075,0.34845 1.03874,0.66463 1.52252,1.04533 1.46137,1.15 2.54656,2.70135 3.65722,4.1685 1.24288,1.39823 3.22027,-0.35945 1.9774,-1.75769 z" />
  <path
     style="fill:#000000;stroke-opacity:0.391521"
     id="path32"
     d="m 663.73372,226.3501 c 0.22308,-0.0617 0.44375,-0.13286 0.66923,-0.18508 0.88359,-0.20461 1.90781,-0.38591 2.79478,-0.53004 0.66605,-0.10823 2.16836,-0.33758 2.87543,-0.38392 0.34771,-0.0228 0.69691,-0.001 1.04536,-0.002 0.26113,0.0547 0.5318,0.0753 0.7834,0.16414 0.56595,0.19972 1.20622,0.66724 1.67003,1.00519 0.83751,0.61024 1.20185,0.92891 1.9951,1.58139 1.44567,1.18736 3.12486,-0.85712 1.67919,-2.04448 v 0 c -1.46523,-1.2018 -3.01925,-2.60267 -4.87646,-3.14608 -0.41325,-0.12091 -0.85015,-0.13715 -1.27522,-0.20573 -0.4413,0.006 -0.88355,-0.0103 -1.3239,0.0194 -0.74067,0.0499 -2.32406,0.291 -3.02897,0.40617 -0.86894,0.14197 -2.22891,0.38009 -3.09577,0.60106 -0.34895,0.089 -0.68734,0.21511 -1.03102,0.32267 -1.69526,0.79112 -0.57644,3.18858 1.11882,2.39746 z" />
  <path
     style="fill:#000000;stroke-opacity:0.391521"
     id="path33"
     d="m 672.88516,201.50769 c 0.28395,0.0887 0.0669,0.0466 0.59812,-0.30919 0.94714,-0.63442 1.89919,-1.24705 2.97366,-1.65266 0.39282,-0.14828 0.80315,-0.24519 1.20472,-0.36779 0.4188,-0.0681 0.83327,-0.17267 1.25639,-0.2042 2.36755,-0.17644 4.67718,0.72324 6.84258,1.55331 1.74741,0.66807 2.6922,-1.80316 0.94479,-2.47122 v 0 c -2.63339,-1.00432 -5.36734,-1.95766 -8.23624,-1.68941 -0.54006,0.0505 -1.06773,0.19189 -1.60159,0.28783 -0.50644,0.1631 -1.02322,0.29701 -1.51931,0.48931 -1.21743,0.47193 -2.38097,1.16097 -3.43558,1.92578 -0.31515,0.22854 -0.64696,0.44139 -0.92182,0.71708 -0.23148,0.23217 -0.38863,0.52813 -0.58294,0.7922 -0.65687,1.75166 1.82034,2.68062 2.47722,0.92896 z" />
  <path
     style="fill:#000000;stroke-opacity:0.391521"
     id="path34"
     d="m 678.70864,164.29495 c 1.80719,-1.72095 3.97058,-3.00851 6.16423,-4.16979 0.73772,-0.33142 1.5156,-0.77669 2.34928,-0.82119 0.52632,-0.0281 1.09793,0.24238 1.57825,0.41346 1.7685,0.61009 2.6313,-1.89093 0.86281,-2.50103 v 0 c -0.62593,-0.21103 -1.14921,-0.42075 -1.82091,-0.49178 -1.53155,-0.16196 -2.87066,0.38966 -4.20942,1.06345 -2.47313,1.31486 -4.91441,2.78014 -6.9153,4.76469 -1.23192,1.4079 0.75915,3.15009 1.99106,1.74219 z" />
  <path
     style="fill:#000000;stroke-opacity:0.391521"
     id="path35"
     d="m 678.67024,133.51961 c 0.63093,-1.24942 1.50924,-2.336 2.56996,-3.24855 0.25783,-0.22181 0.53775,-0.41657 0.80662,-0.62486 1.79259,-0.57622 3.61825,-0.51874 5.41474,-0.0242 0.14909,0.0603 0.29819,0.12068 0.44728,0.18102 1.74524,0.67373 2.69805,-1.79441 0.95281,-2.46815 v 0 c -0.2401,-0.0899 -0.48019,-0.1798 -0.72028,-0.26971 -0.2951,-0.0764 -0.58671,-0.16793 -0.88531,-0.22934 -1.22563,-0.25205 -2.49766,-0.32505 -3.74233,-0.17864 -0.52379,0.0616 -1.05173,0.12813 -1.55789,0.27631 -0.53309,0.15607 -1.02813,0.42086 -1.5422,0.63129 -0.33406,0.26479 -0.68195,0.51301 -1.00216,0.79438 -1.27051,1.11643 -2.57653,2.60852 -3.16651,4.22049 -0.11061,0.30221 -0.14694,0.62663 -0.2204,0.93995 0,1.87077 2.64567,1.87077 2.64567,0 z" />
  <path
     style="fill:#000000;stroke-opacity:0.391521"
     id="path36"
     d="m 676.28752,110.14606 c 0.021,-0.0843 0.0309,-0.17211 0.0629,-0.25285 0.0534,-0.1347 0.12612,-0.26096 0.19197,-0.39004 0.48102,-0.94283 0.9989,-1.85575 1.66166,-2.68647 0.24162,-0.30284 0.51411,-0.57973 0.77116,-0.8696 0.58303,-0.52227 0.90061,-0.88652 1.60922,-1.22539 1.23365,-0.58994 2.82853,-0.59105 4.16438,-0.61861 0.29838,0.0231 0.59676,0.0461 0.89514,0.0692 1.86611,0.1319 2.05265,-2.50718 0.18653,-2.63908 v 0 c -0.38182,-0.025 -0.76364,-0.05 -1.14546,-0.075 -1.89365,0.0512 -3.83115,0.15164 -5.55002,1.05021 -0.95248,0.49792 -1.37169,0.97825 -2.14938,1.69481 -0.31222,0.35962 -0.64247,0.70433 -0.93666,1.07884 -0.91573,1.16575 -1.78415,2.59276 -2.27308,4.0018 -0.0479,0.13805 -0.0654,0.28484 -0.0981,0.42725 -0.30755,1.84532 2.30212,2.28027 2.60968,0.43495 z" />
  <path
     style="fill:#000000;stroke-opacity:0.391521"
     id="path37"
     d="m 668.51898,95.796448 c 0.30008,0.09636 0.0493,0.04082 0.43664,-0.601034 0.40533,-0.671606 1.31213,-2.147467 1.70119,-2.743606 0.87852,-1.3461 1.16421,-1.708432 2.09266,-2.989498 0.79104,-0.950511 1.50932,-2.002193 2.47464,-2.794542 0.26582,-0.21819 0.62698,-0.452743 0.98248,-0.515736 0.11272,-0.01997 0.22888,0.006 0.34331,0.0091 0.14229,0.01767 0.28458,0.03533 0.42686,0.053 1.86637,0.128296 2.04781,-2.511144 0.18144,-2.639441 v 0 c -0.3088,-0.01334 -0.61761,-0.02669 -0.92641,-0.04003 -0.34948,0.05921 -0.70907,0.07529 -1.04842,0.177626 -1.99829,0.6026 -3.31236,2.703182 -4.57671,4.198318 -1.10788,1.53104 -2.16668,3.074968 -3.16131,4.682507 -0.26093,0.421725 -1.12949,1.802498 -1.35601,2.35805 -0.10981,0.269306 -0.14402,0.563554 -0.21603,0.84533 0,1.870771 2.64567,1.870771 2.64567,0 z" />
  <path
     style="fill:#000000;stroke-opacity:0.391521"
     id="path38"
     d="m 664.70876,78.027849 c 0.59208,-1.602953 1.76628,-2.950599 3.1855,-3.892408 0.49221,-0.326628 1.0341,-0.571347 1.55115,-0.85702 0.67806,-0.22984 1.34389,-0.499517 2.03417,-0.689521 3.05006,-0.839547 6.25136,-1.071951 9.40112,-1.019855 1.87056,0.02827 1.91054,-2.617093 0.04,-2.645367 v 0 c -3.42651,-0.04739 -7.01278,0.206887 -10.31508,1.168078 -0.83827,0.243994 -1.64338,0.590116 -2.46507,0.885174 -0.64192,0.371427 -1.31641,0.691538 -1.92576,1.114281 -1.70653,1.183925 -3.41308,3.079828 -3.98664,5.125953 -0.0938,0.334481 -0.10393,0.68693 -0.1559,1.030396 0.15536,1.864308 2.79189,1.644597 2.63653,-0.219711 z" />
  <path
     style="fill:#000000;stroke-opacity:0.391521"
     id="path39"
     d="m 655.18302,64.156992 c 0.31929,-1.413782 0.79356,-2.799009 1.3279,-4.144651 0.59604,-1.501033 1.07628,-2.607116 1.96445,-3.962109 0.38885,-0.59324 0.85509,-1.131987 1.28263,-1.697981 1.24071,-1.367193 2.70275,-2.481244 4.29038,-3.41208 0.3749,-0.219807 0.76746,-0.408011 1.15119,-0.612016 1.64925,-0.883029 0.40046,-3.215428 -1.24879,-2.3324 v 0 c -0.44164,0.237903 -0.89372,0.457348 -1.3249,0.713707 -1.85731,1.10427 -3.55575,2.430726 -4.9872,4.059109 -0.48975,0.661553 -1.02302,1.293005 -1.46925,1.984658 -0.95483,1.479979 -1.50388,2.732073 -2.14619,4.358539 -0.41076,1.040146 -0.99147,2.709632 -1.27013,3.827697 -0.0997,0.399932 -0.14384,0.811685 -0.21576,1.217527 0,1.870771 2.64567,1.870771 2.64567,0 z" />
  <path
     style="fill:#000000;stroke-opacity:0.391521"
     id="path40"
     d="m 637.7421,54.726907 c 0.98579,-2.492818 2.47649,-4.774322 4.10535,-6.893365 0.38231,-0.497358 0.79621,-0.969621 1.19431,-1.454431 1.3798,-1.561283 3.0859,-2.715842 4.97875,-3.55147 1.70766,-0.763997 0.6272,-3.178988 -1.08046,-2.414991 v 0 c -0.29693,0.134253 -0.59979,0.256121 -0.89081,0.402757 -1.91771,0.966265 -3.62302,2.285618 -5.05437,3.887452 -0.43113,0.527774 -0.87888,1.042405 -1.2934,1.583322 -1.78832,2.333608 -3.40938,4.852286 -4.46927,7.604092 -0.59159,1.774769 1.91831,2.611403 2.5099,0.836634 z" />
  <path
     style="fill:#000000;stroke-opacity:0.391521"
     id="path41"
     d="m 622.93786,40.048835 c 0.21873,-2.242677 1.3399,-4.304229 2.7089,-6.055037 0.38328,-0.490173 0.81659,-0.939087 1.22488,-1.408631 0.96665,-1.066403 2.06578,-1.987589 3.18973,-2.879092 1.46363,-1.165141 -0.18412,-3.235034 -1.64776,-2.069893 v 0 c -1.24959,0.997946 -2.47327,2.026753 -3.54523,3.220836 -0.4652,0.543 -0.96084,1.061331 -1.39559,1.628998 -1.67989,2.193477 -2.98727,4.771516 -3.1806,7.562819 0,1.870771 2.64567,1.870771 2.64567,0 z" />
  <path
     style="fill:#000000;stroke-opacity:0.391521"
     id="path42"
     d="m 613.25652,38.593502 c -0.47967,-1.114046 -0.85762,-2.266996 -1.28413,-3.401189 -0.42176,-1.121575 -0.62403,-1.573084 -1.09056,-2.683682 -0.52219,-1.145042 -1.06085,-2.286668 -1.70609,-3.368896 -0.31079,-0.521286 -0.67918,-1.13981 -1.21643,-1.468698 -0.38408,-0.235126 -0.83814,-0.329763 -1.25721,-0.494644 -0.46099,-0.0023 -0.92199,-0.0046 -1.38298,-0.0069 -1.86906,0.07991 -1.75605,2.723164 0.11301,2.643254 v 0 c 0.18438,-0.02989 0.36877,-0.05977 0.55315,-0.08966 0.0693,-0.02743 0.13511,-0.09855 0.20781,-0.08229 0.31437,0.07034 0.57883,0.632814 0.67729,0.796953 0.59608,0.993627 1.0897,2.044422 1.5725,3.0961 0.42863,1.018921 0.6522,1.522155 1.03846,2.549641 0.41013,1.090971 0.76152,2.20608 1.24109,3.270218 0.53756,1.791874 3.07166,1.031646 2.53409,-0.760227 z" />
  <path
     style="fill:#000000;stroke-opacity:0.391521"
     id="path43"
     d="m 594.88314,46.994844 c 0.11331,-0.920496 0.0771,-1.875289 -0.36139,-2.719685 -0.33506,-0.645253 -0.827,-1.134462 -1.30344,-1.666295 -1.24657,-1.285135 -2.54912,-2.52241 -3.98236,-3.597476 -1.39426,-0.884432 -2.84815,-1.686089 -4.32479,-2.426417 -1.67351,-0.836141 -2.85599,1.530567 -1.18248,2.366708 v 0 c 1.33974,0.666646 2.65096,1.40253 3.92725,2.18176 1.30299,0.961136 2.46341,2.101275 3.60046,3.250365 0.78813,0.860134 1.16559,0.990149 1.00767,2.236886 -0.26456,1.851968 2.35452,2.226122 2.61908,0.374154 z" />
  <path
     style="fill:#000000;stroke-opacity:0.391521"
     id="path44"
     d="m 578.15292,51.186739 c -0.0564,-0.260282 -0.0776,-0.530746 -0.16906,-0.780846 -0.4671,-1.276693 -1.44978,-2.354307 -2.281,-3.397935 -0.53022,-0.665709 -1.63829,-2.020109 -2.17899,-2.682902 -0.85647,-0.990848 -1.66948,-2.019296 -2.54519,-2.993636 -0.31014,-0.345063 -0.74453,-0.818087 -1.11891,-1.109869 -0.18747,-0.146104 -0.39654,-0.262146 -0.5948,-0.39322 -0.41375,-0.08156 -0.82751,-0.163131 -1.24126,-0.244697 -1.86526,-0.143389 -2.06805,2.494498 -0.20278,2.637887 v 0 c 0.0162,-0.04852 0.0323,-0.09704 0.0484,-0.145554 0.45254,0.232699 0.7768,0.617967 1.11437,0.993202 0.85711,0.952753 1.65165,1.959514 2.4901,2.928292 0.55044,0.67472 1.6042,1.962659 2.14759,2.643657 0.24229,0.303649 1.22967,1.546821 1.53493,1.995435 0.10599,0.155776 0.18054,0.331106 0.28186,0.489966 0.0164,0.02575 0.046,0.04015 0.069,0.06022 0,1.870771 2.64567,1.870771 2.64567,0 z" />
  <path
     style="fill:#000000;stroke-opacity:0.391521"
     id="path45"
     d="m 563.02556,56.863784 c -0.0291,-0.220379 -0.03,-0.44637 -0.0873,-0.661138 -0.19608,-0.734304 -0.48629,-1.267637 -0.84996,-1.933675 -0.56696,-1.038363 -1.21678,-2.022371 -1.86801,-3.008636 -0.91964,-1.365748 -1.81636,-2.754147 -2.92735,-3.974214 -0.76071,-0.790349 -1.64476,-1.056979 -2.69536,-1.207228 -1.85445,-0.246564 -2.20314,2.376026 -0.34869,2.62259 v 0 c 0.4119,0.0473 0.78669,0.06626 1.0958,0.374579 1.02769,1.10498 1.81196,2.406652 2.66819,3.642673 0.60313,0.912327 1.19807,1.822723 1.73192,2.778077 0.20427,0.365553 0.42969,0.723574 0.57956,1.114592 0.0308,0.08044 0.037,0.168254 0.0555,0.25238 0,1.870771 2.64567,1.870771 2.64567,0 z" />
  <path
     style="fill:#000000;stroke-opacity:0.391521"
     id="path46"
     d="m 541.32974,63.257008 c -0.14452,-1.200522 -0.43736,-2.406595 -0.88412,-3.53283 -0.3617,-0.91181 -0.61919,-1.315261 -1.09203,-2.174504 -1.79635,-2.690902 -3.92393,-5.146013 -6.20673,-7.432786 -1.32256,-1.323103 -3.19371,0.547289 -1.87114,1.870392 v 0 c 2.11237,2.110162 4.0735,4.379683 5.76359,6.844454 0.33118,0.593145 0.64509,1.107718 0.89913,1.7372 0.34801,0.862314 0.56192,1.779438 0.74563,2.688074 0,1.87077 2.64567,1.87077 2.64567,0 z" />
  <path
     style="fill:#000000;stroke-opacity:0.391521"
     id="path47"
     d="m 527.42971,64.139394 c -1.69185,-2.680214 -3.71577,-5.119976 -5.81563,-7.485358 -1.22456,-1.326361 -2.50884,-2.64235 -4.04502,-3.613432 -0.27099,-0.171306 -0.55966,-0.312907 -0.83949,-0.46936 -1.63988,-0.900324 -2.91313,1.418814 -1.27325,2.319138 v 0 c 0.20045,0.107232 0.40804,0.202084 0.60136,0.321697 1.36806,0.846451 2.49166,2.031115 3.57847,3.199054 2.02049,2.272791 3.96736,4.617701 5.59223,7.195814 1.03772,1.556575 3.23905,0.08902 2.20133,-1.467553 z" />
  <path
     style="fill:#000000;stroke-opacity:0.391521"
     id="path48"
     d="m 510.71286,69.359531 c -1.1787,-2.771217 -2.91838,-5.26834 -4.74957,-7.642601 -0.98423,-1.285881 -2.10476,-2.492555 -3.4716,-3.378735 -0.54295,-0.352015 -0.70319,-0.40061 -1.26477,-0.652975 -0.1877,-0.05962 -0.3754,-0.119241 -0.5631,-0.178862 -1.79194,-0.537338 -2.55185,1.996848 -0.75991,2.534186 v 0 c 0.088,0.02305 0.17602,0.04611 0.26403,0.06916 1.54923,0.643739 2.69562,1.922494 3.70208,3.225182 1.65653,2.138153 3.2195,4.385748 4.33294,6.861276 0.59159,1.774769 3.10149,0.938135 2.5099,-0.836634 z" />
  <path
     style="fill:#000000;stroke-opacity:0.391521"
     id="path49"
     d="m 490.31477,73.21476 c -1.41435,-2.940066 -3.35958,-5.561845 -5.29298,-8.172794 -0.49263,-0.633221 -0.98526,-1.266441 -1.47788,-1.899661 -1.14896,-1.476379 -3.23687,0.148484 -2.08792,1.624862 v 0 c 0.47997,0.616546 0.95994,1.233093 1.4399,1.849639 1.84301,2.486892 3.70545,4.979266 5.05252,7.781134 0.83664,1.673268 3.20299,0.490089 2.36636,-1.18318 z" />
  <path
     style="fill:#000000;stroke-opacity:0.391521"
     id="path50"
     d="m 463.7025,75.000615 c -0.0392,-2.552879 -0.70524,-5.061459 -1.38276,-7.508019 -0.61908,-2.258705 -1.5801,-4.291146 -2.77834,-6.289223 -0.96329,-1.6037 -3.23127,-0.2414 -2.26798,1.3623 v 0 c 1.06549,1.770683 1.95462,3.630658 2.49702,5.634472 0.39006,1.402026 0.74672,2.796216 1.00497,4.229577 0.0997,0.553551 0.24313,1.406255 0.28142,2.004145 0.0121,0.18853 0,0.377832 0,0.566748 0,1.870771 2.64567,1.870771 2.64567,0 z" />
  <path
     style="fill:#000000;stroke-opacity:0.391521"
     id="path51"
     d="m 447.94216,71.271937 c -0.51067,-1.162731 -0.81454,-2.40678 -1.31143,-3.574348 -0.57834,-1.358948 -1.17676,-2.401258 -1.87733,-3.709878 -1.48698,-2.66459 -3.12138,-5.242286 -4.82874,-7.769761 -1.04767,-1.549896 -3.23955,-0.06827 -2.19189,1.481624 v 0 c 1.65842,2.451763 3.24309,4.954182 4.68898,7.538328 0.54008,1.005614 1.26621,2.294386 1.7232,3.365485 0.53732,1.259369 0.85319,2.607641 1.43086,3.851729 0.83663,1.673268 3.20299,0.490089 2.36635,-1.183179 z" />
  <path
     style="fill:#000000;stroke-opacity:0.391521"
     id="path52"
     d="m 426.68028,67.015038 c 0.005,-2.21067 0.0327,-4.429072 -0.33376,-6.617316 -0.0944,-0.563497 -0.2331,-1.118659 -0.34965,-1.677989 -0.57389,-1.980506 -0.26644,-1.035897 -0.90948,-2.837985 -0.63177,-1.760868 -3.12201,-0.86742 -2.49025,0.893449 v 0 c 0.57285,1.5869 0.29919,0.757932 0.81094,2.490196 0.27777,1.300945 0.40117,1.693101 0.52385,3.033433 0.14344,1.567095 0.0866,3.145328 0.10268,4.716212 0,1.870771 2.64567,1.870771 2.64567,0 z" />
  <path
     style="fill:#000000;stroke-opacity:0.391521"
     id="path53"
     d="m 407.73524,59.528329 c -0.0507,-0.116097 -0.1227,-0.225059 -0.15204,-0.34829 -0.0506,-0.212548 -0.0561,-0.433369 -0.0856,-0.649855 -0.17359,-1.272352 -0.28887,-2.778713 -0.61217,-4.005095 -0.13325,-0.505501 -0.33722,-0.989664 -0.50583,-1.484496 -0.32524,-0.515293 -0.59339,-1.0714 -0.97573,-1.545878 -1.74465,-2.165114 -4.28677,-3.48735 -6.71142,-4.72328 -1.66819,-0.846723 -2.86564,1.512448 -1.19745,2.359171 v 0 c 2.02796,1.02448 4.16449,2.098607 5.70298,3.824791 0.26238,0.294392 0.45739,0.642519 0.68609,0.963779 0.13338,0.362938 0.29967,0.715425 0.40014,1.088815 0.45547,1.69281 0.40158,3.52674 0.8786,5.240247 0.0453,0.162827 0.13741,0.308847 0.20612,0.46327 0.83663,1.673269 3.20299,0.490089 2.36636,-1.183179 z" />
  <path
     style="fill:#000000;stroke-opacity:0.391521"
     id="path54"
     d="m 397.22174,61.712272 c -0.0275,-0.239805 -0.0338,-0.483003 -0.0825,-0.719415 -0.15148,-0.735266 -0.45298,-1.590955 -0.7273,-2.276269 -0.27048,-0.675731 -0.9415,-2.161606 -1.27807,-2.797297 -0.26708,-0.504433 -0.57052,-0.988753 -0.85578,-1.483129 -1.36565,-2.143202 -2.94318,-4.188701 -4.83498,-5.898494 -0.24216,-0.218861 -0.50134,-0.418118 -0.75201,-0.627177 -1.44133,-1.192619 -3.12795,0.845734 -1.68662,2.038353 v 0 c 1.9857,1.626778 3.61077,3.655956 4.98518,5.814966 0.25303,0.433467 0.52341,0.857265 0.7591,1.300403 0.29815,0.560559 0.93043,1.950862 1.1781,2.560075 0.15939,0.392078 0.46831,1.232791 0.58886,1.710129 0.0312,0.123666 0.0402,0.251904 0.0604,0.377855 0,1.870771 2.64567,1.870771 2.64567,0 z" />
  <path
     style="fill:#000000;stroke-opacity:0.391521"
     id="path55"
     d="m 382.825,66.413075 c -0.1422,-0.263508 -0.27175,-0.534247 -0.42661,-0.790525 -1.75385,-2.902586 -4.02624,-5.466942 -6.26042,-8.000644 -1.58622,-1.714035 -0.81177,-0.914228 -2.31372,-2.40871 -1.32714,-1.318516 -3.19181,0.558343 -1.86467,1.876858 v 0 c 1.41083,1.399351 0.67564,0.642349 2.19426,2.281944 2.10442,2.385098 4.24841,4.794509 5.92026,7.514365 0.12652,0.205828 0.23249,0.423601 0.34873,0.635402 0.78397,1.698584 3.18613,0.589894 2.40217,-1.10869 z" />
  <path
     style="fill:#000000;stroke-opacity:0.391521"
     id="path56"
     d="m 342.4904,67.351557 c -0.0687,-0.415928 -0.0758,-0.846865 -0.20605,-1.247783 -0.33879,-1.042436 -1.20817,-2.409364 -1.80083,-3.261248 -0.85833,-1.233751 -1.96292,-2.57331 -2.98858,-3.668921 -0.5516,-0.589208 -1.14301,-1.139831 -1.71452,-1.709746 -2.67576,-2.397953 -5.82713,-4.146014 -9.00279,-5.781208 -1.66362,-0.855664 -2.87371,1.497047 -1.21009,2.35271 v 0 c 2.93574,1.508179 5.8557,3.111989 8.34717,5.304312 0.52977,0.525426 1.07791,1.032952 1.5893,1.576279 0.95731,1.017091 1.93893,2.205167 2.74737,3.346829 1.58853,2.243295 0.42866,0.692317 1.47256,2.507242 0.0357,0.06202 0.10453,0.09773 0.15679,0.146588 -0.30756,1.845317 2.30212,2.280262 2.60967,0.434946 z" />
  <path
     style="fill:#000000;stroke-opacity:0.391521"
     id="path57"
     d="m 359.41254,68.338957 c -0.19002,-0.533498 -0.32161,-0.935712 -0.59014,-1.473182 -1.20066,-2.403129 -2.84269,-4.578067 -4.40129,-6.75277 -1.39679,-1.964781 -2.88573,-3.861144 -4.48977,-5.660021 -1.24648,-1.395017 -3.21933,0.36777 -1.97285,1.762787 v 0 c 1.5448,1.724984 2.96789,3.553374 4.31244,5.438763 1.43209,1.996845 3.00029,4.054302 4.11892,6.251554 0.24357,0.478436 0.38762,0.918613 0.56625,1.415446 0.69478,1.736967 3.15123,0.75439 2.45644,-0.982577 z" />
  <path
     style="fill:#000000;stroke-opacity:0.391521"
     id="path58"
     d="m 303.3899,67.588522 c 0.86156,-1.266177 1.51517,-2.70089 1.84425,-4.20108 0.10657,-0.485846 0.15866,-0.982062 0.23798,-1.473093 0.20431,-1.714653 0.0435,-3.383626 -0.59166,-4.997763 -0.40149,-1.020257 -1.02549,-2.041035 -1.66827,-2.92572 -0.28342,-0.390097 -0.60738,-0.749069 -0.91108,-1.123603 -1.18471,-1.447843 -3.23226,0.227589 -2.04755,1.675431 v 0 c 1.07145,1.295032 2.1241,2.678964 2.50671,4.357962 0.24334,1.06789 0.14729,1.521318 0.0974,2.608745 -0.0566,0.386617 -0.0909,0.777155 -0.16982,1.15985 -0.26004,1.261682 -0.8117,2.461307 -1.54145,3.517069 -0.9915,1.586411 1.25202,2.988613 2.24353,1.402202 z" />
  <path
     style="fill:#000000;stroke-opacity:0.391521"
     id="path59"
     d="m 277.59618,65.072215 c -0.0673,-0.284294 -0.0854,-0.584918 -0.20178,-0.852882 -0.26554,-0.611443 -1.00058,-1.568014 -1.38523,-2.08377 -1.12479,-1.508166 -2.27587,-2.991648 -3.45722,-4.455733 -1.39429,-1.696853 -0.70039,-0.891049 -2.07491,-2.423253 -1.25044,-1.391463 -3.21827,0.376933 -1.96783,1.768396 v 0 c 1.29393,1.437127 0.62911,0.667829 1.98417,2.316742 1.40137,1.734947 2.72153,3.524189 4.07287,5.297162 0.2461,0.322884 0.1998,0.275031 0.38426,0.433338 0,1.87077 2.64567,1.87077 2.64567,0 z" />
  <path
     style="fill:#000000;stroke-opacity:0.391521"
     id="path60"
     d="m 262.86691,66.171243 c -0.0365,-0.278594 -0.0484,-0.56154 -0.10958,-0.835783 -0.22658,-1.016118 -0.49833,-1.627475 -0.94959,-2.593678 -0.7202,-1.542038 -1.59405,-2.996469 -2.46318,-4.456811 -1.04991,-1.769511 -2.38112,-3.333163 -3.96717,-4.64189 -0.61876,-0.510562 -1.03999,-0.783356 -1.68237,-1.226463 -0.57364,-0.417047 -1.19393,-0.689631 -1.85554,-0.924812 -1.77895,-0.578911 -2.59765,1.936897 -0.81871,2.515808 v 0 c 0.43458,0.106026 0.7987,0.351816 1.17526,0.589046 0.53653,0.367569 0.92443,0.618916 1.43859,1.03698 1.38066,1.122618 2.53148,2.471159 3.43677,4.004939 0.81487,1.3677 1.62501,2.728601 2.31353,4.165983 0.36783,0.767908 0.5466,1.143551 0.75542,1.919392 0.0394,0.146308 0.0539,0.298193 0.0809,0.447289 0,1.870771 2.64567,1.870771 2.64567,0 z" />
  <path
     style="fill:#000000;stroke-opacity:0.391521"
     id="path61"
     d="m 232.177,66.724153 c -0.58113,-2.098001 -1.73352,-4.021127 -2.99835,-5.775837 -0.41992,-0.582559 -0.87569,-1.138418 -1.31353,-1.707628 -1.27466,-1.565884 -2.70207,-2.998202 -4.27521,-4.26376 -0.56439,-0.454038 -1.70034,-1.294928 -2.37577,-1.661268 -0.34156,-0.18526 -0.71168,-0.312202 -1.06752,-0.468304 -0.38122,-0.051 -0.76244,-0.102005 -1.14366,-0.153008 -1.8657,-0.137637 -2.06035,2.500863 -0.19465,2.6385 v 0 c 0.10533,-0.01511 0.21065,-0.03022 0.31598,-0.04533 0.22199,0.08599 0.45584,0.146089 0.66597,0.257968 0.59544,0.317017 1.59368,1.054072 2.08362,1.445095 1.43462,1.144981 2.7346,2.444505 3.8962,3.865776 0.40508,0.52381 0.82573,1.035937 1.21524,1.571431 1.04708,1.439543 1.96471,2.992687 2.5726,4.670519 0.26457,1.851968 2.88365,1.477814 2.61908,-0.374155 z" />
  <path
     style="fill:#000000;stroke-opacity:0.391521"
     id="path62"
     d="m 210.64402,65.983241 c -0.12613,-0.281213 -0.21173,-0.584378 -0.37839,-0.843639 -0.60062,-0.934378 -1.81682,-2.27349 -2.51841,-3.051266 -1.51823,-1.683103 -3.08603,-3.311441 -4.69664,-4.905485 -1.02319,-1.012235 -2.14001,-1.909918 -3.29774,-2.759561 -1.51085,-1.10324 -3.07106,1.033413 -1.56022,2.136653 v 0 c 1.05574,0.766389 2.06561,1.587241 2.99752,2.503954 2.399,2.37103 4.72567,4.824431 6.85959,7.438203 0.36689,1.834441 2.96118,1.315583 2.59429,-0.518859 z" />
  <path
     style="fill:#000000;stroke-opacity:0.391521"
     id="path63"
     d="m 177.06431,65.262232 c -0.14378,-0.231154 -0.27144,-0.473143 -0.43132,-0.69346 -1.41653,-1.951973 -3.03879,-3.767401 -4.75218,-5.461776 -0.66469,-0.657321 -1.33079,-1.316237 -2.04724,-1.916722 -0.73258,-0.613994 -1.52896,-1.147562 -2.29344,-1.721342 -3.16806,-1.825229 -1.57872,-1.020364 -4.75563,-2.438889 -1.71027,-0.758123 -2.78242,1.660567 -1.07215,2.418691 v 0 c 2.84038,1.248819 1.42196,0.541685 4.24561,2.140653 0.68961,0.51117 1.4097,0.98358 2.06881,1.533511 0.68041,0.567711 1.3124,1.19181 1.94333,1.814056 1.58026,1.558516 3.11101,3.231671 4.4174,5.030859 0.1759,0.242259 0.31698,0.507981 0.47548,0.761972 1.03771,1.556575 3.23904,0.08902 2.20133,-1.467553 z" />
  <path
     style="fill:#000000;stroke-opacity:0.391521"
     id="path64"
     d="m 159.8427,67.196484 c -0.28563,-0.407857 -0.67989,-0.984619 -0.98222,-1.328431 -1.77347,-2.016818 -3.85105,-3.739882 -5.9655,-5.381167 -1.17054,-0.918395 -2.48083,-1.594247 -3.81684,-2.227676 -1.69293,-0.796104 -2.81879,1.598057 -1.12586,2.39416 v 0 c 1.16519,0.542562 2.30421,1.12708 3.32257,1.925104 1.93246,1.493465 3.8547,3.063103 5.48275,4.895026 0.26939,0.303122 0.62856,0.827135 0.88377,1.190537 1.03771,1.556576 3.23904,0.08902 2.20133,-1.467553 z" />
  <path
     style="fill:#000000;stroke-opacity:0.391521"
     id="path65"
     d="m 127.48915,83.585676 c -0.082,-0.57663 -0.11435,-0.955644 -0.31168,-1.536296 -0.84136,-2.475784 -2.34338,-4.666891 -3.80197,-6.807295 -1.10043,-1.493201 -2.18544,-3.012333 -3.4575,-4.368343 -0.52611,-0.560838 -1.16628,-1.167065 -1.81253,-1.599343 -0.28027,-0.187468 -0.58927,-0.327923 -0.8839,-0.491885 -0.80605,-0.343782 -1.65023,-0.485561 -2.51719,-0.307095 -0.24795,0.05104 -0.48246,0.153506 -0.72369,0.230259 -1.75945,0.635709 -0.86042,3.123944 0.89903,2.488234 v 0 c 0.36347,-0.193543 0.70153,-0.225201 1.09701,-0.07689 0.17188,0.0848 0.35405,0.151323 0.51564,0.25439 0.51606,0.329168 1.02082,0.805621 1.43324,1.242998 1.20374,1.276577 2.22416,2.713272 3.26533,4.120078 1.08642,1.586002 1.30213,1.82045 2.22024,3.464058 0.62529,1.119399 1.27809,2.297808 1.44009,3.59004 0.14349,1.865261 2.78136,1.662347 2.63788,-0.202913 z" />
  <path
     style="fill:#000000;stroke-opacity:0.391521"
     id="path66"
     d="m 112.07209,100.63591 c -0.65053,-0.801766 -1.28401,-1.621961 -2.04691,-2.323052 -0.25522,-0.234544 -0.52676,-0.450697 -0.79013,-0.676045 -1.49243,-1.155583 -2.9713,-2.329143 -4.48192,-3.460922 -1.44157,-1.139349 -2.90154,-2.254852 -4.39251,-3.32907 -0.431482,-0.289406 -0.942774,-0.666723 -1.433686,-0.851858 -1.255123,-0.473339 -2.618196,-0.462784 -3.937576,-0.474024 -1.870719,-0.01395 -1.890442,2.63165 -0.01972,2.645596 v 0 c 0.75624,0.0047 1.505962,0.01524 2.257986,0.105665 0.164261,0.01975 0.333164,0.02483 0.490462,0.07611 0.363217,0.118401 0.79771,0.445932 1.096881,0.645719 1.478353,1.063178 2.922523,2.171777 4.352043,3.299364 1.46784,1.099237 2.90314,2.241099 4.35579,3.360289 0.21283,0.178935 0.4323,0.350258 0.63849,0.536808 0.63805,0.57723 1.15166,1.26302 1.70947,1.91297 1.03772,1.55658 3.23905,0.089 2.20133,-1.46755 z" />
  <path
     style="fill:#000000;stroke-opacity:0.391521"
     id="path67"
     d="m 95.786569,108.40985 c -0.806672,-1.11159 -1.687464,-2.21519 -2.799817,-3.0406 -0.376663,-0.2795 -0.786609,-0.5111 -1.179914,-0.76665 -0.555995,-0.24595 -1.093317,-0.53942 -1.667987,-0.73785 -1.539418,-0.53157 -3.384485,-0.86708 -4.974205,-1.11442 -2.713263,-0.42213 -5.451812,-0.64226 -8.186372,-0.86704 -0.661794,-0.0377 -1.323587,-0.0755 -1.98538,-0.11319 -1.867761,-0.10608 -2.017791,2.53533 -0.150031,2.64142 v 0 c 0.639636,0.0362 1.279272,0.0724 1.918908,0.10857 2.649665,0.21731 5.30197,0.43164 7.931896,0.83365 1.34038,0.20489 3.071796,0.51131 4.39713,0.94024 0.445417,0.14415 0.864083,0.36065 1.296124,0.54097 0.291628,0.18011 0.596711,0.34006 0.874885,0.54033 0.993058,0.71492 1.745614,1.71036 2.458843,2.68731 1.168661,1.46082 3.234582,-0.19191 2.06592,-1.65274 z" />
  <path
     style="fill:#000000;stroke-opacity:0.391521"
     id="path68"
     d="m 87.95008,119.71778 c -0.273575,-0.16468 -0.528848,-0.36453 -0.820724,-0.49403 -0.320363,-0.14213 -0.665311,-0.22167 -1.003093,-0.31515 -1.085419,-0.30039 -2.206353,-0.47774 -3.320226,-0.63047 -0.858725,-0.10845 -1.71317,-0.14942 -2.570177,0.01 -1.189761,0.22072 -2.304895,0.71045 -3.417206,1.16556 -1.307963,0.59041 -2.56257,1.28164 -3.803195,1.99981 -1.618912,0.9375 -0.293084,3.22699 1.325827,2.28949 v 0 c 1.13709,-0.65875 2.285709,-1.29421 3.481813,-1.84172 0.999364,-0.41148 2.231161,-1.01184 3.328999,-1.07806 0.381844,-0.023 0.920528,0.0419 1.297298,0.0769 0.724347,0.0977 1.440644,0.21347 2.155441,0.36835 0.438718,0.0951 0.871161,0.21847 1.311275,0.30684 0.05352,0.0107 0.108798,0.009 0.163197,0.0137 1.322835,1.32283 3.193605,-0.54794 1.870771,-1.87077 z" />
  <path
     style="fill:#000000;stroke-opacity:0.391521"
     id="path69"
     d="m 63.041561,142.75722 c -2.01365,-2.07925 -4.396175,-3.75373 -6.711099,-5.47553 -0.956632,-0.67708 -1.909479,-1.40565 -3.099132,-1.61779 -1.726494,-0.30789 -3.473956,0.11859 -5.158569,0.43908 -0.595829,0.14543 -1.191657,0.29087 -1.787485,0.4363 -1.817013,0.44525 -1.187332,3.0149 0.629681,2.56964 v 0 c 0.552572,-0.13597 1.105144,-0.27195 1.657716,-0.40793 1.197901,-0.23343 2.662447,-0.61191 3.901642,-0.50204 0.890401,0.0789 1.566013,0.74575 2.277298,1.20566 2.178302,1.61988 4.423361,3.19112 6.332311,5.13228 1.258417,1.38426 3.216053,-0.39541 1.957637,-1.77967 z" />
  <path
     style="fill:#000000;stroke-opacity:0.391521"
     id="path70"
     d="m 44.493727,156.70677 c -1.344559,-1.24014 -2.867577,-2.24757 -4.444439,-3.16293 -1.595515,-0.88871 -3.323535,-1.27401 -5.114909,-0.75967 -0.277943,0.0798 -0.539714,0.20783 -0.809571,0.31174 -0.864637,0.41877 -1.446137,1.09314 -1.935894,1.89272 -0.942987,1.61572 1.34199,2.94931 2.284977,1.33358 v 0 c 0.15872,-0.31185 0.356638,-0.58639 0.656876,-0.77934 1.29735,-0.60601 2.362334,-0.38356 3.593759,0.29107 1.450155,0.83555 2.84341,1.76497 4.075485,2.90529 1.437165,1.19764 3.130882,-0.83482 1.693716,-2.03246 z" />
</svg>
