<?xml version="1.0" encoding="UTF-8" standalone="no"?>
<svg
   width="493"
   height="481"
   viewBox="0 0 493 481"
   fill="none"
   version="1.1"
   id="svg1"
   sodipodi:docname="just watch1.svg"
   xmlns:inkscape="http://www.inkscape.org/namespaces/inkscape"
   xmlns:sodipodi="http://sodipodi.sourceforge.net/DTD/sodipodi-0.dtd"
   xmlns="http://www.w3.org/2000/svg"
   xmlns:svg="http://www.w3.org/2000/svg">
  <defs
     id="defs1" />
  <sodipodi:namedview
     id="namedview1"
     pagecolor="#ffffff"
     bordercolor="#000000"
     borderopacity="0.25"
     inkscape:showpageshadow="2"
     inkscape:pageopacity="0.0"
     inkscape:pagecheckerboard="0"
     inkscape:deskcolor="#d1d1d1"
     showguides="true" />
  <path
     d="M 53.881838,73.351736 H 31.406925 c -3.632324,4.76488 -11.509897,15.401224 -13.961699,19.827885 -2.451803,4.426659 -1.021586,8.607459 0,10.144519 v 18.90537 c 0,8.30047 14.966173,28.10918 14.966173,59.46493 2.156645,7.68581 -6.997799,30.26852 -1.004474,40.59699 5.993325,10.32957 2.497237,11.06694 0,10.14442 3.178203,2.45968 9.534824,11.43614 9.534824,27.66676 -5.176121,8.11639 -8.513266,3.38219 -9.534824,0 l -11.291183,158.46871 22.474902,32.27717 c 0,10.14548 4.277501,12.87857 41.054648,12.87857 45.971158,0 24.662158,0.64479 37.602248,0.64479 12.94041,0 11.95215,0.36814 21.48654,0.36814 9.53548,0 15.6153,0.48978 28.55561,0.48978 12.9403,0 14.7211,0.42197 24.59717,0.42197 9.87498,0 17.53017,0.5576 32.51295,0.5576 14.98385,0 35.75342,-4.96563 35.75342,-4.96563 0,0 20.74363,-0.22283 22.90072,0.39289 8.17202,0.92145 18.51627,2.72233 29.6855,0.50916 13.96207,-2.76754 27.70682,0.47472 27.70682,0.47472 l 15.55042,0.26695 23.4662,0.4026 24.11062,-2.98284 c 8.91483,-18.43733 49.91553,-43.3021 55.90886,-53.63167 7.49084,-12.91086 -19.6159,-95.82503 -11.1022,-104.1255 8.51262,-8.30045 -22.24763,-36.67875 -1.8154,-77.25746 0,-17.06056 12.06341,5.79343 3.54972,-44.4679 -6.46908,-38.73368 10.44479,-9.25526 9.42302,-18.01644 -1.02069,-8.76117 -1.02069,-21.67313 -23.49648,-89.456484 C 429.48488,54.907193 433.57089,55.829382 416.54457,42.91819 h -18.38868 -10.55617 c -4.99426,1.844487 -19.27422,8.761178 -36.43677,21.67237 -8.51263,10.144516 -18.07945,-5.788147 -39.53238,-5.788147 -21.45292,0 -19.84187,-11.031829 -75.34742,-11.031829 -37.45856,0 -11.8861,-22.353436 -64.32742,-22.353436 -29.96662,0 -22.60985,3.478529 -35.55015,3.478529 -12.93988,0 -22.89724,2.267637 -44.350495,-6.493498 -17.162661,-7.008941 -48.864677,-20.7528051 -32.833642,8.7719 l 5.216776,33.416481 z"
     fill="#7184d7"
     id="path1"
     style="fill:#2f408a;fill-opacity:1;stroke-width:1.07884" />
  <path
     d="M 74.08251,86.61244 H 53.564967 c -3.31598,4.4265 -10.507484,14.3075 -12.745756,18.4198 -2.238271,4.1123 -0.932614,7.9962 0,9.4241 v 17.5628 c 0,7.711 13.662749,26.113 13.662749,55.242 1.96882,7.14 -6.38835,28.119 -0.916993,37.714 5.471358,9.596 2.279749,10.281 0,9.424 2.901409,2.285 8.704424,10.624 8.704424,25.702 -4.725327,7.54 -7.771835,3.142 -8.704424,0 l -10.307818,147.215 20.517531,29.985 c 0,9.425 3.904968,11.964 37.47915,11.964 41.96747,0 22.5143,0.599 34.32741,0.599 11.81342,0 10.91123,0.342 19.61526,0.342 8.70502,0 14.25534,0.455 26.06865,0.455 11.81332,0 13.43903,0.392 22.45498,0.392 9.01495,0 16.00345,0.518 29.68135,0.518 13.67888,0 32.63961,-4.613 32.63961,-4.613 0,0 18.93704,-0.207 20.90625,0.365 7.46031,0.856 16.90366,2.529 27.10015,0.473 12.7461,-2.571 25.2938,0.441 25.2938,0.441 l 14.19611,0.248 21.42249,0.374 22.01079,-2.771 c 8.13844,-17.128 45.56833,-40.227 51.03968,-49.823 6.83846,-11.994 -17.90751,-89.02 -10.13528,-96.731 7.77124,-7.711 -20.31006,-34.074 -1.6573,-71.771 0,-15.849 11.0128,5.382 3.24057,-41.31 -5.90568,-35.983 9.53514,-8.598 8.60236,-16.737 -0.9318,-8.139 -0.9318,-20.134 -21.45013,-83.1037 -9.63682,-17.1347 -5.90666,-16.278 -21.45013,-28.2723 h -16.78719 -9.63682 c -4.5593,1.7135 -17.5956,8.139 -33.26344,20.1333 -7.77124,9.4241 -16.50488,-5.3771 -36.08944,-5.3771 -19.58456,0 -18.11382,-10.2484 -68.78532,-10.2484 -34.19623,0 -10.85092,-20.766 -58.72505,-20.766 -27.35679,0 -20.64073,3.2315 -32.45404,3.2315 -11.81292,0 -20.90309,2.1066 -40.48795,-6.03236 -15.667944,-6.5112 -44.608989,-19.27904 -29.974118,8.14896 l 4.76244,31.0434 z"
     fill="#7184d7"
     id="path1-2"
     style="stroke-width:0.993517" />
  <path
     style="fill:#000000;fill-opacity:1;stroke-opacity:0.391521"
     id="path2"
     d="m 8.9968053,286.31815 c 4.0287827,-2.61812 8.1467187,-5.03285 12.6141877,-6.81816 0.781903,-0.26231 2.703071,-0.99767 3.610168,-0.9686 0.58784,0.0188 1.154645,0.24498 1.706514,0.44833 2.251837,0.82974 3.902766,2.22688 5.665689,3.79759 1.779045,2.0893 4.396217,4.92844 5.151361,7.6382 0.343542,1.23277 0.21962,3.29052 0.203976,4.5105 -0.01286,1.60347 2.254787,1.62165 2.267644,0.0182 v 0 c 0.0075,-1.99083 0.154196,-3.53726 -0.418036,-5.49062 -0.85775,-2.928 -3.728394,-6.13364 -5.703067,-8.37535 -2.634223,-2.31209 -5.592821,-4.73847 -9.320327,-4.77021 -1.030164,-0.009 -3.076784,0.77294 -4.007659,1.08707 -4.58809,1.84434 -8.834177,4.30228 -12.9723381,7.00005 -1.3597803,0.84986 -0.1578929,2.77288 1.2018874,1.92302 z" />
  <path
     style="fill:#000000;fill-opacity:1;stroke-opacity:0.391521"
     id="path3"
     d="m 11.588708,312.99917 c 2.553079,-1.46143 4.996543,-3.11758 7.634456,-4.42963 0.491116,-0.24427 0.996772,-0.45815 1.495158,-0.68722 1.154747,-0.44401 1.341547,-0.54252 2.469152,-0.88265 0.587494,-0.17721 0.939234,-0.32842 1.528083,-0.25583 0.378744,0.0467 1.062587,0.3406 1.365909,0.45659 0.981958,0.40188 1.907188,0.9244 2.834486,1.43587 0.466257,0.25718 1.025747,0.54127 1.445661,0.8851 0.189135,0.15487 0.349001,0.34238 0.523501,0.51358 0.97691,1.35947 1.465677,2.98874 1.91628,4.58118 0.438649,1.54235 2.619867,0.92201 2.181218,-0.62034 v 0 c -0.566326,-1.98226 -1.201734,-4.00003 -2.542289,-5.61126 -0.269697,-0.24738 -0.522542,-0.5145 -0.80909,-0.74215 -0.486882,-0.3868 -1.087213,-0.69808 -1.628297,-0.99633 -1.026519,-0.56584 -2.052881,-1.1397 -3.143549,-1.57576 -0.859014,-0.30325 -1.341642,-0.54623 -2.260991,-0.59117 -1.601791,-0.0783 -3.358895,0.83801 -4.829451,1.34375 -0.537055,0.24825 -1.081665,0.48078 -1.611165,0.74477 -2.588068,1.29031 -5.003893,2.89029 -7.490079,4.35924 -1.4653131,0.65125 -0.544306,2.72351 0.921007,2.07226 z" />
  <path
     style="fill:#000000;fill-opacity:1;stroke-opacity:0.391521"
     id="path4"
     d="m 12.569606,325.80555 c 2.577998,-1.36215 5.479583,-2.0324 8.292753,-2.73664 1.365349,-0.22375 3.022736,-0.88472 4.402789,-0.37387 0.50718,0.18774 0.899447,0.54503 1.321453,0.86616 1.825642,1.60463 3.191136,3.63254 4.413251,5.71291 0.941242,1.71154 1.708916,3.50912 2.528114,5.28032 0.673271,1.45532 2.731414,0.50317 2.058142,-0.95215 v 0 c -0.850831,-1.8387 -1.647075,-3.70553 -2.631982,-5.47854 -1.383467,-2.34589 -2.939522,-4.62402 -5.03538,-6.39773 -0.855904,-0.60155 -1.213185,-0.95926 -2.231625,-1.25908 -1.777161,-0.52318 -3.632413,0.0462 -5.375965,0.40227 -1.859877,0.46649 -3.712369,0.94974 -5.533029,1.5559 -1.171929,0.39018 -1.876717,0.62887 -2.922665,1.18225 -0.255519,0.13519 -0.491742,0.30406 -0.737612,0.45609 -1.2318569,1.02655 0.2199,2.76866 1.451756,1.74211 z" />
  <path
     style="fill:#000000;fill-opacity:1;stroke-opacity:0.391521"
     id="path5"
     d="m 11.580655,352.46327 c 0.682921,-0.65257 1.500349,-1.15282 2.282536,-1.67272 1.019498,-0.67763 1.919984,-1.30284 3.018401,-1.85895 0.624532,-0.31619 1.277753,-0.5722 1.916629,-0.8583 1.915622,-0.74267 3.859051,-1.47886 5.869886,-1.92898 0.83517,-0.18695 2.004649,-0.3796 2.88049,-0.23406 0.452139,0.0751 0.872354,0.2816 1.308531,0.4224 1.182825,0.58668 1.726862,0.78761 2.791404,1.59842 1.841909,1.40289 3.239171,3.30363 4.603109,5.14623 0.240091,0.36245 0.480181,0.72491 0.720272,1.08736 0.887083,1.33579 2.776185,0.0813 1.889102,-1.25453 v 0 c -0.262579,-0.39448 -0.525159,-0.78897 -0.787739,-1.18345 -1.534221,-2.06609 -3.112319,-4.14846 -5.196268,-5.70176 -1.314445,-0.97973 -1.912804,-1.17152 -3.392218,-1.87139 -0.643995,-0.17033 -1.271937,-0.42111 -1.931986,-0.51099 -1.064309,-0.14492 -2.458599,0.0833 -3.485298,0.31503 -2.12481,0.47961 -4.17848,1.25867 -6.201736,2.04857 -0.706329,0.3207 -1.427938,0.60968 -2.118987,0.9621 -1.13211,0.57735 -2.098166,1.23985 -3.148996,1.94047 -0.972203,0.64819 -1.986638,1.27383 -2.7879207,2.13792 -1.0017096,1.25214 0.7690797,2.66877 1.7707887,1.41663 z" />
  <path
     style="fill:#000000;fill-opacity:1;stroke-opacity:0.391521"
     id="path6"
     d="m 13.852128,369.22857 c 0.263718,-0.20846 0.511843,-0.43834 0.791153,-0.62539 0.777492,-0.52069 2.399655,-1.39575 3.158608,-1.78919 1.828319,-0.94782 3.698569,-1.79554 5.586828,-2.61468 0.928569,-0.32178 1.821102,-0.7281 2.827482,-0.73824 1.760197,-0.0177 3.481606,1.12857 4.906,2.02207 2.352048,1.6599 3.709587,4.19874 5.15318,6.61184 0.823328,1.37601 2.769299,0.21165 1.945971,-1.16436 v 0 c -1.657809,-2.77014 -3.170725,-5.49741 -5.899921,-7.37215 -1.451189,-0.89888 -2.910476,-1.81901 -4.616224,-2.16257 -1.967454,-0.39629 -3.402909,0.003 -5.219499,0.72324 -1.948377,0.84635 -3.878804,1.72101 -5.7647,2.7013 -1.034645,0.53781 -2.50364,1.33706 -3.488413,2.00721 -0.319395,0.21735 -0.603931,0.48196 -0.905896,0.72295 -1.186507,1.07864 0.338924,2.75661 1.525431,1.67797 z" />
  <path
     style="fill:#000000;fill-opacity:1;stroke-opacity:0.391521"
     id="path7"
     d="m 12.248724,396.28988 c 0.758937,-0.45059 1.256168,-1.17535 1.836714,-1.81454 0.673235,-0.74124 0.899648,-0.89881 1.694755,-1.60404 1.334792,-0.96379 2.667158,-1.92941 4.053412,-2.81876 0.14642,-0.0939 2.077264,-1.30357 2.360721,-1.41269 0.241117,-0.0928 0.513097,-0.0611 0.769646,-0.0917 0.226012,0.0707 0.469653,0.0995 0.678035,0.212 0.390354,0.21071 1.349178,1.0989 1.597966,1.34243 0.862605,0.84439 1.650857,1.77237 2.45176,2.6743 1.043297,1.47189 2.239687,2.8948 2.977937,4.55508 0.667723,1.45788 2.729477,0.51358 2.061755,-0.9443 v 0 c -0.865042,-1.85089 -2.125443,-3.48791 -3.344124,-5.11663 -1.376082,-1.54925 -3.357183,-4.05656 -5.323198,-4.73897 -0.489664,-0.16996 -1.027295,-0.13891 -1.540943,-0.20837 -0.486131,0.1166 -0.992252,0.16916 -1.458393,0.34981 -0.411736,0.15956 -0.769615,0.43338 -1.148368,0.66039 -1.954799,1.17162 -3.816973,2.48556 -5.645008,3.84449 -0.968178,0.86654 -1.104628,0.93922 -1.923913,1.84026 -0.280154,0.30811 -0.501678,0.66956 -0.80274,0.95728 -0.106754,0.10202 -0.573363,0.44061 -0.712645,0.54319 -1.2521375,1.00171 0.164494,2.7725 1.416631,1.77079 z" />
  <path
     style="fill:#000000;fill-opacity:1;stroke-opacity:0.391521"
     id="path8"
     d="m 14.568519,422.33419 c 1.573518,-2.35743 3.566413,-4.48244 5.87799,-6.13383 0.505934,-0.36143 1.047815,-0.6697 1.571722,-1.00455 1.693542,-0.92786 3.561508,-1.52595 5.492372,-1.08213 0.27389,0.063 0.537379,0.16474 0.806068,0.24711 1.042285,0.44943 0.536806,0.20718 1.517761,0.724 1.4221,0.74088 2.469861,-1.27027 1.047761,-2.01115 v 0 c -1.226804,-0.63327 -0.584636,-0.33375 -1.930547,-0.88985 -0.374029,-0.10509 -0.74167,-0.23639 -1.122089,-0.31528 -2.473151,-0.51291 -4.879738,0.2174 -7.03834,1.42021 -0.585097,0.37868 -1.190141,0.72818 -1.755291,1.13603 -2.555846,1.84448 -4.762149,4.20721 -6.471588,6.8484 -0.750266,1.41717 1.253914,2.47821 2.004181,1.06104 z" />
  <path
     style="fill:#000000;fill-opacity:1;stroke-opacity:0.391521"
     id="path9"
     d="m 20.440174,436.9536 c 1.747167,-2.46593 3.979922,-4.66128 6.613553,-6.17155 0.612648,-0.35132 1.264798,-0.62877 1.897197,-0.94316 2.284879,-0.92124 5.150745,-1.90786 7.632583,-1.15044 0.36861,0.11249 0.705449,0.31057 1.058173,0.46585 0.327983,0.2096 0.655966,0.41919 0.983949,0.62879 1.362382,0.84568 2.558362,-1.08102 1.195979,-1.9267 v 0 c -0.438514,-0.2662 -0.877028,-0.5324 -1.315542,-0.7986 -0.512219,-0.20133 -1.00594,-0.45824 -1.536657,-0.60399 -2.273981,-0.62446 -4.803169,-0.16779 -6.993082,0.55507 -0.69468,0.2293 -1.361602,0.53543 -2.042403,0.80314 -0.709351,0.35884 -1.441339,0.67606 -2.128053,1.07653 -2.52855,1.47455 -4.99227,3.70101 -6.726963,6.06558 -0.296981,0.40482 -0.526719,0.85491 -0.790079,1.28236 -0.507077,1.52123 1.644268,2.23835 2.151345,0.71712 z" />
  <path
     style="fill:#000000;fill-opacity:1;stroke-opacity:0.391521"
     id="path10"
     d="m 22.883578,453.95139 c 3.546218,-2.45568 7.248743,-4.69403 10.958364,-6.89473 3.311537,-1.90603 6.694586,-3.78132 10.338522,-4.97601 0.258367,-0.0346 0.514432,-0.106 0.775101,-0.1039 0.717031,0.006 1.502143,0.73935 2.001411,1.17949 1.21756,1.04347 2.693241,-0.67842 1.475682,-1.72189 v 0 c -1.590725,-1.33683 -2.822586,-2.01896 -4.963631,-1.50693 -3.794548,1.26224 -7.336387,3.1752 -10.784277,5.179 -3.779382,2.24296 -7.552604,4.52246 -11.161802,7.0308 -1.282814,0.96211 0.07782,2.77628 1.36063,1.81417 z" />
  <path
     style="fill:#000000;fill-opacity:1;stroke-opacity:0.391521"
     id="path11"
     d="m 47.460113,468.45398 c 0.23863,-1.72773 0.758592,-3.46481 1.662692,-4.96641 0.269828,-0.44816 0.590234,-0.86384 0.885351,-1.29576 2.482135,-3.00541 5.418503,-5.59234 8.367665,-8.12578 0.681995,-0.5109 1.36595,-1.23789 2.253747,-1.39219 0.479803,-0.0834 1.001227,0.1153 1.438044,0.27872 1.522152,0.5043 2.235345,-1.64835 0.713192,-2.15265 v 0 c -1.024666,-0.31632 -1.875282,-0.51583 -2.95972,-0.24477 -1.132218,0.28301 -2.040779,1.08295 -2.92337,1.79108 -3.10028,2.66583 -6.190879,5.38703 -8.768827,8.57638 -0.34208,0.51156 -0.715423,1.00354 -1.02624,1.53468 -1.06318,1.81679 -1.694532,3.90969 -1.91025,5.9967 0,1.60352 2.267716,1.60352 2.267716,0 z" />
  <path
     style="fill:#000000;fill-opacity:1;stroke-opacity:0.391521"
     id="path12"
     d="m 66.741514,470.96541 c 0.147232,-1.12631 0.513573,-2.21061 0.91289,-3.26906 0.159712,-0.42334 0.304794,-0.85465 0.50961,-1.2581 0.401577,-0.79104 0.838527,-1.24938 1.39466,-1.92816 1.763329,-1.58361 4.02773,-2.32366 6.242225,-3.03449 0.992992,-0.24584 2.096341,-0.66688 3.124893,-0.36534 1.561958,0.36271 2.074907,-1.84623 0.51295,-2.20894 v 0 c -1.528852,-0.31793 -2.852245,-0.034 -4.332158,0.41547 -2.637167,0.84972 -5.296086,1.77859 -7.312884,3.76943 -0.795412,0.99837 -1.146744,1.33692 -1.732385,2.50279 -0.219844,0.43766 -0.377403,0.90418 -0.548961,1.36292 -0.437019,1.16858 -0.831074,2.36765 -1.001979,3.60782 -0.286846,1.57765 1.944293,1.98332 2.231139,0.40566 z" />
  <path
     style="fill:#000000;fill-opacity:1;stroke-opacity:0.391521"
     id="path13"
     d="m 92.973627,471.91105 c -0.01469,-1.34301 -0.0124,-2.69074 0.241649,-4.01613 0.226771,-1.18307 0.396484,-1.52943 0.795504,-2.66134 1.021557,-2.36938 2.631576,-3.54178 4.81491,-4.73664 0.827994,-0.42098 1.70119,-0.73271 2.57752,-1.03332 1.51599,-0.52254 0.77701,-2.66647 -0.73898,-2.14394 v 0 c -0.998297,0.34555 -1.992977,0.70378 -2.933497,1.19141 -2.70176,1.49923 -4.626378,3.03195 -5.86158,5.97686 -0.175011,0.50814 -0.375289,1.00827 -0.525033,1.52443 -0.557376,1.92122 -0.692713,3.90842 -0.63821,5.89867 0,1.60352 2.267717,1.60352 2.267717,0 z" />
  <path
     style="fill:#000000;fill-opacity:1;stroke-opacity:0.391521"
     id="path14"
     d="m 117.36141,473.23525 c 0.83984,-1.79821 1.2778,-3.74974 1.97867,-5.60192 0.14691,-0.38823 0.31997,-0.76606 0.47995,-1.14908 0.5351,-1.04136 1.11179,-2.10155 1.93145,-2.95406 0.69365,-0.72146 1.55726,-1.22072 2.42787,-1.68827 1.4048,-0.63745 2.42051,-0.69248 3.87037,-0.23288 0.73607,0.31408 0.37222,0.15142 1.09167,0.48773 1.4538,0.67656 2.41061,-1.37942 0.95681,-2.05599 v 0 c -0.87793,-0.407 -0.4124,-0.20332 -1.39941,-0.60458 -0.29488,-0.0845 -0.58479,-0.18888 -0.88466,-0.25354 -1.63294,-0.3521 -3.23011,-0.0381 -4.72275,0.66957 -0.88206,0.48911 -1.22499,0.63229 -2.03362,1.28598 -1.48116,1.19738 -2.52419,2.76525 -3.3318,4.47574 -0.17668,0.42704 -0.36667,0.84882 -0.53006,1.28113 -0.68059,1.80077 -1.10654,3.69776 -1.91885,5.44687 -0.63166,1.47387 1.4527,2.36717 2.08436,0.8933 z" />
  <path
     style="fill:#000000;fill-opacity:1;stroke-opacity:0.391521"
     id="path15"
     d="m 141.50622,468.2059 c 0.63192,-1.77671 1.4351,-3.51568 2.5022,-5.07622 0.26111,-0.38186 0.5516,-0.74278 0.82741,-1.11416 1.27229,-1.64529 2.94693,-2.92624 4.921,-3.61438 0.31868,-0.11109 0.65131,-0.17716 0.97696,-0.26574 1.21458,-0.28617 2.33212,-0.0809 3.42366,0.47415 1.44476,0.69566 2.42857,-1.34753 0.98381,-2.04319 v 0 c -0.27017,-0.12559 -0.5319,-0.27124 -0.81052,-0.37676 -1.36222,-0.51591 -2.79932,-0.5556 -4.21247,-0.23678 -0.41749,0.121 -0.84361,0.21547 -1.25249,0.363 -2.34409,0.8458 -4.33698,2.39117 -5.85389,4.35219 -0.30895,0.42011 -0.63452,0.82849 -0.92684,1.26033 -1.15999,1.71368 -2.04167,3.61384 -2.73017,5.56045 -0.50708,1.52123 1.64427,2.23834 2.15134,0.71711 z" />
  <path
     style="fill:#000000;fill-opacity:1;stroke-opacity:0.391521"
     id="path16"
     d="m 167.47491,469.71133 c 0.43654,-1.98892 1.33701,-3.86791 2.49074,-5.5412 0.29888,-0.43348 0.64411,-0.8331 0.96616,-1.24965 0.35469,-0.33579 0.67891,-0.70704 1.06409,-1.00739 1.33614,-1.04186 3.25617,-1.75996 4.91713,-2.05718 0.34652,-0.062 0.70005,-0.0748 1.05007,-0.11224 0.76101,-0.0419 1.49726,0.0287 2.23268,0.21083 1.56396,0.35398 2.06457,-1.85779 0.50062,-2.21177 v 0 c -0.99225,-0.2112 -1.97289,-0.33873 -2.99384,-0.25176 -0.44449,0.0545 -0.89335,0.0808 -1.33347,0.16343 -2.09968,0.39426 -4.27834,1.2762 -5.94647,2.6255 -0.46754,0.37818 -0.86027,0.84048 -1.2904,1.26072 -0.36722,0.48238 -0.75978,0.94646 -1.10164,1.44713 -1.37407,2.01237 -2.45698,4.30303 -2.82338,6.72358 0,1.60352 2.26771,1.60352 2.26771,0 z" />
  <path
     style="fill:#000000;fill-opacity:1;stroke-opacity:0.391521"
     id="path17"
     d="m 192.2028,472.59182 c 1.69164,-3.16288 3.94625,-5.99498 6.32468,-8.6644 1.84428,-2.0037 3.98099,-3.4442 6.47947,-4.48399 0.51805,-0.18735 1.11276,-0.3634 1.50156,0.12466 1.25064,1.00359 2.66992,-0.76508 1.41929,-1.76866 v 0 c -0.18318,-0.13325 -0.35114,-0.29042 -0.54953,-0.39975 -1.038,-0.57202 -2.17798,-0.45031 -3.24815,-0.0476 -2.86052,1.20697 -5.17228,2.77395 -7.29698,5.06811 -2.50647,2.82193 -4.88402,5.81171 -6.65865,9.15747 -0.71711,1.43423 1.31119,2.44838 2.02831,1.01415 z" />
  <path
     style="fill:#000000;fill-opacity:1;stroke-opacity:0.391521"
     id="path18"
     d="m 214.60191,471.2526 c 2.85052,-3.46984 6.19245,-6.47499 9.66271,-9.30597 1.69983,-1.18792 3.84405,-2.91811 5.97188,-3.2391 0.62671,-0.0945 1.39261,0.0847 2.00254,0.18859 0.28849,0.0868 0.57698,0.17362 0.86547,0.26042 1.54031,0.4458 2.17076,-1.73252 0.63045,-2.17831 v 0 c -0.38426,-0.10791 -0.76851,-0.21581 -1.15277,-0.32371 -1.18046,-0.16616 -1.76826,-0.33404 -3.00314,-0.11731 -0.54124,0.095 -1.06354,0.28666 -1.57399,0.49013 -1.89246,0.75435 -3.54997,1.96047 -5.17452,3.16261 -3.59996,2.94082 -7.06668,6.06317 -10.01866,9.67041 -0.98446,1.26574 0.80556,2.65798 1.79003,1.39224 z" />
  <path
     style="fill:#000000;fill-opacity:1;stroke-opacity:0.391521"
     id="path19"
     d="m 242.85231,472.35975 c 0.2981,-1.27051 0.59731,-2.56251 1.16805,-3.74494 0.54469,-1.12848 0.86216,-1.50439 1.58422,-2.56555 2.01398,-2.74835 4.76818,-4.81759 7.49518,-6.81019 1.0298,-0.68679 0.54679,-0.39542 1.43606,-0.8953 1.39436,-0.79186 0.2745,-2.76377 -1.11986,-1.97192 v 0 c -1.05592,0.60461 -0.50114,0.26414 -1.65482,1.03674 -2.93679,2.14935 -5.88539,4.39355 -8.03562,7.37115 -0.34031,0.50688 -0.70474,0.99838 -1.02095,1.52065 -1.0281,1.69809 -1.64863,3.57519 -2.05227,5.50935 -0.38891,1.55564 1.8111,2.10565 2.20001,0.55001 z" />
  <path
     style="fill:#000000;fill-opacity:1;stroke-opacity:0.391521"
     id="path20"
     d="m 269.844,465.48865 c 0.008,-0.2356 -10e-4,-0.47239 0.0237,-0.70681 0.15606,-1.46872 0.56247,-3.34653 1.2952,-4.63256 0.16402,-0.28789 0.37829,-0.54409 0.56743,-0.81613 0.55831,-0.66581 1.18154,-1.3565 1.97865,-1.74792 0.79212,-0.38896 1.74533,-0.48842 2.60243,-0.62602 0.93762,0.0104 1.95501,-0.12122 2.86626,0.17784 0.25723,0.0844 0.74882,0.35257 0.97026,0.46705 1.43009,0.72535 2.45589,-1.29709 1.0258,-2.02244 v 0 c -0.57043,-0.2852 -0.90468,-0.48286 -1.52968,-0.66385 -1.19111,-0.34491 -2.48259,-0.23674 -3.7003,-0.19631 -1.20623,0.20201 -2.40165,0.40114 -3.49947,0.98143 -1.04432,0.55201 -1.86502,1.46247 -2.59531,2.36412 -0.24945,0.37969 -0.53153,0.73985 -0.74835,1.13907 -0.86198,1.5871 -1.34007,3.7272 -1.49997,5.52078 -0.0281,0.31549 -0.011,0.63338 -0.0165,0.95008 0.13317,1.59798 2.39305,1.40965 2.25989,-0.18833 z" />
  <path
     style="fill:#000000;fill-opacity:1;stroke-opacity:0.391521"
     id="path21"
     d="m 294.21473,470.46729 c -0.0415,-0.17919 -0.0998,-0.35531 -0.12461,-0.53757 -0.21266,-1.56161 0.39528,-3.63709 0.93048,-5.076 0.19728,-0.53042 0.45345,-1.03703 0.68018,-1.55554 1.12291,-2.1893 2.83369,-4.03434 4.8796,-5.39887 0.3065,-0.20442 0.632,-0.3788 0.948,-0.5682 0.83274,-0.38308 1.40628,-0.85917 2.33697,-0.63411 1.59003,0.20754 1.88354,-2.0411 0.29351,-2.24864 v 0 c -0.28866,-0.0262 -0.57638,-0.0905 -0.86598,-0.0786 -1.07793,0.0442 -2.00173,0.53973 -2.93856,1.02121 -0.37308,0.22759 -0.75753,0.4375 -1.11923,0.68277 -2.36828,1.60592 -4.33123,3.76434 -5.6157,6.32423 -0.25537,0.59616 -0.54316,1.17944 -0.76611,1.78846 -0.7412,2.02473 -1.37987,4.50393 -0.87542,6.65367 0.26362,1.5817 2.50048,1.20889 2.23687,-0.37281 z" />
  <path
     style="fill:#000000;fill-opacity:1;stroke-opacity:0.391521"
     id="path22"
     d="m 311.90526,470.56165 c -0.5756,-1.48151 -0.77266,-2.97094 -0.55783,-4.54748 0.0631,-0.46302 0.11901,-0.93227 0.26165,-1.37727 0.11509,-0.35909 0.33624,-0.67508 0.50436,-1.01262 1.23767,-1.72676 3.11335,-2.71858 5.0678,-3.42351 0.89988,-0.30489 1.80517,-0.4328 2.74398,-0.33118 1.59493,0.16566 1.82921,-2.08992 0.23427,-2.25558 v 0 c -1.28328,-0.12914 -2.53199,0.0365 -3.75695,0.45694 -2.52457,0.93329 -4.87184,2.27191 -6.34917,4.60537 -0.22477,0.51627 -0.51031,1.01015 -0.67431,1.54882 -0.16091,0.52848 -0.22849,1.08249 -0.29384,1.63105 -0.22681,1.90385 0.0148,3.73351 0.70348,5.51953 0.57563,1.49663 2.69219,0.68257 2.11656,-0.81407 z" />
  <path
     style="fill:#000000;fill-opacity:1;stroke-opacity:0.391521"
     id="path23"
     d="m 340.58881,471.0659 c -0.0501,-1.67717 0.0121,-3.34202 0.46939,-4.96784 0.115,-0.40887 0.27329,-0.80431 0.40994,-1.20646 0.80743,-1.85447 1.70769,-3.73733 3.09496,-5.23418 0.53022,-0.35634 1.10069,-0.81922 1.74433,-0.95724 0.0614,-0.0132 0.40283,0.0867 0.43674,0.0958 1.58738,0.22693 1.9083,-2.01797 0.32092,-2.24489 v 0 c -0.25215,-0.0261 -0.50304,-0.0853 -0.75643,-0.0784 -1.3094,0.0357 -2.45279,0.86358 -3.42264,1.65831 -1.57548,1.75406 -2.67623,3.87088 -3.5686,6.0416 -0.15787,0.47884 -0.34,0.95035 -0.4736,1.43651 -0.49054,1.78497 -0.57566,3.61725 -0.52272,5.45678 0,1.60352 2.26771,1.60352 2.26771,0 z" />
  <path
     style="fill:#000000;fill-opacity:1;stroke-opacity:0.391521"
     id="path24"
     d="m 370.4156,456.4395 c -0.17185,0.0119 -0.34744,-0.002 -0.51555,0.0356 -2.24971,0.50327 -3.9623,2.28965 -5.60971,3.77673 -1.26024,1.12514 -2.91734,2.25561 -3.56145,3.89734 -0.46023,1.17305 -0.31809,1.5193 -0.26079,2.73091 0.13221,0.42959 0.2182,0.87624 0.39665,1.28878 0.64997,1.50256 1.92991,2.74153 3.35021,3.51912 0.30266,0.16571 0.62706,0.28817 0.94059,0.43226 1.06334,0.43763 2.18618,0.62485 3.32543,0.69965 1.60034,0.10086 1.74299,-2.16236 0.14264,-2.26323 v 0 c -0.86833,-0.0518 -1.7255,-0.18293 -2.54023,-0.50564 -1.6268,-0.70437 -2.7624,-1.61397 -3.35427,-3.34498 -0.0613,-0.47061 -0.18445,-0.96196 -0.0287,-1.43628 0.45097,-1.37365 2.11983,-2.40169 3.10991,-3.33499 1.0031,-0.90647 2.93131,-2.82817 4.26,-3.19836 0.11128,-0.031 0.2302,-0.0195 0.3453,-0.0292 1.60352,0 1.60352,-2.26772 0,-2.26772 z" />
  <path
     style="fill:#000000;fill-opacity:1;stroke-opacity:0.391521"
     id="path25"
     d="m 391.51447,456.16859 c -2.02139,-0.0838 -3.84771,0.90489 -5.55488,1.87114 -1.56038,1.15176 -3.5375,2.69224 -4.36639,4.50693 -0.62129,1.36018 -0.49422,1.8209 -0.53298,3.25357 0.20111,1.87836 0.9538,3.63317 2.53676,4.75987 0.91202,0.64915 1.44668,0.7522 2.48162,1.10936 2.10123,0.53306 4.0314,0.71933 6.14421,0.20148 1.55354,-0.39722 0.99179,-2.59426 -0.56175,-2.19704 v 0 c -1.60585,0.43662 -3.26563,0.22185 -4.86613,-0.15605 -0.59236,-0.1874 -1.16923,-0.32289 -1.70064,-0.66086 -1.08342,-0.68905 -1.59982,-1.81204 -1.76638,-3.04664 -0.0229,-0.75134 -0.12205,-1.32529 0.17906,-2.04712 0.63686,-1.52671 2.32144,-2.77406 3.58062,-3.75622 1.37247,-0.79939 0.74729,-0.49771 2.16921,-1.08795 0.38,-0.15774 0.85723,-0.38174 1.28162,-0.45203 0.2368,-0.0392 0.72311,-0.0307 0.97605,-0.0307 1.60352,0 1.60352,-2.26771 0,-2.26771 z" />
  <path
     style="fill:#000000;fill-opacity:1;stroke-opacity:0.391521"
     id="path26"
     d="m 406.74004,447.39901 c -0.10154,0.38484 -0.24548,0.76092 -0.3046,1.15451 -0.2535,1.68758 -0.14475,2.60325 0.0985,4.37397 0.33595,2.44505 0.97069,4.81169 1.64895,7.17789 0.77482,2.21679 2.08923,4.09842 4.21984,5.17827 0.90222,0.45727 1.4821,0.56076 2.43076,0.81014 1.04887,0.28229 2.09644,0.22061 3.14904,0.0337 1.57697,-0.2906 1.16599,-2.52077 -0.41097,-2.23016 v 0 c -0.73115,0.14203 -1.44101,0.20566 -2.17512,-3.1e-4 -0.96032,-0.23801 -1.89874,-0.47445 -2.71892,-1.06402 -1.16674,-0.83869 -1.8383,-2.01998 -2.31507,-3.3538 -0.64482,-2.23938 -1.23199,-4.47197 -1.57256,-6.78249 -0.2022,-1.37173 -0.33293,-2.25716 -0.15875,-3.57645 0.0416,-0.31518 0.15479,-0.6167 0.23219,-0.92504 0.56303,-1.50142 -1.5603,-2.29767 -2.12333,-0.79625 z" />
  <path
     style="fill:#000000;fill-opacity:1;stroke-opacity:0.391521"
     id="path27"
     d="m 421.26988,432.75892 c -1.35121,2.51194 -1.80917,5.40327 -2.06921,8.21177 0.0134,1.75068 0.41142,3.04785 1.74487,4.26114 1.19004,1.08281 2.72459,1.60923 4.20621,2.13052 0.40091,0.10945 0.80183,0.21891 1.20274,0.32836 1.54785,0.41886 2.14021,-1.77012 0.59236,-2.18898 v 0 c -0.35027,-0.0938 -0.70054,-0.18765 -1.05081,-0.28147 -1.45529,-0.49814 -3.86684,-1.22924 -4.32418,-2.94272 -0.0953,-0.35713 -0.0751,-0.73544 -0.11264,-1.10315 0.21137,-2.41632 0.60692,-4.88878 1.65598,-7.09739 0.93202,-1.30483 -0.91329,-2.62292 -1.84532,-1.31808 z" />
  <path
     style="fill:#000000;fill-opacity:1;stroke-opacity:0.391521"
     id="path28"
     d="m 436.60543,420.8328 c -0.1165,0.10077 -0.2555,0.18027 -0.34948,0.3023 -1.0702,1.38954 -1.47182,3.18261 -1.2375,4.91202 0.0765,0.56455 0.26049,1.10925 0.39074,1.66387 0.3834,0.65413 0.70436,1.34911 1.1502,1.96238 1.58977,2.18679 3.96891,3.9634 6.35181,5.19834 0.44217,0.22915 0.90442,0.41727 1.35662,0.62591 1.49576,0.56089 0.74518,0.35162 2.24718,0.64397 1.57879,0.28051 1.9755,-1.95224 0.3967,-2.23275 v 0 c -1.05598,-0.15971 -0.48372,-0.0245 -1.69949,-0.47293 -0.39503,-0.17945 -0.79876,-0.34087 -1.18509,-0.53835 -2.59221,-1.32502 -4.89654,-3.22836 -6.41685,-5.73228 -0.10897,-0.41023 -0.2515,-0.813 -0.3269,-1.23071 -0.18065,-1.00078 0.0143,-1.80885 0.33889,-2.74273 0.0396,-0.11399 0.0485,-0.24364 0.11799,-0.34227 0.0805,-0.11426 0.21129,-0.18311 0.31693,-0.27466 1.23186,-1.02655 -0.2199,-2.76865 -1.45175,-1.74211 z" />
  <path
     style="fill:#000000;fill-opacity:1;stroke-opacity:0.391521"
     id="path29"
     d="m 446.41569,406.08808 c 0.37032,2.4215 1.21267,4.78639 2.39682,6.931 0.30235,0.54758 0.65857,1.06364 0.98786,1.59546 1.53773,1.95294 3.41469,3.8 5.80427,4.66111 0.36631,0.13201 0.75073,0.20701 1.12609,0.31051 1.60858,0.30739 3.21861,0.10825 4.8064,-0.20164 0.94114,-0.22488 0.48673,-0.11291 1.36353,-0.3347 1.55451,-0.39344 0.9981,-2.59184 -0.5564,-2.1984 v 0 c -0.81926,0.20746 -0.40496,0.10482 -1.24295,0.30765 -1.25051,0.2458 -2.52004,0.43309 -3.79371,0.23398 -0.26384,-0.0646 -0.53432,-0.10651 -0.79152,-0.19389 -1.97098,-0.66962 -3.50467,-2.21651 -4.79137,-3.78439 -0.2921,-0.46484 -0.60904,-0.91496 -0.8763,-1.39451 -1.02935,-1.84699 -1.74189,-3.8644 -2.165,-5.93218 0,-1.60352 -2.26772,-1.60352 -2.26772,0 z" />
  <path
     style="fill:#000000;fill-opacity:1;stroke-opacity:0.391521"
     id="path30"
     d="m 455.3214,398.85646 c 2.00219,1.14277 3.90292,2.44913 5.97126,3.47967 0.50762,0.25292 1.02955,0.47603 1.54432,0.71404 2.77252,1.17706 5.4301,1.61342 8.43442,1.26739 0.55026,-0.0634 1.09236,-0.18433 1.63854,-0.27649 1.47766,-0.2587 2.888,-0.75992 4.23965,-1.39707 1.44733,-0.69028 0.47113,-2.73712 -0.97621,-2.04684 v 0 c -1.15813,0.56065 -2.37882,0.97989 -3.64837,1.2091 -0.47121,0.0831 -0.9387,0.191 -1.41362,0.24923 -2.64602,0.32445 -4.8766,-0.0386 -7.32499,-1.06472 -1.50814,-0.69308 -2.95962,-1.43931 -4.37965,-2.30199 -0.76854,-0.46689 -1.76452,-1.15005 -2.56743,-1.58931 -0.28953,-0.1584 -0.59662,-0.28232 -0.89493,-0.42347 -1.54183,-0.44052 -2.16481,1.73994 -0.62299,2.18046 z" />
  <path
     style="fill:#000000;fill-opacity:1;stroke-opacity:0.391521"
     id="path31"
     d="m 454.15879,376.83045 c 1.53863,1.03415 3.43351,1.46196 5.26156,1.6164 0.61514,0.052 1.23401,0.04 1.85101,0.06 0.68261,-0.0805 1.37008,-0.12708 2.04781,-0.24158 2.15615,-0.36428 4.60944,-1.08175 6.55414,-2.10299 0.38071,-0.19992 0.73679,-0.44358 1.10519,-0.66537 0.75341,-0.45042 1.39804,-1.0329 2.02771,-1.63595 1.15351,-1.11386 -0.42173,-2.74517 -1.57524,-1.6313 v 0 c -0.50494,0.4928 -1.02199,0.96662 -1.6327,1.33086 -0.29418,0.18205 -0.57745,0.38304 -0.88254,0.54614 -2.27373,1.21555 -5.04314,1.82217 -7.57938,2.1334 -2.01211,-0.049 -4.19178,-0.13954 -5.91966,-1.29642 -1.3342,-0.88947 -2.59211,0.99738 -1.2579,1.88685 z" />
  <path
     style="fill:#000000;fill-opacity:1;stroke-opacity:0.391521"
     id="path32"
     d="m 452.84148,363.4704 c 1.49113,1.42888 3.28538,2.57888 5.36623,2.88599 0.56387,0.0832 1.13774,0.0709 1.70661,0.1064 3.0734,-0.20153 5.95489,-1.27009 8.77605,-2.42224 1.01194,-0.38727 2.05731,-0.67213 2.69172,-1.62578 0.11726,-0.17627 0.18702,-0.37987 0.28054,-0.5698 0.20857,-0.78732 0.15605,-0.36845 0.12323,-1.26044 -0.22631,-1.58747 -2.47133,-1.26742 -2.24502,0.32005 v 0 c 0.0765,-0.15403 0.0591,-0.15844 0.0521,0.0135 -0.0173,0.0576 -0.0416,0.11352 -0.052,0.17274 -0.005,0.0276 0.0213,0.0598 0.007,0.0838 -0.22763,0.379 -1.36667,0.51524 -1.71495,0.76663 -2.51388,1.02706 -5.07291,1.9977 -7.80118,2.25689 -0.43571,-0.0166 -0.87421,0.002 -1.30714,-0.0498 -1.584,-0.18975 -2.90699,-1.05975 -4.09302,-2.07019 -0.98447,-1.26574 -2.77449,0.1265 -1.79003,1.39224 z" />
  <path
     style="fill:#000000;fill-opacity:1;stroke-opacity:0.391521"
     id="path33"
     d="m 447.90836,348.21672 c 2.16368,0.97127 4.49849,0.65543 6.73971,0.17145 1.11943,-0.29131 2.19217,-0.72891 3.13375,-1.40931 0.36181,-0.26145 0.86913,-0.70559 1.21329,-0.99939 0.96254,-0.81845 1.7115,-1.82841 2.49277,-2.80861 0.31125,-0.43026 0.1681,-0.20346 0.42734,-0.68172 0.7128,-1.43638 -1.31855,-2.44443 -2.03135,-1.00805 v 0 c -0.0213,0.14164 0.002,0.0349 -0.17178,0.27941 -0.68804,0.86891 -1.34406,1.7659 -2.19024,2.495 -1.0585,0.9056 -1.95729,1.59726 -3.35924,1.91752 -1.28805,0.28716 -2.67209,0.57934 -4.00037,0.38648 -0.3855,-0.056 -0.86215,-0.23828 -1.23973,-0.37108 -1.43423,-0.71712 -2.44838,1.31119 -1.01415,2.0283 z" />
  <path
     style="fill:#000000;fill-opacity:1;stroke-opacity:0.391521"
     id="path34"
     d="m 443.2267,325.1832 c 0.96024,1.2337 1.97059,2.49696 3.34804,3.29234 1.1551,0.66699 1.44971,0.63344 2.75725,0.94508 1.41034,0.18325 2.83793,0.22819 4.23747,-0.0694 1.29094,-0.27453 2.45507,-0.83133 3.62773,-1.41158 1.94933,-1.2574 3.69089,-2.81131 5.28081,-4.4943 1.09954,-1.16717 -0.55109,-2.72215 -1.65063,-1.55498 v 0 c -1.40335,1.49449 -2.94784,2.86165 -4.64178,4.01969 -0.95067,0.47786 -1.90551,0.95676 -2.95091,1.19831 -1.12255,0.25937 -2.27315,0.2226 -3.41011,0.0987 -0.90213,-0.18061 -1.14961,-0.15723 -1.95363,-0.59226 -1.09543,-0.59268 -1.85011,-1.60046 -2.65342,-2.51748 -0.76785,-1.40772 -2.75867,-0.32182 -1.99082,1.0859 z" />
  <path
     style="fill:#000000;fill-opacity:1;stroke-opacity:0.391521"
     id="path35"
     d="m 443.35362,309.24428 c 0.92663,1.97741 2.97273,2.40164 4.92609,2.7653 1.85443,0.10989 3.74323,0.31294 5.59115,-1.2e-4 1.12572,-0.19072 1.46899,-0.37068 2.53523,-0.75926 1.40339,-0.66035 2.6708,-1.5601 3.89832,-2.49808 1.27279,-0.97533 -0.10654,-2.77533 -1.37933,-1.8 v 0 c -1.04614,0.80422 -2.12783,1.57328 -3.30759,2.1719 -0.7985,0.30262 -1.15263,0.47962 -1.99369,0.63122 -1.63113,0.29401 -3.30102,0.089 -4.94099,0.0227 -0.88158,-0.15323 -1.66567,-0.30091 -2.47751,-0.6808 -0.12667,-0.0593 -0.26011,-0.10985 -0.37248,-0.19311 -0.21173,-0.15687 -0.27521,-0.33169 -0.39484,-0.55309 -0.63165,-1.47387 -2.71601,-0.58057 -2.08436,0.8933 z" />
  <path
     style="fill:#000000;fill-opacity:1;stroke-opacity:0.391521"
     id="path36"
     d="m 447.47307,301.84814 c 1.31876,0.0405 2.61336,-0.006 3.87991,-0.43087 0.50667,-0.16993 0.99021,-0.4023 1.48531,-0.60345 2.42196,-1.09979 4.63063,-2.60504 6.78132,-4.15615 1.30009,-0.93863 -0.0273,-2.77724 -1.32743,-1.8386 v 0 c -2.00634,1.45016 -4.06619,2.86001 -6.32089,3.89932 -0.39871,0.16867 -0.78853,0.36015 -1.19613,0.50602 -1.07639,0.3852 -2.17661,0.38677 -3.30209,0.35602 -1.60352,0 -1.60352,2.26771 0,2.26771 z" />
  <path
     style="fill:#000000;fill-opacity:1;stroke-opacity:0.391521"
     id="path37"
     d="m 443.24524,287.29024 c 1.74804,0.49764 3.50833,0.9771 5.33038,1.1026 0.5005,0.0345 1.00305,0.0254 1.50458,0.0381 2.29308,0.0363 4.48849,-0.55979 6.64247,-1.27249 0.61108,-0.18699 1.21309,-0.40136 1.79389,-0.66738 1.45054,-0.68351 0.48391,-2.73489 -0.96664,-2.05138 v 0 c -0.48983,0.24333 -1.02344,0.39071 -1.53989,0.56593 -1.90784,0.63186 -3.84616,1.18669 -5.87938,1.15816 -0.43336,-0.008 -0.86752,0.003 -1.30008,-0.0243 -1.66523,-0.10623 -3.27005,-0.55297 -4.86821,-1.00061 -1.52123,-0.50707 -2.23835,1.64427 -0.71712,2.15135 z" />
  <path
     style="fill:#000000;fill-opacity:1;stroke-opacity:0.391521"
     id="path38"
     d="m 437.90397,273.88322 c 1.22388,0.90391 2.63215,1.61251 3.99407,2.27984 1.77755,0.87099 2.71321,1.33013 4.67549,1.76336 0.81252,0.17939 1.64781,0.23281 2.47171,0.34922 3.2794,0.25452 6.48554,-0.47083 9.53528,-1.61777 0.24711,-0.13095 0.49421,-0.2619 0.74131,-0.39285 1.40704,-0.76911 0.31935,-2.75895 -1.08768,-1.98985 v 0 c -0.15212,0.0873 -0.30424,0.17455 -0.45636,0.26182 -2.69074,1.026 -5.52952,1.68358 -8.42708,1.4916 -0.71158,-0.0923 -1.43253,-0.12946 -2.13474,-0.27698 -1.80984,-0.38022 -2.6106,-0.78857 -4.27169,-1.6005 -0.70529,-0.34474 -2.46281,-1.26558 -3.23354,-1.74334 -0.19434,-0.12046 -0.36592,-0.27427 -0.54887,-0.41141 -1.33421,-0.88947 -2.59211,0.99739 -1.2579,1.88686 z" />
  <path
     style="fill:#000000;fill-opacity:1;stroke-opacity:0.391521"
     id="path39"
     d="m 432.91914,255.75325 c 1.06496,2.1121 2.90351,3.7105 4.7303,5.15219 1.48949,1.0142 3.23137,1.96359 5.08492,2.01223 0.32875,0.009 0.65628,-0.0436 0.98441,-0.0654 2.24043,-0.39191 3.66027,-1.93829 5.16612,-3.4951 1.41933,-1.45233 2.72342,-3.01538 3.96997,-4.61724 0.14534,-0.18024 0.29068,-0.36049 0.43602,-0.54074 1.00622,-1.24852 -0.75945,-2.67152 -1.76567,-1.423 v 0 c -0.15355,0.19062 -0.3071,0.38124 -0.46065,0.57186 -1.19498,1.5386 -2.44789,3.03825 -3.80966,4.43252 -1.08471,1.12149 -2.14941,2.42412 -3.73143,2.81241 -0.18744,0.0228 -0.37353,0.0647 -0.56231,0.0683 -1.35871,0.0263 -2.82544,-0.81355 -3.91097,-1.53926 -1.6523,-1.29078 -3.29508,-2.71896 -4.24419,-4.62672 -0.88947,-1.3342 -2.77633,-0.0763 -1.88686,1.25791 z" />
  <path
     style="fill:#000000;fill-opacity:1;stroke-opacity:0.391521"
     id="path40"
     d="m 439.9826,236.87842 c 2.22325,1.48116 4.40346,3.02678 6.75912,4.29376 0.42294,0.1551 0.83334,0.34997 1.26881,0.46529 1.53471,0.40642 3.24479,0.34514 4.77245,-0.0585 0.32227,-0.0851 0.63227,-0.21136 0.94841,-0.31704 0.94281,-0.41798 1.66737,-1.07774 2.38196,-1.79568 1.11834,-1.14916 -0.50682,-2.73074 -1.62516,-1.58157 v 0 c -0.44782,0.47596 -0.91678,0.91515 -1.49577,1.23331 -1.68447,0.60544 -3.49297,0.74376 -5.17974,0.0553 -2.30994,-1.23225 -4.43022,-2.76892 -6.6126,-4.20806 -1.35282,-0.86089 -2.5703,1.0523 -1.21748,1.91319 z" />
  <path
     style="fill:#000000;fill-opacity:1;stroke-opacity:0.391521"
     id="path41"
     d="m 444.62647,224.37421 c 1.33424,1.485 3.11304,2.44906 4.89188,3.2981 1.19033,0.39555 2.63818,1.08776 3.92457,1.04506 1.06355,-0.0353 1.32657,-0.23922 2.30984,-0.62713 1.42397,-0.7789 3.02383,-1.77114 4.10206,-3.0111 0.19339,-0.2224 0.35816,-0.46814 0.53725,-0.70221 0.1377,-0.22415 0.27541,-0.44829 0.41312,-0.67243 0.82975,-1.37215 -1.11076,-2.54559 -1.94051,-1.17344 v 0 c -0.0958,0.16206 -0.19167,0.32412 -0.2875,0.48619 -0.94344,1.29914 -2.30842,2.20625 -3.69789,2.98024 -0.26672,0.12134 -0.86236,0.43463 -1.20996,0.4635 -1.00575,0.0835 -2.24033,-0.55986 -3.17891,-0.83749 -1.47301,-0.69403 -2.95582,-1.47558 -4.09316,-2.66592 -1.00171,-1.25214 -2.7725,0.16449 -1.77079,1.41663 z" />
  <path
     style="fill:#000000;fill-opacity:1;stroke-opacity:0.391521"
     id="path42"
     d="m 450.48787,211.06954 c 2.52013,1.24919 5.01203,0.49142 7.53835,-0.3012 1.68525,-0.64127 3.24844,-1.53461 4.79661,-2.44656 1.38149,-0.8141 0.23018,-2.76782 -1.15131,-1.95372 v 0 c -1.40068,0.82576 -2.81182,1.63966 -4.32914,2.23813 -1.92455,0.61416 -3.8927,1.37308 -5.84035,0.43505 -1.43423,-0.71712 -2.44839,1.31119 -1.01416,2.0283 z" />
  <path
     style="fill:#000000;fill-opacity:1;stroke-opacity:0.391521"
     id="path43"
     d="m 450.00851,196.7336 c 1.94748,0.0907 3.57294,-0.31117 5.31391,-1.21583 0.47105,-0.24477 0.91529,-0.538 1.37293,-0.807 2.12566,-1.273 3.96063,-2.87096 5.66095,-4.65827 1.10443,-1.16253 -0.53964,-2.72445 -1.64408,-1.56191 v 0 c -1.55376,1.63791 -3.2279,3.1028 -5.17305,4.26933 -1.06596,0.63782 -2.11309,1.28352 -3.33831,1.57265 -0.71481,0.16869 -1.46587,0.11696 -2.19235,0.13331 -1.60351,0 -1.60351,2.26772 0,2.26772 z" />
  <path
     style="fill:#000000;fill-opacity:1;stroke-opacity:0.391521"
     id="path44"
     d="m 448.04496,185.37681 c 2.78862,-1.42083 5.35332,-3.22565 7.88602,-5.05193 1.55577,-1.12359 0.81538,-0.59833 2.21843,-1.57959 1.31394,-0.91915 0.0141,-2.77734 -1.29987,-1.85819 v 0 c -1.43044,1.00086 -0.68127,0.46912 -2.24515,1.59857 -2.43341,1.75565 -4.89538,3.49425 -7.57358,4.86283 -1.43423,0.71712 -0.42008,2.74542 1.01415,2.02831 z" />
  <path
     style="fill:#000000;fill-opacity:1;stroke-opacity:0.391521"
     id="path45"
     d="m 452.96025,128.36466 c 2.20841,-0.52089 4.3115,-1.45216 6.21814,-2.68012 0.67286,-0.43335 1.31136,-0.91786 1.96705,-1.37679 2.14667,-1.52581 4.0711,-3.33134 6.15238,-4.93992 0.2345,-0.18124 1.35754,-0.99074 1.6614,-1.21043 -0.0875,-0.11949 1.72043,-1.0919 0.54162,-0.51731 1.5902,-0.20626 1.2985,-2.45514 -0.29169,-2.24888 v 0 c -0.21756,0.0758 -0.44637,0.12485 -0.65267,0.22741 -0.34668,0.17234 -0.58043,0.53065 -0.926,0.70112 -0.39254,0.28385 -1.43545,1.0348 -1.75455,1.28153 -2.04197,1.57883 -3.9317,3.34839 -6.03402,4.85085 -0.60163,0.42429 -1.18769,0.87155 -1.80488,1.27287 -1.72247,1.12002 -3.62447,1.97237 -5.62679,2.43967 -1.55564,0.38891 -1.00563,2.58891 0.55001,2.2 z" />
  <path
     style="fill:#000000;fill-opacity:1;stroke-opacity:0.391521"
     id="path46"
     d="m 451.64671,139.49056 c 1.6728,-0.44167 3.41722,-0.55234 5.08042,-1.03705 0.5344,-0.15574 1.05322,-0.36064 1.57984,-0.54096 3.21008,-1.16598 5.85853,-3.3621 8.43451,-5.53718 0.27904,-0.23684 0.55808,-0.47368 0.83712,-0.71052 1.22254,-1.03763 -0.24489,-2.76655 -1.46743,-1.72892 v 0 c -0.27777,0.23576 -0.55555,0.47152 -0.83332,0.70729 -2.3608,1.99633 -4.77703,4.03974 -7.71353,5.12666 -0.45039,0.15831 -0.89324,0.34001 -1.35119,0.47493 -1.61568,0.47601 -3.31483,0.57183 -4.93923,1.00888 -1.58171,0.26362 -1.20889,2.50048 0.37281,2.23687 z" />
  <path
     style="fill:#000000;fill-opacity:1;stroke-opacity:0.391521"
     id="path47"
     d="m 455.46047,150.89547 c 0.99541,0.71037 2.11075,1.34566 3.33496,1.54635 0.28481,0.0467 0.57491,0.0517 0.86237,0.0776 2.05289,0.032 3.75184,-1.2208 5.426,-2.2535 0.27488,-0.19947 0.55212,-0.39573 0.82466,-0.5984 0.2284,-0.16985 0.44148,-0.36075 0.67803,-0.51906 0.80468,-0.53852 1.74676,-0.7583 2.67799,-0.95867 1.5661,-0.34439 1.07905,-2.55919 -0.48705,-2.2148 v 0 c -1.2742,0.28509 -2.47092,0.64023 -3.57002,1.37328 -0.2226,0.14847 -0.42313,0.32764 -0.63703,0.48838 -0.22425,0.16852 -0.45158,0.3329 -0.67737,0.49935 -0.83343,0.51439 -0.78412,0.48932 -1.62805,0.98864 -0.58204,0.34438 -1.22046,0.77017 -1.90159,0.89961 -0.1751,0.0333 -0.35575,0.0227 -0.53362,0.034 -0.40562,-0.0218 -0.6293,-0.009 -1.01784,-0.1232 -0.66667,-0.19638 -1.27974,-0.57285 -1.85813,-0.94618 -1.20677,-1.05592 -2.70008,0.65071 -1.49331,1.70663 z" />
  <path
     style="fill:#000000;fill-opacity:1;stroke-opacity:0.391521"
     id="path48"
     d="m 438.00698,87.328002 c 0.28848,-0.164108 0.57834,-0.325793 0.86543,-0.492325 0.40194,-0.233162 0.79151,-0.488202 1.2016,-0.706726 1.02502,-0.546201 2.2078,-1.035169 3.23648,-1.562807 1.30379,-0.668752 2.02804,-1.1279 3.2715,-1.871341 1.25907,-0.814022 2.46418,-1.721156 3.52629,-2.783386 0.50405,-0.504116 0.96229,-1.052077 1.44897,-1.572992 1.0945,-1.171888 -0.5628,-2.719756 -1.6573,-1.547867 v 0 c -0.44883,0.480701 -0.86878,0.988597 -1.33142,1.456012 -0.94658,0.956342 -2.0254,1.770174 -3.15105,2.502351 -1.12003,0.670945 -1.9151,1.171438 -3.08402,1.770777 -1.75568,0.900179 -3.60014,1.632733 -5.24748,2.736038 -1.46532,0.651251 -0.54431,2.723516 0.921,2.072266 z" />
  <path
     style="fill:#000000;fill-opacity:1;stroke-opacity:0.391521"
     id="path49"
     d="m 441.57778,98.662816 c 0.63727,-0.04683 1.31618,0.03962 1.94636,-0.07885 0.96076,-0.180624 2.00126,-0.541662 2.88123,-0.959244 0.52209,-0.247754 1.01527,-0.552339 1.5229,-0.828508 1.86365,-1.237146 3.7134,-2.527631 5.33397,-4.078091 0.54004,-0.516669 1.21713,-1.257701 1.7393,-1.818995 0.14952,-0.160024 0.29905,-0.320048 0.44858,-0.480072 1.09476,-1.171646 -0.5622,-2.71988 -1.65696,-1.548233 v 0 c -0.15079,0.161381 -0.30158,0.322763 -0.45237,0.484144 -0.44824,0.482356 -1.14169,1.239715 -1.59935,1.680987 -1.48837,1.435079 -3.19925,2.616455 -4.90573,3.77309 -1.06227,0.591318 -2.22027,1.273876 -3.43614,1.51063 -0.58746,0.114391 -1.22664,0.03115 -1.82179,0.07543 -1.60352,0 -1.60352,2.267717 0,2.267717 z" />
  <path
     style="fill:#000000;fill-opacity:1;stroke-opacity:0.391521"
     id="path50"
     d="m 444.62136,114.29782 c 2.41406,-0.67699 4.70008,-1.75939 6.6441,-3.36402 0.66208,-0.5465 1.25963,-1.16677 1.88944,-1.75016 1.88088,-1.95252 3.55613,-4.08614 5.26322,-6.18792 1.01092,-1.24471 -0.74936,-2.67437 -1.76029,-1.42966 v 0 c -1.64131,2.02098 -3.25188,4.07238 -5.0498,5.95935 -0.55592,0.52273 -1.08278,1.0782 -1.66778,1.56818 -1.66392,1.39364 -3.60562,2.32111 -5.66371,2.96288 -1.58487,0.24383 -1.24005,2.48517 0.34482,2.24135 z" />
  <path
     style="fill:#000000;fill-opacity:1;stroke-opacity:0.391521"
     id="path51"
     d="m 367.04643,49.334023 c 0.93613,0.582781 1.66476,1.476221 2.39605,2.282435 0.7508,0.827737 1.59598,1.792551 2.33617,2.632374 1.08599,1.21149 2.11144,2.473565 3.22518,3.65985 1.09862,1.168038 2.75047,-0.385639 1.65186,-1.553677 v 0 c -1.09923,-1.166323 -2.10256,-2.415599 -3.17581,-3.605624 -0.68939,-0.782146 -1.67671,-1.908357 -2.37354,-2.673736 -0.91853,-1.008886 -1.83738,-2.095251 -3.04575,-2.76993 -1.43423,-0.717114 -2.44839,1.311193 -1.01416,2.028308 z" />
  <path
     style="fill:#000000;fill-opacity:1;stroke-opacity:0.391521"
     id="path52"
     d="m 379.38134,42.886477 c 0.15444,0.07558 0.32075,0.130633 0.46332,0.226741 1.22939,0.828726 1.87633,2.985643 2.34705,4.279329 0.71819,2.131839 1.30332,4.310336 1.49051,6.556749 -0.0523,0.576587 0.0212,0.336086 -0.15505,0.738277 -0.47329,1.532079 1.6934,2.201409 2.16669,0.66933 v 0 c 0.27849,-1.043841 0.19444,-0.509698 0.24763,-1.603134 -0.21819,-2.444942 -0.82391,-4.822052 -1.6205,-7.141408 -0.82021,-2.224612 -1.68797,-4.752255 -4.01864,-5.798149 -1.46531,-0.65125 -2.38632,1.421015 -0.92101,2.072265 z" />
  <path
     style="fill:#000000;fill-opacity:1;stroke-opacity:0.391521"
     id="path53"
     d="m 394.73313,38.55643 c 0.38267,0.831106 0.89951,1.64254 1.12117,2.540186 0.35458,1.435979 0.25643,3.196492 0.25696,4.664207 -0.13808,2.03815 -0.48567,4.115933 -1.42783,5.948912 -0.5108,0.852386 -0.3888,0.466798 -0.62643,1.672413 0.0818,1.60143 2.34656,1.48576 2.26477,-0.115671 v 0 c -0.63573,1.240181 0.33337,-0.444814 0.38859,-0.539851 1.06894,-2.168559 1.54825,-4.56137 1.66862,-6.968418 -0.003,-1.826891 0.0553,-3.687146 -0.40753,-5.474118 -0.25696,-0.992244 -0.81773,-1.893505 -1.2475,-2.813561 -0.76785,-1.407721 -2.75867,-0.32182 -1.99082,1.085901 z" />
  <path
     style="fill:#000000;fill-opacity:1;stroke-opacity:0.391521"
     id="path54"
     d="m 409.52372,37.266234 c 0.41126,0.703535 0.80976,1.405945 0.99349,2.216497 0.19402,0.855993 0.15546,1.402023 0.17085,2.282663 -0.0585,2.256338 -1.02455,4.267882 -2.01768,6.239704 -0.50949,0.824225 -1.19118,1.497389 -1.92642,2.116342 -1.22028,1.040288 0.25091,2.766018 1.47119,1.72573 v 0 c 0.9576,-0.824293 1.84368,-1.71662 2.48067,-2.822193 1.17273,-2.32955 2.21744,-4.649617 2.25923,-7.316809 -0.0157,-0.497273 0.002,-0.996702 -0.047,-1.491819 -0.16502,-1.673215 -0.76216,-3.220536 -1.78081,-4.553633 -1.13386,-1.133858 -2.73738,0.46966 -1.60352,1.603518 z" />
  <path
     style="fill:#000000;fill-opacity:1;stroke-opacity:0.391521"
     id="path55"
     d="m 424.50696,43.338843 c 0.0675,2.227421 0.26415,4.500136 -0.1046,6.713645 -0.0728,0.436957 -0.20534,0.861832 -0.30801,1.292748 -0.25696,0.943056 -0.58037,1.892789 -1.18447,2.678185 -0.47362,0.615761 -1.13201,1.091926 -1.72378,1.583866 -0.45769,0.381822 -0.96753,0.689742 -1.47182,1.003799 -1.36051,0.848692 -0.16028,2.772745 1.20023,1.924053 v 0 c 0.59136,-0.369437 1.18582,-0.736875 1.7226,-1.185118 0.40711,-0.339444 1.10091,-0.902429 1.45807,-1.270049 1.14411,-1.177634 1.81325,-2.642576 2.20859,-4.223858 0.11816,-0.524138 0.26898,-1.04197 0.35449,-1.572414 0.37803,-2.34503 0.18995,-4.747609 0.11066,-7.106425 -0.11425,-1.599443 -2.3762,-1.437874 -2.26196,0.161568 z" />
  <path
     style="fill:#000000;fill-opacity:1;stroke-opacity:0.391521"
     id="path56"
     d="m 437.45453,54.791072 c -0.083,1.60011 -0.49689,3.151567 -0.86062,4.703323 -0.9298,3.966862 -0.15054,0.758709 -1.15893,4.842322 -0.90319,3.319462 -1.55864,6.768876 -3.13705,9.854214 -0.35717,0.597999 -0.77318,0.85632 -1.45731,0.790153 -1.60323,0.03064 -1.55989,2.297946 0.0433,2.267302 v 0 c 0.27191,-0.01598 0.54748,-5.86e-4 0.81571,-0.04794 1.18361,-0.208963 2.02514,-0.981374 2.62134,-1.984956 1.63296,-3.251715 2.40018,-6.835257 3.31559,-10.335228 0.97061,-3.93221 0.27923,-1.078423 1.16373,-4.86214 0.37826,-1.618098 0.80938,-3.238392 0.89913,-4.906348 0.22677,-1.587401 -2.01815,-1.908105 -2.24492,-0.320703 z" />
  <path
     style="fill:#000000;fill-opacity:1;stroke-opacity:0.391521"
     id="path57"
     d="m 256.03425,44.480062 c 0.20784,0.01734 0.59917,0.04165 0.7879,0.09725 0.75589,0.222659 1.3283,1.174138 1.73093,1.764605 0.56912,1.101242 1.22785,2.493019 1.40559,3.732711 0.0541,0.376957 -0.0298,0.994466 -0.0659,1.363654 -0.11223,0.406674 -0.16001,1.155695 -0.6515,1.327673 -1.29932,0.939693 0.0296,2.777216 1.32893,1.837524 v 0 c 0.15108,-0.12024 0.316,-0.224898 0.45324,-0.360719 0.70403,-0.696752 0.97527,-1.663879 1.12888,-2.612197 0.0646,-0.849176 0.13924,-1.240619 0.004,-2.114749 -0.0541,-0.349918 -0.16384,-0.689292 -0.26454,-1.02874 -0.35754,-1.20525 -0.83557,-2.375371 -1.48655,-3.453424 -0.25443,-0.351371 -0.48165,-0.724147 -0.76328,-1.054114 -0.97574,-1.143186 -2.11284,-1.745301 -3.60784,-1.767186 -1.60351,0 -1.60351,2.267717 0,2.267717 z" />
  <path
     style="fill:#000000;fill-opacity:1;stroke-opacity:0.391521"
     id="path58"
     d="m 281.81407,42.641326 c 1.00373,1.512788 1.90832,3.122106 2.28166,4.918291 0.10749,0.517122 0.1518,1.045385 0.22769,1.568078 0.11055,1.958611 -0.0859,3.966885 -0.81499,5.804551 -0.29767,0.750239 -0.53445,1.049623 -0.96092,1.708616 -0.53024,0.735773 -1.04663,1.633428 -2.02543,1.740973 -1.57332,0.309763 -1.13524,2.534765 0.43807,2.225001 v 0 c 0.20762,-0.04736 0.42072,-0.07513 0.62288,-0.142096 1.30149,-0.431158 2.13515,-1.519107 2.87895,-2.608412 0.567,-0.906509 0.8107,-1.205781 1.2078,-2.237717 0.83496,-2.169801 1.05401,-4.526934 0.89583,-6.830267 -0.0968,-0.618421 -0.15533,-1.244064 -0.29043,-1.855263 -0.44619,-2.01859 -1.43828,-3.843827 -2.57425,-5.549658 -0.88948,-1.334207 -2.77633,-0.0763 -1.88686,1.257903 z" />
  <path
     style="fill:#000000;fill-opacity:1;stroke-opacity:0.391521"
     id="path59"
     d="m 308.08107,51.817672 c 0.70477,1.117692 0.63694,2.380149 0.47892,3.64497 -0.19035,1.523491 -0.31581,1.876895 -0.66661,3.358759 -0.58121,2.10976 -1.32517,4.217017 -2.58196,6.02567 -0.5743,0.572804 -1.10657,1.269372 -1.84755,1.636975 -0.17426,0.04243 -0.0975,0.04536 -0.22969,0.01979 -1.59146,0.196203 -1.31399,2.44688 0.27748,2.250677 v 0 c 0.72527,-0.123609 0.3801,-0.02746 1.03794,-0.279558 1.03278,-0.585878 1.87114,-1.443715 2.63261,-2.346213 1.39364,-2.056529 2.2873,-4.393985 2.91882,-6.78889 0.67857,-2.910784 1.53123,-6.119885 -0.17464,-8.840264 -0.93203,-1.304836 -2.77735,0.01325 -1.84532,1.318084 z" />
  <path
     style="fill:#000000;fill-opacity:1;stroke-opacity:0.391521"
     id="path60"
     d="m 335.38608,56.381159 c 1.03291,1.330562 2.09365,2.676554 2.81675,4.209677 0.55156,1.16944 0.6797,1.785684 1.04702,3.030921 0.45259,1.906663 0.82205,3.877845 0.43409,5.83121 -0.18297,0.921255 -0.37594,1.2839 -0.72288,2.137525 -0.43192,0.928752 -0.84837,1.943808 -1.60079,2.672558 -0.30654,0.296893 -0.26298,0.305203 -0.30721,0.07719 -0.0395,-0.04826 -0.0791,-0.09652 -0.11861,-0.144787 -1.55367,-0.396743 -2.11474,1.800466 -0.56108,2.197209 v 0 c 0.3738,0.05729 0.74759,0.114575 1.12139,0.171862 0.34485,-0.115231 0.71217,-0.177542 1.03454,-0.345693 0.21794,-0.113681 0.38437,-0.308396 0.55627,-0.484096 0.90649,-0.926504 1.46042,-2.141367 1.98249,-3.305741 0.43227,-1.10498 0.65031,-1.512525 0.86793,-2.709928 0.4114,-2.263594 0.0288,-4.540762 -0.51313,-6.745801 -0.44977,-1.491853 -0.56266,-2.076248 -1.23752,-3.483409 -0.79434,-1.656332 -1.93299,-3.12088 -3.05715,-4.560453 -1.02655,-1.231856 -2.76866,0.219901 -1.74211,1.451757 z" />
  <path
     style="fill:#000000;fill-opacity:1;stroke-opacity:0.391521"
     id="path61"
     d="m 149.56514,18.201426 c 1.78262,0.01207 3.57358,-0.08352 5.34088,0.210754 0.3628,0.06041 0.71946,0.153146 1.0792,0.229719 0.2871,0.121866 0.58746,0.216305 0.8613,0.3656 1.11131,0.605865 2.10298,1.689415 2.42225,2.93458 0.089,0.347053 0.0952,0.710202 0.14286,1.065303 0.0601,2.254351 -0.49477,4.467659 -1.5033,6.473533 -0.3234,0.527755 -0.61213,1.084074 -1.06378,1.514818 -1.12015,1.147408 0.50253,2.731531 1.62268,1.584122 v 0 c 0.59131,-0.626351 1.06391,-1.330697 1.47235,-2.090687 1.20081,-2.444436 1.86731,-5.115019 1.70901,-7.853994 -0.10006,-0.532448 -0.13898,-1.080115 -0.30018,-1.597345 -0.55801,-1.790394 -1.99945,-3.30223 -3.6553,-4.134095 -0.39732,-0.199604 -0.8293,-0.321056 -1.24394,-0.481585 -0.4229,-0.08701 -0.84247,-0.192171 -1.2687,-0.261016 -1.85924,-0.300303 -3.74052,-0.222223 -5.61533,-0.227424 -1.60352,0 -1.60352,2.267717 0,2.267717 z" />
  <path
     style="fill:#000000;fill-opacity:1;stroke-opacity:0.391521"
     id="path62"
     d="m 171.22867,18.620256 c 1.21939,-0.213742 2.65284,-0.603738 3.88781,-0.344347 0.26586,0.05584 0.50791,0.192957 0.76186,0.289435 0.88031,0.504024 1.80714,1.073763 2.40966,1.918738 0.68939,0.966793 0.91597,2.145886 1.12814,3.281617 0.26066,1.976375 -0.38235,3.351658 -1.2786,5.035763 -0.78657,1.2322 -1.84072,2.252732 -2.90058,3.247385 -0.61369,0.516071 -0.31494,0.300979 -0.88166,0.665101 -1.33484,0.888525 -0.0783,2.776271 1.25656,1.887746 v 0 c 0.80387,-0.547171 0.40986,-0.248415 1.17857,-0.9008 1.23878,-1.166948 2.46337,-2.370904 3.3507,-3.837271 1.14929,-2.175307 1.8648,-4.003066 1.49947,-6.538726 -0.26227,-1.267057 -0.29491,-1.802343 -0.87148,-2.99729 -0.92109,-1.908975 -2.32523,-3.000806 -4.1859,-3.917647 -0.44701,-0.13276 -0.88209,-0.315659 -1.34102,-0.398279 -1.45222,-0.261441 -3.29686,0.146242 -4.73065,0.45723 -1.52123,0.507077 -0.80411,2.658421 0.71712,2.151345 z" />
  <path
     style="fill:#000000;fill-opacity:1;stroke-opacity:0.391521"
     id="path63"
     d="m 197.33515,25.739178 c 0.77199,-0.117605 1.63966,-0.153462 2.29628,0.35533 0.15729,0.121873 0.27304,0.289512 0.40956,0.434268 0.64835,1.086662 1.1566,2.338048 1.01443,3.627217 -0.0848,0.768591 -0.28452,1.247665 -0.52404,1.974378 -0.28925,0.723527 -0.60586,1.480932 -1.1485,2.060278 -0.36175,0.386221 -0.9009,0.6248 -1.35108,0.883679 -0.24172,0.05157 -0.7241,0.530564 -1.00818,0.340628 -0.0274,-0.01831 -0.006,-0.07376 -0.0325,-0.09335 -0.38389,-0.195667 -0.21566,-0.08098 -0.5127,-0.332001 -1.29785,-0.94173 -2.62965,0.893707 -1.3318,1.835437 v 0 c 1.53413,1.046708 2.37664,1.112497 4.01977,0.212759 0.41915,-0.243199 0.98776,-0.556254 1.35787,-0.852333 1.07517,-0.860122 1.69247,-2.102611 2.16747,-3.365585 0.31551,-1.014098 0.56874,-1.624647 0.63081,-2.715877 0.082,-1.442134 -0.32111,-2.905084 -1.00865,-4.168964 -0.21093,-0.387749 -0.50202,-0.726183 -0.75303,-1.089275 -0.31905,-0.266659 -0.60562,-0.577897 -0.95716,-0.799978 -1.08887,-0.68787 -2.41128,-0.737376 -3.64136,-0.543476 -1.5817,0.263617 -1.20889,2.500479 0.37281,2.236862 z" />
  <path
     style="fill:#000000;fill-opacity:1;stroke-opacity:0.391521"
     id="path64"
     d="m 229.46328,38.447107 c 1.14575,1.202538 2.13979,2.56616 2.81771,4.088577 0.18482,0.415062 0.33166,0.846019 0.49748,1.269029 0.48084,1.661837 1.16832,3.293089 1.37614,5.023244 0.095,0.791227 0.0461,1.053284 -0.003,1.814938 -0.21972,1.124678 -0.78687,2.160559 -1.39347,3.123634 -0.20531,0.244382 -0.10098,0.150499 -0.29619,0.299286 -1.18228,1.083279 0.34971,2.755269 1.53198,1.67199 v 0 c 0.49445,-0.478771 0.26411,-0.221436 0.68963,-0.773239 0.79833,-1.294728 1.52695,-2.669461 1.7323,-4.196426 0.0493,-1.018714 0.10469,-1.297241 -0.031,-2.350171 -0.24155,-1.875042 -0.95822,-3.65005 -1.49829,-5.448772 -0.19528,-0.488146 -0.36788,-0.985985 -0.58584,-1.464438 -0.78916,-1.732373 -1.92022,-3.290868 -3.23402,-4.66117 -1.13386,-1.133858 -2.73738,0.46966 -1.60352,1.603518 z" />
  <path
     style="fill:#000000;fill-opacity:1;stroke-opacity:0.391521"
     id="path65"
     d="m 71.239718,8.5619288 c 0.266746,-0.2257482 0.935981,-1.0333066 1.315403,-0.7939603 0.06948,0.043831 0.09761,0.1324979 0.139579,0.2031205 0.08425,0.1417743 0.159115,0.2889214 0.238672,0.433382 0.854854,1.5412199 1.481509,3.237646 1.592383,5.009839 0.06337,1.012976 -0.02802,1.4563 -0.139796,2.437157 -0.216378,1.169475 -0.519909,2.367225 -1.291571,3.299133 -0.380068,0.547657 -0.838225,0.975582 -1.380148,1.355704 -1.303661,0.933668 0.01675,2.777323 1.320407,1.843655 v 0 c 0.700717,-0.508963 1.327539,-1.074984 1.831968,-1.784527 1.013928,-1.297381 1.521963,-2.850809 1.773927,-4.470262 0.125375,-1.214121 0.230575,-1.734153 0.131517,-2.991759 C 76.595326,10.859679 75.795521,8.709853 74.569762,6.8345131 74.18735,6.4974569 73.872926,6.0620624 73.422527,5.8233446 71.817254,4.9725271 70.333655,6.1446103 69.352863,7.304026 c -0.889471,1.3342074 0.997383,2.5921102 1.886855,1.2579028 z" />
  <path
     style="fill:#000000;fill-opacity:1;stroke-opacity:0.391521"
     id="path66"
     d="m 86.659317,14.032462 c 0.852869,1.151459 1.64178,2.409518 1.982023,3.818193 0.0845,0.349828 0.120491,0.709618 0.180736,1.064428 0.12714,1.351406 0.07218,2.724061 -0.349002,4.024216 -0.228356,0.704923 -0.48877,1.203969 -0.802979,1.872503 -0.37739,0.807434 -0.790271,1.597327 -1.393542,2.257937 -1.057873,1.205062 0.646342,2.70112 1.704215,1.496058 v 0 c 0.722309,-0.84254 1.294732,-1.777731 1.744547,-2.795553 0.403332,-0.870727 0.659582,-1.351287 0.94793,-2.281597 0.49953,-1.611653 0.559801,-3.308258 0.380637,-4.975535 -0.08579,-0.455986 -0.14022,-0.919003 -0.257361,-1.367957 -0.454169,-1.740653 -1.419021,-3.324032 -2.533686,-4.716211 -1.133858,-1.133858 -2.737376,0.469659 -1.603518,1.603518 z" />
  <path
     style="fill:#000000;fill-opacity:1;stroke-opacity:0.391521"
     id="path67"
     d="m 107.00336,21.624639 c 0.0152,0.03135 0.0164,0.07504 0.0455,0.09406 0.13611,0.08872 0.29533,0.136805 0.43526,0.21936 0.69271,0.408679 1.41649,0.909462 1.80882,1.639646 0.14771,0.27491 0.22322,0.582882 0.33483,0.874323 0.2954,0.99734 0.6129,2.034293 0.50482,3.090723 -0.0936,0.914765 -0.52507,1.773617 -0.89557,2.597633 -0.78408,1.777736 -2.05966,3.232778 -3.29351,4.704023 -0.21583,0.228995 -0.4995,0.748706 -0.90069,0.750776 -1.49619,0.576798 -0.68047,2.692725 0.81571,2.115927 v 0 c 0.8309,-0.376503 1.26112,-0.655522 1.8226,-1.409583 1.36987,-1.633723 2.76328,-3.264955 3.62812,-5.240056 0.50802,-1.153953 0.99985,-2.287783 1.09053,-3.567205 0.0958,-1.351331 -0.28259,-2.671888 -0.68992,-3.940812 -0.21341,-0.461654 -0.37557,-0.950647 -0.64022,-1.384962 -0.70943,-1.164248 -2.34484,-2.396238 -3.68689,-2.692796 -0.30297,-0.06695 -0.61962,-0.03405 -0.92943,-0.05107 -1.55564,0.38891 -1.00564,2.588918 0.55,2.200008 z" />
  <path
     style="fill:#000000;fill-opacity:1;stroke-opacity:0.391521"
     id="path68"
     d="m 123.74701,23.663266 c 1.16204,-0.264734 2.36965,-0.08174 3.30762,0.695064 0.24048,0.199163 0.43682,0.446295 0.65523,0.669442 0.50383,0.627745 0.94043,1.086112 1.26187,1.84312 0.83294,1.961654 0.88812,4.200055 0.97465,6.292322 -0.007,1.088847 -0.0517,2.180861 -0.17416,3.263555 -0.0613,0.542002 -0.12161,1.06374 -0.37592,1.548464 -0.0529,-0.07454 -0.10578,-0.149088 -0.15867,-0.223632 -1.4444,0.696417 -0.45951,2.739098 0.98488,2.042681 v 0 c 0.41589,-0.300568 0.83178,-0.601136 1.24768,-0.901704 0.0927,-0.226379 0.20489,-0.445723 0.27809,-0.679137 0.48986,-1.56203 0.37287,-3.535565 0.46377,-5.146622 -0.10869,-2.490575 -0.24612,-5.0484 -1.29376,-7.359296 -0.43607,-0.96188 -0.98003,-1.518817 -1.6371,-2.314823 -0.35343,-0.326398 -0.67301,-0.693779 -1.06029,-0.979194 -1.5751,-1.160813 -3.55721,-1.38339 -5.3949,-0.822506 -1.46531,0.65125 -0.5443,2.723516 0.92101,2.072266 z" />
  <path
     style="fill:#000000;fill-opacity:1;stroke-opacity:0.391521"
     id="path69"
     d="m 55.935058,50.560785 c 1.522547,-1.156641 3.214312,-2.017254 4.971453,-2.752873 0.288644,-0.09854 0.568957,-0.226115 0.865932,-0.295627 0.690123,-0.161535 1.605491,-0.05368 2.212437,0.3271 0.158581,0.09949 0.29359,0.232356 0.440385,0.348534 1.011091,0.88202 1.673623,2.044525 1.877753,3.369836 -0.0071,0.07138 -0.01429,0.142759 -0.02144,0.214138 -0.01245,1.60347 2.255195,1.621082 2.267648,0.01761 v 0 c -0.0049,-0.212041 -0.0099,-0.424082 -0.01484,-0.636123 -0.05195,-0.2634 -0.08453,-0.531371 -0.155847,-0.7902 -0.438819,-1.59265 -1.374454,-2.968006 -2.636553,-4.021549 -0.293721,-0.197987 -0.568787,-0.426951 -0.881163,-0.59396 -1.505983,-0.80516 -3.301557,-0.638164 -4.832881,-0.03037 -1.926123,0.812211 -3.782546,1.760645 -5.453518,3.029313 -1.282814,0.96211 0.07782,2.776283 1.36063,1.814173 z" />
  <path
     style="fill:#000000;fill-opacity:1;stroke-opacity:0.391521"
     id="path70"
     d="m 52.304753,28.756242 c 2.094235,-1.170008 4.16228,-2.38872 6.327005,-3.425685 0.853665,-0.332268 1.870365,-0.743737 2.780989,-0.341024 0.396571,0.175379 0.619958,0.432585 0.941204,0.72263 1.277579,1.166641 1.79994,2.81903 2.149416,4.462531 0.03287,0.774114 0.06905,0.41072 -0.07916,1.092709 -0.252347,1.583537 1.987113,1.94041 2.23946,0.356873 v 0 c 0.169793,-1.297338 0.154103,-0.653975 0.05598,-1.929854 -0.471049,-2.140696 -1.227195,-4.230012 -2.914314,-5.724683 -0.756162,-0.600835 -0.9806,-0.89251 -1.907794,-1.195498 -1.433368,-0.468396 -2.914296,-0.04764 -4.246684,0.511723 -2.174673,1.044798 -4.259284,2.258615 -6.360251,3.441971 -1.43423,0.717115 -0.420076,2.745422 1.014154,2.028307 z" />
  <path
     style="fill:#000000;fill-opacity:1;stroke-opacity:0.391521"
     id="path71"
     d="m 54.263915,64.493231 c 0.130185,-0.291493 0.339602,-0.758468 0.713327,-0.806713 0.03298,-0.0043 0.39547,0.194914 0.398218,0.196368 2.122345,1.418796 3.666972,3.411639 5.156912,5.443795 1.088807,1.394202 2.121277,2.841958 2.625038,4.553556 0.06849,-0.175736 0.196025,1.135296 0.06122,0.866214 -0.596717,1.488354 1.508134,2.332239 2.10485,0.843885 v 0 c 0.05937,-0.187936 0.141532,-0.370141 0.17811,-0.563808 0.114457,-0.60601 -0.03192,-1.221228 -0.174562,-1.806063 -0.617335,-1.983782 -1.678743,-3.613285 -2.966447,-5.235496 -1.548398,-2.107897 -3.167813,-4.284092 -5.401483,-5.724921 -0.362573,-0.233878 -0.763842,-0.401468 -1.145763,-0.602202 -0.370693,-0.04518 -0.73951,-0.160952 -1.11208,-0.135528 -1.363883,0.09307 -2.235338,1.234276 -2.637348,2.420911 -0.38891,1.555641 1.811098,2.105643 2.200008,0.550002 z" />
  <path
     style="fill:#000000;fill-opacity:1;stroke-opacity:0.391521"
     id="path72"
     d="m 31.240635,68.591387 c 0.193307,0.01993 0.391425,0.01253 0.579921,0.05979 1.683447,0.422106 3.112798,1.657894 4.205106,2.948396 0.373571,0.441353 0.702916,0.918313 1.054375,1.37747 1.457483,2.051691 2.385005,4.386001 2.987711,6.813785 0.08051,0.734909 0.478085,1.851542 0.154456,2.559832 -0.125607,0.451247 -0.369572,0.807114 -0.669095,1.154636 -0.997302,1.255651 0.778457,2.666048 1.775758,1.410397 v 0 c 0.45065,-0.59186 0.864158,-1.181704 1.065035,-1.912145 0.06221,-0.242737 0.145056,-0.481102 0.186631,-0.728211 0.159761,-0.949557 -0.184664,-2.103491 -0.312799,-3.034598 -0.686679,-2.729067 -1.738981,-5.34972 -3.392284,-7.648987 -0.405053,-0.521324 -0.781368,-1.066305 -1.21516,-1.563971 -1.497192,-1.717649 -3.365204,-3.137045 -5.626586,-3.634282 -0.259188,-0.05699 -0.528713,-0.04655 -0.793069,-0.06983 -1.603517,0 -1.603517,2.267716 0,2.267716 z" />
  <path
     style="fill:#000000;fill-opacity:1;stroke-opacity:0.391521"
     id="path73"
     d="m 14.942421,89.066502 c 0.207318,-0.166815 0.399932,-0.353771 0.621956,-0.500447 1.954132,-1.290961 4.776737,-1.895162 7.054616,-2.318353 0.441641,-0.01217 0.883876,-0.06244 1.324923,-0.0365 1.470858,0.08649 3.299319,0.647122 4.518573,1.491821 0.295553,0.20476 0.54836,0.465203 0.82254,0.697804 0.649378,0.705913 1.276056,1.465882 1.698965,2.335176 0.02542,0.05225 0.329345,0.596492 0.123367,0.773134 -0.04303,0.0369 -0.111265,-0.02168 -0.166898,-0.03252 -0.806353,1.386024 1.153781,2.526381 1.960135,1.140356 v 0 c 0.158106,-0.378232 0.401475,-0.731273 0.47432,-1.134698 0.297359,-1.64681 -1.668798,-3.757283 -2.654017,-4.83667 -0.389778,-0.310554 -0.754312,-0.65575 -1.169334,-0.931662 -1.577251,-1.048575 -3.812406,-1.6929 -5.691427,-1.768907 -0.553165,-0.02238 -1.106141,0.04921 -1.659212,0.07382 -2.773143,0.524655 -5.703883,1.168584 -8.070833,2.790677 -0.282152,0.193361 -0.527461,0.435635 -0.791192,0.653453 -1.133858,1.133858 0.469659,2.737376 1.603518,1.603516 z" />
  <path
     style="fill:#000000;fill-opacity:1;stroke-opacity:0.391521"
     id="path74"
     d="m 12.544135,107.4507 c 0.819553,-1.01729 1.866165,-1.9395 3.064395,-2.49044 0.203948,-0.0938 0.425843,-0.14217 0.638765,-0.21325 1.44566,0.44947 2.877891,1.23135 3.965151,2.29945 0.239979,0.23574 0.441264,0.50789 0.661896,0.76183 0.424462,0.63798 1.393018,2.03442 1.313493,2.84466 0.113738,1.59948 2.375743,1.43863 2.262004,-0.16085 v 0 c -0.02335,-0.20832 -0.02588,-0.42004 -0.07004,-0.62497 -0.283642,-1.31622 -1.032055,-2.49712 -1.812099,-3.56717 -0.301209,-0.33191 -0.578976,-0.68671 -0.903628,-0.99572 -1.090042,-1.03754 -3.204198,-2.40523 -4.69747,-2.66472 -0.490104,-0.0852 -0.994764,-0.0163 -1.492147,-0.0245 -0.332333,0.12657 -0.675985,0.22669 -0.997,0.37971 -1.615603,0.77012 -3.031654,2.0481 -4.005585,3.53494 -0.6512498,1.46531 1.421016,2.38632 2.072266,0.921 z" />
  <path
     style="fill:#000000;fill-opacity:1;stroke-opacity:0.391521"
     id="path75"
     d="m 14.14512,130.25255 c 1.869712,-1.76622 3.589862,-3.67789 5.434945,-5.46959 0.437482,-0.34735 0.823347,-0.77219 1.312447,-1.04204 1.653372,-0.91223 4.312274,-0.0896 5.951599,0.51857 0.361429,0.19283 1.247266,0.63296 1.009626,1.23146 -0.02042,0.0514 -0.08944,0.0668 -0.125074,0.10917 -0.07296,0.0867 -0.132556,0.18382 -0.198833,0.27573 -0.772802,1.40501 1.214179,2.49791 1.986981,1.09291 v 0 c 0.366395,-0.74116 0.607373,-1.00587 0.566454,-1.89222 -0.06718,-1.45527 -1.265899,-2.38121 -2.461995,-2.94744 -1.963069,-0.70622 -4.145003,-1.34737 -6.25277,-0.88563 -1.782632,0.39052 -2.019019,0.82826 -3.368959,1.9133 -1.791564,1.74272 -3.476378,3.58586 -5.271052,5.32499 -1.252137,1.00171 0.164494,2.7725 1.416631,1.77079 z" />
  <path
     style="fill:#000000;fill-opacity:1;stroke-opacity:0.391521"
     id="path76"
     d="m 16.857641,146.13586 c 1.079579,-1.42951 1.954571,-2.99008 3.179719,-4.30972 1.060483,-1.14227 1.516196,-1.45264 2.705282,-2.43254 1.050796,-0.74783 2.087338,-1.57363 3.273837,-2.10685 0.281103,-0.12633 0.798708,-0.31194 1.148472,-0.2552 0.07886,0.0128 0.132464,0.0894 0.198695,0.13404 0.009,0.0556 0.0099,0.11324 0.02709,0.16694 0.296571,0.92742 -0.09875,-0.55992 0.245409,0.67497 0.130754,0.46916 0.180835,0.94057 0.225218,1.4236 0.153774,1.59613 2.411039,1.37866 2.257265,-0.21747 v 0 c -0.122943,-1.23187 -0.316252,-2.70371 -1.263984,-3.61301 -0.26658,-0.25577 -0.608852,-0.41861 -0.913278,-0.62792 -0.34772,-0.0644 -0.689651,-0.18396 -1.043161,-0.19313 -1.903839,-0.0494 -4.143406,1.86184 -5.60179,2.86732 -1.330609,1.1064 -1.816446,1.43662 -3.003756,2.73061 -1.22717,1.33743 -2.136295,2.88717 -3.205809,4.34173 -1.00171,1.25214 0.769079,2.66877 1.770789,1.41663 z" />
  <path
     style="fill:#000000;fill-opacity:1;stroke-opacity:0.391521"
     id="path77"
     d="m 23.458269,152.35773 c 1.527534,-0.81063 3.075993,-1.64428 4.719274,-2.20056 0.414037,-0.14016 0.83963,-0.24353 1.259446,-0.3653 1.60534,-0.37118 3.010528,-0.35179 4.411689,0.58496 0.225366,0.15067 0.427477,0.33351 0.641216,0.50026 0.266735,0.30302 0.743297,0.58609 0.806635,1.02296 0.630979,1.47416 2.715749,0.58182 2.08477,-0.89234 v 0 c -0.113072,-0.22892 -0.200553,-0.47237 -0.339217,-0.68676 -0.312033,-0.48244 -0.775167,-0.86559 -1.185362,-1.25337 -0.812118,-0.59949 -1.069774,-0.86251 -2.027479,-1.26088 -1.625025,-0.67594 -3.350893,-0.5955 -5.030981,-0.19073 -0.481629,0.14285 -0.969742,0.26543 -1.444887,0.42855 -1.706209,0.58577 -3.321211,1.44058 -4.909257,2.28491 -1.43423,0.71711 -0.420077,2.74542 1.014153,2.0283 z" />
  <path
     style="fill:#000000;fill-opacity:1;stroke-opacity:0.391521"
     id="path78"
     d="m 26.560715,168.16466 c 1.574977,-0.28775 3.18184,-0.24879 4.775515,-0.23523 1.010433,0.0712 1.985384,0.33014 2.814758,0.93037 0.271142,0.19623 0.905036,0.78048 1.135794,0.98837 0.43628,0.4714 0.925102,0.947 1.135155,1.56905 0.615513,1.48068 2.70951,0.61021 2.093998,-0.87047 v 0 c -0.40683,-0.91218 -0.981418,-1.70029 -1.714486,-2.38628 -0.463846,-0.41491 -0.979597,-0.90145 -1.493763,-1.25121 -1.176841,-0.80053 -2.544653,-1.16215 -3.952422,-1.24747 -1.839925,-0.0152 -3.706568,-0.0633 -5.511664,0.35152 -1.52123,0.50708 -0.804115,2.65842 0.717115,2.15135 z" />
  <path
     style="fill:#000000;fill-opacity:1;stroke-opacity:0.391521"
     id="path79"
     d="m 25.346986,183.53325 c 1.603014,-1.25283 3.646529,-1.46799 5.608017,-1.60788 0.781139,0.005 1.331996,-0.0438 2.087566,0.14897 1.152479,0.29401 2.194616,1.05299 3.130476,1.75142 1.246678,0.91334 1.737194,1.79594 2.360329,3.14222 0.287509,0.54761 0.167794,0.30445 0.367448,0.72533 0.691836,1.4466 2.737627,0.46819 2.045792,-0.9784 v 0 c -0.224422,-0.46636 -0.106144,-0.23293 -0.355501,-0.69995 -0.137759,-0.29728 -0.455278,-0.99262 -0.593461,-1.23964 -0.616654,-1.10232 -1.478315,-2.00759 -2.477084,-2.77349 -1.268942,-0.9298 -2.61142,-1.8145 -4.170343,-2.17424 -0.943144,-0.21764 -1.604286,-0.16294 -2.563797,-0.16367 -2.447305,0.18928 -4.947595,0.54829 -6.915252,2.14755 -1.217482,1.04356 0.258329,2.76533 1.47581,1.72178 z" />
  <path
     style="fill:#000000;fill-opacity:1;stroke-opacity:0.391521"
     id="path80"
     d="m 26.560715,197.15243 c 0.788243,-0.28815 1.564383,-0.61589 2.370938,-0.85154 0.234293,-0.0685 0.464655,-0.17351 0.708465,-0.18518 0.165442,-0.008 0.320037,0.0855 0.480055,0.12826 1.516196,0.55439 2.755691,1.58706 3.912468,2.67998 1.169688,1.14596 2.255252,2.38654 3.215561,3.71339 0.247119,0.42163 0.225097,0.23879 0.230264,0.50223 0.478701,1.5304 2.643009,0.85341 2.164308,-0.67698 v 0 c -0.296532,-0.80604 -0.110303,-0.41944 -0.560492,-1.15893 -1.048649,-1.43635 -2.217794,-2.78949 -3.493419,-4.02917 -1.516116,-1.42859 -3.169185,-2.74023 -5.222702,-3.28485 -0.434982,-0.0222 -0.87054,-0.098 -1.304946,-0.0665 -0.286098,0.0207 -0.55648,0.14014 -0.831568,0.22143 -0.810845,0.23963 -1.594656,0.56161 -2.386047,0.85653 -1.52123,0.50707 -0.804115,2.65842 0.717115,2.15134 z" />
  <path
     style="fill:#000000;fill-opacity:1;stroke-opacity:0.391521"
     id="path81"
     d="m 20.528862,222.78489 c 2.668308,-1.28814 5.302632,-2.64252 8.003365,-3.86317 1.439729,-0.50011 3.061062,-1.5181 4.642342,-1.32347 0.05629,0.0249 0.118082,0.0399 0.168859,0.0746 0.02368,0.0162 0.44588,0.68167 0.477719,0.73102 0.0345,0.10782 0.02915,0.0591 0.02905,0.14406 0.436917,1.54285 2.61883,0.92495 2.181913,-0.61789 v 0 c -0.169831,-0.52812 -0.06478,-0.27022 -0.31678,-0.77302 -0.614139,-0.92129 -1.191322,-1.63381 -2.363,-1.81953 -0.236387,-0.0136 -0.472464,-0.0467 -0.709163,-0.0407 -1.780088,0.0456 -3.417566,0.95172 -5.045307,1.55859 -2.695801,1.21965 -5.328451,2.56628 -7.990002,3.85718 -1.465313,0.65125 -0.544306,2.72352 0.921007,2.07227 z" />
  <path
     style="fill:#000000;fill-opacity:1;stroke-opacity:0.391521"
     id="path82"
     d="m 29.510356,232.87257 c 2.622276,-0.56356 5.292314,-0.86507 7.975747,-0.86397 0.624086,2.6e-4 1.247536,0.0399 1.871304,0.0598 2.209767,0.10929 4.14462,0.19546 5.988251,1.5142 -0.129648,0.13317 0.587392,0.34964 0.466972,0.56108 -0.04428,0.0778 -0.138187,-0.11369 -0.207305,-0.17051 -0.05994,-0.0493 -0.119908,-0.0985 -0.179862,-0.14776 -0.954329,1.28861 0.868046,2.63824 1.822375,1.34963 v 0 c 0.208323,-0.41151 0.547091,-0.7799 0.624969,-1.23451 0.171984,-1.00395 -0.600436,-1.66334 -1.244979,-2.22838 -0.247923,-0.16532 -0.484884,-0.3484 -0.74377,-0.49597 -1.973806,-1.12507 -4.231419,-1.32198 -6.456667,-1.41442 -0.669287,-0.02 -1.338276,-0.0606 -2.007861,-0.0599 -2.846146,0.003 -5.67912,0.32738 -8.459176,0.9307 -1.555641,0.38891 -1.005639,2.58892 0.550002,2.20001 z" />
  <path
     style="fill:#000000;fill-opacity:1;stroke-opacity:0.391521"
     id="path83"
     d="m 34.417215,245.646 c 2.199743,-0.2623 4.417102,-0.45254 6.634691,-0.41912 0.649896,0.01 1.29876,0.0554 1.94814,0.083 1.916178,0.12624 3.859479,0.34164 5.657459,1.05967 0.291702,0.11649 0.585696,0.23467 0.854592,0.39701 0.200105,0.12082 0.360883,0.29718 0.541324,0.44577 0.186635,0.18378 1.269502,1.58066 0.950489,1.77907 -0.134681,1.59785 2.125023,1.78832 2.259704,0.19047 v 0 c 0.0031,-0.23376 0.03857,-0.46932 0.0094,-0.70128 -0.153887,-1.22545 -1.034046,-2.22299 -1.847922,-3.07407 -0.323376,-0.23412 -0.62496,-0.50175 -0.970127,-0.70235 -0.337205,-0.19597 -0.703046,-0.33977 -1.066484,-0.48128 -2.006103,-0.78113 -4.159787,-1.04499 -6.293928,-1.17875 -0.691086,-0.0283 -1.38166,-0.0753 -2.073259,-0.0848 -2.443679,-0.0334 -4.910029,0.14411 -7.321232,0.53528 -1.521231,0.50708 -0.804116,2.65842 0.717115,2.15135 z" />
</svg>
