<svg width="557" height="313" viewBox="0 0 557 313" fill="none" xmlns="http://www.w3.org/2000/svg">
<g filter="url(#filter0_d_12_8)">
<path d="M75.7452 0H47.8697H28.6767H17.7093L9.48371 8.23912L4 29.2946V38.907V58.1316V84.2221V110.313V125.418V139.15L17.7093 170.733L28.6767 206.893V220.625C30.5046 224.745 36.9023 235.456 47.8697 245.343C61.5789 257.701 36.0919 264.567 53 286.538C69.9081 308.509 75.7452 286.538 92.1963 286.538H118.244C130.582 286.538 153.888 296.151 163.485 296.151H204.612C218.322 296.151 214.209 304.39 243.455 304.39C272.702 304.39 268.132 305.763 274.987 304.39C281.841 303.016 291.438 301.643 307.889 296.151C324.34 290.658 317.485 296.151 355.871 286.538C386.58 278.848 381.14 288.296 372 291.5H395.5C402.355 290.127 404.676 280.771 413.45 274.18H433.1C437.67 273.722 448.455 271.159 455.035 264.567C463.261 256.328 471.486 267.314 471.486 264.567C471.486 261.821 493.421 260.448 493.421 254.955C493.421 250.561 503.475 246.716 508.501 245.343L543.231 232.069L551 216.963C549.629 208.572 543.231 200.119 537.748 191.331C530.893 180.345 537.748 171.648 537.748 164.782C537.748 157.916 536.377 146.866 543.231 140C550.086 133.134 555.113 120.859 551 108.5C547.71 98.6131 548.715 52.2971 537.748 88L517 84.2221L493.421 103L455.035 99.3272C445.896 97.0385 424.783 90.8134 413.45 84.2221C399.284 75.983 401.112 84.2221 390.145 84.2221H355.871C350.388 84.2221 339.877 74.6098 333.48 74.6098L307.889 84.2221H248C241.948 88 238.043 56.7956 230 53.5C219.947 49.3804 213.295 54.9275 195.473 42.5688C181.215 32.6818 171.253 25.1751 172.624 29.2946H160.286L135.5 13L125.556 8.23912L112.303 0H92.1963H75.7452Z" fill="#7184D7"/>
</g>
<defs>
<filter id="filter0_d_12_8" x="0" y="0" width="556.485" height="313" filterUnits="userSpaceOnUse" color-interpolation-filters="sRGB">
<feFlood flood-opacity="0" result="BackgroundImageFix"/>
<feColorMatrix in="SourceAlpha" type="matrix" values="0 0 0 0 0 0 0 0 0 0 0 0 0 0 0 0 0 0 127 0" result="hardAlpha"/>
<feOffset dy="4"/>
<feGaussianBlur stdDeviation="2"/>
<feComposite in2="hardAlpha" operator="out"/>
<feColorMatrix type="matrix" values="0 0 0 0 0 0 0 0 0 0 0 0 0 0 0 0 0 0 0.25 0"/>
<feBlend mode="normal" in2="BackgroundImageFix" result="effect1_dropShadow_12_8"/>
<feBlend mode="normal" in="SourceGraphic" in2="effect1_dropShadow_12_8" result="shape"/>
</filter>
</defs>
</svg>
