<svg width="487" height="244" viewBox="0 0 487 244" fill="none" xmlns="http://www.w3.org/2000/svg">
<path d="M96.8605 12.1691C93.4482 10.3493 90.507 9.48148 86.7272 8.94151C84.5766 8.63428 83.2804 7.45864 81.3228 6.91485C77.2878 5.79402 73.2686 7.20419 69.2379 5.26351C59.6246 0.634852 48.5884 2.71142 38.0875 2.71142C29.2802 2.71142 24.8495 5.64283 19.1721 12.019C17.2108 14.2217 15.2629 16.0313 13.4674 18.3992C11.4317 21.084 7.71635 23.133 6.11143 25.9804C4.38653 29.0407 0.86564 34.4933 2.58355 38.2154C4.15832 41.6274 6.44924 41.8934 9.71437 41.8934C14.5162 41.8934 18.9974 42.3651 23.9009 42.0435C34.1089 41.3741 43.5417 41.4528 53.3249 43.7699C56.4724 44.5154 59.1954 45.5838 62.2572 46.8474C67.8145 49.1409 74.9 48.8372 80.7223 49.6998C85.4313 50.3974 90.3792 50 95.1341 50C101.736 50 108.455 50.3467 115.025 49.6622C122.534 48.88 130.226 49.3245 137.769 49.3245C146.88 49.3245 156.206 49.07 165.241 50.4504C179.944 52.6966 192.405 63.5348 207.238 64.8246C216.303 65.6129 225.125 64.9143 233.097 70.229C236.873 72.7464 240.513 76.0908 240.715 80.8502C241.012 87.8212 239.914 92.9615 233.847 97.1385C229.79 99.932 224.426 100.594 219.661 100.666C212.727 100.771 205.831 101.342 198.869 101.342C187.151 101.342 176.431 97.0147 164.941 94.7365C159.661 93.6897 154.673 91.3749 149.328 90.6832C146.644 90.3358 143.919 90.3448 141.222 90.0076C135.359 89.2749 129.101 89.8575 123.207 89.8575C114.575 89.8575 105.943 89.8575 97.3108 89.8575C83.2112 89.8575 69.1622 90.5331 55.0514 90.5331C43.8797 90.5331 32.7081 90.5331 21.5365 90.5331C17.9461 90.5331 14.3557 90.5331 10.7652 90.5331C7.36517 90.5331 8.04229 92.6997 7.61265 95.5997C7.17228 98.5722 4.98551 101.266 4.98551 104.382C4.98551 105.679 5.66506 100.944 5.32328 100.329C4.43159 98.7235 4.98551 96.0206 4.98551 94.2111C4.98551 90.1353 1.33119 86.7178 3.67194 82.4265C7.14124 76.0661 7.9427 68.097 8.40079 60.9965C8.68452 56.5987 9.21492 50.8523 10.3899 46.6222C10.531 46.1142 11.4437 40.675 10.9529 43.6198C9.98096 49.4513 8.19483 55.2767 6.71192 60.9965C4.00096 71.453 4.6481 82.1528 7.04969 92.5597C7.60234 94.9545 9.33099 96.8487 9.63931 99.3152C9.92329 101.587 9.82407 104.126 9.67684 106.409C9.37993 111.011 8.88396 115.462 9.03882 120.107C9.44347 132.247 28.9605 138.964 38.688 139.698C54.0896 140.861 68.8268 133.827 84.025 135.72C99.6454 137.665 114.842 140.524 130.563 140.524C150.864 140.524 171.236 137.574 191.363 135.119C203.615 133.625 214.048 135.792 225.928 138.572C231.133 139.79 236.188 142.306 241.579 142.513C246.651 142.708 251.59 142.844 256.628 143.564C266.01 144.904 275.274 146.698 284.401 149.306C295.856 152.579 307.385 153.76 318.741 157.75C323.631 159.468 329.619 160.592 333.266 164.581C335.932 167.498 338.279 170.766 340.697 173.889C343.206 177.13 344.178 180.758 343.324 184.885C339.434 203.686 312.874 201.323 298.775 201.323C289.793 201.323 281.531 200.938 272.729 199.297C268.121 198.438 263.658 196.256 258.993 195.919C253.42 195.516 248.373 193.898 243.08 192.166C231.514 188.382 219.254 183.978 206.975 183.759C199.274 183.622 191.559 183.759 183.856 183.759C172.485 183.759 161.215 182.408 149.854 182.408C142.273 182.408 134.691 182.408 127.11 182.408C118.729 182.408 108.852 183.529 101.064 179.856C97.0331 177.955 95.1499 172.562 91.3059 171.074C87.8183 169.724 81.7596 173.05 78.4705 174.452C72.0255 177.199 66.5015 180.039 59.2548 179.556C53.8535 179.196 47.6372 173.796 42.2909 177.004C37.5794 179.831 38.1242 187.988 38.0875 192.541C38.057 196.325 38.0999 199.77 37.0367 203.425C36.7526 204.402 36.4888 205.734 36.8865 206.728C38.6771 211.204 39.3827 215.826 42.5161 219.789C44.6844 222.531 48.3056 222.424 50.7729 224.442C55.216 228.078 60.5594 231.306 66.4607 231.198C70.6189 231.122 74.5537 232.328 78.6956 232.399C84.7119 232.502 90.8538 232.667 96.8605 232.324C107.009 231.744 116.831 231.048 127.035 231.048C138.127 231.048 150.429 231.818 161.376 229.959C166.866 229.027 171.223 228.733 176.801 229.697C180.883 230.402 184.953 231.56 189.111 231.686C199.787 232.009 210.738 230.902 221.35 229.697C233.071 228.365 245.146 229.021 256.929 229.021C260 229.021 262.881 229.077 265.898 228.646C273.244 227.596 279.814 229.316 286.916 230.86C291.517 231.86 296.5 230.588 301.177 231.123C304.552 231.509 306.986 232.364 310.56 232.061C313.437 231.817 316.256 231.534 319.117 231.198C323.78 230.649 327.743 230.674 332.253 229.171C336.297 227.823 341.854 227.956 346.139 228.346C353.955 229.056 358.88 236.652 365.73 238.854C369.407 240.036 373.546 242.882 377.439 242.382C383.664 241.582 392.189 240.381 397.706 237.278C400.872 235.497 404.102 232.134 405.287 228.646C407.297 222.729 400.843 217.858 399.845 212.47C399.054 208.2 396.755 201.424 393.615 198.283C390.355 195.023 385.202 193.653 380.967 192.241C376.85 190.869 372.383 188.919 368.019 188.563C366.287 188.422 343.707 190.203 342.761 188.075C341.283 184.75 340.937 183.909 341.448 180.081C341.882 176.825 344.325 174.965 346.702 173.063C355.73 165.84 370.528 169.573 381.005 169.573C402.331 169.573 423.884 169.187 445.145 167.508C458.272 166.472 468.408 158.068 477.646 149.569C485.301 142.526 488.54 130.497 480.161 122.209C473.414 115.535 462.965 113.763 453.964 112.263C447.526 111.19 441.274 109.403 434.861 108.21C408.688 103.341 381.927 102.156 355.296 100.816C342.242 100.16 328.626 102.184 315.739 99.8407C305.294 97.9416 294.931 95.278 284.514 93.2353C275.704 91.508 264.171 89.4115 257.792 82.5766C254.195 78.7229 253.062 70.323 255.765 65.8379C258.81 60.7856 265.797 57.5342 271.078 55.6296C280.126 52.3664 288.602 47.9543 298.1 46.2469C303.414 45.2916 309.445 45.9467 314.838 45.9467C320.63 45.9467 326.478 45.7336 332.253 46.2469C339.706 46.9095 346.715 49.599 354.17 50.0375C359.482 50.35 364.615 51.7823 369.971 52.0642C374.515 52.3034 378.736 53.6998 383.069 54.954C386.12 55.8372 389.504 55.3824 392.639 55.8548C406.054 57.8762 418.964 61.489 431.746 65.1999C438.032 67.0248 443.719 66.5864 447.547 72.7436C450.956 78.228 454.903 86.1406 454.903 92.8975C454.903 96.3462 453.558 102.695 457.605 104.044" stroke="white" stroke-width="3" stroke-linecap="round"/>
</svg>
