<svg width="415" height="248" viewBox="0 0 415 248" fill="none" xmlns="http://www.w3.org/2000/svg">
<path d="M55.1779 60.6481C48.6504 61.8138 40.2612 62.8227 34.5868 66.4601C32.1985 67.9911 28.6962 67.3659 25.9519 67.7471C22.7422 68.1928 19.1784 68.5066 15.9884 67.7471C14.5346 67.4009 12.3111 66.8494 11.0898 68.0377C7.44016 71.5886 4.71346 76.7279 3.9493 81.7374C3.36502 85.5676 3.6686 89.5054 3.61718 93.3614C3.54851 98.5122 2.19684 103.586 2.33024 108.722C2.55947 117.547 10.3286 124.187 17.3169 128.441C24.8813 133.045 33.5687 133.723 42.2255 133.879C55.9796 134.127 73.2937 133.707 81.8301 120.678C86.7207 113.213 93.2484 108.664 91.6275 98.7582C90.384 91.1591 85.5251 82.734 81.2904 76.382C77.233 70.2959 73.9611 64.4748 67.8813 60.0669C65.0161 57.9897 59.6016 57.4939 56.6724 59.5687C51.104 63.513 57.8875 58.6269 59.7445 57.5345C69.5319 51.7772 81.5253 48.6685 92.1256 44.6236C96.7283 42.8673 103.262 42.6494 108.233 42.7139C116.424 42.8203 122.42 46.289 126.375 53.4661C129.33 58.83 129.327 65.3208 128.409 71.1927C127.109 79.5137 128.021 87.9095 128.575 96.2674C128.949 101.904 129.086 110.657 131.979 115.696C135.803 122.357 143.182 126.73 149.374 130.932C156.527 135.786 162.364 139.419 171.169 140.189C175.645 140.581 180.256 140.843 184.163 138.238C187.528 135.995 190.687 133.025 193.919 130.558C199.553 126.258 205.171 122.557 209.445 116.858C214.213 110.5 219.661 103.858 223.186 96.724C228.815 85.332 231.895 73.8602 231.489 61.2708C231.184 51.8058 228.526 42.6499 233.44 33.9129C235.694 29.9058 238.583 27.8812 242.906 26.4403C249.31 24.3056 255.963 20.203 262.666 19.549C273.367 18.505 283.28 12.8661 293.719 10.7479C306.268 8.20173 316.623 1.61481 329.836 1.61481C336.036 1.61481 342.235 1.61481 348.435 1.61481C362.146 1.61481 374.404 10.4217 384.718 18.5526C395.154 26.779 384.307 38.3138 382.103 48.3184C380.044 57.6626 378.6 67.3398 375.917 76.5066C374.265 82.1509 375.269 88.289 373.592 93.9426C372.567 97.399 370.227 101.038 368.652 104.363C367.543 106.704 365.919 108.81 364.127 110.673C361.341 113.57 357.741 113.756 354.662 115.945C351.895 117.913 350.086 119.758 347.729 121.591C342.4 125.736 340.548 133.092 338.97 139.276C338.549 140.925 337.825 142.811 337.06 144.341C335.696 147.07 334.776 138.216 334.694 137.699C334.187 134.531 334.545 131.181 337.267 129.064C338.481 128.12 340.212 128.698 341.211 127.154C342.237 125.568 343.965 124.494 340.879 123.999C331.501 122.494 322.097 121.388 312.691 120.097C297.2 117.97 281.22 120.877 265.655 119.349C256.488 118.449 249.154 115.88 240.539 112.666C238.307 111.833 236.377 110.047 234.146 109.386C232.381 108.863 231.132 109.348 229.87 107.725C227.041 104.089 226.3 99.1988 226.3 94.7729C226.3 82.8335 223.837 118.702 220.156 130.06C215.25 145.193 206.069 158.202 200.561 172.986C196.854 182.937 197.281 193.596 201.972 203.291C204.843 209.223 208.792 215.574 213.555 220.188C216.928 223.456 221.037 225.98 224.556 229.113C230.839 234.706 235.753 238.456 244.068 241.152C254.517 244.541 267.788 249.992 277.362 242.107C290.937 230.928 292.806 209.169 292.806 193.079C292.806 184.821 293.854 176.491 293.553 168.253C293.224 159.254 287.088 154.463 279.064 152.602C264.091 149.13 248.65 151.797 233.772 148.077C227.606 146.536 222.485 143.556 217.623 139.442C210.715 133.597 214.823 127.264 219.325 121.923C225.034 115.153 231.684 109.515 241.12 111.088C243.415 111.47 245.761 111.273 248.012 111.835C253.813 113.285 257.751 117.676 263.164 120.097C277.095 126.324 292.833 123.418 307.502 123.418C316.698 123.418 326.008 123.948 335.067 122.089C345.257 119.999 343.305 134.666 341.253 140.023C338.197 148.003 332.962 155.452 330.501 163.604C328.706 169.547 330.104 181.167 334.029 186.27C338.525 192.115 343.894 197.739 350.054 201.797C359.734 208.174 368.539 207.849 379.571 206.695C388.536 205.758 397.416 205.9 405.808 201.88C414.549 197.691 413.754 187.545 411.412 179.504C408.769 170.429 405.346 161.592 403.109 152.395C402.011 147.878 399.728 143.301 399.082 138.778C398.44 134.282 398.142 126.741 394.017 123.833C390.047 121.033 384.015 118.868 379.321 117.44C373.282 115.602 366.34 112.209 359.893 112.209C354.523 112.209 346.658 112.665 343.619 117.44C342.797 118.732 341.979 121.604 340.173 121.882C331.743 123.179 323.13 118.781 314.808 118.187C300.978 117.199 287.295 119.297 273.543 116.526C262.69 114.34 252.296 108.587 241.411 107.103C235.784 106.335 222.642 108.389 220.654 101.332C217.091 88.6914 235.098 83.5316 234.354 71.0682C233.971 64.6623 231.461 55.8724 227.628 50.6017C226.504 49.0552 221.871 48.1617 220.322 47.5296C216.632 46.0244 213.059 44.1554 209.279 42.88C194.178 37.7856 177.106 35.663 161.33 35.2829C155.303 35.1377 149.4 34.9645 143.396 34.5356C138.01 34.1509 134.324 39.3141 129.738 41.3855C126.554 42.823 124.376 42.7139 120.854 42.7139C118.415 42.7139 106.721 44.3006 105.161 42.0912C100.941 36.113 100.013 32.4304 100.013 25.527C100.013 21.7699 104.238 15.0654 108.233 15.0654" stroke="white" stroke-width="3" stroke-linecap="round"/>
</svg>
