<svg width="561" height="321" viewBox="0 0 561 321" fill="none" xmlns="http://www.w3.org/2000/svg">
<g filter="url(#filter0_d_12_11)">
<path d="M37.1342 153.458L42.0436 140.088H37.1342C36.5391 138.899 35.0812 135.72 34.0101 132.511C32.6711 128.5 28.6543 124.935 27.3154 120.478C26.2443 116.913 24.7863 117.21 24.1913 117.804V111.5C16.1345 108 18.2107 103.364 13.9262 102.651C8.57045 101.76 8.57045 98.6401 4.99998 91.0636C4.99998 83.4871 7.67783 79.0304 8.57045 72.3453C9.46306 65.6601 18.8355 61.5005 24.1913 48.5759C29.1006 42.3364 61.1779 43.5 70.9967 43.5C80.8155 43.5 73.0908 41.3381 110.134 19.5C147.178 -2.33811 160.705 21.3897 164.721 21.3897C168.738 21.3897 180.788 21.3897 190.161 16.0416C197.659 11.7631 228.097 17.8243 242.379 21.3897C250.264 19.607 269.961 13.8132 285.671 4.89966C305.309 -6.24223 308.879 9.35642 310.218 16.0416C311.557 22.7267 328.963 36.9883 340.121 35.6513C351.279 34.3143 363.775 30.3032 374.04 26.7378C384.305 23.1724 433.846 26.7378 443.218 26.7378C452.591 26.7378 494.99 22.7267 500.792 26.7378C506.594 30.7489 514.628 45.0105 514.628 48.5759C514.628 52.1413 512.396 50.7495 500.792 61C491.509 69.2004 486.213 77.0991 484.725 77.0991V113.645C499.899 133.7 531.32 175.326 535.604 181.387C539.889 187.448 551.076 205.899 556.134 214.367L552.118 235.314C546.167 244.673 533.462 263.392 530.248 263.392C526.232 263.392 508.379 276.316 500.792 277.653C494.722 278.723 487.552 293.549 484.725 300.828L433.846 290.132C421.647 293.698 396.534 300.828 393.678 300.828C390.822 300.828 377.016 297.263 370.47 295.48C345.328 297.709 309.188 317.672 300.134 310.5C296.482 307.607 291.131 314.511 278.634 310.5C266.53 306.615 254.747 301.182 243.475 295.985L242.379 295.48C240.206 294.479 232.412 293.549 225.866 290.132C222.89 289.538 203.92 280.852 202.134 278C200.349 275.148 203.997 273.297 207.121 273L232.114 264L246.134 260C250.151 259.257 254.429 246.5 251.305 246.5C248.312 246.5 253.983 237.988 253.983 235.314C253.983 232.64 254.876 229.52 253.983 225.955C253.269 223.102 251.9 217.041 251.305 214.367V209.019L232.422 198.056C231.874 198.19 231.375 198.283 230.981 198.309C229.324 198.914 226.997 199.66 225.866 199.66H219.171C217.386 199.66 211.137 199.66 207.121 197.877C203.104 196.095 198.641 197.877 190.161 199.66C181.681 201.443 182.574 199.66 180.788 199.66H170.97C168.738 199.66 166.06 197.877 164.721 197.877C163.382 197.877 158.027 198.323 156.688 197.877C155.349 197.432 149.993 196.095 148.208 196.095H142.406C136.604 195.5 124.554 194.312 122.768 194.312H118.752C113.396 194.758 102.238 195.381 100.453 194.312C98.2215 192.975 89.2953 195.649 86.6175 194.312C83.9396 192.975 82.6007 194.312 78.1376 194.312C73.6745 194.312 74.5671 193.866 70.9967 192.083C67.4262 190.301 64.7484 191.192 62.9631 190.301C61.1779 189.409 56.7823 191.404 54.4833 188.964C52.4228 186.777 34.0101 176.633 34.0101 176.633L35.349 169.057V165.491L37.1342 159.698V153.458Z" fill="#7184D7" shape-rendering="crispEdges"/>
<path d="M61.1779 103.394L42.0436 140.088M42.0436 140.088L37.1342 153.458V159.698L35.349 165.491V169.057L34.0101 176.633C34.0101 176.633 52.4228 186.777 54.4833 188.964M42.0436 140.088H37.1342C36.5391 138.899 35.0812 135.72 34.0101 132.511C32.6711 128.5 28.6543 124.935 27.3154 120.478C26.2443 116.913 24.7863 117.21 24.1913 117.804V111.5C16.1345 108 18.2107 103.364 13.9262 102.651C8.57045 101.76 8.57045 98.6401 4.99998 91.0636C4.99998 83.4871 7.67783 79.0304 8.57045 72.3453C9.46306 65.6601 18.8355 61.5005 24.1913 48.5759C29.1006 42.3364 61.1779 43.5 70.9967 43.5C80.8155 43.5 73.0908 41.3381 110.134 19.5C147.178 -2.33811 160.705 21.3897 164.721 21.3897C168.738 21.3897 180.788 21.3897 190.161 16.0416C197.659 11.7631 228.097 17.8243 242.379 21.3897C250.264 19.607 269.961 13.8132 285.671 4.89966C305.309 -6.24223 308.879 9.35642 310.218 16.0416C311.557 22.7267 328.963 36.9883 340.121 35.6513C351.279 34.3143 363.775 30.3032 374.04 26.7378C384.305 23.1724 433.846 26.7378 443.218 26.7378C452.591 26.7378 494.99 22.7267 500.792 26.7378C506.594 30.7489 514.628 45.0105 514.628 48.5759C514.628 52.1413 512.396 50.7495 500.792 61C491.509 69.2004 486.213 77.0991 484.725 77.0991V113.645C499.899 133.7 531.32 175.326 535.604 181.387C539.889 187.448 551.076 205.899 556.134 214.367L552.118 235.314C546.167 244.673 533.462 263.392 530.248 263.392C526.232 263.392 508.379 276.316 500.792 277.653C494.722 278.723 487.552 293.549 484.725 300.828L433.846 290.132C421.647 293.698 396.534 300.828 393.678 300.828C390.822 300.828 377.016 297.263 370.47 295.48C345.328 297.709 309.188 317.672 300.134 310.5C296.482 307.607 291.131 314.511 278.634 310.5C266.138 306.489 253.983 300.828 242.379 295.48C240.206 294.479 232.412 293.549 225.866 290.132C222.89 289.538 203.92 280.852 202.134 278C200.349 275.148 203.997 273.297 207.121 273L232.114 264L246.134 260C250.151 259.257 254.429 246.5 251.305 246.5C248.312 246.5 253.983 237.988 253.983 235.314C253.983 232.64 254.876 229.52 253.983 225.955C253.269 223.102 251.9 217.041 251.305 214.367V209.019L232.114 197.877C230.626 198.471 227.294 199.66 225.866 199.66C224.08 199.66 220.956 199.66 219.171 199.66C217.386 199.66 211.137 199.66 207.121 197.877C203.104 196.095 198.641 197.877 190.161 199.66C181.681 201.443 182.574 199.66 180.788 199.66C179.003 199.66 173.201 199.66 170.97 199.66C168.738 199.66 166.06 197.877 164.721 197.877C163.382 197.877 158.027 198.323 156.688 197.877C155.349 197.432 149.993 196.095 148.208 196.095C146.78 196.095 143.745 196.095 142.406 196.095C136.604 195.5 124.554 194.312 122.768 194.312C120.983 194.312 119.347 194.312 118.752 194.312C113.396 194.758 102.238 195.381 100.453 194.312M54.4833 188.964C56.7823 191.404 61.1779 189.409 62.9631 190.301C64.7484 191.192 67.4262 190.301 70.9967 192.083M54.4833 188.964C56.7823 191.404 60.8633 187.047 62.6485 187.939C64.4338 188.83 67.4262 190.301 70.9967 192.083M70.9967 192.083C74.5671 193.866 73.6745 194.312 78.1376 194.312M78.1376 194.312C82.6007 194.312 83.9396 192.975 86.6175 194.312C89.2953 195.649 98.2215 192.975 100.453 194.312M78.1376 194.312C82.6007 194.312 88.8459 192.083 91.5237 193.42C94.2016 194.757 98.2215 192.975 100.453 194.312M78.1376 194.312C82.6007 194.312 88.5313 189.721 91.2091 191.058C93.887 192.395 98.2215 192.975 100.453 194.312M261.01 209.019V214.367C261.605 217.041 262.974 223.102 263.688 225.955C264.581 229.52 263.688 232.64 263.688 235.314C263.688 237.988 260.695 246.5 263.688 246.5C266.812 246.5 259.856 259.257 255.839 260M59.3962 187.619C61.6952 190.059 66.0908 188.065 67.8761 188.956C69.6613 189.848 72.3392 188.956 75.9096 190.739C79.4801 192.522 78.5875 192.967 83.0506 192.967C87.5137 192.967 88.8526 191.63 91.5304 192.967C94.2083 194.304 103.134 191.63 105.366 192.967C107.151 194.037 118.309 193.413 123.665 192.967C124.26 192.967 125.896 192.967 127.681 192.967C129.467 192.967 141.517 194.156 147.319 194.75C148.658 194.75 151.693 194.75 153.121 194.75C154.906 194.75 160.262 196.087 161.601 196.533C162.94 196.979 168.295 196.533 169.634 196.533C170.973 196.533 173.651 198.316 175.883 198.316C178.114 198.316 183.916 198.316 185.701 198.316C187.487 198.316 186.594 200.098 195.074 198.316C203.554 196.533 208.017 194.75 212.034 196.533C216.05 198.316 222.299 198.316 224.084 198.316C225.869 198.316 228.993 198.316 230.779 198.316C232.207 198.316 235.539 197.127 237.027 196.533M64.3025 186.728C66.6015 189.168 70.9971 187.174 72.7823 188.065C74.5675 188.956 77.2454 188.065 80.8159 189.848C84.3863 191.63 83.4937 192.076 87.9568 192.076C92.4199 192.076 93.7588 190.739 96.4367 192.076C99.1145 193.413 108.041 190.739 110.272 192.076C112.057 193.146 123.215 192.522 128.571 192.076C129.166 192.076 130.802 192.076 132.588 192.076C134.373 192.076 146.423 193.265 152.225 193.859C153.564 193.859 156.599 193.859 158.027 193.859C159.812 193.859 165.168 195.196 166.507 195.641C167.846 196.087 173.202 195.641 174.541 195.641C175.879 195.641 178.557 197.424 180.789 197.424C183.02 197.424 188.822 197.424 190.608 197.424C192.393 197.424 191.5 199.207 199.98 197.424C208.46 195.641 212.923 193.859 216.94 195.641C220.957 197.424 227.205 197.424 228.99 197.424C230.775 197.424 233.9 197.424 235.685 197.424C237.113 197.424 240.445 196.236 241.933 195.641M63.9879 184.366C66.2869 186.806 70.6825 184.812 72.4677 185.703C74.2529 186.594 76.9308 185.703 80.5013 187.486C84.0717 189.268 83.1791 189.714 87.6422 189.714C92.1053 189.714 93.4442 188.377 96.1221 189.714C98.7999 191.051 107.726 188.377 109.958 189.714C111.743 190.784 122.901 190.16 128.256 189.714C128.851 189.714 130.488 189.714 132.273 189.714C134.058 189.714 146.109 190.903 151.911 191.497C153.249 191.497 156.284 191.497 157.713 191.497C159.498 191.497 164.853 192.834 166.192 193.279C167.531 193.725 172.887 193.279 174.226 193.279C175.565 193.279 178.243 195.062 180.474 195.062C182.706 195.062 188.508 195.062 190.293 195.062C192.078 195.062 191.186 196.845 199.666 195.062C208.145 193.279 212.608 191.497 216.625 193.279C220.642 195.062 226.89 195.062 228.676 195.062C230.461 195.062 233.585 195.062 235.37 195.062C236.798 195.062 240.131 193.874 241.619 193.279" stroke="black" stroke-opacity="0.02" shape-rendering="crispEdges"/>
</g>
<defs>
<filter id="filter0_d_12_11" x="0.499969" y="0.5" width="560.161" height="320.047" filterUnits="userSpaceOnUse" color-interpolation-filters="sRGB">
<feFlood flood-opacity="0" result="BackgroundImageFix"/>
<feColorMatrix in="SourceAlpha" type="matrix" values="0 0 0 0 0 0 0 0 0 0 0 0 0 0 0 0 0 0 127 0" result="hardAlpha"/>
<feOffset dy="4"/>
<feGaussianBlur stdDeviation="2"/>
<feComposite in2="hardAlpha" operator="out"/>
<feColorMatrix type="matrix" values="0 0 0 0 0 0 0 0 0 0 0 0 0 0 0 0 0 0 0.25 0"/>
<feBlend mode="normal" in2="BackgroundImageFix" result="effect1_dropShadow_12_11"/>
<feBlend mode="normal" in="SourceGraphic" in2="effect1_dropShadow_12_11" result="shape"/>
</filter>
</defs>
</svg>
