<?xml version="1.0" encoding="UTF-8" standalone="no"?>
<svg
   width="677"
   height="307"
   viewBox="0 0 677 307"
   fill="none"
   version="1.1"
   id="svg1"
   sodipodi:docname="teeth.svg"
   inkscape:export-filename="teeth.svg"
   inkscape:export-xdpi="96"
   inkscape:export-ydpi="96"
   inkscape:version="1.3.2 (091e20e, 2023-11-25, custom)"
   xmlns:inkscape="http://www.inkscape.org/namespaces/inkscape"
   xmlns:sodipodi="http://sodipodi.sourceforge.net/DTD/sodipodi-0.dtd"
   xmlns="http://www.w3.org/2000/svg"
   xmlns:svg="http://www.w3.org/2000/svg">
  <defs
     id="defs1" />
  <sodipodi:namedview
     id="namedview1"
     pagecolor="#858585"
     bordercolor="#000000"
     borderopacity="0.25"
     inkscape:showpageshadow="2"
     inkscape:pageopacity="0.0"
     inkscape:pagecheckerboard="0"
     inkscape:deskcolor="#000000"
     inkscape:zoom="1.3639564"
     inkscape:cx="428.89934"
     inkscape:cy="251.10774"
     inkscape:window-width="1920"
     inkscape:window-height="991"
     inkscape:window-x="-9"
     inkscape:window-y="-9"
     inkscape:window-maximized="1"
     inkscape:current-layer="svg1" />
  <path
     d="m 159.83378,58.282829 c -10.386,0 -31.2556,9.499 -40.392,14.2486 0,4.6176 -3.8469,14.2486 -19.2345,15.8317 -15.387495,1.5832 -16.349195,7.5201 -14.906695,10.2907 v 14.248501 l -29.8134,10.2906 -8.6555,10.6862 v 24.539 l 8.6555,26.123 -8.6555,5.541 -10.5789,15.832 10.5789,6.728 38.4689,17.811 34.141195,17.415 h 40.392 c 11.926,0 33.5,-11.61 42.797,-17.415 10.579,5.805 34.333,17.415 44.72,17.415 h 55.299 19.235 c 15.708,6.464 49.24,18.998 57.703,17.415 10.579,-1.979 19.234,3.562 31.737,1.979 12.502,-1.584 40.392,-12.27 49.048,-19.394 6.924,-5.7 29.813,-13.985 40.392,-17.415 h 44.72 23.562 l 34.141,-17.811 19.235,-12.27 16.83,-41.954 v -24.539 -35.225301 l -16.83,-40.371 c -6.412,-4.6176 -22.216,-15.9901 -34.141,-24.53922 -14.907,-10.68641 -25.486,8.70742 -42.797,10.68642 -13.849,1.5832 -45.521,9.8949 -59.627,13.8528 -11.38,4.7495 -44.72,11.3988 -87.036,0 -42.315,-11.3988 -37.507,-4.7495 -29.813,0 h -47.124 -31.737 -68.283 z"
     fill="#7184d7"
     stroke="#2f408a"
     stroke-opacity="0.48"
     id="path1"
     style="fill:#2f408a;fill-opacity:1" />
  <path
     d="m 169.57516,69.116441 c -9.92337,0 -29.86338,8.317883 -38.59281,12.476915 0,4.043442 -3.67554,12.476911 -18.37771,13.863166 -14.702093,1.386344 -15.620953,6.585038 -14.242709,9.011148 v 12.4768 l -28.485405,9.01107 -8.269953,9.35747 v 21.48779 l 8.269953,22.87483 -8.269953,4.85203 -10.107679,13.86343 10.107679,5.89142 36.755358,15.59636 32.620419,15.24959 h 38.59281 c 11.39477,0 32.00779,-10.16639 40.89066,-15.24959 10.10778,5.0832 32.8037,15.24959 42.72802,15.24959 h 52.83579 18.37821 c 15.0083,5.66027 47.04667,16.63578 55.13271,15.24961 10.10776,-1.73293 18.37724,3.11909 30.32331,1.73293 11.94511,-1.38704 38.5928,-10.74434 46.86324,-16.98254 6.61558,-4.99125 28.48501,-12.24609 38.59278,-15.24959 h 42.72802 22.51246 l 32.62026,-15.59636 18.37819,-10.74433 16.08034,-36.73738 V 135.31301 104.46767 L 611.55881,69.116441 c -6.12638,-4.043442 -21.22642,-14.00187 -32.62023,-21.487984 -14.243,-9.357648 -24.35078,7.624728 -40.89068,9.357658 -13.23213,1.386342 -43.49334,8.664556 -56.97101,12.130326 -10.87308,4.158941 -42.72801,9.981462 -83.1591,0 -40.43014,-9.981459 -35.8363,-4.158942 -28.48503,0 h -45.02492 -30.32333 -65.24144 z"
     fill="#7184d7"
     stroke="#2f408a"
     stroke-opacity="0.48"
     id="path1-4"
     style="stroke-width:0.914688" />
  <circle
     id="path2"
     style="fill:#2f408a;stroke:#000000"
     cx="44.584404"
     cy="-58.063412"
     r="0.039148714" />
  <path
     style="fill:#000000;fill-opacity:1;stroke-opacity:0.391521"
     id="path3"
     d="m 43.422668,168.05754 c 1.187962,-0.69775 2.434821,-1.26714 3.753769,-1.66299 0.162256,-0.0405 0.319957,-0.10961 0.486766,-0.12142 0.08176,-0.006 0.156756,0.048 0.235635,0.0702 0.139757,0.0394 0.28145,0.0721 0.420234,0.11487 0.648807,0.19983 1.226823,0.50081 1.826598,0.81508 1.657782,0.84786 3.048281,2.09464 4.401732,3.35377 0.784221,0.71904 1.452448,1.53102 2.086631,2.37986 0.95975,1.28458 2.776423,-0.0727 1.816673,-1.3573 v 0 c -0.715841,-0.95811 -1.477587,-1.87068 -2.359838,-2.68396 -1.504217,-1.39565 -3.057684,-2.76565 -4.898772,-3.70421 -1.269444,-0.65617 -2.606758,-1.32641 -4.083358,-1.18724 -0.202239,0.0191 -0.39373,0.10016 -0.590594,0.15024 -1.479001,0.4526 -2.886854,1.07757 -4.220578,1.86413 -1.392244,0.79556 -0.267141,2.76449 1.125102,1.96893 z" />
  <path
     style="fill:#000000;fill-opacity:1;stroke-opacity:0.391521"
     id="path4"
     d="m 45.897614,186.92437 c 1.253453,-0.21223 1.984519,0.57811 2.82659,1.37429 1.176418,1.35157 2.149207,2.80257 2.809993,4.46954 0.179831,0.55701 0.118673,0.29976 0.204483,0.76645 0.325882,1.57005 2.546274,1.10919 2.220391,-0.46087 v 0 c -0.167669,-0.75956 -0.06281,-0.37561 -0.320341,-1.15026 -0.262799,-0.64836 -0.33461,-0.87108 -0.679739,-1.51381 -0.731956,-1.36312 -1.662256,-2.62088 -2.691113,-3.77226 -0.285883,-0.26212 -0.555274,-0.54345 -0.857649,-0.78636 -1.162711,-0.93405 -2.466347,-1.42047 -3.957351,-1.1504 -1.572379,0.31448 -1.127643,2.53816 0.444736,2.22368 z" />
  <path
     style="fill:#000000;fill-opacity:1;stroke-opacity:0.391521"
     id="path5"
     d="m 31.540702,200.02244 c 1.921755,0.13339 3.745909,0.71915 5.338257,1.82319 0.510878,0.35421 0.974096,0.77265 1.461143,1.15897 0.321049,0.63761 0.606183,1.29078 0.645269,-1.71335 0.0024,-0.18772 -0.361822,-0.10034 -0.542732,-0.15051 -1.555474,-0.38958 -2.10642,1.8102 -0.550947,2.19977 v 0 c 0.298646,0.0699 0.642774,0.38299 0.895939,0.20982 2.054269,-1.40518 1.758041,-1.3923 0.951109,-2.33077 -0.574702,-0.44559 -1.120474,-0.93124 -1.724106,-1.33678 -1.887844,-1.26833 -4.042715,-1.95965 -6.300006,-2.12138 -1.598794,-0.12298 -1.77272,2.13805 -0.173926,2.26104 z" />
  <path
     style="fill:#000000;fill-opacity:1;stroke-opacity:0.391521"
     id="path6"
     d="m 43.859087,218.83387 c 0.148392,-1.64451 0.544476,-3.25958 1.223283,-4.76724 0.150015,-0.33318 0.327583,-0.65327 0.491375,-0.9799 0.599659,-1.05403 1.380642,-1.99843 2.326915,-2.75915 0.525048,-0.42209 0.769989,-0.56046 1.323075,-0.91648 0.164262,-0.0779 0.313138,-0.20584 0.492787,-0.23377 0.05273,-0.008 0.02419,0.11009 0.06227,0.14747 0.06603,0.0648 0.16132,0.0914 0.236315,0.14562 0.267003,0.19294 0.462891,0.42567 0.653698,0.69008 0.988096,1.26291 2.774117,-0.13447 1.786021,-1.39738 v 0 c -0.130547,-0.1606 -0.248822,-0.332 -0.39164,-0.4818 -0.906294,-0.95054 -2.014856,-1.45191 -3.348012,-1.13865 -0.263472,0.0619 -0.48333,0.24371 -0.724995,0.36556 -0.657768,0.42893 -0.971105,0.6091 -1.593891,1.12247 -1.161834,0.95772 -2.122527,2.13092 -2.853157,3.4465 -0.188955,0.38289 -0.393792,0.75835 -0.566866,1.14868 -0.762957,1.72069 -1.210541,3.56178 -1.378216,5.43407 -0.122984,1.59879 2.138053,1.77272 2.261037,0.17392 z" />
  <path
     style="fill:#000000;fill-opacity:1;stroke-opacity:0.391521"
     id="path7"
     d="m 56.440456,224.31422 c 1.64539,-1.84208 3.299215,-3.69366 5.19334,-5.28977 0.433645,-0.36542 0.896617,-0.69455 1.344925,-1.04182 1.165475,-0.73472 2.815285,-1.97379 4.310349,-1.74851 0.569284,0.0858 1.180468,0.49447 1.655681,0.75949 0.798934,0.48449 1.431679,1.14682 2.046196,1.83627 1.075016,1.18979 2.757639,-0.33051 1.682623,-1.52031 v 0 c -0.8046,-0.88109 -1.632932,-1.72271 -2.679468,-2.32629 -1.129739,-0.56336 -1.561408,-0.91442 -2.86172,-1.01146 -1.975897,-0.14745 -3.99361,1.18267 -5.546011,2.22087 -0.493364,0.38523 -1.001992,0.75167 -1.480093,1.15568 -1.917983,1.62078 -3.606203,3.4895 -5.26934,5.36233 -1.133858,1.13386 0.46966,2.73737 1.603518,1.60352 z" />
  <path
     style="fill:#000000;fill-opacity:1;stroke-opacity:0.391521"
     id="path8"
     d="m 81.902499,233.71711 c 0.952386,-0.76504 1.898826,-1.54487 2.98035,-2.12412 0.620505,-0.33233 0.854173,-0.40597 1.490433,-0.65952 0.436493,-0.11573 0.738984,-0.23449 1.193635,-0.21446 0.906261,0.0399 2.121878,0.85236 2.870513,1.30267 1.044017,0.67938 0.552176,0.34166 1.479547,1.00729 1.304008,0.93318 2.623729,-0.91096 1.319721,-1.84415 v 0 c -1.035606,-0.73914 -0.491152,-0.36733 -1.63687,-1.11028 -1.017839,-0.60371 -2.053339,-1.25533 -3.229432,-1.50899 -0.974809,-0.21025 -1.916848,-0.0514 -2.844473,0.26447 -0.772607,0.31402 -1.045939,0.40116 -1.799014,0.81199 -1.195898,0.65241 -2.256081,1.5056 -3.309607,2.36141 -1.211761,1.05019 0.273436,2.76388 1.485197,1.71369 z" />
  <path
     style="fill:#000000;fill-opacity:1;stroke-opacity:0.391521"
     id="path9"
     d="m 101.09752,246.55812 c 1.68811,-1.68868 3.23225,-3.54205 5.08359,-5.06115 0.41868,-0.34354 0.86453,-0.65254 1.2968,-0.9788 1.66502,-1.16976 2.82593,-1.7946 4.85253,-1.47366 1.58976,0.20957 1.88613,-2.0387 0.29637,-2.24827 v 0 c -0.36856,-0.0424 -0.73475,-0.12041 -1.10568,-0.12722 -2.04411,-0.0375 -3.79268,0.87849 -5.41336,2.04214 -0.47856,0.36436 -0.97179,0.71021 -1.43568,1.09307 -1.88064,1.55213 -3.4639,3.42587 -5.178088,5.15037 -1.133859,1.13386 0.469659,2.73738 1.603518,1.60352 z" />
  <path
     style="fill:#000000;fill-opacity:1;stroke-opacity:0.391521"
     id="path10"
     d="m 123.99406,252.36376 c 0.96465,-2.27339 2.37119,-4.33328 3.86354,-6.28935 1.97142,-1.95619 4.30558,-3.70325 6.97972,-4.54868 0.72471,-0.0209 0.3955,-0.0626 0.99219,0.0812 1.58346,0.25285 1.94104,-1.98649 0.35759,-2.23934 v 0 c -1.31927,-0.16479 -0.63336,-0.15392 -2.058,0.004 -0.37276,0.12607 -0.75509,0.22675 -1.11828,0.3782 -2.64077,1.10117 -4.98217,2.91391 -6.95783,4.95148 -1.57281,2.07161 -3.06284,4.24684 -4.08723,6.64849 -0.71712,1.43423 1.31119,2.44838 2.0283,1.01415 z" />
  <path
     style="fill:#000000;fill-opacity:1;stroke-opacity:0.391521"
     id="path11"
     d="m 154.8246,253.55181 c -0.67801,-2.58958 -0.98832,-5.48205 -0.25812,-8.10374 0.12526,-0.44973 0.34352,-0.86822 0.51528,-1.30233 0.69384,-1.19131 1.46545,-1.93563 2.76147,-2.3922 1.48714,-0.59974 0.63898,-2.70287 -0.84816,-2.10313 v 0 c -0.35485,0.15353 -0.72925,0.26807 -1.06455,0.4606 -1.31352,0.75422 -2.27281,1.90286 -2.96886,3.22993 -0.20918,0.56938 -0.47244,1.12172 -0.62753,1.70815 -0.7879,2.97934 -0.46105,6.50337 0.41821,9.42373 0.65125,1.46531 2.72351,0.54431 2.07226,-0.92101 z" />
  <path
     style="fill:#000000;fill-opacity:1;stroke-opacity:0.391521"
     id="path12"
     d="m 175.57364,250.98288 c -0.57986,-2.63623 -1.26522,-5.2442 -1.51654,-7.93726 0.22311,-1.84098 1.43247,-3.32315 2.89806,-4.37948 0.74985,-0.46134 1.54373,-0.60627 2.39813,-0.46905 1.58925,0.21344 1.8911,-2.03409 0.30185,-2.24753 v 0 c -1.45367,-0.17423 -2.81016,0.0813 -4.05467,0.89796 -1.63533,1.24606 -3.13076,2.89487 -3.62571,4.95768 -0.11404,0.47531 -0.11674,0.97061 -0.17511,1.45591 0.26414,2.71324 0.90089,5.35298 1.52378,8.00305 0.19889,1.59113 2.4491,1.30986 2.25021,-0.28128 z" />
  <path
     style="fill:#000000;fill-opacity:1;stroke-opacity:0.391521"
     id="path13"
     d="m 197.58624,243.39046 c -1.61004,-1.33321 -2.62577,-3.22326 -3.5715,-5.05316 -0.80202,-1.62093 -0.83133,-2.20343 0.63112,-3.26095 0.56915,-0.39337 1.21038,-0.48727 1.8799,-0.54436 1.5958,-0.15713 1.37358,-2.41394 -0.22222,-2.2568 v 0 c -1.10435,0.11836 -2.15327,0.35259 -3.07034,1.0272 -0.27487,0.23043 -0.57863,0.43025 -0.82462,0.69129 -1.6233,1.7226 -1.39327,3.43168 -0.40698,5.38757 1.12648,2.16565 2.36116,4.37893 4.32673,5.89606 1.33421,0.88948 2.59212,-0.99738 1.25791,-1.88685 z" />
  <path
     style="fill:#000000;fill-opacity:1;stroke-opacity:0.391521"
     id="path14"
     d="m 206.77056,240.10959 c 1.2837,-1.5101 2.66548,-2.95774 4.20192,-4.21509 1.27159,-1.04061 1.78334,-1.32193 3.13831,-2.20183 1.3521,-0.64522 2.84112,-1.89309 4.46008,-1.70673 0.5104,0.0588 0.70344,0.2958 1.08617,0.59386 0.68078,0.59056 1.109,1.3457 1.44978,2.16384 0.63632,1.47186 2.71784,0.57196 2.08152,-0.8999 v 0 c -0.54536,-1.23054 -1.22421,-2.34213 -2.31433,-3.17746 -1.06937,-0.61531 -1.22906,-0.87664 -2.49752,-0.93971 -2.01269,-0.10009 -3.82086,1.17387 -5.50358,2.06605 -0.56098,0.36658 -1.13565,0.71302 -1.68294,1.09973 -2.37017,1.67476 -4.47666,3.71094 -6.30626,5.95934 -0.88947,1.33421 0.99738,2.59211 1.88685,1.2579 z" />
  <path
     style="fill:#000000;fill-opacity:1;stroke-opacity:0.391521"
     id="path15"
     d="m 225.50721,246.23121 c 0.94512,-1.2974 2.77404,-2.51618 4.38726,-2.67518 0.37528,-0.037 0.75401,0.0162 1.13102,0.0242 1.5061,0.29605 0.77205,0.10384 2.20347,0.57149 1.52842,0.48497 2.21427,-1.67654 0.68585,-2.16151 v 0 c -1.85096,-0.5736 -0.88437,-0.34045 -2.90496,-0.67764 -0.55526,0.0145 -1.11605,-0.036 -1.66577,0.0435 -1.92384,0.27835 -3.93384,1.53013 -5.22948,2.95387 -0.2205,0.2423 -0.38421,0.53075 -0.57632,0.79612 -0.79557,1.39224 1.17336,2.51735 1.96893,1.1251 z" />
  <path
     style="fill:#000000;fill-opacity:1;stroke-opacity:0.391521"
     id="path16"
     d="m 247.47605,253.64574 c -0.17336,-2.47545 0.59923,-4.52142 1.75476,-6.66242 0.82264,-1.3699 1.96819,-2.50431 3.58499,-2.82606 0.26621,-0.053 0.54071,-0.0483 0.81106,-0.0724 1.15044,0.0213 2.18472,0.46005 3.1787,0.9957 1.4195,0.74584 2.47428,-1.26164 1.05478,-2.00748 v 0 c -1.4148,-0.72944 -2.8703,-1.295 -4.49692,-1.24058 -0.4167,0.0562 -0.84053,0.0735 -1.25008,0.16863 -2.17398,0.50523 -3.76946,2.04811 -4.88263,3.91354 -1.35329,2.55471 -2.18041,4.79494 -2.02238,7.73111 0,1.60351 2.26772,1.60351 2.26772,0 z" />
  <path
     style="fill:#000000;fill-opacity:1;stroke-opacity:0.391521"
     id="path17"
     d="m 269.3014,254.46185 c -0.41497,-0.6258 -0.69237,-0.96874 -0.92076,-1.76028 -0.68975,-2.39048 -0.0644,-4.90257 0.53447,-7.23087 0.8057,-2.55895 1.44419,-3.48379 3.80922,-4.58189 0.50151,-0.18517 0.90517,-0.14619 1.39313,0.0201 1.56313,0.35764 2.06891,-1.85296 0.50578,-2.2106 v 0 c -1.16684,-0.21556 -1.73006,-0.29541 -2.8715,0.1419 -2.98564,1.44102 -4.04499,2.85839 -5.03476,6.07302 -0.97748,3.90372 -1.67992,7.53337 0.86264,11.02439 1.04356,1.21748 2.76534,-0.25833 1.72178,-1.47581 z" />
  <path
     style="fill:#000000;fill-opacity:1;stroke-opacity:0.391521"
     id="path18"
     d="m 289.90458,253.30945 c -0.63004,-1.37671 -0.65372,-2.89474 0.027,-4.26621 0.14497,-0.29209 0.30909,-0.58606 0.54172,-0.81455 0.22477,-0.22078 0.53335,-0.33557 0.80002,-0.50335 2.83004,-1.05104 5.19316,-0.22651 7.78543,0.99361 0.33708,0.19539 0.67417,0.39078 1.01126,0.58617 1.39011,0.79927 2.52046,-1.16665 1.13035,-1.96593 v 0 c -0.3941,-0.22501 -0.78819,-0.45003 -1.18228,-0.67505 -2.68849,-1.24627 -5.42291,-2.21305 -8.42713,-1.41779 -0.58175,0.154 -1.11896,0.44331 -1.67845,0.66496 -0.45532,0.37383 -0.97597,0.67993 -1.36596,1.1215 -0.33151,0.37535 -0.56378,0.83426 -0.766,1.2924 -0.88257,1.99945 -0.76824,4.17912 0.16526,6.12688 0.80797,1.38508 2.76678,0.24245 1.95881,-1.14264 z" />
  <path
     style="fill:#000000;fill-opacity:1;stroke-opacity:0.391521"
     id="path19"
     d="m 311.24272,257.16998 c 0.39849,-0.32352 0.81202,-0.62934 1.19547,-0.97055 2.18937,-1.9482 0.43493,-0.59204 2.75002,-2.6287 1.37629,-1.21077 2.84067,-2.1498 4.43707,-3.03291 2.38384,-1.06791 4.11196,-1.03267 6.49303,-0.0768 0.87252,0.36448 1.6994,0.81321 2.50815,1.29933 1.37696,0.82173 2.53907,-1.12559 1.16211,-1.94732 v 0 c -0.92125,-0.54645 -1.858,-1.06019 -2.8518,-1.46688 -0.41794,-0.15726 -0.82567,-0.34494 -1.25383,-0.4718 -2.41235,-0.71473 -4.91719,-0.41166 -7.16108,0.68235 -0.53676,0.30075 -1.08833,0.5765 -1.61029,0.90227 -2.4273,1.51491 -4.51461,3.51335 -6.4651,5.58772 -1.50142,0.56303 -0.70517,2.68636 0.79625,2.12333 z" />
  <path
     style="fill:#000000;fill-opacity:1;stroke-opacity:0.391521"
     id="path20"
     d="m 337.97733,265.84986 c 0.87128,-2.03406 1.85861,-4.01567 2.96521,-5.93203 0.55682,-0.96429 1.43042,-2.4087 2.15322,-3.30472 0.30232,-0.37478 0.66197,-0.69945 0.99295,-1.04917 0.3633,-0.3011 1.0905,-1.02128 1.65361,-1.12375 0.66223,-0.1205 2.69243,1.25646 3.21746,1.62022 0.73133,0.53079 1.44476,1.06884 2.10817,1.68165 1.18506,1.08023 2.71274,-0.5957 1.52767,-1.67593 v 0 c -0.74941,-0.67609 -1.5324,-1.29631 -2.35805,-1.87917 -1.165,-0.78463 -2.48821,-1.72449 -3.93649,-1.88399 -1.66414,-0.18327 -2.73154,0.65673 -3.87081,1.71432 -0.39616,0.42998 -0.82315,0.83346 -1.18848,1.28993 -0.76217,0.95233 -1.69347,2.48886 -2.2862,3.51764 -1.15906,2.01175 -2.19411,4.09171 -3.10159,6.22875 -0.56303,1.50142 1.5603,2.29767 2.12333,0.79625 z" />
  <path
     style="fill:#000000;fill-opacity:1;stroke-opacity:0.391521"
     id="path21"
     d="m 377.61868,273.90406 c -0.57232,-1.34625 -1.08783,-2.39708 -1.41525,-3.83922 -0.37765,-1.66341 -0.44191,-3.59011 -0.15777,-5.27696 0.0642,-0.38113 0.20723,-0.7447 0.31085,-1.11705 0.75202,-1.28538 1.77287,-1.81821 3.23327,-1.76784 0.71294,0.0888 0.35382,0.0264 1.07677,0.19045 1.56736,0.33859 2.04619,-1.87799 0.47883,-2.21658 v 0 c -1.03252,-0.21509 -0.51468,-0.1351 -1.55328,-0.24159 -0.31007,0.006 -0.62213,-0.0187 -0.93022,0.0168 -1.47824,0.17036 -2.91451,0.95402 -3.79739,2.17079 -0.28434,0.39186 -0.46754,0.84795 -0.70131,1.27193 -0.12575,0.50096 -0.29621,0.99279 -0.37725,1.5029 -0.31619,1.99044 -0.19946,4.20188 0.25726,6.157 0.36402,1.55832 0.91397,2.68339 1.5333,4.13526 0.69712,1.44405 2.73932,0.45816 2.04219,-0.98589 z" />
  <path
     style="fill:#000000;fill-opacity:1;stroke-opacity:0.391521"
     id="path22"
     d="m 405.2577,271.02947 c -1.32497,-2.57545 -2.03057,-5.44647 -1.92885,-8.35025 0.0235,-0.6702 0.062,-1.3468 0.21039,-2.0008 0.11818,-0.52104 0.38812,-0.99557 0.58218,-1.49336 0.30363,-0.34899 0.55481,-0.75168 0.91089,-1.04697 1.13281,-0.93945 2.65581,-1.35035 4.03627,-1.73668 1.54121,-0.44266 0.9152,-2.62226 -0.62601,-2.1796 v 0 c -1.84389,0.54083 -3.74682,1.1316 -5.18277,2.50179 -0.50857,0.48528 -0.84588,1.12296 -1.26883,1.68444 -0.23606,0.68153 -0.55757,1.33924 -0.70818,2.04459 -0.1611,0.75443 -0.20159,1.5326 -0.22034,2.30381 -0.0794,3.26367 0.71603,6.48244 2.21291,9.37433 0.77874,1.40173 2.76108,0.30043 1.98234,-1.1013 z" />
  <path
     style="fill:#000000;fill-opacity:1;stroke-opacity:0.391521"
     id="path23"
     d="m 432.31396,268.44152 c -1.18462,-2.91976 -2.05609,-5.95358 -3.02805,-8.94775 -0.11794,-0.76074 -0.8194,-1.98985 -0.23431,-2.73391 0.11756,-0.1495 0.3792,-0.30755 0.52733,-0.40806 0.86464,-0.50024 1.80679,-0.36927 2.74456,-0.21541 0.18781,0.035 0.37561,0.07 0.56342,0.10503 1.57654,0.29289 1.99074,-1.93668 0.4142,-2.22957 v 0 c -0.20659,-0.0383 -0.41318,-0.0765 -0.61978,-0.11477 -1.59315,-0.24918 -3.14726,-0.26022 -4.5314,0.6939 -0.22186,0.19323 -0.47195,0.35819 -0.66558,0.57971 -1.34253,1.53582 -0.87422,3.26363 -0.35531,5.0234 0.97915,3.01492 1.85704,6.06979 3.04932,9.01014 0.53932,1.5101 2.67493,0.74739 2.1356,-0.76271 z" />
  <path
     style="fill:#000000;fill-opacity:1;stroke-opacity:0.391521"
     id="path24"
     d="m 458.37166,262.73155 c -2.15098,-3.50256 -3.96944,-7.20889 -5.26661,-11.11018 -0.36445,-1.66045 -0.32595,-2.83577 1.28116,-3.60013 0.50003,-0.15486 0.24878,-0.0925 0.75336,-0.18873 1.56779,-0.33661 1.09174,-2.5538 -0.47604,-2.21719 v 0 c -0.89126,0.20374 -0.43922,0.071 -1.35278,0.40944 -0.24861,0.14194 -0.51375,0.25822 -0.74583,0.42583 -2.0322,1.46761 -2.14703,3.6192 -1.61077,5.88922 1.38419,4.12672 3.29281,8.06243 5.60333,11.75237 0.96211,1.28282 2.77629,-0.0778 1.81418,-1.36063 z" />
  <path
     style="fill:#000000;fill-opacity:1;stroke-opacity:0.391521"
     id="path25"
     d="m 476.17753,250.37473 c -0.0566,-2.25058 -0.26018,-4.55956 0.27134,-6.77521 0.25695,-1.0711 0.58964,-1.72218 1.02264,-2.71804 0.65593,-1.22747 1.24499,-2.84905 2.59492,-3.50108 0.1778,-0.0859 0.37265,-0.1307 0.55897,-0.19605 0.66853,-0.17201 1.34227,-0.28133 2.01175,-0.45085 1.55248,-0.40136 0.98487,-2.59689 -0.5676,-2.19553 v 0 c -0.76033,0.20196 -1.54054,0.28559 -2.28823,0.54161 -0.3295,0.14151 -0.67497,0.25048 -0.98851,0.42454 -1.701,0.94429 -2.58591,2.8165 -3.40466,4.48174 -0.53983,1.26812 -0.8612,1.87825 -1.17869,3.25648 -0.54543,2.36773 -0.36986,4.82354 -0.29768,7.2268 0.0668,1.60212 2.33251,1.50772 2.26575,-0.0944 z" />
  <path
     style="fill:#000000;fill-opacity:1;stroke-opacity:0.391521"
     id="path26"
     d="m 498.95036,237.92662 c 0.22932,-1.74702 0.6662,-3.52912 1.58639,-5.05304 0.19622,-0.32497 0.44247,-0.61697 0.6637,-0.92545 0.83804,-0.99157 1.76195,-1.92737 2.9671,-2.46251 0.61945,-0.27507 1.2676,-0.42497 1.91786,-0.60259 1.0009,-0.29868 1.98354,-0.35833 3.01075,-0.2499 1.59614,0.15371 1.81353,-2.10356 0.2174,-2.25728 v 0 c -1.30356,-0.11677 -2.56832,-0.0532 -3.83466,0.32208 -0.92824,0.26109 -1.52866,0.39105 -2.41667,0.80759 -1.50268,0.70487 -2.68016,1.87446 -3.71889,3.14119 -0.27851,0.40465 -0.58663,0.79044 -0.83552,1.21395 -1.07801,1.83437 -1.60608,3.96833 -1.82517,6.06596 0,1.60352 2.26771,1.60352 2.26771,0 z" />
  <path
     style="fill:#000000;fill-opacity:1;stroke-opacity:0.391521"
     id="path27"
     d="m 527.66127,238.26426 c 0.67759,-1.39711 1.32382,-2.90574 2.45415,-4.01275 0.70235,-0.68786 1.24217,-0.93085 2.09282,-1.43185 1.68869,-0.85388 3.47284,-1.48515 5.30514,-1.94434 1.55481,-0.39219 1.00017,-2.59103 -0.55465,-2.19884 v 0 c -2.04684,0.51927 -4.04259,1.22343 -5.92014,2.20038 -1.20633,0.73899 -1.68149,0.92702 -2.67638,1.93631 -1.24896,1.26705 -2.00979,2.93201 -2.7654,4.51271 -0.66354,1.45979 1.40092,2.39817 2.06446,0.93838 z" />
  <path
     style="fill:#000000;fill-opacity:1;stroke-opacity:0.391521"
     id="path28"
     d="m 549.93147,235.37404 c 1.25041,-1.80601 2.6781,-3.12582 4.41723,-4.43316 1.88696,-1.17642 3.97482,-2.02894 6.06639,-2.77095 1.23157,-0.37578 0.63493,-0.20896 1.78821,-0.50656 1.55215,-0.4026 0.98279,-2.59767 -0.56937,-2.19507 v 0 c -1.28092,0.33378 -0.62032,0.14735 -1.98005,0.56548 -2.30446,0.82448 -4.60859,1.7614 -6.66888,3.09523 -1.82549,1.37552 -3.45198,2.85602 -4.76016,4.75173 -1.05592,1.20677 0.65071,2.70007 1.70663,1.4933 z" />
  <path
     style="fill:#000000;fill-opacity:1;stroke-opacity:0.391521"
     id="path29"
     d="m 584.50951,217.70377 c -1.03041,2.29216 -2.05456,5.16878 -2.07767,7.70098 -0.005,0.57974 0.0976,1.15541 0.14639,1.73311 0.3592,1.7166 1.02949,3.3429 2.35259,4.54005 0.2375,0.21489 0.4841,0.42854 0.76689,0.57891 0.33287,0.17701 0.70707,0.26192 1.0606,0.39288 1.27706,0.11602 0.64682,0.14875 1.89106,-0.0919 1.55571,-0.38861 1.00614,-2.58872 -0.54958,-2.20011 v 0 c -0.37881,0.17329 -0.15967,0.11294 -0.67018,0.1259 -0.13143,-0.0193 -0.27306,-0.004 -0.39429,-0.058 -1.29713,-0.58121 -1.86167,-2.27013 -2.1998,-3.50499 -0.0486,-0.43468 -0.14354,-0.86665 -0.14588,-1.30403 -0.0118,-2.20338 0.9193,-4.75774 1.77867,-6.77019 0.80797,-1.38509 -1.15084,-2.52772 -1.9588,-1.14264 z" />
  <path
     style="fill:#000000;fill-opacity:1;stroke-opacity:0.391521"
     id="path30"
     d="m 602.21965,205.97741 c -0.0874,1.62869 -0.25345,3.26192 -0.13906,4.89383 0.0193,0.27614 0.20761,1.8196 0.25258,2.19398 0.48367,2.43997 1.38227,2.95342 3.74391,3.41991 0.3599,0.0375 0.71791,0.1063 1.0797,0.11247 2.34391,0.04 4.73387,-0.39395 6.97499,-1.04284 1.53904,-0.45015 0.90243,-2.62668 -0.63661,-2.17653 v 0 c -1.64245,0.48608 -3.28309,0.7399 -4.98995,0.88629 -0.37363,0.032 -0.74739,0.0781 -1.12239,0.0767 -0.29622,-0.001 -0.58978,-0.0562 -0.88467,-0.0843 -1.34981,-0.23911 -1.5877,-0.0223 -1.91346,-1.46213 -0.0166,-0.13851 -0.23164,-1.9208 -0.23773,-2.00153 -0.11548,-1.53017 0.055,-3.06243 0.12915,-4.59014 0.15956,-1.59556 -2.09691,-1.8212 -2.25646,-0.22564 z" />
  <path
     style="fill:#000000;fill-opacity:1;stroke-opacity:0.391521"
     id="path31"
     d="m 614.35503,198.39204 c 0.17085,2.29058 0.0118,4.75844 0.98079,6.90534 0.21322,0.47242 0.53006,0.89086 0.7951,1.33629 1.66663,1.7655 3.87639,2.73291 6.26171,3.00555 0.23754,-0.0149 0.47507,-0.0299 0.71261,-0.0448 1.59658,-0.14892 1.38598,-2.40683 -0.21061,-2.25791 v 0 c -0.0902,0.0156 -0.18042,0.0312 -0.27064,0.0469 -1.68335,-0.14168 -3.28115,-0.86088 -4.567,-1.94666 -0.19082,-0.28808 -0.42108,-0.55362 -0.57245,-0.86425 -0.86192,-1.76877 -0.70305,-4.24683 -0.86179,-6.18039 0,-1.60352 -2.26772,-1.60352 -2.26772,0 z" />
  <path
     style="fill:#000000;fill-opacity:1;stroke-opacity:0.391521"
     id="path32"
     d="m 624.74258,182.12194 c 0.59198,0.7385 1.1997,1.56727 1.9758,2.12118 2.79283,1.99328 6.18481,2.44491 9.49364,2.83057 2.26503,0.091 1.19493,0.1034 3.2105,-0.003 1.60099,-0.09 1.47375,-2.35412 -0.12724,-2.26415 v 0 c -1.74366,0.10531 -0.80255,0.0873 -2.82381,0.014 -2.74988,-0.31256 -5.81616,-0.59125 -8.17405,-2.20536 -0.68431,-0.46845 -1.22575,-1.21333 -1.74067,-1.85419 -0.96211,-1.28281 -2.77629,0.0778 -1.81417,1.36063 z" />
  <path
     style="fill:#000000;fill-opacity:1;stroke-opacity:0.391521"
     id="path33"
     d="m 630.8193,167.67968 c 1.36167,1.51928 2.64851,3.13102 4.3395,4.30425 1.11012,0.77022 1.61227,0.95544 2.79111,1.51701 1.10053,0.43255 2.25704,0.70405 3.44301,0.51009 0.28898,-0.0473 0.56309,-0.16092 0.84463,-0.24138 1.52612,-0.49218 0.83007,-2.65044 -0.69605,-2.15826 v 0 c -0.87721,0.36357 -1.75617,0.17631 -2.62389,-0.16132 -1.00989,-0.47115 -1.41245,-0.61451 -2.36753,-1.25691 -1.57133,-1.0569 -2.72264,-2.58314 -3.98868,-3.96524 -1.02654,-1.23185 -2.76865,0.2199 -1.7421,1.45176 z" />
  <path
     style="fill:#000000;fill-opacity:1;stroke-opacity:0.391521"
     id="path34"
     d="m 633.87075,150.5885 c 1.34573,2.31088 3.28737,4.16522 5.55099,5.57146 0.48697,0.30252 1.0033,0.55501 1.50496,0.83251 1.41605,0.64099 2.86214,0.7681 4.38389,0.7762 1.6035,-0.008 1.59221,-2.27567 -0.0113,-2.26768 v 0 c -1.13065,0.0217 -2.21514,-0.0605 -3.28127,-0.49637 -2.65569,-1.44527 -4.73336,-3.00165 -6.26043,-5.67403 -0.88947,-1.3342 -2.77632,-0.0763 -1.88685,1.25791 z" />
  <path
     style="fill:#000000;fill-opacity:1;stroke-opacity:0.391521"
     id="path35"
     d="m 634.80008,138.00751 c 1.76807,2.53167 4.08208,4.18978 7.15165,4.74776 0.52011,0.0945 1.05202,0.10525 1.57803,0.15787 1.59671,0.14764 1.8055,-2.11045 0.20879,-2.25808 v 0 c -0.41791,-0.0346 -0.83956,-0.0382 -1.25372,-0.10395 -2.5497,-0.40468 -4.38766,-1.76902 -5.83944,-3.86168 -0.93202,-1.30484 -2.77734,0.0132 -1.84531,1.31808 z" />
  <path
     style="fill:#000000;fill-opacity:1;stroke-opacity:0.391521"
     id="path36"
     d="m 637.50689,128.13104 c 1.09336,1.29009 2.71438,1.81639 4.31156,2.16935 1.98113,0.34532 3.69633,-0.44288 5.22631,-1.63052 1.25647,-0.99627 -0.15246,-2.77318 -1.40893,-1.77691 v 0 c -0.96771,0.79156 -2.05088,1.38405 -3.33993,1.19054 -1.08339,-0.22537 -2.24749,-0.52345 -3.01822,-1.36909 -1.00171,-1.25213 -2.7725,0.1645 -1.77079,1.41663 z" />
  <path
     style="fill:#000000;fill-opacity:1;stroke-opacity:0.391521"
     id="path37"
     d="m 633.14437,108.01408 c 1.94069,1.7806 3.80731,3.9695 6.20274,5.16333 1.86702,0.93049 2.48648,0.8525 4.49863,1.13078 2.24049,0.0753 4.31692,-0.32851 6.40032,-1.10026 1.50018,-0.56634 0.69926,-2.68791 -0.80092,-2.12157 v 0 c -1.70353,0.65855 -3.47813,0.99108 -5.31346,0.97221 -1.47194,-0.16635 -2.18171,-0.12098 -3.548,-0.78206 -2.23846,-1.08308 -3.95986,-3.16277 -5.77298,-4.80058 -1.08764,-1.17827 -2.75397,0.35988 -1.66633,1.53815 z" />
  <path
     style="fill:#000000;fill-opacity:1;stroke-opacity:0.391521"
     id="path38"
     d="m 629.11748,96.512925 c 3.0503,2.089592 6.64985,3.086638 10.21487,3.879785 2.58789,0.31784 5.27382,0.29683 7.77785,-0.52064 0.42944,-0.140194 0.83373,-0.348087 1.2506,-0.522131 1.47356,-0.63235 0.57929,-2.71629 -0.89428,-2.08394 v 0 c -0.30705,0.136608 -0.60277,0.302245 -0.92115,0.409824 -2.15756,0.729024 -4.48394,0.74847 -6.72227,0.502911 -3.23942,-0.715238 -6.51841,-1.596423 -9.31338,-3.455837 -1.26574,-0.984464 -2.65798,0.805563 -1.39224,1.790028 z" />
  <path
     style="fill:#000000;fill-opacity:1;stroke-opacity:0.391521"
     id="path39"
     d="m 623.63502,79.437231 c 0.49981,0.405481 1.44889,1.224111 2.02088,1.461864 3.36591,1.39907 7.288,-0.01222 10.58087,-0.950314 1.54162,-0.44122 0.91764,-2.621401 -0.62398,-2.18018 v 0 c -1.99728,0.57444 -3.27816,1.015483 -5.34212,1.318735 -0.95944,0.140968 -2.37737,0.303325 -3.37555,-0.08741 -0.21872,-0.08562 -1.18656,-0.780168 -1.518,-1.014447 -1.02654,-1.231856 -2.76865,0.2199 -1.7421,1.451757 z" />
  <path
     style="fill:#000000;fill-opacity:1;stroke-opacity:0.391521"
     id="path40"
     d="m 618.086,67.926048 c 2.87858,0.506086 5.75805,0.260991 8.58999,-0.373795 2.32722,-0.593794 3.23075,-0.954949 4.15856,-3.242745 0.38447,-1.181973 0.66795,-2.39456 0.88018,-3.618341 0.27097,-1.580458 -1.96414,-1.963666 -2.23511,-0.383209 v 0 c -0.18171,1.074308 -0.43684,2.135444 -0.75756,3.176974 -0.10775,0.294643 -0.23505,0.827036 -0.47504,1.057557 -0.53784,0.516611 -1.41844,0.556813 -2.07268,0.798228 -2.55236,0.586814 -5.14695,0.801803 -7.74351,0.343984 -1.58488,-0.243826 -1.9297,1.997521 -0.34483,2.241347 z" />
  <path
     style="fill:#000000;fill-opacity:1;stroke-opacity:0.391521"
     id="path41"
     d="m 617.18054,44.817692 c -1.07591,2.956109 -2.76064,5.66153 -4.59254,8.203535 -0.76751,0.96185 -1.67849,2.142694 -3.01964,2.178803 -0.12997,-0.06812 -0.0587,-0.02858 -0.21248,-0.121122 -1.49665,-0.575584 -2.31065,1.541004 -0.814,2.116588 v 0 c 0.78768,0.266483 0.38389,0.178198 1.2114,0.264699 2.14339,-0.225055 3.39528,-1.45101 4.67606,-3.11533 1.94714,-2.714984 3.73958,-5.597778 4.88239,-8.752196 0.54799,-1.506976 -1.5832,-2.281952 -2.13119,-0.774977 z" />
  <path
     style="fill:#000000;fill-opacity:1;stroke-opacity:0.391521"
     id="path42"
     d="m 600.79155,39.574923 c 0.0207,1.186513 -0.59167,2.082839 -1.26369,3.006584 -0.70373,0.967328 -0.85084,1.1232 -1.6016,2.046702 -0.25934,0.271758 -0.51868,0.543516 -0.77802,0.815274 -1.10358,1.163352 0.54165,2.724045 1.64522,1.560694 v 0 c 0.29777,-0.315522 0.59553,-0.631043 0.89329,-0.946564 1.54835,-1.909219 3.34732,-3.884337 3.37251,-6.48269 0,-1.603518 -2.26771,-1.603518 -2.26771,0 z" />
  <path
     style="fill:#000000;fill-opacity:1;stroke-opacity:0.391521"
     id="path43"
     d="m 582.00182,28.602252 c 1.50999,1.62801 2.56703,3.614998 3.49519,5.615086 0.82132,1.691801 1.15127,3.479493 1.16464,5.341036 -0.029,0.445394 -0.0916,0.878441 -0.23309,1.30101 -0.45885,1.536467 1.71404,2.185372 2.17289,0.648905 v 0 c 0.18177,-0.647797 0.3172,-1.29333 0.32782,-1.971379 -0.0249,-2.184057 -0.42032,-4.29235 -1.37672,-6.27732 -1.04607,-2.236907 -2.23965,-4.451557 -3.94721,-6.260856 -1.13386,-1.133858 -2.73738,0.46966 -1.60352,1.603518 z" />
  <path
     style="fill:#000000;fill-opacity:1;stroke-opacity:0.391521"
     id="path44"
     d="m 556.32959,33.435299 c 2.28416,1.712983 4.2561,3.766113 5.36455,6.435809 0.17217,0.414679 0.27886,0.853609 0.41828,1.280414 0.22148,1.231095 0.20718,0.684666 0.14995,1.632977 -0.0315,1.603208 2.23575,1.647802 2.26728,0.0446 v 0 c -0.005,-1.519679 0.0658,-0.71807 -0.26741,-2.399272 -0.17971,-0.523848 -0.32184,-1.062137 -0.53913,-1.571544 -1.28116,-3.00343 -3.50592,-5.349115 -6.09307,-7.280764 -1.31366,-0.919558 -2.61411,0.938228 -1.30045,1.857785 z" />
  <path
     style="fill:#000000;fill-opacity:1;stroke-opacity:0.391521"
     id="path45"
     d="m 532.15917,41.766674 c 2.13931,1.926478 3.84249,4.22256 5.15498,6.773105 0.34596,0.853323 0.54653,1.658206 0.26826,2.545103 -0.36611,1.561165 1.84171,2.078919 2.20782,0.517755 v 0 c 0.0657,-0.32924 0.1712,-0.652987 0.19695,-0.98772 0.0841,-1.092741 -0.26761,-2.117927 -0.65885,-3.11706 -1.442,-2.77479 -3.28873,-5.287869 -5.62185,-7.389009 -1.17226,-1.094109 -2.71957,0.563717 -1.54731,1.657826 z" />
  <path
     style="fill:#000000;fill-opacity:1;stroke-opacity:0.391521"
     id="path46"
     d="m 544.88392,37.382249 c 1.4363,1.75821 2.6315,3.694325 3.7833,5.645703 0.65123,1.130914 1.66318,2.298871 1.62498,3.677885 -0.0749,0.18674 -0.009,0.150375 -0.13028,0.18395 -0.76303,1.410338 1.23149,2.489427 1.99452,1.07909 v 0 c 0.38687,-0.848707 0.25188,-0.404917 0.40243,-1.33214 -0.0141,-0.249686 -0.005,-0.501754 -0.0422,-0.749057 -0.22346,-1.486493 -1.13141,-2.763 -1.89661,-4.012575 -1.20121,-2.03439 -2.45095,-4.050183 -3.94609,-5.885099 -0.98447,-1.265741 -2.7745,0.126503 -1.79003,1.392243 z" />
  <path
     style="fill:#000000;fill-opacity:1;stroke-opacity:0.391521"
     id="path47"
     d="m 502.21584,48.711359 c 2.54785,2.07177 4.75803,4.473434 6.83457,7.003841 1.01832,1.238664 2.77006,-0.201461 1.75174,-1.440125 v 0 c -2.16919,-2.634068 -4.47203,-5.14012 -7.12774,-7.300118 -1.22782,-1.03137 -2.68639,0.705032 -1.45857,1.736402 z" />
  <path
     style="fill:#000000;fill-opacity:1;stroke-opacity:0.391521"
     id="path48"
     d="m 520.13701,44.428596 c 2.04986,0.338258 3.80629,1.540379 5.32285,2.900931 1.3894,1.302002 1.96654,3.021479 2.15282,4.867096 -0.0372,0.387613 0.0573,0.814905 -0.20295,1.132642 -0.65196,1.464995 1.41985,2.387012 2.07182,0.922017 v 0 c 0.3215,-0.85649 0.44976,-1.36839 0.38585,-2.297083 -0.27802,-2.467982 -1.05962,-4.578016 -2.90594,-6.324 -1.94193,-1.69523 -3.99722,-3.065532 -6.5988,-3.458066 -1.59556,-0.159556 -1.82121,2.096907 -0.22565,2.256463 z" />
  <path
     style="fill:#000000;fill-opacity:1;stroke-opacity:0.391521"
     id="path49"
     d="m 480.94132,54.378659 c 2.45046,2.425566 4.29842,5.336984 5.74092,8.449266 0.36397,1.004674 0.27194,0.55656 0.37084,1.321349 0.26985,1.580648 2.50523,1.199019 2.23538,-0.381629 v 0 c -0.23609,-1.223696 -0.0645,-0.588342 -0.55007,-1.896151 -1.56266,-3.348488 -3.55251,-6.484169 -6.19355,-9.096353 -1.13386,-1.133858 -2.73737,0.46966 -1.60352,1.603518 z" />
  <path
     style="fill:#000000;fill-opacity:1;stroke-opacity:0.391521"
     id="path50"
     d="m 461.05451,60.396214 c 1.78925,1.087365 3.8924,2.142531 5.2086,3.829576 0.16933,0.217032 0.29297,0.466115 0.43946,0.699172 0.62364,1.198626 0.54315,2.246287 0.22026,3.501563 -0.39148,1.554996 1.80762,2.108631 2.19909,0.553635 v 0 c 0.48446,-1.957174 0.45479,-3.475572 -0.52456,-5.301106 -0.22745,-0.335637 -0.42705,-0.691939 -0.68236,-1.00691 -1.54651,-1.90792 -3.82004,-3.105713 -5.89491,-4.327803 -1.45089,-0.682773 -2.41648,1.369099 -0.96558,2.051873 z" />
  <path
     style="fill:#000000;fill-opacity:1;stroke-opacity:0.391521"
     id="path51"
     d="m 440.66592,58.369045 c 2.4609,2.517204 4.67593,5.279121 6.39416,8.355296 0.5501,1.342671 1.39682,2.881801 0.97968,4.374899 -0.0143,-0.05263 -0.0287,-0.105252 -0.043,-0.157878 -1.04423,1.216897 0.67672,2.693672 1.72095,1.476775 v 0 c 0.17915,-0.278108 0.35829,-0.556217 0.53743,-0.834325 0.0491,-0.255884 0.12262,-0.508268 0.14717,-0.767652 0.17252,-1.822392 -0.64893,-3.585006 -1.36459,-5.20161 -1.85326,-3.288621 -4.20673,-6.261622 -6.86517,-8.940418 -1.19849,-1.065319 -2.70508,0.629593 -1.50659,1.694913 z" />
  <path
     style="fill:#000000;fill-opacity:1;stroke-opacity:0.391521"
     id="path52"
     d="m 418.59003,56.820882 c 0.31769,0.322368 0.66836,0.615266 0.95308,0.967103 1.17848,1.456328 2.47535,3.973194 3.11884,5.747041 0.12732,0.350943 0.201,0.71908 0.3015,1.07862 0.13472,1.149718 0.11993,0.601655 0.0723,1.643195 -0.0428,1.602946 2.22407,1.663531 2.26691,0.06059 v 0 c 0.021,-1.510764 0.0664,-0.732943 -0.16025,-2.331935 -0.13276,-0.449591 -0.23713,-0.908557 -0.39827,-1.348775 -0.7731,-2.112068 -2.16882,-4.716402 -3.58929,-6.443962 -0.32186,-0.391441 -0.71436,-0.719002 -1.07154,-1.078502 -1.20677,-1.055924 -2.70007,0.650707 -1.4933,1.70663 z" />
  <path
     style="fill:#000000;fill-opacity:1;stroke-opacity:0.391521"
     id="path53"
     d="m 396.55362,50.129141 c 0.28757,0.303843 0.60858,0.579219 0.86273,0.911527 1.81068,2.367526 2.96454,6.043561 3.42587,8.951947 0.12089,0.762119 0.14071,1.536865 0.21107,2.305298 -0.0372,0.619352 -0.006,1.246705 -0.11154,1.858058 -0.17941,1.035104 -0.76693,2.177364 -1.57723,2.867769 -0.3543,0.301881 -0.53249,0.310877 -0.93588,0.42035 -1.5082,0.544604 -0.73801,2.677525 0.77019,2.132921 v 0 c 0.30555,-0.122734 0.63022,-0.205795 0.91666,-0.368201 1.73961,-0.986297 2.78739,-3.009433 3.09076,-4.932083 0.11411,-0.723181 0.0697,-1.462597 0.10453,-2.193896 -0.0848,-0.860018 -0.11474,-1.727222 -0.25438,-2.580053 -0.54961,-3.356716 -1.87095,-7.343118 -4.00656,-10.035086 -0.32478,-0.409379 -0.73012,-0.747799 -1.09518,-1.121698 -1.26087,-0.990688 -2.66192,0.792459 -1.40104,1.783147 z" />
  <path
     style="fill:#000000;fill-opacity:1;stroke-opacity:0.391521"
     id="path54"
     d="m 372.98014,46.707069 c 0.19613,0.112886 0.41806,0.189669 0.58839,0.338657 1.33154,1.164694 2.15104,3.751812 2.62486,5.401063 0.26776,0.930713 0.27274,1.865149 0.21063,2.818212 -0.0864,1.60119 2.17806,1.723334 2.26443,0.122144 v 0 c 0.0552,-1.207448 0.0469,-2.396587 -0.29712,-3.57212 -0.71573,-2.446673 -1.60959,-5.141272 -3.72207,-6.762933 -0.28388,-0.21792 -0.63467,-0.330912 -0.952,-0.496368 -1.52123,-0.507077 -2.23835,1.644268 -0.71712,2.151345 z" />
  <path
     style="fill:#000000;fill-opacity:1;stroke-opacity:0.391521"
     id="path55"
     d="m 348.73156,55.434468 c 0.98189,2.86467 1.67333,5.857817 1.856,8.884636 0.10254,1.600235 2.36561,1.455217 2.26307,-0.145018 v 0 c -0.21902,-3.254951 -0.9248,-6.474817 -2.00251,-9.553681 -0.57563,-1.496636 -2.69219,-0.682573 -2.11656,0.814063 z" />
  <path
     style="fill:#000000;fill-opacity:1;stroke-opacity:0.391521"
     id="path56"
     d="m 323.94115,50.738174 c 1.9586,2.446966 4.10818,4.817026 5.65715,7.56234 0.64214,1.138095 0.81928,1.750851 1.25458,2.933346 0.55927,1.502826 2.68459,0.711899 2.12532,-0.790927 v 0 c -0.53007,-1.411039 -0.69374,-1.998165 -1.47085,-3.366382 -1.61607,-2.845317 -3.83511,-5.312554 -5.87463,-7.848712 -1.06796,-1.196124 -2.75954,0.314211 -1.69157,1.510335 z" />
  <path
     style="fill:#000000;fill-opacity:1;stroke-opacity:0.391521"
     id="path57"
     d="m 304.86715,53.850695 c 3.0674,1.775706 5.51471,4.370165 7.81456,7.02394 0.58435,0.891685 2.1012,2.269312 1.9298,3.483372 -0.0626,0.263541 -0.0278,0.121246 -0.10528,0.426646 -0.37181,1.559816 1.8341,2.085637 2.20591,0.525821 v 0 c 0.13821,-0.602077 0.0788,-0.279529 0.16703,-0.969665 -0.0106,-0.223136 0.001,-0.448465 -0.0318,-0.669406 -0.24872,-1.66668 -1.47704,-2.997528 -2.45276,-4.282934 -2.47633,-2.85086 -5.12111,-5.622109 -8.42611,-7.520115 -1.40173,-0.778737 -2.50303,1.203604 -1.1013,1.982341 z" />
  <path
     style="fill:#000000;fill-opacity:1;stroke-opacity:0.391521"
     id="path58"
     d="m 277.96301,50.047818 c 3.41218,1.885821 6.37515,4.488938 9.20434,7.145564 2.03759,1.866886 3.51199,3.63028 4.36798,6.261895 0.13204,0.586421 0.34934,1.21451 0.16381,1.8109 -0.30338,1.574558 1.92339,2.003594 2.22676,0.429036 v 0 c 0.1579,-1.009194 0.081,-1.974178 -0.23819,-2.953951 -0.29102,-0.863856 -0.36891,-1.189656 -0.79953,-2.036029 -1.01584,-1.99663 -2.54768,-3.644819 -4.16924,-5.165671 -3.00792,-2.819612 -6.16116,-5.579855 -9.80562,-7.550738 -1.45593,-0.671968 -2.40624,1.387027 -0.95031,2.058994 z" />
  <path
     style="fill:#000000;fill-opacity:1;stroke-opacity:0.391521"
     id="path59"
     d="m 254.42608,48.932733 c 2.30817,1.061023 3.838,2.532556 5.43059,4.472295 1.59852,1.878077 2.10508,4.249835 2.66589,6.578972 0.50994,1.904647 0.49464,3.342343 -0.16819,5.192013 -0.1817,0.557997 -0.45057,1.052552 -0.80538,1.513289 -0.94291,1.296996 0.89132,2.630465 1.83423,1.333469 v 0 c 0.4621,-0.656758 0.8692,-1.328886 1.11348,-2.103146 0.8014,-2.365774 0.84919,-4.044034 0.23055,-6.466521 -0.64201,-2.665919 -1.29089,-5.349705 -3.12195,-7.491967 -1.78003,-2.144955 -3.60062,-3.881538 -6.16507,-5.056712 -1.43423,-0.717115 -2.44838,1.311193 -1.01415,2.028308 z" />
  <path
     style="fill:#000000;fill-opacity:1;stroke-opacity:0.391521"
     id="path60"
     d="m 239.32365,46.724917 c 1.75638,1.932598 3.49115,3.921869 4.8834,6.140781 0.83,1.322812 0.94039,1.681215 1.56865,3.061771 0.44314,1.079765 0.80879,2.191081 1.05685,3.332112 0.0527,0.242498 0.12678,0.484157 0.13475,0.732191 0.009,0.287476 -0.16778,0.550317 -0.25937,0.822966 -0.25301,0.597911 -0.65423,1.063479 -1.16376,1.451219 -1.24338,1.012563 0.1886,2.770963 1.43198,1.7584 v 0 c 0.83837,-0.70743 1.52153,-1.503019 1.90274,-2.554309 0.21868,-0.773752 0.3543,-1.041271 0.31764,-1.894278 -0.0125,-0.291148 -0.0992,-0.574545 -0.1622,-0.859073 -0.28313,-1.278823 -0.69516,-2.524756 -1.19711,-3.73404 -0.71598,-1.552433 -0.82567,-1.917652 -1.76168,-3.401983 -1.44979,-2.299088 -3.24324,-4.367358 -5.06631,-6.37278 -1.07269,-1.191885 -2.75827,0.325137 -1.68558,1.517023 z" />
  <path
     style="fill:#000000;fill-opacity:1;stroke-opacity:0.391521"
     id="path61"
     d="m 217.03313,48.15048 c 1.82709,1.015819 3.52956,2.261453 5.05574,3.688496 1.16555,1.21396 2.29272,2.472397 3.15296,3.927655 0.51076,0.864035 0.69327,1.34481 1.09147,2.245936 0.64988,1.465171 0.76861,3.014884 0.71201,4.590814 -0.0592,0.359213 0.0305,0.86644 -0.19089,1.193371 -0.0164,0.02415 -0.0579,-0.01902 -0.0865,-0.01326 -0.19744,0.03981 -0.10807,0.129237 -0.19729,-0.0337 -1.56595,0.345063 -1.07796,2.559651 0.48799,2.214588 v 0 c 0.30937,-0.10322 0.63961,-0.157562 0.9281,-0.309659 1.08821,-0.573711 1.29032,-1.878734 1.32496,-2.973518 0.0633,-1.918594 -0.11853,-3.810566 -0.90635,-5.590138 -0.4743,-1.06049 -0.65838,-1.551077 -1.27071,-2.573372 -0.96097,-1.604354 -2.20344,-3.00268 -3.50103,-4.33894 -1.73533,-1.607668 -3.65883,-3.035428 -5.75827,-4.133793 -1.48882,-0.595532 -2.33103,1.50999 -0.8422,2.105522 z" />
  <path
     style="fill:#000000;fill-opacity:1;stroke-opacity:0.391521"
     id="path62"
     d="m 194.01601,45.963828 c 2.68513,1.349375 4.97077,3.330898 7.08408,5.438461 2.0619,1.980207 3.12756,3.882756 3.81101,6.623079 0.10055,0.578408 0.2651,1.10203 0.14097,1.688898 -0.18303,0.865294 -0.98407,1.782449 -1.55463,2.417763 -0.57959,0.368673 -1.0309,1.050019 -1.67695,1.320905 -0.10624,0.04455 -0.23049,0.0023 -0.34559,-0.0024 -0.18497,-0.0076 -0.36954,-0.02315 -0.55431,-0.03472 -1.6035,-0.0076 -1.61425,2.260088 -0.0108,2.267691 v 0 c 0.36344,-0.009 0.73201,0.03455 1.09033,-0.02692 1.33488,-0.229017 2.23245,-1.165701 3.20064,-2.027476 1.73555,-2.006674 2.52346,-3.436718 1.90802,-6.162757 -0.8226,-3.181551 -2.02506,-5.357168 -4.40972,-7.672011 -2.35058,-2.33127 -4.89422,-4.529129 -7.90812,-5.961643 -1.50698,-0.547992 -2.28195,1.583194 -0.77498,2.131185 z" />
  <path
     style="fill:#000000;fill-opacity:1;stroke-opacity:0.391521"
     id="path63"
     d="m 160.1551,52.182693 c 2.25639,1.492032 4.34941,3.238764 6.12908,5.281725 0.85022,0.976009 1.13247,1.439307 1.84753,2.471069 0.81507,1.404924 1.07388,2.523097 0.1577,3.89891 -0.002,-0.09795 -0.005,-0.195906 -0.007,-0.293859 -1.53078,0.477476 -0.85553,2.642325 0.67525,2.164849 v 0 c 0.42287,-0.230569 0.84574,-0.461138 1.26861,-0.691707 1.39409,-2.403513 1.10895,-3.972793 -0.23314,-6.373274 -0.80695,-1.155886 -1.09809,-1.635305 -2.05824,-2.73076 -1.89376,-2.16063 -4.11126,-4.015405 -6.50241,-5.600602 -1.32487,-0.903321 -2.60236,0.970328 -1.27749,1.873649 z" />
  <path
     style="fill:#000000;fill-opacity:1;stroke-opacity:0.391521"
     id="path64"
     d="m 138.09337,54.67491 c 2.78823,2.240934 4.92581,5.018219 6.55977,8.182372 0.45108,1.109764 1.01635,2.266794 0.94176,3.492722 -0.0106,1.603483 2.25703,1.618533 2.26767,0.01505 v 0 c -0.006,-0.304741 0.0185,-0.61164 -0.0182,-0.914222 -0.15444,-1.272878 -0.68489,-2.474217 -1.17954,-3.640235 -0.25948,-0.495448 -0.49626,-1.003465 -0.77845,-1.486344 -1.68901,-2.890278 -3.94203,-5.469382 -6.55715,-7.550695 -1.34446,-0.873899 -2.58034,1.027454 -1.23588,1.901352 z" />
  <path
     style="fill:#000000;fill-opacity:1;stroke-opacity:0.391521"
     id="path65"
     d="m 124.14085,59.912017 c 2.80571,1.307873 5.4132,3.005753 7.78057,4.992832 1.09656,1.010151 1.96651,2.227698 2.83684,3.429364 0.43545,0.601236 1.01693,1.274007 1.16897,2.021793 -0.0356,-0.03145 -0.0713,-0.0629 -0.10693,-0.09435 -0.26926,1.580749 1.96626,1.961537 2.23552,0.380788 v 0 c 0.0131,-0.317408 0.0261,-0.634816 0.0392,-0.952223 -0.0988,-0.283254 -0.16711,-0.579118 -0.29656,-0.84976 -0.21935,-0.458592 -0.96277,-1.503722 -1.22455,-1.864922 -0.33538,-0.462739 -1.61564,-2.15827 -1.93005,-2.516083 -0.39859,-0.453616 -0.84509,-0.862785 -1.26763,-1.294177 -2.60252,-2.169256 -5.4602,-4.051774 -8.56847,-5.420699 -1.53261,-0.471572 -2.19951,1.695864 -0.6669,2.167436 z" />
  <path
     style="fill:#000000;fill-opacity:1;stroke-opacity:0.391521"
     id="path66"
     d="m 114.8746,72.121863 c 2.84982,2.56689 5.15362,5.643837 7.28002,8.815789 1.00909,1.453867 1.68148,3.078373 2.13923,4.78043 0.13116,0.487678 0.39459,1.693346 0.37243,2.273199 -0.006,0.151239 -0.0995,0.285876 -0.14925,0.428814 -0.3365,1.567812 1.88072,2.043702 2.21722,0.47589 v 0 c 0.0625,-0.38004 0.17902,-0.755069 0.1875,-1.14012 0.0152,-0.688843 -0.30193,-2.126226 -0.46708,-2.725837 -0.52423,-1.903259 -1.29589,-3.72427 -2.41722,-5.356297 -2.21197,-3.290845 -4.60344,-6.486586 -7.55933,-9.155385 -1.13386,-1.133859 -2.73738,0.469659 -1.60352,1.603517 z" />
  <path
     style="fill:#000000;fill-opacity:1;stroke-opacity:0.391521"
     id="path67"
     d="m 105.70065,81.403816 c 2.51286,2.038035 4.77813,4.421978 6.44838,7.20146 0.1075,0.232327 0.5608,1.100415 0.57242,1.462337 0.002,0.07654 -0.13953,-0.08913 -0.16282,-0.162079 -0.033,-0.103312 0.005,-0.216849 0.007,-0.325274 -1.36446,0.842328 -0.17323,2.771967 1.19123,1.929638 v 0 c 0.32061,-0.304866 0.75325,-0.524437 0.96184,-0.914598 0.57943,-1.083818 -0.2041,-2.233114 -0.63123,-3.166541 -0.25087,-0.409965 -0.48174,-0.832868 -0.75262,-1.229895 -1.72324,-2.525664 -3.95477,-4.702535 -6.30667,-6.633439 -1.29994,-0.938844 -2.62767,0.899546 -1.32773,1.838391 z" />
  <path
     style="fill:#000000;fill-opacity:1;stroke-opacity:0.391521"
     id="path68"
     d="m 84.240588,86.911756 c 1.884731,1.176492 3.637108,2.583645 5.067437,4.293518 0.211123,0.252384 1.447886,1.965941 1.668156,2.269511 0.818111,1.211532 1.574691,2.566416 1.657855,4.058162 -0.0052,0.107857 -0.0103,0.215715 -0.01545,0.323572 -0.04222,1.602962 2.224706,1.662677 2.26693,0.05971 v 0 c 0.0027,-0.191388 0.0055,-0.382777 0.0082,-0.574165 -0.190982,-1.905334 -0.971962,-3.645751 -2.082222,-5.199277 -0.388176,-0.534735 -1.470325,-2.040939 -1.843446,-2.482478 -1.57576,-1.864699 -3.495703,-3.405288 -5.560719,-4.693109 -1.375005,-0.825003 -2.541735,1.119548 -1.16673,1.944551 z" />
  <path
     style="fill:#000000;fill-opacity:1;stroke-opacity:0.391521"
     id="path69"
     d="m 76.859445,108.10234 c 2.14559,1.5687 4.404536,2.97127 6.551183,4.53988 1.190377,0.86256 2.221001,1.91722 3.238218,2.9717 0.451713,0.46825 1.10996,1.02005 1.234966,1.69513 0.547147,1.50729 2.678766,0.7335 2.131619,-0.77378 v 0 c -0.125932,-0.29785 -0.215047,-0.61412 -0.377796,-0.89356 -0.279028,-0.4791 -1.023708,-1.25674 -1.384001,-1.63004 -1.099098,-1.13878 -2.221246,-2.26884 -3.506035,-3.20113 -2.121303,-1.54674 -4.343882,-2.94272 -6.471522,-4.47899 -1.252137,-1.00171 -2.668769,0.76908 -1.416632,1.77079 z" />
  <path
     style="fill:#000000;fill-opacity:1;stroke-opacity:0.391521"
     id="path70"
     d="m 55.580554,113.71398 c 1.594153,0.70622 2.937818,1.82272 3.972602,3.22476 0.313397,0.42462 0.580659,0.88144 0.870988,1.32216 1.100908,1.8907 1.902431,3.94151 2.208922,6.11046 0.06232,0.86915 -0.169813,1.67792 -0.453017,2.48563 -0.168994,0.33878 -0.0732,0.37912 -0.241999,0.19667 -1.294428,0.94643 0.04402,2.77703 1.338451,1.8306 v 0 c 0.943032,-0.8883 0.649528,-0.42278 1.044196,-1.27882 0.402852,-1.1551 0.678911,-2.32575 0.556406,-3.56094 -0.372795,-2.49939 -1.26942,-4.86817 -2.565229,-7.04019 -0.342935,-0.51061 -0.657562,-1.04142 -1.028805,-1.53184 -1.262719,-1.66807 -2.895697,-2.99659 -4.809218,-3.84285 -1.473865,-0.63165 -2.367163,1.45271 -0.893297,2.08436 z" />
  <path
     style="fill:#000000;fill-opacity:1;stroke-opacity:0.391521"
     id="path71"
     d="m 43.450916,137.81116 c 0.995653,-0.56686 2.149491,-1.15253 3.314842,-1.24268 0.251549,-0.0195 0.504055,0.0235 0.756082,0.0352 1.456564,0.24925 2.182858,0.97011 2.736835,2.28218 0.129645,0.66665 0.17691,0.23855 -0.08055,0.49576 -0.09488,0.0948 -0.167315,0.20964 -0.250973,0.31446 -0.834025,1.36955 1.102813,2.54904 1.936838,1.17949 v 0 c 0.584077,-1.07025 0.9287,-1.68128 0.464455,-2.9163 -1.023229,-2.2061 -2.317691,-3.27072 -4.779421,-3.62314 -0.413669,0.004 -0.829574,-0.0318 -1.241008,0.0113 -1.514739,0.15872 -3.006363,0.89641 -4.273735,1.69293 -1.252137,1.00171 0.164494,2.77249 1.416631,1.77079 z" />
  <path
     style="fill:#000000;fill-opacity:1;stroke-opacity:0.391521"
     id="path72"
     d="m 41.085095,155.83089 c 0.225436,0 0.452152,-0.024 0.676308,0 0.471779,0.0505 1.377047,0.3061 1.79557,0.42393 0.99779,0.2809 1.968195,0.59744 2.933168,0.97471 0.876953,0.45471 1.872894,0.79861 2.632045,1.4528 0.03781,0.0326 0.57813,0.60105 0.595939,0.61972 0.06418,0.0842 0.128365,0.16837 0.192548,0.25256 0.992865,1.25916 2.773589,-0.14496 1.780724,-1.40412 v 0 c -0.111587,-0.13873 -0.223174,-0.27746 -0.334761,-0.41618 -0.268765,-0.28012 -0.612805,-0.65173 -0.905041,-0.88916 -0.929594,-0.75525 -2.074594,-1.21257 -3.140746,-1.72962 -1.981436,-0.76453 -4.08627,-1.51275 -6.225754,-1.55236 -1.603518,0 -1.603518,2.26772 0,2.26772 z" />
</svg>
