<svg width="599" height="334" viewBox="0 0 599 334" fill="none" xmlns="http://www.w3.org/2000/svg">
<path d="M79 0H48.5H27.5H15.5L6.5 9L0.5 32V42.5V63.5V92V120.5V137V152L15.5 186.5L27.5 226V241C29.5 245.5 36.5 257.2 48.5 268C63.5 281.5 48.5 289 67 313C85.5 337 79 313 97 313H125.5C139 313 164.5 323.5 175 323.5H220C235 323.5 230.5 332.5 262.5 332.5C294.5 332.5 289.5 334 297 332.5C304.5 331 315 329.5 333 323.5C351 317.5 343.5 323.5 385.5 313C419.1 304.6 407.5 309.5 397.5 313H414C421.5 311.5 438.9 306.7 448.5 299.5H470C475 299 486.8 296.2 494 289C503 280 512 292 512 289C512 286 536 284.5 536 278.5C536 273.7 547 269.5 552.5 268L590.5 253.5L599 237C597.5 227.833 590.5 218.6 584.5 209C577 197 584.5 187.5 584.5 180C584.5 172.5 569 159.5 576.5 152C584 144.5 589 122 584.5 108.5C580.9 97.7 564.5 53 552.5 92L539.5 78.5L512 108.5H494C484 106 460.9 99.2 448.5 92C433 83 435 92 423 92H385.5C379.5 92 368 81.5 361 81.5L333 92H273C267.5 90 264.8 58.6 256 55C245 50.5 229.5 60 210 46.5C194.4 35.7 183.5 27.5 185 32H171.5L154.5 14L133.5 9L119 0H97H79Z" fill="#2F408A"/>
</svg>
