<svg width="807" height="929" viewBox="0 0 807 929" fill="none" xmlns="http://www.w3.org/2000/svg">
<path d="M66.2925 124.875L26.5613 125.67C20.3365 135.62 6.849 157.823 2.69716 167.034C-1.45468 176.246 1.24601 184.813 3.11533 187.945L3.89463 226.915C4.23677 244.024 31.5105 284.327 32.803 348.961C36.9324 364.726 21.68 411.599 32.7007 432.678C43.7215 453.757 37.5715 455.402 33.1189 453.589C38.8388 458.546 50.4459 476.824 51.115 510.282C42.2993 527.193 36.2047 517.553 34.2593 510.619L20.8309 837.667L61.8927 903.406C62.3108 924.317 69.9853 929.8 135 928.5C216.268 926.875 178.624 928.957 201.5 928.5C224.376 928.043 222.644 928.837 239.5 928.5C256.356 928.163 267.124 928.957 290 928.5C312.876 928.043 316.042 928.849 333.5 928.5C350.958 928.151 364.513 929.03 391 928.5C417.487 927.97 454 917 454 917C454 917 490.662 915.809 494.5 917C508.986 918.612 527.346 921.957 547 917C571.567 910.804 596 917 596 917L623.5 917L665 917L707.5 910C722.5 871.68 793.956 818.976 804.125 797.473C816.837 770.595 765.498 600.642 780.206 583.232C794.913 565.822 739.365 508.413 773.812 424.047C773.109 388.879 795.378 435.561 778.256 332.258C765.222 252.646 796.338 312.812 794.171 294.788C792.004 276.765 791.472 250.151 748.947 111.224C729.525 73.5772 736.787 75.3337 706.155 49.3218L673.648 49.9719L654.986 50.3451C646.233 54.3236 621.275 69.0858 591.467 96.3063C576.835 117.518 559.267 85.0145 521.342 85.7729C483.417 86.5313 485.811 63.7344 387.687 65.6966C321.468 67.0208 365.753 20.0399 273.047 21.8938C220.072 22.9531 233.222 29.8633 210.346 30.3208C187.471 30.7782 169.962 35.8045 131.675 18.5035C101.046 4.6628 44.4366 -22.5466 73.9933 37.7457L84.593 106.442L66.2925 124.875Z" fill="#2F408A"/>
</svg>
